<svg width="24" height="24" viewBox="0 0 24 24" fill="none" xmlns="http://www.w3.org/2000/svg">
<g opacity="0.5">
<path d="M12.2004 12.8002C15.4036 12.8002 18.0004 10.2034 18.0004 7.00022C18.0004 3.79699 15.4036 1.2002 12.2004 1.2002C8.99711 1.2002 6.40038 3.79696 6.40038 7.00018C6.40038 10.2034 8.99711 12.8002 12.2004 12.8002ZM22.0004 20.0002V20.7121C22.0004 20.9954 21.7917 21.3247 21.5329 21.44C20.5295 21.8864 17.7927 22.8002 12.2004 22.8002C6.60798 22.8002 3.87124 21.8864 2.8679 21.44C2.60901 21.3247 2.40039 20.9954 2.40039 20.7121V20.0002C2.40039 17.1352 4.58171 14.7585 7.36507 14.4402C7.44964 14.4305 7.57504 14.4667 7.644 14.5166C8.92733 15.4457 10.4985 16.0002 12.2004 16.0002C13.9023 16.0002 15.4735 15.4457 16.7567 14.5166C16.8257 14.4667 16.9511 14.4305 17.0357 14.4402C19.819 14.7585 22.0004 17.1352 22.0004 20.0002Z" fill="white"/>
</g>
</svg>
