<svg width="90" height="90" viewBox="0 0 90 90" fill="none" xmlns="http://www.w3.org/2000/svg">
<path d="M45 0C20.0455 0 0 20.0455 0 45C0 69.9545 20.0455 90 45 90C69.9545 90 90 69.9545 90 45C89.5909 20.0455 69.5455 0 45 0ZM49.0909 52.3636C50.3182 53.5909 51.1364 54.8182 51.1364 56.8636C51.1364 60.1364 48.2727 63 45 63C43.3636 63 41.7273 62.1818 40.5 60.9545C38.4545 59.3182 36 58.0909 32.7273 58.0909C29.4545 58.0909 27 59.3182 24.9545 60.9545L24.5455 61.3636C23.3182 62.1818 22.0909 63 20.4545 63C18.8182 63 17.5909 62.5909 16.3636 61.3636C15.9545 60.9545 15.9545 60.9545 15.5455 60.5455C15.5455 60.5455 15.5455 60.5455 15.5455 60.1364L15.1364 59.7273C15.1364 59.3182 14.7273 58.9091 14.7273 58.5C14.7273 58.0909 14.3182 57.2727 14.3182 56.8636C14.3182 56.0455 14.3182 55.6364 14.7273 55.2273C14.7273 54.8182 15.1364 54.4091 15.1364 54C15.1364 54 15.1364 53.5909 15.5455 53.5909C15.5455 53.5909 15.5455 53.5909 15.5455 53.1818C16.3636 53.1818 16.3636 53.1818 16.3636 52.7727L16.7727 52.3636C18.4091 50.3182 19.6364 47.8636 19.6364 45C19.6364 42.1364 18.8182 39.6818 16.7727 37.6364C15.9545 36.4091 15.1364 34.7727 15.1364 32.7273C15.1364 29.4545 18 26.5909 21.2727 26.5909C24.5455 26.5909 27 29.4545 27 32.7273C27 34.3636 26.1818 36 24.9545 37.2273C23.3182 39.2727 22.0909 42.1364 22.0909 45C22.0909 47.8636 23.3182 50.7273 24.9545 52.7727L25.3636 53.1818C27.4091 54.8182 29.8636 56.0455 32.7273 56.0455C35.5909 56.0455 38.0455 55.2273 40.0909 53.1818C40.0909 52.7727 40.5 52.7727 40.9091 52.3636C42.5455 50.3182 43.7727 47.8636 43.7727 45C43.7727 42.1364 42.9545 39.6818 40.9091 37.6364C39.6818 36.4091 38.8636 34.7727 38.8636 32.7273C38.8636 29.4545 41.7273 26.5909 45 26.5909C48.2727 26.5909 51.1364 29.4545 51.1364 32.7273C51.1364 34.3636 50.3182 36 49.0909 37.2273C47.4545 39.2727 46.2273 41.7273 46.2273 45C46.2273 47.8636 47.0455 50.3182 49.0909 52.3636ZM56.8636 50.7273C53.5909 50.7273 50.7273 47.8636 50.7273 44.5909C50.7273 41.3182 53.5909 38.4545 56.8636 38.4545C60.1364 38.4545 63 41.3182 63 44.5909C63 48.2727 60.1364 50.7273 56.8636 50.7273ZM72.8182 52.3636C73.2273 52.7727 73.2273 52.7727 72.8182 52.3636C73.2273 53.1818 73.6364 53.1818 73.6364 53.1818C73.6364 53.1818 73.6364 53.1818 73.6364 53.5909L74.0455 54C74.0455 54.4091 74.4545 54.8182 74.4545 55.2273C74.4545 55.6364 74.8636 56.4545 74.8636 56.8636C74.8636 57.6818 74.8636 58.0909 74.4545 58.5C74.4545 58.9091 74.0455 59.3182 74.0455 59.7273C74.0455 59.7273 74.0455 60.1364 73.6364 60.1364C73.6364 60.1364 73.6364 60.1364 73.6364 60.5455C73.2273 60.9545 73.2273 60.9545 72.8182 61.3636C71.5909 62.1818 70.3636 63 68.7273 63C67.0909 63 65.8636 62.5909 64.6364 61.3636C64.2273 60.9545 64.2273 60.9545 63.8182 60.5455C63.8182 60.5455 63.8182 60.5455 63.8182 60.1364L63.4091 59.7273C63.4091 59.3182 63 58.9091 63 58.5C63 58.0909 62.5909 57.2727 62.5909 56.8636C62.5909 56.0455 62.5909 55.6364 63 55.2273C63 54.8182 63.4091 54.4091 63.4091 54C63.4091 54 63.4091 53.5909 63.8182 53.5909C63.8182 53.5909 63.8182 53.5909 63.8182 53.1818L64.2273 52.7727L64.6364 52.3636C66.2727 50.3182 67.5 47.8636 67.5 45C67.5 42.1364 66.6818 39.6818 64.6364 37.6364C63.4091 36.4091 62.5909 34.7727 62.5909 33.1364C62.5909 29.8636 65.4545 27 68.7273 27C72 27 74.8636 29.8636 74.8636 33.1364C74.8636 34.7727 74.0454 36.4091 72.8182 37.6364C71.1818 39.6818 69.9545 42.1364 69.9545 45.4091C69.9545 47.8636 71.1818 50.3182 72.8182 52.3636Z" fill="#F8E19A"/>
</svg>
