<svg width="91" height="90" viewBox="0 0 91 90" fill="none" xmlns="http://www.w3.org/2000/svg">
<path d="M45.0061 40.7545C56.2602 40.7545 65.3833 31.6313 65.3833 20.3773C65.3833 9.12327 56.2602 0 45.0061 0C33.7521 0 24.6289 9.12327 24.6289 20.3773C24.6289 31.6313 33.7521 40.7545 45.0061 40.7545Z" fill="#88BDF3"/>
<path d="M45.0061 89.9995C56.2602 89.9995 65.3833 80.8763 65.3833 69.6223C65.3833 58.3683 56.2602 49.2451 45.0061 49.2451C33.7521 49.2451 24.6289 58.3683 24.6289 69.6223C24.6289 80.8763 33.7521 89.9995 45.0061 89.9995Z" fill="#3075EE"/>
<path d="M69.6233 65.377C80.8774 65.377 90.0005 56.2539 90.0005 44.9998C90.0005 33.7458 80.8774 24.6226 69.6233 24.6226C58.3692 24.6226 49.2461 33.7458 49.2461 44.9998C49.2461 56.2539 58.3692 65.377 69.6233 65.377Z" fill="#5795F1"/>
<path d="M20.3772 65.377C31.6313 65.377 40.7544 56.2539 40.7544 44.9998C40.7544 33.7458 31.6313 24.6226 20.3772 24.6226C9.12315 24.6226 0 33.7458 0 44.9998C0 56.2539 9.12315 65.377 20.3772 65.377Z" fill="#205FEC"/>
<path fill-rule="evenodd" clip-rule="evenodd" d="M40.1813 40.1813C32.7975 38.3913 26.9855 32.5791 25.1953 25.1953C32.5791 26.9855 38.3913 32.7975 40.1813 40.1813Z" fill="#134BEF"/>
<path fill-rule="evenodd" clip-rule="evenodd" d="M25.1953 64.804C26.9855 57.4202 32.7975 51.6082 40.1813 49.818C38.3913 57.2018 32.5791 63.0138 25.1953 64.804Z" fill="#0932E8"/>
<path fill-rule="evenodd" clip-rule="evenodd" d="M49.8164 49.818C57.2002 51.6082 63.0123 57.4202 64.8024 64.804C57.4186 63.0138 51.6064 57.2018 49.8164 49.818Z" fill="#164BEA"/>
<path fill-rule="evenodd" clip-rule="evenodd" d="M64.8024 25.1953C63.0123 32.5791 57.2002 38.3913 49.8164 40.1813C51.6064 32.7975 57.4186 26.9855 64.8024 25.1953Z" fill="#3170F1"/>
</svg>
