<svg width="90" height="58" viewBox="0 0 90 58" fill="none" xmlns="http://www.w3.org/2000/svg">
<path d="M44.7704 18.3673L30.0765 0H4.82143C1.60714 0.459184 0 2.7551 0 5.28061C0 5.7398 0.229592 6.42857 0.459184 7.11735L27.3214 40.6378L44.7704 18.3673Z" fill="#3251DF"/>
<path d="M44.7723 18.3673L27.0938 40.4081L39.2621 55.5612C40.8693 56.7092 42.706 57.3979 44.7723 57.3979C46.8386 57.3979 48.905 56.4796 50.5121 55.3316L62.4509 40.4081L44.7723 18.3673Z" fill="#3A1F54"/>
<path d="M52.1228 0H30.082L44.7759 18.3673L58.0922 1.83673C56.4851 0.688775 54.4188 0 52.1228 0Z" fill="#B15EE6"/>
<path d="M73.0093 19.7448L61.3001 5.05096C60.1522 3.6734 59.2338 2.52545 58.0859 1.83667L44.7695 18.3673L62.4481 40.6377L74.1573 25.9438C75.3053 22.9591 73.2389 19.9744 73.0093 19.7448Z" fill="#AB0354"/>
<path d="M89.9968 4.82143C89.9968 1.83674 87.2417 0.459184 84.9458 0H63.5938C64.7417 0.229592 65.6601 1.37755 66.3488 2.29592L77.1397 15.8418C77.8284 16.7602 78.5172 17.9082 78.9764 19.5153L89.7672 5.96939C89.9968 5.7398 89.9968 5.28061 89.9968 4.82143Z" fill="#FF505D"/>
</svg>
