<svg width="670" height="530" viewBox="0 0 670 530" fill="none" xmlns="http://www.w3.org/2000/svg">
<g filter="url(#filter0_dd)">
<path d="M609.802 185.204C612.672 183.547 612.672 180.861 609.802 179.204L462.211 93.9998C459.341 92.343 454.688 92.343 451.818 93.9998L304.227 179.204C301.357 180.861 301.357 183.547 304.227 185.204L451.818 270.408C454.688 272.065 459.341 272.065 462.211 270.408L609.802 185.204Z" fill="url(#paint0_linear)"/>
</g>
<path d="M396.19 165.635C402.285 169.154 407.146 169.568 408.141 169.729L412.803 167.038C408.54 166.831 403.839 165.313 400.293 163.266C393.72 159.471 394.198 154.734 399.895 151.445C405.552 148.179 413.838 147.857 420.412 151.652C425.152 154.389 426.427 158.022 426.268 158.39L430.849 155.745C430.411 154.389 428.937 151.882 424.475 149.306C415.711 144.108 403.002 144.315 395.393 148.846C387.545 153.239 387.187 160.575 396.19 165.635ZM422.705 180.942C430.832 185.772 443.461 185.519 451.07 180.988C458.918 176.595 459.356 169.305 450.99 164.613C442.863 159.783 430.274 160.059 422.665 164.59C414.817 168.983 414.339 176.25 422.705 180.942ZM426.808 178.573C420.912 175.169 421.43 170.455 427.127 167.166C432.784 163.9 441.031 163.555 446.927 166.959C452.902 170.409 452.225 175.123 446.568 178.389C440.871 181.678 432.784 182.023 426.808 178.573ZM468.707 194.298C473.528 195.977 478.906 195.908 483.129 193.47C488.467 190.388 487.272 186.294 481.854 183.167L469.942 176.29L442.892 191.906L447.235 194.413L457.712 188.364L463.25 191.561L460.501 202.071L465.919 205.199L468.707 194.298ZM461.696 186.064L470.221 181.143L477.472 185.329C480.42 187.03 481.535 189.238 478.587 190.94C475.679 192.619 471.894 191.952 468.946 190.25L461.696 186.064ZM478.765 207.923L487.091 203.117L499.361 210.2L503.424 207.854L491.154 200.771L497.688 196.999L513.105 205.9L517.169 203.554L497.409 192.147L470.359 207.763L490.358 219.308L494.421 216.962L478.765 207.923Z" fill="white"/>
<defs>
<filter id="filter0_dd" x="270.074" y="76.7571" width="373.879" height="242.893" filterUnits="userSpaceOnUse" color-interpolation-filters="sRGB">
<feFlood flood-opacity="0" result="BackgroundImageFix"/>
<feColorMatrix in="SourceAlpha" type="matrix" values="0 0 0 0 0 0 0 0 0 0 0 0 0 0 0 0 0 0 127 0"/>
<feOffset dy="16"/>
<feGaussianBlur stdDeviation="16"/>
<feColorMatrix type="matrix" values="0 0 0 0 1 0 0 0 0 0.443137 0 0 0 0 0.321569 0 0 0 0.32 0"/>
<feBlend mode="normal" in2="BackgroundImageFix" result="effect1_dropShadow"/>
<feColorMatrix in="SourceAlpha" type="matrix" values="0 0 0 0 0 0 0 0 0 0 0 0 0 0 0 0 0 0 127 0"/>
<feOffset dy="6"/>
<feColorMatrix type="matrix" values="0 0 0 0 0.204167 0 0 0 0 0.0738858 0 0 0 0 0.0450868 0 0 0 1 0"/>
<feBlend mode="normal" in2="effect1_dropShadow" result="effect2_dropShadow"/>
<feBlend mode="normal" in="SourceGraphic" in2="effect2_dropShadow" result="shape"/>
</filter>
<linearGradient id="paint0_linear" x1="536.006" y1="136.602" x2="457.025" y2="273.414" gradientUnits="userSpaceOnUse">
<stop stop-color="#FF8E75"/>
<stop offset="1" stop-color="#9F402B"/>
</linearGradient>
</defs>
</svg>
