<svg width="670" height="530" viewBox="0 0 670 530" fill="none" xmlns="http://www.w3.org/2000/svg">
<g filter="url(#filter0_dd)">
<path d="M444.197 279.527C447.083 277.872 447.091 275.178 444.214 273.517L296.431 188.202C293.568 186.549 288.929 186.545 286.056 188.192L186.054 245.539C183.168 247.194 183.16 249.888 186.037 251.549L333.819 336.863C336.682 338.516 341.322 338.521 344.195 336.873L444.197 279.527Z" fill="url(#paint0_linear)"/>
</g>
<path d="M248.255 232.424L251.115 234.075L256.204 232.827L263.567 237.078L261.405 240.016L264.265 241.667L272.754 228.915L270.345 227.524L248.255 232.424ZM259.424 232.034L268.701 229.877L264.941 235.219L259.424 232.034ZM261.764 245.735L264.196 247.139L270.208 243.668C270.14 244.591 270.636 245.735 272.55 246.84C276.107 248.893 281.376 248.763 284.777 246.801C288.177 244.838 288.424 241.783 284.867 239.729C283.178 238.754 281.106 238.312 279.485 238.312L280.611 237.662L278.179 236.258L261.764 245.735ZM274.756 245.618C272.572 244.357 272.122 242.407 274.644 240.951C277.188 239.482 280.566 239.742 282.75 241.003C284.934 242.264 284.619 244.162 282.412 245.436C280.206 246.71 276.941 246.879 274.756 245.618ZM286.868 255.105C290.268 257.068 292.722 257.107 292.722 257.107L294.906 255.846C294.884 255.833 291.934 255.534 289.075 253.883C286.44 252.363 286.8 250.699 288.331 249.503L297.631 254.871L298.757 254.221C301.572 252.597 302.405 249.854 299.027 247.904C295.424 245.824 290.088 245.811 286.598 247.826C283.243 249.763 282.77 252.74 286.868 255.105ZM290.335 248.476C291.371 248.034 294.186 247.397 296.73 248.866C299.275 250.335 297.901 251.804 297.091 252.376L290.335 248.476ZM309.761 252.567C310.549 253.022 311.765 253.022 312.531 252.58C313.319 252.125 313.319 251.423 312.531 250.968C311.765 250.526 310.549 250.526 309.761 250.981C308.996 251.423 308.996 252.125 309.761 252.567ZM295.35 259.612L297.782 261.016L309.446 254.283L307.014 252.879L295.35 259.612ZM301.457 263.138L303.889 264.542L309.721 261.175C312.243 259.771 315.71 259.823 318.66 261.526L320.664 260.369C318.187 258.939 315.26 258.601 313.301 259.108L315.553 257.808L313.121 256.404L301.457 263.138ZM315.826 271.823C319.361 273.864 324.946 273.916 328.346 271.953C331.746 269.99 331.678 266.753 328.143 264.713C324.608 262.672 319.001 262.633 315.601 264.596C312.201 266.558 312.291 269.782 315.826 271.823ZM318.01 270.562C315.714 269.236 315.759 267.208 317.943 265.948C320.15 264.674 323.662 264.648 325.959 265.974C328.256 267.299 328.211 269.327 326.004 270.601C323.82 271.862 320.307 271.888 318.01 270.562ZM325.024 282.593C329.843 285.375 334.549 284.764 337.949 282.801L348.42 276.808L345.988 275.404L344.862 276.054C344.862 275.118 344.096 273.922 342.407 272.947C338.85 270.893 333.558 271.036 330.158 272.999C326.758 274.962 326.533 278.004 330.091 280.058C331.959 281.137 333.918 281.436 335.472 281.423L335.202 281.579C332.477 283.152 329.73 282.814 327.096 281.293C324.236 279.642 323.741 277.952 323.741 277.952L321.557 279.213C321.557 279.213 321.624 280.63 325.024 282.593ZM332.432 278.914C330.248 277.653 330.406 275.664 332.612 274.39C334.819 273.116 338.242 273.038 340.426 274.299C342.588 275.547 342.835 277.38 340.313 278.836C337.769 280.305 334.594 280.162 332.432 278.914ZM344.896 288.605C348.431 290.646 354.016 290.698 357.416 288.735C360.816 286.772 360.748 283.536 357.213 281.495C353.678 279.454 348.071 279.415 344.671 281.378C341.271 283.341 341.361 286.564 344.896 288.605ZM347.08 287.344C344.784 286.018 344.829 283.991 347.013 282.73C349.22 281.456 352.732 281.43 355.029 282.756C357.326 284.082 357.281 286.109 355.074 287.383C352.89 288.644 349.377 288.67 347.08 287.344ZM372.513 290.301C369.676 288.664 367.087 289.248 367.087 289.248L368.528 288.417L366.096 287.013L354.454 293.733L356.886 295.137L363.439 291.354C365.623 290.093 368.303 290.366 369.991 291.341C371.59 292.264 371.545 293.46 369.676 294.539L362.763 298.53L365.195 299.934L372.356 295.8C375.553 293.954 375.125 291.809 372.513 290.301Z" fill="white"/>
<defs>
<filter id="filter0_dd" x="151.885" y="170.959" width="326.482" height="215.147" filterUnits="userSpaceOnUse" color-interpolation-filters="sRGB">
<feFlood flood-opacity="0" result="BackgroundImageFix"/>
<feColorMatrix in="SourceAlpha" type="matrix" values="0 0 0 0 0 0 0 0 0 0 0 0 0 0 0 0 0 0 127 0"/>
<feOffset dy="16"/>
<feGaussianBlur stdDeviation="16"/>
<feColorMatrix type="matrix" values="0 0 0 0 0.541176 0 0 0 0 0.533333 0 0 0 0 1 0 0 0 0.32 0"/>
<feBlend mode="normal" in2="BackgroundImageFix" result="effect1_dropShadow"/>
<feColorMatrix in="SourceAlpha" type="matrix" values="0 0 0 0 0 0 0 0 0 0 0 0 0 0 0 0 0 0 127 0"/>
<feOffset dy="6"/>
<feColorMatrix type="matrix" values="0 0 0 0 0.0784314 0 0 0 0 0.0745098 0 0 0 0 0.239216 0 0 0 1 0"/>
<feBlend mode="normal" in2="effect1_dropShadow" result="effect2_dropShadow"/>
<feBlend mode="normal" in="SourceGraphic" in2="effect2_dropShadow" result="shape"/>
</filter>
<linearGradient id="paint0_linear" x1="370.338" y1="230.869" x2="290.888" y2="368.493" gradientUnits="userSpaceOnUse">
<stop stop-color="#8A88FF"/>
<stop offset="1" stop-color="#0500FF"/>
</linearGradient>
</defs>
</svg>
