<svg width="670" height="530" viewBox="0 0 670 530" fill="none" xmlns="http://www.w3.org/2000/svg">
<g filter="url(#filter0_dd)">
<path d="M259.447 295.49C262.334 293.834 262.342 291.14 259.465 289.479L190.745 249.808C187.883 248.155 183.244 248.15 180.371 249.797L138.233 273.953C135.346 275.608 135.338 278.302 138.215 279.963L206.935 319.635C209.797 321.288 214.436 321.292 217.309 319.646L259.447 295.49Z" fill="url(#paint0_linear)"/>
</g>
<path d="M169.538 275.547L171.737 276.817L183.377 273.057L176.882 279.787L179.064 281.047L194.48 276.367L192.332 275.127L180.346 279.047L187.118 272.117L185.005 270.897L173.019 274.817L179.791 267.887L177.644 266.648L169.538 275.547ZM187.337 286.122C188.792 286.962 190.316 287.182 191.511 287.172L190.576 287.692L192.464 288.782L201.419 283.613L199.565 282.543L198.699 283.043C198.699 282.323 198.11 281.403 196.811 280.653C194.074 279.073 190.004 279.183 187.389 280.693C184.773 282.203 184.6 284.542 187.337 286.122ZM189.138 285.242C187.458 284.272 187.579 282.743 189.277 281.763C190.974 280.783 193.607 280.723 195.287 281.693C196.95 282.653 197.14 284.062 195.2 285.182C193.243 286.312 190.801 286.202 189.138 285.242ZM196.948 291.671C199.459 293.121 201.832 292.931 203.2 292.141C204.551 291.361 204.465 290.631 203.963 289.541C203.322 288.131 203.027 287.741 203.599 287.411C204.066 287.141 204.811 287.191 205.816 287.771C206.717 288.291 207.132 288.971 207.15 289.421L208.986 288.361C208.812 287.961 208.345 287.311 207.253 286.681C205.625 285.741 203.322 285.531 201.797 286.411C200.308 287.271 200.81 288.221 201.33 289.281C201.797 290.231 202.005 290.811 201.347 291.191C200.758 291.531 199.788 291.391 198.593 290.701C197.138 289.861 196.982 288.591 196.982 288.591L195.146 289.651C195.146 289.651 195.423 290.791 196.948 291.671ZM222.401 295.406C220.704 294.426 219.075 294.286 217.88 294.496C218.279 293.606 217.794 292.746 216.529 292.016C214.728 290.976 213.013 291.266 212.667 291.346L213.741 290.726L211.87 289.646L202.915 294.816L204.786 295.896L210.172 292.786C211.766 292.026 213.55 292.216 214.589 292.816C215.819 293.526 215.525 294.296 214.087 295.126L208.769 298.196L210.64 299.275L215.68 296.366C217.361 295.396 219.335 295.556 220.461 296.206C221.691 296.916 221.396 297.686 219.959 298.516L214.641 301.585L216.512 302.665L222.02 299.485C224.48 298.066 224.41 296.566 222.401 295.406Z" fill="white"/>
<defs>
<filter id="filter0_dd" x="104.062" y="232.565" width="189.555" height="136.313" filterUnits="userSpaceOnUse" color-interpolation-filters="sRGB">
<feFlood flood-opacity="0" result="BackgroundImageFix"/>
<feColorMatrix in="SourceAlpha" type="matrix" values="0 0 0 0 0 0 0 0 0 0 0 0 0 0 0 0 0 0 127 0"/>
<feOffset dy="16"/>
<feGaussianBlur stdDeviation="16"/>
<feColorMatrix type="matrix" values="0 0 0 0 0.541176 0 0 0 0 0.533333 0 0 0 0 1 0 0 0 0.32 0"/>
<feBlend mode="normal" in2="BackgroundImageFix" result="effect1_dropShadow"/>
<feColorMatrix in="SourceAlpha" type="matrix" values="0 0 0 0 0 0 0 0 0 0 0 0 0 0 0 0 0 0 127 0"/>
<feOffset dy="6"/>
<feColorMatrix type="matrix" values="0 0 0 0 0.0784314 0 0 0 0 0.0745098 0 0 0 0 0.239216 0 0 0 1 0"/>
<feBlend mode="normal" in2="effect1_dropShadow" result="effect2_dropShadow"/>
<feBlend mode="normal" in="SourceGraphic" in2="effect2_dropShadow" result="shape"/>
</filter>
<linearGradient id="paint0_linear" x1="225.123" y1="269.654" x2="187.309" y2="335.155" gradientUnits="userSpaceOnUse">
<stop stop-color="#8A88FF"/>
<stop offset="1" stop-color="#0500FF"/>
</linearGradient>
</defs>
</svg>
