<svg width="670" height="530" viewBox="0 0 670 530" fill="none" xmlns="http://www.w3.org/2000/svg">
<g filter="url(#filter0_dd)">
<path d="M338.325 340.99C341.213 339.335 341.221 336.64 338.344 334.979L265.518 292.936C262.655 291.284 258.017 291.279 255.144 292.925L213.251 316.931C210.363 318.586 210.355 321.281 213.232 322.942L286.058 364.985C288.921 366.637 293.559 366.642 296.432 364.996L338.325 340.99Z" fill="url(#paint0_linear)"/>
</g>
<path d="M242.119 315.419L251.126 320.618L252.893 319.598L245.757 315.479L255.751 309.709L253.88 308.629L242.119 315.419ZM264.471 316.503C265.077 316.853 266.012 316.853 266.601 316.513C267.208 316.163 267.208 315.623 266.601 315.273C266.012 314.933 265.077 314.933 264.471 315.283C263.882 315.623 263.882 316.163 264.471 316.503ZM253.385 321.923L255.256 323.003L264.228 317.823L262.358 316.743L253.385 321.923ZM262.708 327.604C265.444 329.184 269.497 329.084 272.113 327.574C274.728 326.064 274.919 323.715 272.182 322.135C270.883 321.385 269.29 321.045 268.042 321.045L272.026 318.745L269.861 317.855L258.1 324.644L259.988 325.734L260.889 325.194C260.872 325.884 261.253 326.764 262.708 327.604ZM264.232 326.564C262.569 325.604 262.379 324.194 264.336 323.065C266.276 321.945 268.718 322.055 270.381 323.015C272.061 323.985 272.009 325.534 270.312 326.514C268.614 327.494 265.912 327.534 264.232 326.564ZM266.048 333.473L267.919 334.553L272.544 331.883C272.492 332.593 272.873 333.473 274.345 334.323C277.082 335.902 281.135 335.802 283.75 334.293C286.366 332.783 286.556 330.433 283.82 328.853C282.521 328.103 280.927 327.763 279.68 327.763L280.546 327.263L278.675 326.183L266.048 333.473ZM276.043 333.383C274.362 332.413 274.016 330.913 275.956 329.793C277.913 328.663 280.511 328.863 282.191 329.833C283.872 330.803 283.629 332.263 281.932 333.243C280.234 334.223 277.723 334.353 276.043 333.383ZM281.171 337.963L288.22 342.033L289.883 341.073L285.362 338.463L293.261 338.063C294.508 338.043 295.738 337.753 296.69 337.203C298.717 336.033 298.665 334.083 296.552 332.863C294.439 331.643 291.061 331.613 289.034 332.783C287.112 333.893 287.06 335.663 288.809 336.893L280.166 337.363L281.205 337.963L281.171 337.963ZM290.957 336.093C289.866 335.463 289.9 334.503 290.957 333.893C292.014 333.283 293.676 333.263 294.768 333.893C295.859 334.523 295.824 335.483 294.768 336.093C293.711 336.703 292.048 336.723 290.957 336.093ZM287.192 345.679L289.063 346.759L293.687 344.089C293.635 344.799 294.016 345.679 295.489 346.529C298.225 348.109 302.279 348.009 304.894 346.499C307.509 344.989 307.7 342.639 304.963 341.059C303.664 340.309 302.071 339.969 300.824 339.969L301.69 339.469L299.819 338.389L287.192 345.679ZM297.186 345.589C295.506 344.619 295.16 343.119 297.1 341.999C299.057 340.869 301.655 341.069 303.335 342.039C305.015 343.009 304.773 344.469 303.075 345.449C301.378 346.429 298.866 346.559 297.186 345.589Z" fill="white"/>
<defs>
<filter id="filter0_dd" x="179.08" y="275.694" width="193.417" height="138.533" filterUnits="userSpaceOnUse" color-interpolation-filters="sRGB">
<feFlood flood-opacity="0" result="BackgroundImageFix"/>
<feColorMatrix in="SourceAlpha" type="matrix" values="0 0 0 0 0 0 0 0 0 0 0 0 0 0 0 0 0 0 127 0"/>
<feOffset dy="16"/>
<feGaussianBlur stdDeviation="16"/>
<feColorMatrix type="matrix" values="0 0 0 0 0.541176 0 0 0 0 0.533333 0 0 0 0 1 0 0 0 0.32 0"/>
<feBlend mode="normal" in2="BackgroundImageFix" result="effect1_dropShadow"/>
<feColorMatrix in="SourceAlpha" type="matrix" values="0 0 0 0 0 0 0 0 0 0 0 0 0 0 0 0 0 0 127 0"/>
<feOffset dy="6"/>
<feColorMatrix type="matrix" values="0 0 0 0 0.0784314 0 0 0 0 0.0745098 0 0 0 0 0.239216 0 0 0 1 0"/>
<feBlend mode="normal" in2="effect1_dropShadow" result="effect2_dropShadow"/>
<feBlend mode="normal" in="SourceGraphic" in2="effect2_dropShadow" result="shape"/>
</filter>
<linearGradient id="paint0_linear" x1="301.949" y1="313.969" x2="264.318" y2="379.154" gradientUnits="userSpaceOnUse">
<stop stop-color="#8A88FF"/>
<stop offset="1" stop-color="#0500FF"/>
</linearGradient>
</defs>
</svg>
