<svg width="670" height="530" viewBox="0 0 670 530" fill="none" xmlns="http://www.w3.org/2000/svg">
<g filter="url(#filter0_dd)">
<path d="M197.144 327.562C200.013 325.905 200.013 323.219 197.144 321.562L133.81 285C130.94 283.343 126.288 283.343 123.418 285L60.1965 321.498C57.3267 323.154 57.3267 325.84 60.1965 327.497L123.53 364.059C126.4 365.716 131.053 365.716 133.922 364.059L197.144 327.562Z" fill="url(#paint0_linear)"/>
</g>
<path d="M115.95 319.263C118.046 319.993 120.385 319.963 122.221 318.903C124.542 317.563 124.022 315.783 121.666 314.424L116.487 311.434L104.727 318.223L106.614 319.313L111.17 316.683L113.577 318.073L112.382 322.643L114.738 324.003L115.95 319.263ZM112.902 315.683L116.609 313.544L119.761 315.364C121.043 316.103 121.528 317.063 120.246 317.803C118.982 318.533 117.336 318.243 116.054 317.503L112.902 315.683ZM120.115 327.427C121.241 328.077 124.272 329.727 128.083 327.527L133.418 324.447L131.547 323.368L126.16 326.477C126.16 326.477 124.064 327.807 121.761 326.477C119.457 325.147 121.761 323.937 121.761 323.937L127.148 320.828L125.277 319.748L119.942 322.828C116.132 325.027 118.989 326.777 120.115 327.427ZM128.765 332.4C131.276 333.85 133.649 333.66 135.017 332.87C136.368 332.09 136.282 331.361 135.779 330.271C135.139 328.861 134.844 328.471 135.416 328.141C135.883 327.871 136.628 327.921 137.633 328.501C138.534 329.021 138.949 329.701 138.967 330.151L140.803 329.091C140.629 328.691 140.162 328.041 139.07 327.411C137.442 326.471 135.139 326.261 133.614 327.141C132.125 328.001 132.627 328.951 133.147 330.011C133.614 330.961 133.822 331.541 133.164 331.92C132.575 332.26 131.605 332.12 130.41 331.431C128.955 330.591 128.799 329.321 128.799 329.321L126.963 330.381C126.963 330.381 127.24 331.521 128.765 332.4ZM136.251 336.423L138.122 337.503L145.795 333.073L148.861 334.843L150.385 333.963L147.32 332.193L150.177 330.543L140.478 330.003L143.925 331.993L136.251 336.423Z" fill="white"/>
<defs>
<filter id="filter0_dd" x="26.0449" y="267.757" width="205.252" height="145.545" filterUnits="userSpaceOnUse" color-interpolation-filters="sRGB">
<feFlood flood-opacity="0" result="BackgroundImageFix"/>
<feColorMatrix in="SourceAlpha" type="matrix" values="0 0 0 0 0 0 0 0 0 0 0 0 0 0 0 0 0 0 127 0"/>
<feOffset dy="16"/>
<feGaussianBlur stdDeviation="16"/>
<feColorMatrix type="matrix" values="0 0 0 0 0.541176 0 0 0 0 0.533333 0 0 0 0 1 0 0 0 0.32 0"/>
<feBlend mode="normal" in2="BackgroundImageFix" result="effect1_dropShadow"/>
<feColorMatrix in="SourceAlpha" type="matrix" values="0 0 0 0 0 0 0 0 0 0 0 0 0 0 0 0 0 0 127 0"/>
<feOffset dy="6"/>
<feColorMatrix type="matrix" values="0 0 0 0 0.0784314 0 0 0 0 0.0745098 0 0 0 0 0.239216 0 0 0 1 0"/>
<feBlend mode="normal" in2="effect1_dropShadow" result="effect2_dropShadow"/>
<feBlend mode="normal" in="SourceGraphic" in2="effect2_dropShadow" result="shape"/>
</filter>
<linearGradient id="paint0_linear" x1="165.562" y1="303.33" x2="112.422" y2="395.379" gradientUnits="userSpaceOnUse">
<stop stop-color="#8A88FF"/>
<stop offset="1" stop-color="#0500FF"/>
</linearGradient>
</defs>
</svg>
