<?xml version="1.0" standalone="no"?>
<!DOCTYPE svg PUBLIC "-//W3C//DTD SVG 20010904//EN"
 "http://www.w3.org/TR/2001/REC-SVG-20010904/DTD/svg10.dtd">
<svg version="1.0" xmlns="http://www.w3.org/2000/svg"
 width="481.000000pt" height="481.000000pt" viewBox="0 0 481.000000 481.000000"
 preserveAspectRatio="xMidYMid meet">
<metadata>
Created by potrace 1.11, written by Peter Selinger 2001-2013
</metadata>
<g transform="translate(0.000000,481.000000) scale(0.100000,-0.100000)"
fill="#000000" stroke="none">
<path d="M2220 4802 c-132 -11 -292 -38 -445 -76 -79 -20 -249 -79 -325 -113
-403 -181 -730 -440 -978 -774 -60 -82 -98 -141 -233 -365 l-18 -30 91 -55
c50 -29 107 -64 127 -76 20 -12 47 -28 61 -36 14 -7 138 -80 275 -162 313
-187 306 -183 333 -197 27 -14 27 -17 1 -98 -239 -759 218 -1559 991 -1734
111 -25 160 -30 310 -30 366 1 696 139 950 398 43 44 80 74 88 71 11 -4 499
-292 511 -301 5 -4 -22 -40 -88 -114 -90 -101 -157 -163 -281 -263 -39 -32
-172 -119 -235 -154 -225 -126 -471 -205 -745 -239 -138 -17 -436 -6 -559 21
-15 3 -35 7 -46 9 -254 50 -582 195 -767 340 -85 67 -107 85 -148 121 -49 44
-163 163 -195 202 -11 14 -30 37 -43 52 -12 14 -48 65 -80 113 -31 48 -60 88
-64 88 -4 0 -74 -40 -156 -89 -81 -49 -162 -96 -180 -105 -18 -9 -32 -22 -32
-28 0 -19 129 -206 206 -299 227 -272 493 -481 806 -633 158 -77 384 -157 513
-182 11 -2 45 -9 75 -15 30 -7 66 -13 80 -14 14 -2 39 -5 55 -8 69 -13 189
-20 325 -20 130 0 177 2 315 19 44 5 141 22 220 38 49 10 145 37 200 56 33 12
67 23 76 25 42 9 289 123 384 177 124 71 312 208 408 297 79 73 163 159 207
210 25 29 50 58 55 65 14 16 86 113 127 171 43 62 178 291 178 302 0 5 -26 23
-57 41 -68 38 -57 32 -362 214 -130 77 -249 148 -266 158 -30 17 -160 92 -454
262 -84 49 -155 87 -156 86 -1 -2 -18 -40 -38 -85 -48 -113 -98 -184 -197
-284 -180 -181 -409 -272 -665 -264 -129 4 -155 8 -255 42 -154 51 -274 126
-384 243 -170 181 -255 398 -250 640 3 121 15 190 55 298 218 597 958 795
1448 387 48 -40 122 -121 154 -167 18 -26 36 -48 41 -48 5 0 42 20 83 45 40
25 76 45 78 45 2 0 44 24 93 53 49 30 97 57 107 60 16 7 15 9 -4 40 -181 286
-475 500 -798 581 -156 39 -208 45 -373 42 -115 -3 -180 -9 -254 -26 -258 -57
-486 -181 -668 -362 l-88 -87 -83 48 c-266 155 -437 259 -437 266 0 9 109 135
175 200 317 316 739 516 1185 563 82 9 384 8 425 -1 11 -3 43 -8 70 -11 83
-11 239 -47 253 -58 6 -6 12 -8 12 -4 0 9 178 -58 281 -106 313 -148 605 -402
796 -693 25 -38 47 -71 48 -73 2 -3 231 129 337 193 l46 29 -68 100 c-371 543
-902 900 -1525 1025 -55 11 -122 23 -150 26 -27 3 -68 9 -90 12 -43 6 -358 10
-415 5z"/>
</g>
</svg>
