<svg width="148" height="43" viewBox="0 0 148 43" fill="none" xmlns="http://www.w3.org/2000/svg">
<g clip-path="url(#clip0)">
<path d="M73.7512 32.5927L71.8282 27.2149H62.6045L60.649 32.5927H55.7275L64.2667 9.77783H70.166L78.7053 32.5927H73.7512ZM64.2016 22.7823H70.1986L67.2001 14.5038L64.2016 22.7823Z" fill="white"/>
<path d="M94.5758 9.77783H99.3017V23.3689C99.3017 26.4761 98.4326 28.8554 96.6943 30.5067C94.9561 32.1581 92.6854 32.9838 89.8825 32.9838C87.0795 32.9838 84.8089 32.1581 83.0706 30.5067C81.3324 28.8554 80.4632 26.4761 80.4632 23.3689V9.77783H85.1891V23.1082C85.1891 26.7368 86.7536 28.5512 89.8825 28.5512C93.0114 28.5512 94.5758 26.7368 94.5758 23.1082V9.77783Z" fill="white"/>
<path d="M117.215 32.5927L111.316 24.3793H108.741V32.5927H104.08V9.77783H113.89C116.324 9.77783 118.225 10.4514 119.594 11.7986C120.985 13.124 121.68 14.9275 121.68 17.2089C121.68 19.0341 121.235 20.5225 120.344 21.6741C119.453 22.8257 118.193 23.608 116.563 24.0208L122.951 32.5927H117.215ZM108.741 14.2104V20.3052H113.369C114.564 20.3052 115.455 20.0445 116.042 19.523C116.65 18.9798 116.954 18.2302 116.954 17.2741C116.954 16.3181 116.65 15.5685 116.042 15.0252C115.433 14.482 114.542 14.2104 113.369 14.2104H108.741Z" fill="white"/>
<path d="M142.756 32.5927L140.833 27.2149H131.609L129.654 32.5927H124.732L133.271 9.77783H139.171L147.71 32.5927H142.756ZM133.206 22.7823H139.203L136.205 14.5038L133.206 22.7823Z" fill="white"/>
<path d="M15.1482 10.4232C17.082 19.0613 10.2656 23.7464 6.6156 25.0093L19.061 32.1009C18.544 24.027 24.534 19.0127 27.5937 17.5148L15.1482 10.4232Z" fill="white"/>
<ellipse rx="8.00454" ry="8.0573" transform="matrix(0.504935 -0.863157 0.868847 0.495081 11.0423 31.6257)" fill="white"/>
<ellipse rx="8.00454" ry="8.05729" transform="matrix(0.504935 -0.863157 0.868847 0.495081 23.1678 10.8984)" fill="white"/>
<ellipse rx="8.00454" ry="8.05729" transform="matrix(-0.504935 -0.863157 -0.868847 0.495081 34.8836 31.6257)" fill="white"/>
</g>
<defs>
<clipPath id="clip0">
<rect width="148" height="43" fill="white"/>
</clipPath>
</defs>
</svg>
