<svg width="166" height="40" viewBox="0 0 166 40" fill="none" xmlns="http://www.w3.org/2000/svg">
<path d="M61.9429 11.9725C64.1829 9.75386 66.9562 8.64453 70.2629 8.64453C73.5696 8.64453 76.3429 9.75386 78.5829 11.9725C80.8229 14.1912 81.9429 16.9432 81.9429 20.2285C81.9429 23.5139 80.8229 26.2659 78.5829 28.4845C76.3429 30.7032 73.5696 31.8125 70.2629 31.8125C66.9562 31.8125 64.1829 30.7032 61.9429 28.4845C59.7242 26.2659 58.6149 23.5139 58.6149 20.2285C58.6149 16.9432 59.7242 14.1912 61.9429 11.9725ZM75.2869 15.0445C73.9642 13.6792 72.2896 12.9965 70.2629 12.9965C68.2362 12.9965 66.5509 13.6792 65.2069 15.0445C63.8842 16.4099 63.2229 18.1379 63.2229 20.2285C63.2229 22.3192 63.8842 24.0472 65.2069 25.4125C66.5509 26.7779 68.2362 27.4605 70.2629 27.4605C72.2896 27.4605 73.9642 26.7779 75.2869 25.4125C76.6309 24.0472 77.3029 22.3192 77.3029 20.2285C77.3029 18.1379 76.6309 16.4099 75.2869 15.0445Z" fill="white"/>
<path d="M98.7209 31.4285L92.9289 23.3645H90.4009V31.4285H85.8249V9.02853H95.4569C97.8462 9.02853 99.7129 9.68986 101.057 11.0125C102.422 12.3139 103.105 14.0845 103.105 16.3245C103.105 18.1165 102.668 19.5779 101.793 20.7085C100.918 21.8392 99.6809 22.6072 98.0809 23.0125L104.353 31.4285H98.7209ZM90.4009 13.3805V19.3645H94.9449C96.1182 19.3645 96.9929 19.1085 97.5689 18.5965C98.1662 18.0632 98.4649 17.3272 98.4649 16.3885C98.4649 15.4499 98.1662 14.7139 97.5689 14.1805C96.9716 13.6472 96.0969 13.3805 94.9449 13.3805H90.4009Z" fill="white"/>
<path d="M107.137 31.4285V9.02853H111.713V31.4285H107.137Z" fill="white"/>
<path d="M125.92 19.2685H138.176V31.4285H134.272V27.6525C133.738 28.8899 132.8 29.8925 131.456 30.6605C130.133 31.4285 128.554 31.8125 126.72 31.8125C123.562 31.8125 120.917 30.7245 118.784 28.5485C116.65 26.3512 115.584 23.5885 115.584 20.2605C115.584 16.9112 116.672 14.1379 118.848 11.9405C121.045 9.7432 123.818 8.64453 127.168 8.64453C129.813 8.64453 132.106 9.36986 134.048 10.8205C136.01 12.2499 137.322 14.1272 137.984 16.4525H133.088C132.554 15.3645 131.765 14.5219 130.72 13.9245C129.696 13.3059 128.501 12.9965 127.136 12.9965C125.066 12.9965 123.392 13.6792 122.112 15.0445C120.832 16.4099 120.192 18.1699 120.192 20.3245C120.192 22.4152 120.8 24.1539 122.016 25.5405C123.253 26.9059 124.938 27.5885 127.072 27.5885C128.629 27.5885 129.984 27.1939 131.136 26.4045C132.288 25.6152 133.056 24.5165 133.44 23.1085H125.92V19.2685Z" fill="white"/>
<path d="M145.255 11.9725C147.495 9.75386 150.269 8.64453 153.575 8.64453C156.882 8.64453 159.655 9.75386 161.895 11.9725C164.135 14.1912 165.255 16.9432 165.255 20.2285C165.255 23.5139 164.135 26.2659 161.895 28.4845C159.655 30.7032 156.882 31.8125 153.575 31.8125C150.269 31.8125 147.495 30.7032 145.255 28.4845C143.037 26.2659 141.927 23.5139 141.927 20.2285C141.927 16.9432 143.037 14.1912 145.255 11.9725ZM158.599 15.0445C157.277 13.6792 155.602 12.9965 153.575 12.9965C151.549 12.9965 149.863 13.6792 148.519 15.0445C147.197 16.4099 146.535 18.1379 146.535 20.2285C146.535 22.3192 147.197 24.0472 148.519 25.4125C149.863 26.7779 151.549 27.4605 153.575 27.4605C155.602 27.4605 157.277 26.7779 158.599 25.4125C159.943 24.0472 160.615 22.3192 160.615 20.2285C160.615 18.1379 159.943 16.4099 158.599 15.0445Z" fill="white"/>
<ellipse cx="24" cy="20" rx="24" ry="20" fill="#9B99FF"/>
<ellipse cx="19.2009" cy="20" rx="16.8" ry="14" fill="#010918"/>
</svg>
