<svg width="120" height="120" viewBox="0 0 120 120" fill="none" xmlns="http://www.w3.org/2000/svg">
<path d="M83.9062 32.3438C82.0746 32.3438 80.2746 32.482 78.5156 32.7466V17.8125C78.5156 16.518 77.4663 15.4688 76.1719 15.4688H8.67188C7.37742 15.4688 6.32812 16.518 6.32812 17.8125V32.3438H2.34375C1.0493 32.3438 0 33.393 0 34.6875V51.5625C0 52.857 1.0493 53.9062 2.34375 53.9062H6.32812V66.0938H2.34375C1.0493 66.0938 0 67.143 0 68.4375V85.3125C0 86.607 1.0493 87.6562 2.34375 87.6562H6.32812V102.188C6.32812 103.482 7.37742 104.531 8.67188 104.531H83.9062C103.808 104.531 120 88.3397 120 68.4375C120 48.5353 103.808 32.3438 83.9062 32.3438ZM31.3184 82.9688V70.7812H47.8905C48.1683 75.0919 49.2054 79.1984 50.8704 82.9688H31.3184ZM18.6621 82.9688V70.7812H26.6309V82.9688H18.6621ZM18.6621 37.0312H26.6309V49.2188H18.6621V37.0312ZM24.9902 53.9062H32.959V66.0938H24.9902V53.9062ZM47.8905 66.0938H37.6465V53.9062H50.8704C49.2056 57.6766 48.1683 61.7831 47.8905 66.0938ZM53.3684 49.2188H31.3184V37.0312H66.1357C60.9431 39.9809 56.5505 44.1806 53.3684 49.2188ZM73.8281 32.3438H37.6465V20.1562H73.8281V32.3438ZM32.959 20.1562V32.3438H24.9902V20.1562H32.959ZM11.0156 20.1562H20.3027V32.3438H11.0156V20.1562ZM4.6875 37.0312H13.9746V49.2188H4.6875V37.0312ZM11.0156 53.9062H20.3027V66.0938H11.0156V53.9062ZM4.6875 70.7812H13.9746V82.9688H4.6875V70.7812ZM11.0156 87.6562H20.3027V99.8438H11.0156V87.6562ZM24.9902 99.8438V87.6562H32.959V99.8438H24.9902ZM37.6465 99.8438V87.6562H53.3684C56.5505 92.6944 60.9431 96.8941 66.1357 99.8438H37.6465ZM83.9062 99.8438C66.5888 99.8438 52.5 85.755 52.5 68.4375C52.5 51.12 66.5888 37.0312 83.9062 37.0312C101.224 37.0312 115.312 51.12 115.312 68.4375C115.312 85.755 101.224 99.8438 83.9062 99.8438Z" fill="white"/>
<path fill-rule="evenodd" clip-rule="evenodd" d="M69.7593 57.3788C71.587 54.9687 73.9813 53.0433 76.7314 51.7722C79.4816 50.5011 82.5032 49.9232 85.5302 50.0895C88.5573 50.2557 91.4968 51.161 94.0901 52.7256C96.6834 54.2902 98.8508 56.4662 100.401 59.0618L101.741 58.3204L103.973 57.0155C101.97 53.6584 99.1262 50.8778 95.7194 48.9466C92.3126 47.0154 88.4604 46 84.5409 46C80.6214 46 76.7692 47.0154 73.3625 48.9466C69.9557 50.8778 67.1114 53.6584 65.1087 57.0155L64 58.7504L65.771 59.7958L72.6241 63.8513C71.5032 66.6603 71.4252 69.7757 72.4041 72.6368C73.383 75.498 75.3546 77.9172 77.9641 79.459C80.5737 81.0008 83.6498 81.5641 86.6389 81.0474C89.6281 80.5308 92.3341 78.9682 94.2701 76.6407L99.263 79.6064C97.4349 82.0186 95.0391 83.9454 92.2869 85.2168C89.5347 86.4882 86.5108 87.0651 83.4819 86.8965C80.453 86.728 77.5123 85.8193 74.9193 84.2505C72.3262 82.6817 70.1606 80.5011 68.6134 77.9011L65.0789 79.9845C67.0816 83.3416 69.9259 86.1222 73.3327 88.0534C76.7395 89.9846 80.5916 91 84.5112 91C88.4307 91 92.2829 89.9846 95.6896 88.0534C99.0964 86.1222 101.941 83.3416 103.943 79.9845L105 78.2199L103.229 77.1745L97.6036 73.8456L92.7521 71.0579C92.1615 72.9312 90.9453 74.5467 89.3057 75.636C87.6661 76.7253 85.7018 77.2227 83.7392 77.0457C81.7765 76.8687 79.9338 76.0279 78.5171 74.663C77.1005 73.298 76.1952 71.4912 75.9518 69.5427C75.7084 67.5942 76.1414 65.6214 77.179 63.952C78.2166 62.2827 79.7963 61.0174 81.6554 60.3664C83.5146 59.7154 85.5414 59.7179 87.399 60.3734C89.2566 61.029 90.8331 62.2981 91.8666 63.97L95.4309 61.9237C94.3838 60.1933 92.9372 58.737 91.2115 57.6758C89.4857 56.6147 87.5307 55.9794 85.5089 55.8227C83.4871 55.6661 81.457 55.9927 79.5874 56.7753C77.7177 57.5579 76.0626 58.7739 74.7597 60.3222L69.7593 57.3788Z" fill="#FF7152"/>
</svg>
