<svg width="120" height="120" viewBox="0 0 120 120" fill="none" xmlns="http://www.w3.org/2000/svg">
<path d="M50.2857 85.7278V82.2783C50.2857 78.0622 51.0952 74.5647 52.7143 71.7859C54.4286 68.9113 56.5238 66.3721 59 64.1682C61.4762 61.9643 63.9524 59.8563 66.4286 57.844C69.8571 55.0652 72.8571 52.2385 75.4286 49.3639C78 46.4893 79.2857 42.8002 79.2857 38.2966C79.2857 32.2599 77.5238 27.7085 74 24.6422C70.5714 21.4801 64.619 19.8991 56.1429 19.8991C51.6667 19.8991 47.4762 20.3782 43.5714 21.3364C39.6667 22.1988 36.1429 23.3965 33 24.9297V18.0306C35.7619 16.4975 39.2857 15.2997 43.5714 14.4373C47.8571 13.4791 52.5238 13 57.5714 13C67.4762 13 74.8571 15.2039 79.7143 19.6116C84.5714 24.0194 87 30.1998 87 38.1529C87 41.7941 86.3333 44.9562 85 47.6391C83.6667 50.3221 81.9048 52.7655 79.7143 54.9694C77.5238 57.0775 75.0476 59.2813 72.2857 61.581C69.3333 63.9766 66.8095 66.1325 64.7143 68.0489C62.619 69.8695 61 71.8818 59.8571 74.0856C58.7143 76.2895 58.1429 79.1641 58.1429 82.7095V85.7278H50.2857Z" fill="white"/>
<path d="M49.8574 100.101V107H58.5717V100.101H49.8574Z" fill="#FF7152"/>
</svg>
