<svg width="120" height="120" viewBox="0 0 120 120" fill="none" xmlns="http://www.w3.org/2000/svg">
<g clip-path="url(#clip0)">
<path d="M52.5016 17.3654C51.3511 16.3364 49.6111 16.3364 48.4605 17.3654C47.3426 18.5367 47.3426 20.3795 48.4605 21.5507L51.6356 24.7258L14.2567 82.4542L2.99967 93.7112C1.88366 94.7349 1.80908 96.4697 2.8331 97.5854C2.88613 97.6434 2.94193 97.6989 2.99967 97.752L24.359 119.111C25.3827 120.227 27.1175 120.302 28.2332 119.278C28.2913 119.225 28.3468 119.169 28.3998 119.111L39.801 107.854L48.6045 102.226L60.8717 114.493C61.8954 115.609 63.6302 115.683 64.7459 114.659C64.8039 114.606 64.8594 114.551 64.9125 114.493L87.1378 92.2675C87.6817 91.7347 87.9928 91.0084 88.0038 90.2471C88.0326 89.4358 87.7182 88.6502 87.1378 88.0823L80.499 81.4434L97.3846 70.6193L100.56 73.7944C101.184 74.2629 101.944 74.5159 102.725 74.5159C103.457 74.4952 104.165 74.2427 104.745 73.7944C105.735 72.575 105.735 70.8284 104.745 69.6091L52.5016 17.3654ZM26.3797 113.05L9.06117 95.7316L16.5657 88.227L33.8843 105.546L26.3797 113.05ZM81.0771 90.2474L62.8926 108.287L53.5118 98.9067L75.593 84.7632L81.0771 90.2474ZM38.3582 101.793L20.3182 83.753L55.8209 28.9111L93.1999 66.4345L38.3582 101.793Z" fill="white"/>
<path d="M83.3853 35.1171C83.9529 35.6972 84.7388 36.0116 85.5502 35.9831C86.3115 35.9723 87.0377 35.661 87.5706 35.1171L103.879 18.8088C104.997 17.6375 104.997 15.7948 103.879 14.6235C102.855 13.5075 101.12 13.4329 100.005 14.4569C99.9466 14.51 99.8911 14.5658 99.838 14.6235L83.3856 30.9318C82.395 32.1511 82.395 33.8978 83.3853 35.1171Z" fill="#FF7152"/>
<path d="M74.1491 25.159H75.1593C76.3654 25.1349 77.4422 24.3982 77.9016 23.2828L85.1175 3.94384C85.6147 2.43226 84.8583 0.793611 83.3857 0.191411C81.8968 -0.37847 80.228 0.366822 79.6584 1.85547C79.6499 1.87785 79.6416 1.9005 79.6336 1.92315L72.5619 21.4065C71.9671 22.8811 72.6768 24.5587 74.1491 25.159Z" fill="#FF7152"/>
<path d="M117.735 34.684C117.202 33.1812 115.553 32.3948 114.05 32.9271C114.027 32.9351 114.005 32.9434 113.982 32.952L94.6433 40.1679C93.1988 40.6231 92.3969 42.1631 92.8522 43.6073C92.8701 43.6642 92.8897 43.7203 92.9113 43.7758C93.2881 44.9744 94.3969 45.7913 95.6535 45.7962L96.6637 45.5076L116.003 38.4359C117.476 37.8342 118.232 36.1956 117.735 34.684Z" fill="#FF7152"/>
</g>
<defs>
<clipPath id="clip0">
<rect width="120" height="120" fill="white"/>
</clipPath>
</defs>
</svg>
