<?xml version="1.0" standalone="no"?>
<!DOCTYPE svg PUBLIC "-//W3C//DTD SVG 1.1//EN" "http://www.w3.org/Graphics/SVG/1.1/DTD/svg11.dtd" >
<svg xmlns="http://www.w3.org/2000/svg" xmlns:xlink="http://www.w3.org/1999/xlink" version="1.1">
<metadata>
Created by FontForge 20170731 at Sun Oct 11 11:10:09 2020
 By Aleksey,,,
Copyright (c) 2018 by Adrien Midzic. All rights reserved.
</metadata>
<defs>
<font id="Lack-Regular" horiz-adv-x="0" >
  <font-face 
    font-family="Lack"
    font-weight="400"
    font-stretch="normal"
    units-per-em="2048"
    panose-1="0 0 5 0 0 0 0 0 0 0"
    ascent="1536"
    descent="-512"
    x-height="1059"
    cap-height="1391"
    bbox="-1559 -510 2349 1944"
    underline-thickness="114"
    underline-position="-380"
    unicode-range="U+000D-FB02"
  />
<missing-glyph horiz-adv-x="614" 
 />
    <glyph glyph-name="fi" unicode="fi" horiz-adv-x="1607" 
d="M328 0v758h-226v180h226q0 123 44.5 224.5t120.5 167.5t175.5 102t210.5 36q83 0 151.5 -17.5t106.5 -42t64 -49t35 -41.5l9 -18v-221q-4 8 -12.5 21t-40 46t-68.5 58.5t-99.5 46.5t-131.5 21q-153 0 -248.5 -86.5t-95.5 -247.5h711v-778h245v-160h-712v160h245v598h-489
v-758h-221z" />
    <glyph glyph-name="fl" unicode="fl" horiz-adv-x="1435" 
d="M328 0v758h-226v180h226q0 124 38 225t103.5 167t153 102t186.5 36q74 0 140 -14.5t111.5 -37.5t83.5 -50.5t61 -55t39 -50.5t22 -38l6 -14l-4 -2l4 -2v-1204h-221v1153q-2 5 -6 13t-22 28.5t-41.5 36t-67 28.5t-95.5 13q-130 0 -200 -78t-70 -256h334v-180h-334v-758
h-221z" />
    <glyph glyph-name="f_f" unicode="ff" horiz-adv-x="1845" 
d="M328 0v758h-226v180h226q0 211 124.5 340t323.5 129q69 0 127 -17t96 -45.5t59.5 -51.5t37.5 -48q57 107 156.5 165t226.5 58q63 0 117 -11.5t86 -27.5t55 -32t32 -27l9 -12v-197q-4 5 -12 12t-35 26.5t-56.5 34t-74.5 26.5t-91 12q-129 0 -194.5 -77.5t-65.5 -256.5h477
v-180h-477v-758h-221v758h-479v-758h-221zM549 938h479q0 34 4 92q-10 21 -28 46t-49 58t-76.5 54.5t-96.5 21.5q-233 0 -233 -272z" />
    <glyph glyph-name="f_f_i" unicode="ffi" horiz-adv-x="2308" 
d="M328 0v758h-226v180h226q0 211 124.5 340t323.5 129q69 0 127 -17t96 -45.5t59.5 -51.5t37.5 -48q57 107 156.5 165t226.5 58q63 0 117 -11.5t86 -27.5t55 -32t32 -27l9 -12v-197q-4 5 -12 12t-35 26.5t-56.5 34t-74.5 26.5t-91 12q-129 0 -194.5 -77.5t-65.5 -256.5h711
v-778h246v-160h-713v160h246v598h-490v-758h-221v758h-479v-758h-221zM549 938h479q0 34 4 92q-10 21 -28 46t-49 58t-76.5 54.5t-96.5 21.5q-233 0 -233 -272z" />
    <glyph glyph-name="f_f_l" unicode="ffl" horiz-adv-x="2136" 
d="M328 0v758h-226v180h226q0 211 124.5 340t323.5 129q72 0 132.5 -19t98.5 -49.5t58.5 -54t34.5 -47.5q64 111 171.5 171t237.5 60q74 0 140 -14.5t111.5 -37.5t83.5 -50.5t61 -55t39 -50.5t22 -38l6 -14l-4 -2l4 -2v-1204h-221v1153q-2 5 -6 13t-22 28.5t-41.5 36
t-66.5 28.5t-95 13q-130 0 -200.5 -78t-70.5 -256h334v-180h-334v-758h-221v758h-479v-758h-221zM549 938h479q0 61 4 90q-11 22 -28.5 47t-48.5 58.5t-76.5 55t-96.5 21.5q-233 0 -233 -272z" />
    <glyph glyph-name=".notdef" horiz-adv-x="614" 
 />
    <glyph glyph-name=".null" 
 />
    <glyph glyph-name="nonmarkingreturn" horiz-adv-x="682" 
 />
    <glyph glyph-name="CR" unicode="&#xd;" horiz-adv-x="532" 
 />
    <glyph glyph-name="space" unicode=" " horiz-adv-x="532" 
 />
    <glyph glyph-name="exclam" unicode="!" horiz-adv-x="696" 
d="M229 535v897h240v-897h-240zM348 -14q-70 0 -117 47t-47 117q0 68 47 115.5t117 47.5q68 0 116 -48t48 -115q0 -70 -48 -117t-116 -47z" />
    <glyph glyph-name="quotedbl" unicode="&#x22;" horiz-adv-x="747" 
d="M115 926l-33 504h223l-33 -504h-157zM475 926l-33 504h224l-33 -504h-158z" />
    <glyph glyph-name="numbersign" unicode="#" horiz-adv-x="1441" 
d="M115 -4l155 389h-221v209h297l68 170h-277v209h357l137 356h239l-137 -356h207l137 356h240l-137 -356h221v-209h-301l-68 -170h281v-209h-363l-149 -389h-240l150 389h-207l-150 -389h-239zM586 594h207l67 170h-207z" />
    <glyph glyph-name="dollar" unicode="$" horiz-adv-x="1191" 
d="M1079 367q0 -142 -98 -245.5t-266 -137.5v-154h-223v139q-135 8 -236.5 48t-163.5 94v229q95 -75 218.5 -118.5t246.5 -43.5q293 0 293 191q0 74 -65 121.5t-224 113.5q-112 47 -181 86t-124.5 92t-79.5 120t-24 157q0 131 92 225.5t248 130.5v121h223v-106
q151 -14 284 -105v-240q-65 60 -161.5 97t-204.5 37q-116 -2 -184 -43.5t-68 -116.5q0 -26 6.5 -48t15.5 -39t30.5 -35t38 -29.5t53.5 -29t61.5 -28t75.5 -31.5q114 -47 184.5 -85.5t127 -91t81 -119t24.5 -156.5z" />
    <glyph glyph-name="percent" unicode="%" horiz-adv-x="1476" 
d="M420 834q-123 0 -210 86.5t-87 209.5q0 125 87 213.5t210 88.5q124 0 212.5 -88.5t88.5 -213.5q0 -123 -88 -209.5t-213 -86.5zM246 -33l782 1460h176l-782 -1460h-176zM420 977q65 0 111.5 45t46.5 108q0 64 -47 111t-111 47q-63 0 -108.5 -46.5t-45.5 -111.5
q0 -63 45.5 -108t108.5 -45zM1053 -33q-123 0 -210 87t-87 210q0 125 87 213t210 88q125 0 213 -88.5t88 -212.5q0 -123 -88 -210t-213 -87zM1053 111q65 0 111 45t46 108q0 65 -46.5 111.5t-110.5 46.5q-63 0 -108.5 -46.5t-45.5 -111.5q0 -63 45.5 -108t108.5 -45z" />
    <glyph glyph-name="ampersand" unicode="&#x26;" horiz-adv-x="1452" 
d="M551 -31q-209 0 -340 101q-129 102 -129 282q0 120 74 211t231 172q-75 96 -109 171t-34 153q0 173 101 268.5t282 95.5q175 0 271.5 -87.5t96.5 -241.5q0 -97 -79 -201.5t-218 -190.5l164 -176l127 -135l238 240v-236l-119 -127l262 -268h-278q-8 8 -52 55t-71 72
q-169 -158 -418 -158zM592 823q192 119 192 252q0 71 -40.5 112.5t-116.5 41.5t-116 -42t-40 -112q0 -65 26.5 -122t94.5 -130zM580 164q143 0 260 94l-344 346q-85 -40 -135 -106t-50 -148q0 -91 73 -138.5t196 -47.5z" />
    <glyph glyph-name="quotesingle" unicode="'" horiz-adv-x="456" 
d="M61 823l70 607h264l-155 -607h-179z" />
    <glyph glyph-name="parenleft" unicode="(" horiz-adv-x="753" 
d="M365 -254q-9 19 -24 53t-53.5 139t-67.5 209t-53 247.5t-24 269.5q0 127 23 263.5t55.5 240.5t65 190t55.5 132l23 46h239q-9 -17 -24.5 -48t-54.5 -127.5t-69 -194.5t-54.5 -236.5t-24.5 -265.5q0 -126 24 -267t57.5 -252t67.5 -204t58 -144l24 -51h-243z" />
    <glyph glyph-name="parenright" unicode=")" horiz-adv-x="733" 
d="M145 -254q9 19 25 53t56 139t70.5 209t55.5 247.5t25 269.5q0 127 -23.5 263.5t-56.5 240.5t-66.5 190t-56.5 132l-24 46h219q9 -17 24 -48t53 -127.5t67 -194.5t53 -236.5t24 -265.5q0 -126 -23 -267t-55 -252t-64.5 -204t-55.5 -144l-23 -51h-224z" />
    <glyph glyph-name="asterisk" unicode="*" horiz-adv-x="874" 
d="M358 700l15 252l-211 -139l-80 139l227 113l-227 113l80 139l211 -139l-15 252h158l-14 -254l211 141l80 -139l-228 -113l228 -113l-80 -137l-211 139l14 -254h-158z" />
    <glyph glyph-name="plus" unicode="+" horiz-adv-x="1386" 
d="M573 205v416h-426v210h426v416h240v-416h426v-210h-426v-416h-240z" />
    <glyph glyph-name="comma" unicode="," horiz-adv-x="681" 
d="M41 -309l184 524h273l-248 -524h-209z" />
    <glyph glyph-name="hyphen" unicode="-" horiz-adv-x="1052" 
d="M145 500v209h762v-209h-762z" />
    <glyph glyph-name="period" unicode="." horiz-adv-x="655" 
d="M328 -14q-70 0 -117 47t-47 117q0 68 47 115.5t117 47.5q68 0 116 -48t48 -115q0 -70 -48 -117t-116 -47z" />
    <glyph glyph-name="slash" unicode="/" horiz-adv-x="931" 
d="M0 -117l692 1551h240l-692 -1551h-240z" />
    <glyph glyph-name="zero" unicode="0" horiz-adv-x="1228" 
d="M616 -31q-128 -2 -229 55t-163 158t-93 232t-29 282q-2 151 29 280.5t93 229t163 157.5t229 60q128 -2 228 -60t161.5 -157.5t92 -229t28.5 -280.5q2 -121 -16.5 -229t-59.5 -200t-100.5 -159t-145 -104t-188.5 -35zM616 180q281 0 281 516q0 74 -5.5 138.5t-24 137.5
t-48 124t-81.5 84.5t-122 33.5t-122.5 -33.5t-82.5 -85t-48.5 -123.5t-24.5 -137t-6 -139q0 -51 3 -98t11 -100.5t21.5 -98t35.5 -86t51 -70t70.5 -46t91.5 -17.5z" />
    <glyph glyph-name="one" unicode="1" horiz-adv-x="1087" 
d="M143 0v197h328v999h-328v195h551v-1194h291v-197h-842z" />
    <glyph glyph-name="two" unicode="2" horiz-adv-x="1226" 
d="M244 0l2 2h-123l463 559q-173 17 -290.5 141t-117.5 293q0 180 133 308.5t320 128.5t319.5 -128.5t132.5 -308.5q0 -170 -114 -290l-426 -508h534v-197h-833zM631 770q96 0 160.5 65.5t64.5 159.5q0 95 -64.5 160.5t-160.5 65.5t-160.5 -65.5t-64.5 -160.5
q0 -94 64.5 -159.5t160.5 -65.5z" />
    <glyph glyph-name="three" unicode="3" horiz-adv-x="1200" 
d="M621 -31q-198 0 -338 134.5t-140 324.5h232q0 -102 70.5 -173t175.5 -71t175 71t70 173q0 104 -70 175t-175 71q-50 0 -99 -19l178 541h-501v195h790l-184 -539h2q131 -53 211 -168t80 -256q0 -125 -63.5 -230.5t-173.5 -167t-240 -61.5z" />
    <glyph glyph-name="four" unicode="4" horiz-adv-x="1175" 
d="M772 2v463h-670l519 926h239l-403 -734h555v-655h-240z" />
    <glyph glyph-name="five" unicode="5" horiz-adv-x="1159" 
d="M580 -31q-198 0 -338 134.5t-140 324.5h232q0 -102 70.5 -173t175.5 -71t175 71t70 173q0 104 -70 175t-175 71q-64 0 -117 -29l-107 43v703h686v-195h-462v-307q102 0 186 -37q131 -53 211 -168t80 -256q0 -125 -63.5 -230.5t-173.5 -167t-240 -61.5z" />
    <glyph glyph-name="six" unicode="6" horiz-adv-x="1241" 
d="M621 -29q-198 0 -338 134.5t-140 324.5q0 184 131 318l512 643h275l-393 -502q182 -17 306 -148.5t124 -310.5q0 -125 -63.5 -230.5t-173.5 -167t-240 -61.5zM621 186q105 0 175 71t70 173q0 104 -70 175t-175 71t-175.5 -71.5t-70.5 -174.5q0 -102 70.5 -173t175.5 -71z
" />
    <glyph glyph-name="seven" unicode="7" horiz-adv-x="1085" 
d="M207 0l448 1196h-512v195h820l-512 -1391h-244z" />
    <glyph glyph-name="eight" unicode="8" horiz-adv-x="1159" 
d="M580 -29q-202 0 -344 130t-142 313q0 107 53.5 200t145.5 154q-115 112 -115 272t117.5 273.5t284.5 113.5t284 -113.5t117 -273.5t-115 -272q92 -61 145.5 -154t53.5 -200q0 -183 -141.5 -313t-343.5 -130zM580 854q81 0 135.5 54t54.5 132q0 80 -54.5 134.5
t-135.5 54.5t-136 -54.5t-55 -134.5q0 -78 55 -132t136 -54zM580 166q112 0 186 71t74 175q0 102 -74 171.5t-186 69.5t-186.5 -69.5t-74.5 -171.5q0 -104 74.5 -175t186.5 -71z" />
    <glyph glyph-name="nine" unicode="9" horiz-adv-x="1159" 
d="M154 0l395 504q-188 12 -317.5 145t-129.5 316q0 190 140 324t338 134t337.5 -134t139.5 -324q0 -137 -78 -252h2l-567 -713h-260zM580 719q105 0 175 71t70 175q0 102 -70 172.5t-175 70.5t-175.5 -70.5t-70.5 -172.5q0 -103 70.5 -174.5t175.5 -71.5z" />
    <glyph glyph-name="colon" unicode=":" horiz-adv-x="913" 
d="M457 653q-71 0 -117.5 46.5t-46.5 117.5q0 68 47 116t117 48q67 0 115.5 -48.5t48.5 -115.5q0 -70 -48 -117t-116 -47zM457 -14q-71 0 -117.5 47t-46.5 117q0 68 47 115.5t117 47.5q68 0 116 -48t48 -115q0 -70 -48 -117t-116 -47z" />
    <glyph glyph-name="semicolon" unicode=";" horiz-adv-x="856" 
d="M457 653q-71 0 -117.5 46.5t-46.5 117.5q0 68 47 116t117 48q67 0 115.5 -48.5t48.5 -115.5q0 -70 -48 -117t-116 -47zM111 -309l184 524h272l-248 -524h-208z" />
    <glyph glyph-name="less" unicode="&#x3c;" horiz-adv-x="1103" 
d="M1001 0l-899 512v133l899 414v-205l-653 -272l653 -377v-205z" />
    <glyph glyph-name="equal" unicode="=" horiz-adv-x="1290" 
d="M186 805v209h920v-209h-920zM186 385v209h920v-209h-920z" />
    <glyph glyph-name="greater" unicode="&#x3e;" horiz-adv-x="1103" 
d="M102 0v205l654 377l-654 272v205l899 -414v-133z" />
    <glyph glyph-name="question" unicode="?" horiz-adv-x="727" 
d="M182 453v317q96 0 161 65.5t65 159.5t-65 160t-161 66v211q187 0 320 -128.5t133 -308.5q0 -121 -63.5 -222.5t-168.5 -158.5v-161h-221zM287 -14q-71 0 -117.5 47t-46.5 117q0 68 47 115.5t117 47.5q68 0 116 -48t48 -115q0 -70 -48 -117t-116 -47z" />
    <glyph glyph-name="at" unicode="@" horiz-adv-x="1742" 
d="M885 -348q-217 0 -401.5 103.5t-293 283t-108.5 391.5q0 158 63 302.5t168.5 248.5t251.5 165.5t305 61.5q220 0 400 -91t285.5 -260.5t105.5 -385.5q0 -106 -30.5 -189t-81.5 -131.5t-111.5 -73t-126.5 -24.5q-91 0 -138 37t-61 84q-42 -56 -115.5 -89.5t-136.5 -33.5
q-171 0 -287 115t-116 280t115.5 279.5t285.5 114.5q61 0 120.5 -22t96.5 -62v63h176v-512q0 -94 70 -94q46 0 81 41.5t50.5 94t15.5 100.5q0 142 -48 253t-131 179.5t-189.5 103.5t-229.5 35q-158 0 -292.5 -80t-212.5 -215.5t-78 -294.5t80 -295t218 -215.5t300 -79.5
v-188zM858 223q94 0 155.5 59.5t61.5 163.5q0 103 -61.5 163.5t-155.5 60.5q-90 0 -153.5 -65.5t-63.5 -158.5q0 -92 63 -157.5t154 -65.5z" />
    <glyph glyph-name="A" unicode="A" horiz-adv-x="1542" 
d="M43 0l619 1391h219l618 -1391h-260l-133 330h-670l-133 -330h-260zM520 539h502l-250 591z" />
    <glyph glyph-name="B" unicode="B" horiz-adv-x="1363" 
d="M975 756q140 -12 223.5 -104t83.5 -230q0 -209 -131 -315.5t-360 -106.5h-607v1391h570q228 0 340 -87.5t112 -271.5q0 -115 -63 -186.5t-168 -89.5zM725 1182h-317v-346h305q142 0 208 39t66 141q-2 46 -16.5 77.5t-35 48.5t-57 26.5t-68.5 11.5t-85 2zM774 209
q273 0 273 217q0 211 -273 211h-366v-428h366z" />
    <glyph glyph-name="C" unicode="C" horiz-adv-x="1441" 
d="M860 -31q-167 -2 -313 55.5t-245.5 156.5t-155.5 233t-54 282q-2 148 54 282t155.5 233t245.5 156.5t313 55.5q270 0 451 -123v-235q-6 9 -42.5 32t-94.5 50t-143.5 47t-170.5 20q-124 0 -226 -40t-169.5 -110t-104 -164.5t-36.5 -203.5q0 -147 62.5 -263.5t185.5 -184.5
t288 -68q140 0 271.5 40.5t218.5 113.5v-240q-1 0 -20.5 -12t-37 -21t-50 -23.5t-69.5 -25t-84 -21.5t-106 -16.5t-123 -5.5z" />
    <glyph glyph-name="D" unicode="D" horiz-adv-x="1556" 
d="M688 1391q176 0 319 -51.5t238.5 -143.5t147 -220t51.5 -280q0 -150 -54 -278.5t-151 -221t-239 -144.5t-312 -52h-504v1391h504zM672 211q249 0 391 120.5t149 364.5q0 230 -137.5 358t-404.5 128h-262v-971h264z" />
    <glyph glyph-name="E" unicode="E" horiz-adv-x="1314" 
d="M408 209h804v-209h-1028v1391h1016v-209h-792v-336h630v-209h-630v-428z" />
    <glyph glyph-name="F" unicode="F" horiz-adv-x="1277" 
d="M1200 1182h-792v-336h630v-209h-630v-637h-224v1391h1016v-209z" />
    <glyph glyph-name="G" unicode="G" horiz-adv-x="1589" 
d="M834 -31q-158 0 -296 58t-234 156.5t-150 232t-52 280.5q-2 148 54 282t155.5 233t245.5 156.5t313 55.5q179 0 301 -45q135 -46 189 -80v-237q-55 46 -180 98q-125 55 -310 55q-124 0 -226 -40t-169.5 -110t-104 -164.5t-36.5 -203.5q0 -219 141.5 -368.5t358.5 -149.5
q208 0 376 125v301h-415v209h639v-813h-224v72q-166 -103 -376 -103z" />
    <glyph glyph-name="H" unicode="H" horiz-adv-x="1538" 
d="M1130 1391h224v-1391h-224v637h-722v-637h-224v1391h224v-545h722v545z" />
    <glyph glyph-name="I" unicode="I" horiz-adv-x="591" 
d="M184 0v1391h224v-1391h-224z" />
    <glyph glyph-name="J" unicode="J" horiz-adv-x="1110" 
d="M469 -31q-87 0 -182.5 25.5t-149 51t-53.5 32.5v213q29 -16 71.5 -36.5t129.5 -47.5t153 -27q169 0 242.5 66.5t73.5 218.5v926h223v-922q0 -238 -137.5 -369t-370.5 -131z" />
    <glyph glyph-name="K" unicode="K" horiz-adv-x="1404" 
d="M184 0v1391h222v-633l671 633h291l-614 -564l614 -827h-278l-498 674l-186 -176v-498h-222z" />
    <glyph glyph-name="L" unicode="L" horiz-adv-x="1327" 
d="M184 0v1391h222v-1182h843v-209h-1065z" />
    <glyph glyph-name="M" unicode="M" horiz-adv-x="1693" 
d="M184 0v1391h260l402 -619v-2l403 621h260v-1391h-221v1055l-340 -516h-203l-339 516v-1055h-222z" />
    <glyph glyph-name="N" unicode="N" horiz-adv-x="1579" 
d="M184 0v1391h256l734 -1053v1053h221v-1391h-248l-741 1071v-1071h-222z" />
    <glyph glyph-name="O" unicode="O" horiz-adv-x="1644" 
d="M821 -31q-207 -3 -376.5 96t-262.5 266.5t-90 364.5q-3 197 90 364.5t262.5 266.5t376.5 96q207 3 377 -96t263.5 -266.5t90.5 -364.5q3 -197 -90.5 -364.5t-263.5 -266.5t-377 -96zM821 180q226 0 363 146t137 370q0 146 -60 263t-175 186t-265 69q-223 0 -361 -148
t-138 -370q0 -223 137.5 -369.5t361.5 -146.5z" />
    <glyph glyph-name="P" unicode="P" horiz-adv-x="1429" 
d="M838 1391q212 0 351.5 -127t139.5 -330t-141.5 -330t-356.5 -127h-423v-477h-224v1391h654zM821 682q117 0 198 69t81 179q0 111 -81 181.5t-198 70.5h-413v-500h413z" />
    <glyph glyph-name="Q" unicode="Q" horiz-adv-x="1644" 
d="M1604 178v-209h-760h-23q-207 -3 -376.5 96t-262.5 266.5t-90 364.5q-3 197 90 364.5t262.5 266.5t376.5 96q207 3 377 -96t263.5 -266.5t90.5 -364.5q3 -148 -51.5 -282t-154.5 -236h258zM322 696q0 -223 137.5 -369.5t361.5 -146.5q226 0 363 146t137 370
q0 146 -60 263t-175 186t-265 69q-223 0 -361 -148t-138 -370z" />
    <glyph glyph-name="R" unicode="R" horiz-adv-x="1411" 
d="M954 557l414 -557h-278l-398 539h-284v-539h-224v1391h613q216 0 353.5 -113t137.5 -313q0 -159 -90 -264.5t-244 -143.5zM408 743h372q122 0 200.5 55.5t78.5 162.5q0 109 -78.5 165t-200.5 56h-372v-439z" />
    <glyph glyph-name="S" unicode="S" horiz-adv-x="1191" 
d="M557 -33q-158 0 -277 41.5t-188 102.5v229q95 -75 218.5 -118.5t246.5 -43.5q293 0 293 191q0 74 -65 121.5t-224 113.5q-112 47 -181 86t-124.5 92t-79.5 120t-24 157q0 164 140.5 268.5t360.5 104.5q184 3 346 -107v-240q-65 60 -161.5 97t-204.5 37
q-116 -2 -184 -43.5t-68 -116.5q0 -26 6.5 -48t15.5 -39t30.5 -35t38 -29.5t53.5 -29t61.5 -28t75.5 -31.5q114 -47 184.5 -85.5t127 -91t81 -119t24.5 -156.5q0 -174 -144.5 -287t-377.5 -113z" />
    <glyph glyph-name="T" unicode="T" horiz-adv-x="1359" 
d="M569 0v1182h-487v209h1196v-209h-487v-1182h-222z" />
    <glyph glyph-name="U" unicode="U" horiz-adv-x="1445" 
d="M723 -31q-127 0 -229 32.5t-179 98.5t-119 175.5t-42 254.5v861h223v-856q0 -176 97 -263.5t249 -87.5q171 0 258.5 84.5t87.5 266.5v856h223v-861q0 -145 -42 -254.5t-119 -175.5t-179 -98.5t-229 -32.5z" />
    <glyph glyph-name="V" unicode="V" horiz-adv-x="1437" 
d="M594 0l-531 1391h254l396 -1090l407 1090h254l-530 -1391h-250z" />
    <glyph glyph-name="W" unicode="W" horiz-adv-x="2117" 
d="M496 0l-433 1391h254l310 -1110l307 1110h250l309 -1110l307 1110h254l-432 -1391h-258l-305 1073l-303 -1073h-260z" />
    <glyph glyph-name="X" unicode="X" horiz-adv-x="1456" 
d="M63 0l527 733l-496 658h271l356 -496l364 496h271l-502 -660l539 -731h-271l-401 551l-387 -551h-271z" />
    <glyph glyph-name="Y" unicode="Y" horiz-adv-x="1384" 
d="M1075 1391h268l-538 -795v-596h-225v596l-539 795h266l385 -592z" />
    <glyph glyph-name="Z" unicode="Z" horiz-adv-x="1400" 
d="M154 0v209l825 973h-786v209h1069v-209l-820 -973h846v-209h-1134z" />
    <glyph glyph-name="bracketleft" unicode="[" horiz-adv-x="768" 
d="M143 -256v1790h482v-209h-242v-1374h242v-207h-482z" />
    <glyph glyph-name="backslash" unicode="\" horiz-adv-x="931" 
d="M692 -117l-692 1551h240l692 -1551h-240z" />
    <glyph glyph-name="bracketright" unicode="]" horiz-adv-x="768" 
d="M143 -256v207h242v1374h-242v209h482v-1790h-482z" />
    <glyph glyph-name="asciicircum" unicode="^" horiz-adv-x="1263" 
d="M102 655l455 777h133l471 -777h-205l-331 551l-318 -551h-205z" />
    <glyph glyph-name="underscore" unicode="_" horiz-adv-x="1525" 
d="M145 -127v127h1235v-127h-1235z" />
    <glyph glyph-name="grave" unicode="`" horiz-adv-x="538" 
d="M291 1200l-250 350h272l185 -350h-207z" />
    <glyph glyph-name="a" unicode="a" horiz-adv-x="1376" 
d="M635 -31q-159 0 -286 75t-197 202.5t-70 281.5t70 282t197.5 204t285.5 76q110 0 203.5 -37.5t152.5 -96.5v103h219v-1059h-223l2 109q-136 -140 -354 -140zM651 166q153 0 253 98t100 266q0 167 -100.5 265t-252.5 98q-148 0 -248 -105.5t-100 -257.5t100 -258t248 -106
z" />
    <glyph glyph-name="b" unicode="b" horiz-adv-x="1376" 
d="M741 -31q-218 0 -354 140l2 -109h-223v1391l219 36v-471q59 59 152.5 96.5t203.5 37.5q158 0 285.5 -76t197.5 -204t70 -282t-70 -281.5t-197 -202.5t-286 -75zM725 166q149 0 251.5 106.5t102.5 257.5t-102.5 257t-251.5 106q-152 0 -252 -98t-100 -265
q0 -169 99.5 -266.5t252.5 -97.5z" />
    <glyph glyph-name="c" unicode="c" horiz-adv-x="1132" 
d="M682 -31q-144 0 -259.5 44t-189 121t-112.5 178t-39 218q0 154 72.5 281.5t206 203t301.5 75.5q105 0 208 -32t170 -95v-228q-5 7 -15 17.5t-45 38t-75 48.5t-106 38.5t-137 17.5q-155 0 -260 -106.5t-105 -258.5q0 -165 104.5 -265.5t280.5 -100.5q69 0 134 11.5
t107.5 27.5t75 32t47.5 27l15 12v-204q-66 -52 -173.5 -76.5t-205.5 -24.5z" />
    <glyph glyph-name="d" unicode="d" horiz-adv-x="1376" 
d="M635 -31q-159 0 -286 75t-197 202.5t-70 281.5t70 282t197.5 204t285.5 76q110 0 203.5 -37.5t152.5 -96.5v435l221 36v-1427h-225l2 109q-136 -140 -354 -140zM651 166q153 0 253 98t100 266q0 167 -100.5 265t-252.5 98q-149 0 -251.5 -106t-102.5 -257t102.5 -257.5
t251.5 -106.5z" />
    <glyph glyph-name="e" unicode="e" horiz-adv-x="1220" 
d="M668 -31q-136 0 -248 44.5t-185.5 121.5t-113 178.5t-39.5 216.5q0 157 74 285t205 201.5t292 73.5q111 0 204.5 -43.5t154 -115.5t94 -163t33.5 -188v-103h-846q21 -135 115.5 -223t263.5 -88q42 0 83 4t75 10t66 14.5t57.5 17.5t48 18t38.5 17.5t28 14.5t18 10l6 4
v-198q-5 -4 -14.5 -11.5t-46 -26.5t-80.5 -33t-120 -26t-163 -12zM303 649h615q-3 29 -11 59t-29.5 67.5t-52 66t-82.5 48t-118 19.5t-121 -19.5t-89 -48t-59.5 -65.5t-37 -68t-15.5 -59z" />
    <glyph glyph-name="f" unicode="f" horiz-adv-x="1067" 
d="M287 0v758h-226v180h226q0 249 124 389.5t326 140.5q63 0 117 -11.5t86 -27.5t55 -32t32 -27l9 -12v-197q-4 5 -12 12t-35 26.5t-56 34t-74 26.5t-91 12q-129 0 -194.5 -77.5t-65.5 -256.5h477v-180h-477v-758h-221z" />
    <glyph glyph-name="g" unicode="g" horiz-adv-x="1320" 
d="M604 -461q-87 0 -162.5 11t-121 27.5t-79.5 32.5t-47 27l-14 11v198q6 -4 18 -11.5t53 -26.5t86 -33.5t115.5 -26.5t143.5 -12q391 0 391 346v24q-133 -137 -352 -137q-159 0 -286 75t-197 202.5t-70 281.5t70 282t197.5 204t285.5 76q110 0 203.5 -37.5t152.5 -96.5v103
h221l-4 -948q0 -95 -20.5 -178t-66.5 -156.5t-115 -125.5t-171.5 -82t-230.5 -30zM651 166q153 0 253 98t100 266q0 167 -100.5 265t-252.5 98q-148 0 -248 -105.5t-100 -257.5t100 -258t248 -106z" />
    <glyph glyph-name="h" unicode="h" horiz-adv-x="1284" 
d="M715 1092q121 0 216 -48.5t152.5 -150t57.5 -242.5v-651h-221v629q0 126 -64 196t-174 70q-124 0 -210.5 -78.5t-86.5 -220.5v-596h-221v1391l221 36v-499q3 7 9.5 18t32.5 39t60 50t95 39.5t133 17.5z" />
    <glyph glyph-name="i" unicode="i" horiz-adv-x="579" 
d="M289 1210q-53 0 -89 36t-36 89q0 54 36 90.5t89 36.5q54 0 90.5 -36.5t36.5 -90.5q0 -53 -36.5 -89t-90.5 -36zM188 0v1061h222v-1061h-222z" />
    <glyph glyph-name="j" unicode="j" horiz-adv-x="548" 
d="M276 1210q-52 0 -88 36t-36 89q0 54 35.5 90.5t88.5 36.5q54 0 90.5 -36.5t36.5 -90.5q0 -53 -36.5 -89t-90.5 -36zM76 -459q-63 0 -117 13.5t-86 32.5t-55 37.5t-32 31.5l-9 14v230q4 -7 12 -17.5t35 -38.5t56 -49.5t74 -39t91 -17.5q74 0 105.5 52.5t31.5 127.5v1143
h221v-1124q0 -53 -7.5 -102.5t-29 -104.5t-56.5 -95.5t-95 -67t-139 -26.5z" />
    <glyph glyph-name="k" unicode="k" horiz-adv-x="1179" 
d="M915 0l-432 528l-98 -84v-444h-221v1391l221 36v-741l446 373h287l-471 -395l553 -664h-285z" />
    <glyph glyph-name="l" unicode="l" horiz-adv-x="548" 
d="M164 0v1391l221 36v-1427h-221z" />
    <glyph glyph-name="m" unicode="m" horiz-adv-x="1927" 
d="M1389 1092q183 0 289 -113.5t106 -327.5v-651h-221v629q0 266 -207 266q-108 0 -187 -79t-79 -220v-596h-222v629q0 266 -206 266q-99 0 -176.5 -68t-88.5 -190v-637h-221v1059h221v-127q5 13 14.5 28.5t34 40t55.5 44t82 33.5t111 14q231 0 334 -174q41 77 130.5 125.5
t230.5 48.5z" />
    <glyph glyph-name="n" unicode="n" horiz-adv-x="1296" 
d="M727 1092q121 0 216 -48.5t152.5 -150t57.5 -242.5v-651h-221v629q0 126 -64 196t-174 70q-124 0 -210.5 -78.5t-86.5 -220.5v-596h-221v1059h221v-131q3 7 9.5 18t32.5 39t60 50t95 39.5t133 17.5z" />
    <glyph glyph-name="o" unicode="o" horiz-adv-x="1323" 
d="M662 -31q-158 0 -292 75t-211 203.5t-77 280.5q0 114 45.5 218t123 179.5t185 120t226.5 44.5q158 0 291.5 -75.5t210.5 -205t77 -281.5t-77 -280.5t-210.5 -203.5t-291.5 -75zM662 168q156 0 261 105t105 255q0 152 -105 257.5t-261 105.5t-261.5 -105.5t-105.5 -257.5
q0 -150 105.5 -255t261.5 -105z" />
    <glyph glyph-name="p" unicode="p" horiz-adv-x="1376" 
d="M164 -434v1493h221v-103q59 59 152.5 96.5t203.5 37.5q158 0 285.5 -76t197.5 -204t70 -282t-70 -281.5t-197 -202.5t-286 -75q-223 0 -356 144v-547h-221zM745 166q147 0 240.5 104.5t93.5 257.5q0 154 -93.5 259.5t-240.5 105.5q-156 0 -264 -99t-108 -266
q0 -111 52 -194.5t135.5 -125.5t184.5 -42z" />
    <glyph glyph-name="q" unicode="q" horiz-adv-x="1370" 
d="M991 -434v547q-133 -144 -356 -144q-159 0 -286 75t-197 202.5t-70 281.5t70 282t197.5 204t285.5 76q110 0 203.5 -37.5t152.5 -96.5v103h221v-1493h-221zM631 166q101 0 185 42t136 125.5t52 194.5q0 167 -108.5 266t-264.5 99q-147 0 -240.5 -105.5t-93.5 -259.5
q0 -153 93.5 -257.5t240.5 -104.5z" />
    <glyph glyph-name="r" unicode="r" horiz-adv-x="839" 
d="M164 0v1061h221v-205q39 101 155.5 168.5t278.5 67.5v-183q-198 0 -314.5 -104t-119.5 -275v-530h-221z" />
    <glyph glyph-name="s" unicode="s" horiz-adv-x="894" 
d="M395 -31q-50 0 -101 10.5t-87.5 25t-65.5 29.5t-44 26l-15 10v217q6 -5 16 -13t43.5 -29t68 -37t85 -29t98.5 -13q104 0 158.5 30t54.5 83q0 54 -44.5 94t-151.5 100q-35 20 -46.5 26.5t-42.5 25t-42.5 28t-36 28.5t-34.5 33t-26 36t-22 42.5t-11.5 47t-5.5 55.5
q0 132 101 213.5t250 81.5q159 0 274 -70v-217q-39 37 -106 63.5t-142 26.5q-86 0 -127 -25.5t-41 -68.5q0 -10 2 -19t5 -17t10.5 -16.5t14 -15.5t20.5 -16.5t24.5 -16.5t31.5 -19.5t36.5 -21.5t44.5 -25.5t51 -29.5q58 -34 95 -61.5t67.5 -64t44.5 -81.5t14 -104
q0 -63 -24 -119t-72.5 -102.5t-131.5 -73.5t-190 -27z" />
    <glyph glyph-name="t" unicode="t" horiz-adv-x="1028" 
d="M418 0v907h-408l629 518v-338h362v-180h-362v-907h-221z" />
    <glyph glyph-name="u" unicode="u" horiz-adv-x="1249" 
d="M625 -33q-39 0 -69.5 1.5t-83.5 11t-93.5 26.5t-87 51.5t-77 81.5t-51 121.5t-20.5 167.5v631h222v-637v-14.5t4 -36.5t12.5 -51.5t27.5 -54.5t45.5 -51.5t70.5 -36.5t100 -15t100 14.5t70.5 37.5t45.5 50.5t27.5 55t12.5 50.5t4 38v14v637h221v-631q0 -93 -20.5 -167.5
t-51 -121.5t-77 -81.5t-86.5 -51.5t-93 -26.5t-83.5 -11t-69.5 -1.5z" />
    <glyph glyph-name="v" unicode="v" horiz-adv-x="1126" 
d="M563 -84l-553 1143h232l323 -692l320 692h231z" />
    <glyph glyph-name="w" unicode="w" horiz-adv-x="1529" 
d="M471 -84l-410 1143h232l211 -610l258 653l280 -656l195 613h231l-409 -1143l-299 707z" />
    <glyph glyph-name="x" unicode="x" horiz-adv-x="1275" 
d="M51 0l455 569l-414 490h266l289 -352l295 352h242l-412 -506l453 -553h-267l-323 414l-328 -414h-256z" />
    <glyph glyph-name="y" unicode="y" horiz-adv-x="1200" 
d="M209 -426l276 549l-444 936h231l328 -703l328 703h231l-715 -1485h-235z" />
    <glyph glyph-name="z" unicode="z" horiz-adv-x="1179" 
d="M102 0v152l670 716h-629v193h914v-172l-651 -696h671v-193h-975z" />
    <glyph glyph-name="braceleft" unicode="{" horiz-adv-x="749" 
d="M606 -256q-192 3 -274 78.5t-82 232.5v105q1 260 -14 322.5t-93 62.5v190q77 0 92.5 67t14.5 323v100q0 157 82 232.5t274 78.5v-188q-93 0 -124 -44.5t-31 -160.5q0 -34 0.5 -87t1 -82t-0.5 -72t-4.5 -66.5t-9.5 -55t-16.5 -50t-25 -38t-35.5 -31.5t-48 -20
q24 -7 43.5 -19t34 -25.5t25 -35t17 -40.5t11 -49t6.5 -53.5t2.5 -62.5t0 -66.5t-1 -74t-0.5 -78.5q0 -116 31 -160.5t124 -44.5v-188z" />
    <glyph glyph-name="bar" unicode="|" horiz-adv-x="483" 
d="M152 -102v1615h178v-1615h-178z" />
    <glyph glyph-name="braceright" unicode="}" horiz-adv-x="749" 
d="M143 -256v188q93 0 124.5 44.5t31.5 160.5q0 34 -0.5 86.5t-1 82t0.5 71.5t4 66.5t9 56t16.5 50t25 38.5t35.5 32.5t48 20.5q-27 8 -48 20t-35.5 31.5t-25 38t-16.5 49.5t-9 55.5t-4 67t-0.5 71.5t1 82t0.5 87q0 116 -31.5 160.5t-124.5 44.5v188q192 -3 274.5 -79
t82.5 -232q0 -300 3 -344q7 -104 42 -130q21 -16 61 -16v-190q-77 0 -92 -61t-14 -316v-113q0 -156 -82.5 -232t-274.5 -79z" />
    <glyph glyph-name="asciitilde" unicode="~" horiz-adv-x="1120" 
d="M764 418q-42 0 -86 13t-121 42q-15 6 -47 20.5t-56 22.5t-42 8q-9 0 -17 -1.5t-14.5 -3.5t-12 -7t-9 -8t-7.5 -10.5t-5.5 -11t-4.5 -13t-4 -12t-3.5 -13t-2.5 -12.5l-230 62q22 98 85 158.5t169 60.5q85 0 207 -56q109 -51 146 -51q12 0 21.5 3t16 5.5t12.5 10.5t9 11
t7 15.5t5 14.5t4 17l4 15l230 -61q-24 -98 -86.5 -158.5t-167.5 -60.5z" />
    <glyph glyph-name="exclamdown" unicode="&#xa1;" horiz-adv-x="704" 
d="M352 760q-70 0 -117 48t-47 116q0 70 46.5 116.5t117.5 46.5q68 0 116 -46.5t48 -116.5q0 -68 -48 -116t-116 -48zM233 -358v897h240v-897h-240z" />
    <glyph glyph-name="cent" unicode="&#xa2;" horiz-adv-x="1024" 
d="M842 903q-82 0 -159 -21t-144 -62.5t-107.5 -114.5t-40.5 -168q0 -76 27 -138t71.5 -102.5t104 -68t121.5 -39t127 -11.5v-211q-68 0 -146 10v-233h-217v297q-144 65 -227.5 189t-83.5 307q0 182 83.5 306t227.5 191v340h215v-276q73 12 148 12v-207z" />
    <glyph glyph-name="sterling" unicode="&#xa3;" horiz-adv-x="1314" 
d="M285 0v635h-215v211h215v164q0 116 59.5 219.5t166 168t232.5 64.5q115 0 214.5 -56.5t159 -154t59.5 -211.5h-222q0 80 -58.5 136.5t-141.5 56.5t-142 -56.5t-59 -136.5h2v-194h385v-211h-387v-424h645l-2 -211h-911z" />
    <glyph glyph-name="currency" unicode="&#xa4;" horiz-adv-x="1290" 
d="M334 186l-150 150l88 88q-65 105 -65 223q0 123 65 223l-88 88l150 150l92 -92q97 57 219 57t219 -57l92 92l150 -150l-88 -88q65 -100 65 -223q0 -118 -65 -223l88 -88l-150 -150l-92 93q-106 -56 -219 -56t-219 56zM645 424q96 0 162.5 65t66.5 158q0 94 -66.5 159.5
t-162.5 65.5t-162.5 -65.5t-66.5 -159.5q0 -93 66.5 -158t162.5 -65z" />
    <glyph glyph-name="yen" unicode="&#xa5;" horiz-adv-x="1337" 
d="M1343 1391l-466 -689h210v-208h-282v-101h282v-209h-282v-184h-225v184h-328v209h328v101h-328v208h256l-467 689h266l385 -592l383 592h268z" />
    <glyph glyph-name="brokenbar" unicode="&#xa6;" horiz-adv-x="481" 
d="M152 784v729h178v-729h-178zM152 -256v729h178v-729h-178z" />
    <glyph glyph-name="section" unicode="&#xa7;" horiz-adv-x="997" 
d="M395 -190q-50 0 -101 10.5t-87.5 25t-65.5 29t-44 25.5l-15 10v217q6 -5 16 -13t43.5 -29t68 -37t85 -29t98.5 -13q104 0 158.5 30t54.5 83q0 22 -10.5 43.5t-35 44t-40.5 35.5t-53 38.5t-47 32.5q-6 4 -30.5 22t-33 24.5t-31 24.5t-32 27.5l-28.5 28.5t-27.5 32.5
t-21 33.5t-18 38t-10 40t-4.5 45q0 105 73.5 176t203.5 84q-89 65 -131.5 119.5t-42.5 121.5q0 134 99 218t251 84q57 0 115.5 -17.5t87.5 -34.5l30 -18v-176q-14 8 -37 19.5t-83 30.5t-107 19q-66 0 -102.5 -27.5t-36.5 -76.5q0 -21 11 -41.5t35.5 -42.5t43 -36t56.5 -39.5
t52 -35.5q90 -66 121 -97q92 -93 92 -214q0 -96 -76.5 -175.5t-172.5 -76.5q147 -95 147 -250q0 -147 -103.5 -240t-314.5 -93zM709 621q0 57 -49.5 95t-118.5 38q-66 0 -103 -28t-37 -77q0 -78 77 -115t154 -11.5t77 98.5z" />
    <glyph glyph-name="dieresis" unicode="&#xa8;" horiz-adv-x="702" 
d="M156 1225q-47 0 -81 33t-34 79q0 47 34 81t81 34q46 0 79 -34t33 -81q0 -46 -33 -79t-79 -33zM549 1225q-47 0 -81 33t-34 79q0 47 34 81t81 34q46 0 79.5 -34t33.5 -81q0 -46 -33.5 -79t-79.5 -33z" />
    <glyph glyph-name="copyright" unicode="&#xa9;" horiz-adv-x="1738" 
d="M868 -137q-148 0 -283 57.5t-233 155.5t-155.5 233t-57.5 283t57.5 283.5t155 233.5t233 156t283.5 58t283.5 -58t233.5 -156t156 -233.5t58 -283.5t-58 -283.5t-156 -233t-233.5 -155t-283.5 -57.5zM868 2q161 0 297.5 78.5t215.5 214.5t79 297t-79 297.5t-215.5 215.5
t-297.5 79q-121 0 -230 -46.5t-187.5 -126t-125 -189t-46.5 -230.5q0 -161 78.5 -297t214 -214.5t296.5 -78.5zM909 150q-114 0 -205 34.5t-149 95t-88.5 140.5t-30.5 172q0 188 128 315t329 127q84 0 165 -25t134 -75v-172q-4 5 -12 13.5t-35.5 30.5t-59.5 39t-84 30.5
t-108 13.5q-123 0 -210 -88t-87 -209q0 -130 87 -213.5t226 -83.5q55 0 105.5 9t84.5 22t59.5 26t37.5 22l12 9v-154q-52 -40 -137 -59.5t-162 -19.5z" />
    <glyph glyph-name="ordfeminine" unicode="&#xaa;" horiz-adv-x="792" 
d="M385 504q-123 0 -203 83.5t-80 203.5q0 122 80 205t203 83q52 0 94 -19t56 -48v51h155l-2 -543h-156l3 55q-13 -32 -55 -51.5t-95 -19.5zM393 651q59 0 98 38t39 104q0 64 -39 101.5t-98 37.5q-57 0 -95 -40t-38 -99t38.5 -100.5t94.5 -41.5z" />
    <glyph glyph-name="guillemotleft" unicode="&#xab;" horiz-adv-x="1032" 
d="M340 123l-266 418l266 397h242l-267 -397l267 -418h-242zM729 123l-266 418l266 397h242l-266 -397l266 -418h-242z" />
    <glyph glyph-name="logicalnot" unicode="&#xac;" horiz-adv-x="1110" 
d="M768 203v299h-666v209h906v-508h-240z" />
    <glyph glyph-name="uni00AD" unicode="&#xad;" horiz-adv-x="1228" 
d="M145 500v209h762v-209h-762z" />
    <glyph glyph-name="registered" unicode="&#xae;" horiz-adv-x="1738" 
d="M868 -137q-148 0 -283 57.5t-233 155.5t-155.5 233t-57.5 283t57.5 283.5t155 233.5t233 156t283.5 58t283.5 -58t233.5 -156t156 -233.5t58 -283.5t-58 -283.5t-156 -233t-233.5 -155t-283.5 -57.5zM868 2q161 0 297.5 78.5t215.5 214.5t79 297t-79 297.5t-215.5 215.5
t-297.5 79q-121 0 -230 -46.5t-187.5 -126t-125 -189t-46.5 -230.5q0 -161 78.5 -297t214 -214.5t296.5 -78.5zM514 176v825h389q177 0 252.5 -70.5t75.5 -201.5q0 -86 -45 -145t-117 -92l193 -316h-172l-160 281h-258v-281h-158zM672 592h227q91 0 129.5 35t38.5 102
q0 76 -42.5 104.5t-125.5 28.5h-227v-270z" />
    <glyph glyph-name="macron" unicode="&#xaf;" horiz-adv-x="649" 
d="M41 1231v184h567v-184h-567z" />
    <glyph glyph-name="degree" unicode="&#xb0;" horiz-adv-x="651" 
d="M326 936q-110 0 -189.5 79t-79.5 189q0 112 79.5 192.5t189.5 80.5q112 0 192 -80t80 -193q0 -110 -80 -189t-192 -79zM326 1065q59 0 101 41t42 98q0 59 -42.5 101.5t-100.5 42.5q-57 0 -98.5 -42.5t-41.5 -101.5q0 -57 41.5 -98t98.5 -41z" />
    <glyph glyph-name="plusminus" unicode="&#xb1;" horiz-adv-x="1110" 
d="M434 408v213h-332v210h332v228h240v-228h334v-210h-334v-213h-240zM102 0v209h906v-209h-906z" />
    <glyph glyph-name="uni00B2" unicode="&#xb2;" horiz-adv-x="653" 
d="M82 750l213 258q-73 17 -121.5 76t-48.5 133q0 88 65.5 151.5t157.5 63.5t157.5 -63.5t65.5 -151.5q0 -81 -51 -138l-168 -194h215v-135h-485zM348 1137q34 0 57 23t23 57q0 33 -23 56t-57 23q-35 0 -57.5 -23t-22.5 -56q0 -34 22.5 -57t57.5 -23z" />
    <glyph glyph-name="uni00B3" unicode="&#xb3;" horiz-adv-x="610" 
d="M305 733q-92 0 -157.5 63t-65.5 154h143q0 -35 22.5 -58.5t57.5 -23.5q34 0 57 23t23 57q0 33 -23.5 56.5t-56.5 23.5h-55l94 229h-233v136h413l-114 -275q56 -19 87 -62.5t31 -107.5q0 -89 -65.5 -152t-157.5 -63z" />
    <glyph glyph-name="acute" unicode="&#xb4;" horiz-adv-x="538" 
d="M41 1200l184 350h273l-250 -350h-207z" />
    <glyph glyph-name="uni00B5" unicode="&#xb5;" horiz-adv-x="1386" 
d="M123 -442v1501h221v-684q2 -27 8.5 -52t24.5 -55.5t45 -53t74 -37.5t108 -15q64 0 113 17t75.5 41t43.5 57t22 58.5t6 51.5v672h221v-637v-13q0 -99 19 -142q47 -105 242 -105v-195q-55 0 -90.5 1.5t-88 9.5t-89.5 23t-76 44.5t-66 71.5q-107 -150 -332 -150
q-156 0 -260 64v-473h-221z" />
    <glyph glyph-name="paragraph" unicode="&#xb6;" horiz-adv-x="1353" 
d="M555 0v551q-218 0 -340.5 109.5t-122.5 293.5q0 206 125.5 321.5t337.5 115.5h614v-1391h-221v1182h-172v-1182h-221z" />
    <glyph glyph-name="periodcentered" unicode="&#xb7;" horiz-adv-x="696" 
d="M348 545q-70 0 -117 46.5t-47 117.5q0 68 47 115.5t117 47.5q68 0 116 -48t48 -115q0 -70 -48 -117t-116 -47z" />
    <glyph glyph-name="cedilla" unicode="&#xb8;" horiz-adv-x="370" 
d="M41 -442v118q45 0 84 19t39 55q0 31 -29 50.5t-59 23.5l-29 4l39 143h145l-34 -114q5 -1 14 -3.5t32 -12t40.5 -23t32 -37.5t14.5 -53q0 -47 -26.5 -81.5t-70.5 -53t-92 -27t-100 -8.5z" />
    <glyph glyph-name="uni00B9" unicode="&#xb9;" horiz-adv-x="616" 
d="M82 748v133h154v381h-154v131h317v-512h136v-133h-453z" />
    <glyph glyph-name="ordmasculine" unicode="&#xba;" horiz-adv-x="798" 
d="M399 508q-124 0 -210.5 84t-86.5 203q0 120 86.5 204t210.5 84q123 0 210 -84t87 -204q0 -119 -87 -203t-210 -84zM399 657q60 0 101 40.5t41 97.5q0 59 -41 100t-101 41q-61 0 -101 -41t-40 -100q0 -58 40 -98t101 -40z" />
    <glyph glyph-name="guillemotright" unicode="&#xbb;" horiz-adv-x="847" 
d="M61 123l267 418l-267 397h242l266 -397l-266 -418h-242zM451 123l266 418l-266 397h241l266 -397l-266 -418h-241z" />
    <glyph glyph-name="onequarter" unicode="&#xbc;" horiz-adv-x="1304" 
d="M150 -117l894 1551h179l-895 -1551h-178zM82 748v133h154v381h-154v131h317v-512h136v-133h-453zM1010 0v223h-322l250 445h166l-166 -312h246v-356h-174z" />
    <glyph glyph-name="onehalf" unicode="&#xbd;" horiz-adv-x="1402" 
d="M172 -117l895 1551h178l-895 -1551h-178zM82 748v133h154v381h-154v131h317v-512h136v-133h-453zM831 2l213 258q-73 17 -121.5 76t-48.5 133q0 88 66 151.5t158 63.5t157.5 -63.5t65.5 -151.5q0 -80 -51 -137l-168 -195h215v-135h-486zM1098 389q34 0 57 23t23 57
q0 33 -23.5 56.5t-56.5 23.5q-35 0 -57.5 -23.5t-22.5 -56.5q0 -34 22.5 -57t57.5 -23z" />
    <glyph glyph-name="threequarters" unicode="&#xbe;" horiz-adv-x="1337" 
d="M182 -117l895 1551h178l-895 -1551h-178zM356 694q-123 0 -198.5 62t-75.5 162h174q0 -40 28 -64.5t72 -24.5t71.5 24.5t27.5 64.5q0 137 -168 112l108 223h-266v138h461l-131 -273q69 -16 120.5 -72t51.5 -128q0 -100 -76 -162t-199 -62zM1036 2v223h-321l250 445h165
l-165 -312h245v-356h-174z" />
    <glyph glyph-name="questiondown" unicode="&#xbf;" horiz-adv-x="1083" 
d="M602 760q-68 0 -116 48t-48 116q0 70 48 116.5t116 46.5q71 0 117.5 -46.5t46.5 -116.5q0 -68 -47 -116t-117 -48zM707 -358q-187 0 -320 128t-133 308q0 121 63 222.5t168 158.5v162h222v-318q-96 0 -161 -65.5t-65 -159.5t65 -159.5t161 -65.5v-211z" />
    <glyph glyph-name="Agrave" unicode="&#xc0;" horiz-adv-x="1542" 
d="M659 1532l-249 350h272l184 -350h-207zM43 0l619 1391h219l618 -1391h-260l-133 330h-670l-133 -330h-260zM520 539h502l-250 591z" />
    <glyph glyph-name="Aacute" unicode="&#xc1;" horiz-adv-x="1542" 
d="M668 1532l184 350h272l-250 -350h-206zM43 0l619 1391h219l618 -1391h-260l-133 330h-670l-133 -330h-260zM520 539h502l-250 591z" />
    <glyph glyph-name="Acircumflex" unicode="&#xc2;" horiz-adv-x="1542" 
d="M434 1532l215 350h232l215 -350h-207l-123 170l-125 -170h-207zM43 0l619 1391h219l618 -1391h-260l-133 330h-670l-133 -330h-260zM520 539h502l-250 591z" />
    <glyph glyph-name="Atilde" unicode="&#xc3;" horiz-adv-x="1542" 
d="M915 1522q-75 0 -149 53h-2v2h-2q-75 55 -109 55q-10 0 -17.5 -2.5t-13.5 -9.5t-9.5 -12.5t-7 -17t-4.5 -17t-3.5 -20t-3.5 -17.5l-170 61q16 98 63 159t125 61q74 0 150 -54h2v-2h2q75 -55 108 -55q9 0 16 3t12 6t9.5 11t7 12.5t5.5 15.5t4 15.5t3 17t3 15.5l170 -61
q-16 -97 -63.5 -158t-125.5 -61zM43 0l619 1391h219l618 -1391h-260l-133 330h-670l-133 -330h-260zM520 539h502l-250 591z" />
    <glyph glyph-name="Adieresis" unicode="&#xc4;" horiz-adv-x="1542" 
d="M537 1556q-47 0 -81 33.5t-34 79.5q0 47 34 81t81 34q46 0 79 -34t33 -81q0 -46 -33 -79.5t-79 -33.5zM930 1556q-47 0 -81 33.5t-34 79.5q0 47 34 81t81 34q46 0 79 -34t33 -81q0 -46 -33 -79.5t-79 -33.5zM43 0l619 1391h219l618 -1391h-260l-133 330h-670l-133 -330
h-260zM520 539h502l-250 591z" />
    <glyph glyph-name="Aring" unicode="&#xc5;" horiz-adv-x="1542" 
d="M764 1522q-89 0 -149 60.5t-60 148.5q0 90 60 151.5t149 61.5q88 0 149.5 -62t61.5 -151q0 -88 -61.5 -148.5t-149.5 -60.5zM764 1669q26 0 44.5 18t18.5 44q0 28 -18.5 46.5t-44.5 18.5t-44 -18.5t-18 -46.5q0 -26 18 -44t44 -18zM43 0l619 1391h219l618 -1391h-260
l-133 330h-670l-133 -330h-260zM520 539h502l-250 591z" />
    <glyph glyph-name="AE" unicode="&#xc6;" horiz-adv-x="2152" 
d="M1245 209h805v-209h-1028v330h-535l-231 -330h-256l997 1391h1041v-209h-793v-336h631v-209h-631v-428zM1022 539v551l-387 -551h387z" />
    <glyph glyph-name="Ccedilla" unicode="&#xc7;" horiz-adv-x="1441" 
d="M1350 94q-2 -1 -23.5 -13.5t-41 -22.5t-58 -25.5t-79 -27t-99 -21.5t-121.5 -13l-31 -104q5 -1 14 -3.5t32 -12t40.5 -23t32 -37.5t14.5 -53q0 -47 -26.5 -81.5t-70.5 -53t-92 -27t-100 -8.5v119q46 0 84.5 18.5t38.5 54.5q0 31 -29 50.5t-58 23.5l-29 4l36 133
q-204 15 -364 117t-245.5 261.5t-82.5 346.5q-2 148 54 282t155.5 233t245.5 156.5t313 55.5q270 0 451 -123v-235q-6 9 -42.5 32t-94.5 50t-143.5 47t-170.5 20q-124 0 -226 -40t-169.5 -110t-104 -164.5t-36.5 -203.5q0 -147 62.5 -263.5t185.5 -184.5t288 -68
q140 0 271.5 40.5t218.5 113.5v-240z" />
    <glyph glyph-name="Egrave" unicode="&#xc8;" horiz-adv-x="1314" 
d="M799 1532h-207l-250 350h272zM408 209h804v-209h-1028v1391h1016v-209h-792v-336h630v-209h-630v-428z" />
    <glyph glyph-name="Eacute" unicode="&#xc9;" horiz-adv-x="1314" 
d="M1057 1882l-250 -350h-207l184 350h273zM408 209h804v-209h-1028v1391h1016v-209h-792v-336h630v-209h-630v-428z" />
    <glyph glyph-name="Ecircumflex" unicode="&#xca;" horiz-adv-x="1314" 
d="M698 1702l-125 -170h-206l215 350h231l215 -350h-207zM408 209h804v-209h-1028v1391h1016v-209h-792v-336h630v-209h-630v-428z" />
    <glyph glyph-name="Edieresis" unicode="&#xcb;" horiz-adv-x="1314" 
d="M469 1556q-47 0 -81 33.5t-34 79.5q0 47 34 81t81 34q46 0 79.5 -34t33.5 -81q0 -46 -33.5 -79.5t-79.5 -33.5zM862 1556q-47 0 -80.5 33.5t-33.5 79.5q0 47 33.5 81t80.5 34q46 0 79.5 -34t33.5 -81q0 -46 -33.5 -79.5t-79.5 -33.5zM408 209h804v-209h-1028v1391h1016
v-209h-792v-336h630v-209h-630v-428z" />
    <glyph glyph-name="Igrave" unicode="&#xcc;" horiz-adv-x="591" 
d="M190 1532l-249 350h272l184 -350h-207zM184 0v1391h224v-1391h-224z" />
    <glyph glyph-name="Iacute" unicode="&#xcd;" horiz-adv-x="591" 
d="M199 1532l184 350h272l-249 -350h-207zM184 0v1391h224v-1391h-224z" />
    <glyph glyph-name="Icircumflex" unicode="&#xce;" horiz-adv-x="591" 
d="M-35 1532l215 350h232l215 -350h-207l-123 170l-125 -170h-207zM184 0v1391h224v-1391h-224z" />
    <glyph glyph-name="Idieresis" unicode="&#xcf;" horiz-adv-x="591" 
d="M68 1556q-47 0 -81 33.5t-34 79.5q0 47 34 81t81 34q46 0 79 -34t33 -81q0 -46 -33 -79.5t-79 -33.5zM461 1556q-47 0 -81 33.5t-34 79.5q0 47 34 81t81 34q46 0 79 -34t33 -81q0 -46 -33 -79.5t-79 -33.5zM184 0v1391h224v-1391h-224z" />
    <glyph glyph-name="Eth" unicode="&#xd0;" horiz-adv-x="1617" 
d="M750 1391q176 0 319 -51.5t238 -143.5t146.5 -220t51.5 -280q0 -150 -53.5 -278.5t-150.5 -221t-239 -144.5t-312 -52h-504v608h-246v185h246v598h504zM733 211q249 0 391.5 120.5t149.5 364.5q0 230 -138 358t-405 128h-262v-389h242v-185h-242v-397h264z" />
    <glyph glyph-name="Ntilde" unicode="&#xd1;" horiz-adv-x="1579" 
d="M940 1522q-75 0 -149 53h-3v2h-2q-75 55 -108 55q-9 0 -16 -3t-12 -6t-9.5 -11t-7 -12.5t-5.5 -15.5t-4 -15.5t-3 -17t-3 -15.5l-169 61q16 98 63 159t125 61q73 0 149 -54h2v-2h3q75 -55 108 -55q10 0 17.5 2.5t13.5 9.5t9.5 12.5t7 17t4.5 17t3.5 20t3.5 17.5l170 -61
q-16 -98 -63 -158.5t-125 -60.5zM184 0v1391h256l734 -1053v1053h221v-1391h-248l-741 1071v-1071h-222z" />
    <glyph glyph-name="Ograve" unicode="&#xd2;" horiz-adv-x="1644" 
d="M717 1532l-250 350h272l185 -350h-207zM821 -31q-207 -3 -376.5 96t-262.5 266.5t-90 364.5q-3 197 90 364.5t262.5 266.5t376.5 96q207 3 377 -96t263.5 -266.5t90.5 -364.5q3 -197 -90.5 -364.5t-263.5 -266.5t-377 -96zM821 180q226 0 363 146t137 370q0 146 -60 263
t-175 186t-265 69q-223 0 -361 -148t-138 -370q0 -223 137.5 -369.5t361.5 -146.5z" />
    <glyph glyph-name="Oacute" unicode="&#xd3;" horiz-adv-x="1644" 
d="M725 1532l184 350h273l-250 -350h-207zM821 -31q-207 -3 -376.5 96t-262.5 266.5t-90 364.5q-3 197 90 364.5t262.5 266.5t376.5 96q207 3 377 -96t263.5 -266.5t90.5 -364.5q3 -197 -90.5 -364.5t-263.5 -266.5t-377 -96zM821 180q226 0 363 146t137 370q0 146 -60 263
t-175 186t-265 69q-223 0 -361 -148t-138 -370q0 -223 137.5 -369.5t361.5 -146.5z" />
    <glyph glyph-name="Ocircumflex" unicode="&#xd4;" horiz-adv-x="1644" 
d="M492 1532l215 350h231l215 -350h-207l-123 170l-125 -170h-206zM821 -31q-207 -3 -376.5 96t-262.5 266.5t-90 364.5q-3 197 90 364.5t262.5 266.5t376.5 96q207 3 377 -96t263.5 -266.5t90.5 -364.5q3 -197 -90.5 -364.5t-263.5 -266.5t-377 -96zM821 180q226 0 363 146
t137 370q0 146 -60 263t-175 186t-265 69q-223 0 -361 -148t-138 -370q0 -223 137.5 -369.5t361.5 -146.5z" />
    <glyph glyph-name="Otilde" unicode="&#xd5;" horiz-adv-x="1644" 
d="M973 1522q-76 0 -150 53h-2v2h-2q-75 55 -108 55q-9 0 -16 -3t-12 -6t-9.5 -11t-7 -12.5t-5.5 -15.5t-4 -15.5t-3 -17t-3 -15.5l-170 61q16 97 63.5 158.5t125.5 61.5q73 0 149 -54h2v-2h2q75 -55 109 -55q10 0 17.5 2.5t13.5 9.5t9.5 12.5t7 17t4.5 17t3.5 20t3.5 17.5
l170 -61q-16 -98 -63 -158.5t-125 -60.5zM821 -31q-207 -3 -376.5 96t-262.5 266.5t-90 364.5q-3 197 90 364.5t262.5 266.5t376.5 96q207 3 377 -96t263.5 -266.5t90.5 -364.5q3 -197 -90.5 -364.5t-263.5 -266.5t-377 -96zM821 180q226 0 363 146t137 370q0 146 -60 263
t-175 186t-265 69q-223 0 -361 -148t-138 -370q0 -223 137.5 -369.5t361.5 -146.5z" />
    <glyph glyph-name="Odieresis" unicode="&#xd6;" horiz-adv-x="1644" 
d="M594 1556q-47 0 -81 33.5t-34 79.5q0 47 34 81t81 34q46 0 79.5 -34t33.5 -81q0 -46 -33.5 -79.5t-79.5 -33.5zM987 1556q-47 0 -81 33.5t-34 79.5q0 47 34 81t81 34q46 0 79.5 -34t33.5 -81q0 -46 -33.5 -79.5t-79.5 -33.5zM821 -31q-207 -3 -376.5 96t-262.5 266.5
t-90 364.5q-3 197 90 364.5t262.5 266.5t376.5 96q207 3 377 -96t263.5 -266.5t90.5 -364.5q3 -197 -90.5 -364.5t-263.5 -266.5t-377 -96zM821 180q226 0 363 146t137 370q0 146 -60 263t-175 186t-265 69q-223 0 -361 -148t-138 -370q0 -223 137.5 -369.5t361.5 -146.5z
" />
    <glyph glyph-name="multiply" unicode="&#xd7;" horiz-adv-x="1386" 
d="M393 227l-149 150l311 311l-311 311l149 150l312 -311l311 311l149 -150l-311 -311l311 -311l-149 -150l-311 312z" />
    <glyph glyph-name="Oslash" unicode="&#xd8;" horiz-adv-x="1644" 
d="M1427 1116q128 -189 125 -420q3 -197 -90.5 -364.5t-263.5 -266.5t-377 -96q-264 -3 -461 154l-159 -150l-160 160l168 156q-120 185 -117 407q-3 197 90 364.5t262.5 266.5t376.5 96q257 3 451 -145l168 158l159 -160zM322 696q0 -140 55 -250l733 684q-124 84 -289 84
q-223 0 -361 -148t-138 -370zM821 180q226 0 363 146t137 370q0 149 -61 265l-738 -689q125 -92 299 -92z" />
    <glyph glyph-name="Ugrave" unicode="&#xd9;" horiz-adv-x="1445" 
d="M616 1532l-249 350h272l184 -350h-207zM723 -31q-127 0 -229 32.5t-179 98.5t-119 175.5t-42 254.5v861h223v-856q0 -176 97 -263.5t249 -87.5q171 0 258.5 84.5t87.5 266.5v856h223v-861q0 -145 -42 -254.5t-119 -175.5t-179 -98.5t-229 -32.5z" />
    <glyph glyph-name="Uacute" unicode="&#xda;" horiz-adv-x="1445" 
d="M625 1532l184 350h272l-250 -350h-206zM723 -31q-127 0 -229 32.5t-179 98.5t-119 175.5t-42 254.5v861h223v-856q0 -176 97 -263.5t249 -87.5q171 0 258.5 84.5t87.5 266.5v856h223v-861q0 -145 -42 -254.5t-119 -175.5t-179 -98.5t-229 -32.5z" />
    <glyph glyph-name="Ucircumflex" unicode="&#xdb;" horiz-adv-x="1445" 
d="M391 1532l215 350h232l215 -350h-207l-123 170l-125 -170h-207zM723 -31q-127 0 -229 32.5t-179 98.5t-119 175.5t-42 254.5v861h223v-856q0 -176 97 -263.5t249 -87.5q171 0 258.5 84.5t87.5 266.5v856h223v-861q0 -145 -42 -254.5t-119 -175.5t-179 -98.5t-229 -32.5z
" />
    <glyph glyph-name="Udieresis" unicode="&#xdc;" horiz-adv-x="1445" 
d="M494 1556q-47 0 -81 33.5t-34 79.5q0 47 34 81t81 34q46 0 79 -34t33 -81q0 -46 -33 -79.5t-79 -33.5zM887 1556q-47 0 -81 33.5t-34 79.5q0 47 34 81t81 34q46 0 79 -34t33 -81q0 -46 -33 -79.5t-79 -33.5zM723 -31q-127 0 -229 32.5t-179 98.5t-119 175.5t-42 254.5
v861h223v-856q0 -176 97 -263.5t249 -87.5q171 0 258.5 84.5t87.5 266.5v856h223v-861q0 -145 -42 -254.5t-119 -175.5t-179 -98.5t-229 -32.5z" />
    <glyph glyph-name="Yacute" unicode="&#xdd;" horiz-adv-x="1384" 
d="M1051 1882l-250 -350h-207l184 350h273zM1075 1391h268l-538 -795v-596h-225v596l-539 795h266l385 -592z" />
    <glyph glyph-name="Thorn" unicode="&#xde;" horiz-adv-x="1429" 
d="M797 1206q251 0 391.5 -135t140.5 -373q0 -232 -147.5 -370t-390.5 -138h-383v-190h-224v1391h224v-185h389zM780 395q320 0 320 299q0 303 -320 303h-372v-602h372z" />
    <glyph glyph-name="germandbls" unicode="&#xdf;" horiz-adv-x="1243" 
d="M688 -27q-41 0 -88 7v192q54 -8 88 -8q42 0 82 10.5t79 33.5t63 68t24 107q0 79 -45.5 139.5t-113 89.5t-142.5 29h-35v186q46 0 89.5 11.5t83 36.5t63.5 71t24 107q0 99 -55.5 147.5t-157.5 48.5q-99 0 -171.5 -75t-72.5 -207v-967h-219v649h-164v176h164v121
q0 219 124 351.5t339 132.5q205 0 313.5 -97t108.5 -278q0 -116 -67 -196.5t-177 -102.5q156 -26 246 -127.5t90 -239.5q0 -132 -64.5 -227.5t-170.5 -142t-238 -46.5z" />
    <glyph glyph-name="agrave" unicode="&#xe0;" horiz-adv-x="1376" 
d="M571 1198l-249 350h272l184 -350h-207zM635 -31q-159 0 -286 75t-197 202.5t-70 281.5t70 282t197.5 204t285.5 76q110 0 203.5 -37.5t152.5 -96.5v103h219v-1059h-223l2 109q-136 -140 -354 -140zM651 166q153 0 253 98t100 266q0 167 -100.5 265t-252.5 98
q-148 0 -248 -105.5t-100 -257.5t100 -258t248 -106z" />
    <glyph glyph-name="aacute" unicode="&#xe1;" horiz-adv-x="1376" 
d="M580 1198l184 350h272l-250 -350h-206zM635 -31q-159 0 -286 75t-197 202.5t-70 281.5t70 282t197.5 204t285.5 76q110 0 203.5 -37.5t152.5 -96.5v103h219v-1059h-223l2 109q-136 -140 -354 -140zM651 166q153 0 253 98t100 266q0 167 -100.5 265t-252.5 98
q-148 0 -248 -105.5t-100 -257.5t100 -258t248 -106z" />
    <glyph glyph-name="acircumflex" unicode="&#xe2;" horiz-adv-x="1376" 
d="M346 1198l215 350h232l215 -350h-207l-123 170l-125 -170h-207zM635 -31q-159 0 -286 75t-197 202.5t-70 281.5t70 282t197.5 204t285.5 76q110 0 203.5 -37.5t152.5 -96.5v103h219v-1059h-223l2 109q-136 -140 -354 -140zM651 166q153 0 253 98t100 266
q0 167 -100.5 265t-252.5 98q-148 0 -248 -105.5t-100 -257.5t100 -258t248 -106z" />
    <glyph glyph-name="atilde" unicode="&#xe3;" horiz-adv-x="1376" 
d="M827 1188q-75 0 -149 53h-2v2h-2q-75 55 -109 55q-10 0 -17.5 -2.5t-13.5 -9.5t-9.5 -12.5t-7 -17t-4.5 -17t-3.5 -20t-3.5 -17.5l-170 62q16 98 63 158.5t125 60.5q76 0 150 -53h2v-3h2q75 -55 108 -55q9 0 16 3t12 6t9.5 11t7 12.5t5.5 15.5t4 15.5t3 17t3 15.5
l170 -61q-16 -97 -63.5 -158t-125.5 -61zM635 -31q-159 0 -286 75t-197 202.5t-70 281.5t70 282t197.5 204t285.5 76q110 0 203.5 -37.5t152.5 -96.5v103h219v-1059h-223l2 109q-136 -140 -354 -140zM651 166q153 0 253 98t100 266q0 167 -100.5 265t-252.5 98
q-148 0 -248 -105.5t-100 -257.5t100 -258t248 -106z" />
    <glyph glyph-name="adieresis" unicode="&#xe4;" horiz-adv-x="1376" 
d="M449 1223q-47 0 -81 33t-34 79q0 47 34 81t81 34q46 0 79 -34t33 -81q0 -46 -33 -79t-79 -33zM842 1223q-47 0 -81 33t-34 79q0 47 34 81t81 34q46 0 79 -34t33 -81q0 -46 -33 -79t-79 -33zM635 -31q-159 0 -286 75t-197 202.5t-70 281.5t70 282t197.5 204t285.5 76
q110 0 203.5 -37.5t152.5 -96.5v103h219v-1059h-223l2 109q-136 -140 -354 -140zM651 166q153 0 253 98t100 266q0 167 -100.5 265t-252.5 98q-148 0 -248 -105.5t-100 -257.5t100 -258t248 -106z" />
    <glyph glyph-name="aring" unicode="&#xe5;" horiz-adv-x="1376" 
d="M676 1188q-89 0 -149 60.5t-60 148.5q0 90 60 151.5t149 61.5q88 0 149.5 -62t61.5 -151q0 -88 -61.5 -148.5t-149.5 -60.5zM676 1335q26 0 44.5 18t18.5 44q0 28 -18.5 46.5t-44.5 18.5t-44 -18.5t-18 -46.5q0 -26 18 -44t44 -18zM635 -31q-159 0 -286 75t-197 202.5
t-70 281.5t70 282t197.5 204t285.5 76q110 0 203.5 -37.5t152.5 -96.5v103h219v-1059h-223l2 109q-136 -140 -354 -140zM651 166q153 0 253 98t100 266q0 167 -100.5 265t-252.5 98q-148 0 -248 -105.5t-100 -257.5t100 -258t248 -106z" />
    <glyph glyph-name="ae" unicode="&#xe6;" horiz-adv-x="1992" 
d="M1911 477h-836v-49q32 -116 124.5 -189t244.5 -73q42 0 83 4t75 10t66 14.5t57.5 17.5t48 18t38.5 17.5t28 14.5t18 10l6 4v-198q-5 -4 -14.5 -11.5t-46 -26.5t-80.5 -33t-120 -26t-163 -12q-152 0 -270.5 54t-194.5 149q-66 -101 -185 -152t-270 -51q-192 0 -315 99
t-123 258q0 161 123 260.5t315 99.5q197 0 334 -70v27q0 130 -83 191t-228 61q-179 0 -340 -78v203q137 72 364 72q307 0 434 -179q78 83 187.5 130t236.5 47q111 0 204.5 -43.5t154 -115.5t94 -163t33.5 -188v-103zM1397 909q-66 0 -121 -19.5t-89 -48t-59.5 -65.5t-37 -68
t-15.5 -59h615q-3 29 -11 59t-29.5 67.5t-52 66t-82.5 48t-118 19.5zM561 150q145 0 219 47t74 129q0 90 -78 135t-215 45q-118 0 -192 -47.5t-74 -132.5q0 -88 78.5 -132t187.5 -44z" />
    <glyph glyph-name="ccedilla" unicode="&#xe7;" horiz-adv-x="1132" 
d="M1061 70q-100 -79 -309 -99l-33 -104q5 -1 14 -3.5t32 -12t40.5 -23t32 -37.5t14.5 -53q0 -47 -26.5 -81.5t-70.5 -53t-92 -27t-100 -8.5v119q46 0 84.5 18.5t38.5 54.5q0 31 -29 50.5t-59 23.5l-29 4l37 135q-168 14 -288.5 93t-178 198t-57.5 266q0 154 72.5 281.5
t206 203t301.5 75.5q105 0 208 -32t170 -95v-228q-5 7 -15 17.5t-45 38t-75 48.5t-106 38.5t-137 17.5q-155 0 -260 -106.5t-105 -258.5q0 -165 104.5 -265.5t280.5 -100.5q69 0 134 11.5t107.5 27.5t75 32t47.5 27l15 12v-204z" />
    <glyph glyph-name="egrave" unicode="&#xe8;" horiz-adv-x="1220" 
d="M547 1198l-250 350h272l185 -350h-207zM668 -31q-136 0 -248 44.5t-185.5 121.5t-113 178.5t-39.5 216.5q0 157 74 285t205 201.5t292 73.5q111 0 204.5 -43.5t154 -115.5t94 -163t33.5 -188v-103h-846q21 -135 115.5 -223t263.5 -88q42 0 83 4t75 10t66 14.5t57.5 17.5
t48 18t38.5 17.5t28 14.5t18 10l6 4v-198q-5 -4 -14.5 -11.5t-46 -26.5t-80.5 -33t-120 -26t-163 -12zM303 649h615q-3 29 -11 59t-29.5 67.5t-52 66t-82.5 48t-118 19.5t-121 -19.5t-89 -48t-59.5 -65.5t-37 -68t-15.5 -59z" />
    <glyph glyph-name="eacute" unicode="&#xe9;" horiz-adv-x="1220" 
d="M555 1198l184 350h273l-250 -350h-207zM668 -31q-136 0 -248 44.5t-185.5 121.5t-113 178.5t-39.5 216.5q0 157 74 285t205 201.5t292 73.5q111 0 204.5 -43.5t154 -115.5t94 -163t33.5 -188v-103h-846q21 -135 115.5 -223t263.5 -88q42 0 83 4t75 10t66 14.5t57.5 17.5
t48 18t38.5 17.5t28 14.5t18 10l6 4v-198q-5 -4 -14.5 -11.5t-46 -26.5t-80.5 -33t-120 -26t-163 -12zM303 649h615q-3 29 -11 59t-29.5 67.5t-52 66t-82.5 48t-118 19.5t-121 -19.5t-89 -48t-59.5 -65.5t-37 -68t-15.5 -59z" />
    <glyph glyph-name="ecircumflex" unicode="&#xea;" horiz-adv-x="1220" 
d="M322 1198l215 350h231l215 -350h-207l-123 170l-125 -170h-206zM668 -31q-136 0 -248 44.5t-185.5 121.5t-113 178.5t-39.5 216.5q0 157 74 285t205 201.5t292 73.5q111 0 204.5 -43.5t154 -115.5t94 -163t33.5 -188v-103h-846q21 -135 115.5 -223t263.5 -88q42 0 83 4
t75 10t66 14.5t57.5 17.5t48 18t38.5 17.5t28 14.5t18 10l6 4v-198q-5 -4 -14.5 -11.5t-46 -26.5t-80.5 -33t-120 -26t-163 -12zM303 649h615q-3 29 -11 59t-29.5 67.5t-52 66t-82.5 48t-118 19.5t-121 -19.5t-89 -48t-59.5 -65.5t-37 -68t-15.5 -59z" />
    <glyph glyph-name="edieresis" unicode="&#xeb;" horiz-adv-x="1220" 
d="M424 1223q-47 0 -81 33t-34 79q0 47 34 81t81 34q46 0 79.5 -34t33.5 -81q0 -46 -33.5 -79t-79.5 -33zM817 1223q-47 0 -81 33t-34 79q0 47 34 81t81 34q46 0 79.5 -34t33.5 -81q0 -46 -33.5 -79t-79.5 -33zM668 -31q-136 0 -248 44.5t-185.5 121.5t-113 178.5
t-39.5 216.5q0 157 74 285t205 201.5t292 73.5q111 0 204.5 -43.5t154 -115.5t94 -163t33.5 -188v-103h-846q21 -135 115.5 -223t263.5 -88q42 0 83 4t75 10t66 14.5t57.5 17.5t48 18t38.5 17.5t28 14.5t18 10l6 4v-198q-5 -4 -14.5 -11.5t-46 -26.5t-80.5 -33t-120 -26
t-163 -12zM303 649h615q-3 29 -11 59t-29.5 67.5t-52 66t-82.5 48t-118 19.5t-121 -19.5t-89 -48t-59.5 -65.5t-37 -68t-15.5 -59z" />
    <glyph glyph-name="igrave" unicode="&#xec;" horiz-adv-x="561" 
d="M182 1198l-250 350h273l184 -350h-207zM176 0v1059h221v-1059h-221z" />
    <glyph glyph-name="iacute" unicode="&#xed;" horiz-adv-x="561" 
d="M190 1198l185 350h272l-250 -350h-207zM176 0v1059h221v-1059h-221z" />
    <glyph glyph-name="icircumflex" unicode="&#xee;" horiz-adv-x="561" 
d="M-43 1198l215 350h231l215 -350h-206l-123 170l-125 -170h-207zM176 0v1059h221v-1059h-221z" />
    <glyph glyph-name="idieresis" unicode="&#xef;" horiz-adv-x="561" 
d="M59 1223q-47 0 -80.5 33t-33.5 79q0 47 33.5 81t80.5 34q46 0 79.5 -34t33.5 -81q0 -46 -33.5 -79t-79.5 -33zM453 1223q-47 0 -81 33t-34 79q0 47 34 81t81 34q46 0 79 -34t33 -81q0 -46 -33 -79t-79 -33zM176 0v1059h221v-1059h-221z" />
    <glyph glyph-name="eth" unicode="&#xf0;" horiz-adv-x="1206" 
d="M604 -31q-235 0 -378.5 130.5t-143.5 344.5q0 215 138 346.5t362 131.5q113 0 205 -47t145 -119q-62 237 -227 338l-52 -115l-166 80l48 102q-127 31 -328 31v192q235 0 403 -55l43 96l164 -82l-39 -86q346 -202 346 -698q0 -286 -144 -438t-376 -152zM604 166
q133 0 217 85t84 200q0 122 -86.5 198t-236.5 76q-126 0 -202.5 -75.5t-76.5 -198.5q0 -128 83 -206.5t218 -78.5z" />
    <glyph glyph-name="ntilde" unicode="&#xf1;" horiz-adv-x="1296" 
d="M602 1298q-10 0 -17.5 -2.5t-13.5 -9.5t-9.5 -12.5t-7 -17t-4.5 -17t-3.5 -20t-3.5 -17.5l-170 62q16 98 63 158.5t125 60.5q76 0 150 -53h2v-3h2q75 -55 108 -55q9 0 16 3t12 6t9.5 11t7 12.5t5.5 15.5t4 15.5t3 17t3 15.5l170 -61q-16 -97 -63.5 -158t-125.5 -61
q-75 0 -149 53h-2v2h-2q-75 55 -109 55zM727 1092q121 0 216 -48.5t152.5 -150t57.5 -242.5v-651h-221v629q0 126 -64 196t-174 70q-124 0 -210.5 -78.5t-86.5 -220.5v-596h-221v1059h221v-131q3 7 9.5 18t32.5 39t60 50t95 39.5t133 17.5z" />
    <glyph glyph-name="ograve" unicode="&#xf2;" horiz-adv-x="1323" 
d="M555 1198l-250 350h273l184 -350h-207zM662 -31q-158 0 -292 75t-211 203.5t-77 280.5q0 114 45.5 218t123 179.5t185 120t226.5 44.5q158 0 291.5 -75.5t210.5 -205t77 -281.5t-77 -280.5t-210.5 -203.5t-291.5 -75zM662 168q156 0 261 105t105 255q0 152 -105 257.5
t-261 105.5t-261.5 -105.5t-105.5 -257.5q0 -150 105.5 -255t261.5 -105z" />
    <glyph glyph-name="oacute" unicode="&#xf3;" horiz-adv-x="1323" 
d="M563 1198l185 350h272l-250 -350h-207zM662 -31q-158 0 -292 75t-211 203.5t-77 280.5q0 114 45.5 218t123 179.5t185 120t226.5 44.5q158 0 291.5 -75.5t210.5 -205t77 -281.5t-77 -280.5t-210.5 -203.5t-291.5 -75zM662 168q156 0 261 105t105 255q0 152 -105 257.5
t-261 105.5t-261.5 -105.5t-105.5 -257.5q0 -150 105.5 -255t261.5 -105z" />
    <glyph glyph-name="ocircumflex" unicode="&#xf4;" horiz-adv-x="1323" 
d="M330 1198l215 350h231l215 -350h-207l-122 170l-125 -170h-207zM662 -31q-158 0 -292 75t-211 203.5t-77 280.5q0 114 45.5 218t123 179.5t185 120t226.5 44.5q158 0 291.5 -75.5t210.5 -205t77 -281.5t-77 -280.5t-210.5 -203.5t-291.5 -75zM662 168q156 0 261 105
t105 255q0 152 -105 257.5t-261 105.5t-261.5 -105.5t-105.5 -257.5q0 -150 105.5 -255t261.5 -105z" />
    <glyph glyph-name="otilde" unicode="&#xf5;" horiz-adv-x="1323" 
d="M811 1188q-75 0 -149 53h-3v2h-2q-75 55 -108 55q-9 0 -16 -3t-12 -6t-9.5 -11t-7 -12.5t-5.5 -15.5t-4 -15.5t-3 -17t-3 -15.5l-170 62q16 97 63.5 158t125.5 61q75 0 149 -53h2v-3h3q75 -55 108 -55q10 0 17.5 2.5t13.5 9.5t9.5 12.5t7 17t4.5 17t3.5 20t3.5 17.5
l170 -61q-16 -98 -63 -158.5t-125 -60.5zM662 -31q-158 0 -292 75t-211 203.5t-77 280.5q0 114 45.5 218t123 179.5t185 120t226.5 44.5q158 0 291.5 -75.5t210.5 -205t77 -281.5t-77 -280.5t-210.5 -203.5t-291.5 -75zM662 168q156 0 261 105t105 255q0 152 -105 257.5
t-261 105.5t-261.5 -105.5t-105.5 -257.5q0 -150 105.5 -255t261.5 -105z" />
    <glyph glyph-name="odieresis" unicode="&#xf6;" horiz-adv-x="1323" 
d="M432 1223q-47 0 -81 33t-34 79q0 47 34 81t81 34q46 0 79.5 -34t33.5 -81q0 -46 -33.5 -79t-79.5 -33zM825 1223q-47 0 -80.5 33t-33.5 79q0 47 33.5 81t80.5 34q46 0 79.5 -34t33.5 -81q0 -46 -33.5 -79t-79.5 -33zM662 -31q-158 0 -292 75t-211 203.5t-77 280.5
q0 114 45.5 218t123 179.5t185 120t226.5 44.5q158 0 291.5 -75.5t210.5 -205t77 -281.5t-77 -280.5t-210.5 -203.5t-291.5 -75zM662 168q156 0 261 105t105 255q0 152 -105 257.5t-261 105.5t-261.5 -105.5t-105.5 -257.5q0 -150 105.5 -255t261.5 -105z" />
    <glyph glyph-name="divide" unicode="&#xf7;" horiz-adv-x="1198" 
d="M600 735q-70 0 -117 46.5t-47 117.5q0 68 47 116t117 48q68 0 116 -48.5t48 -115.5q0 -70 -48 -117t-116 -47zM145 422v209h908v-209h-908zM600 -14q-70 0 -117 47t-47 117q0 68 47 115.5t117 47.5q68 0 116 -48t48 -115q0 -70 -48 -117t-116 -47z" />
    <glyph glyph-name="oslash" unicode="&#xf8;" horiz-adv-x="1323" 
d="M1241 930l-96 -92q96 -138 96 -310q0 -152 -77 -280.5t-210.5 -203.5t-291.5 -75q-175 0 -322 94l-98 -94l-160 160l94 92q-94 140 -94 307q0 114 45.5 218t123 179.5t185 120t226.5 44.5q173 0 321 -95l98 95zM295 528q0 -86 37 -159l502 481q-77 41 -172 41
q-156 0 -261.5 -105.5t-105.5 -257.5zM1028 528q0 89 -37 162l-502 -481q77 -41 173 -41q156 0 261 105t105 255z" />
    <glyph glyph-name="ugrave" unicode="&#xf9;" horiz-adv-x="1249" 
d="M518 1198l-250 350h273l184 -350h-207zM625 -33q-39 0 -69.5 1.5t-83.5 11t-93.5 26.5t-87 51.5t-77 81.5t-51 121.5t-20.5 167.5v631h222v-637v-14.5t4 -36.5t12.5 -51.5t27.5 -54.5t45.5 -51.5t70.5 -36.5t100 -15t100 14.5t70.5 37.5t45.5 50.5t27.5 55t12.5 50.5
t4 38v14v637h221v-631q0 -93 -20.5 -167.5t-51 -121.5t-77 -81.5t-86.5 -51.5t-93 -26.5t-83.5 -11t-69.5 -1.5z" />
    <glyph glyph-name="uacute" unicode="&#xfa;" horiz-adv-x="1249" 
d="M526 1198l185 350h272l-250 -350h-207zM625 -33q-39 0 -69.5 1.5t-83.5 11t-93.5 26.5t-87 51.5t-77 81.5t-51 121.5t-20.5 167.5v631h222v-637v-14.5t4 -36.5t12.5 -51.5t27.5 -54.5t45.5 -51.5t70.5 -36.5t100 -15t100 14.5t70.5 37.5t45.5 50.5t27.5 55t12.5 50.5
t4 38v14v637h221v-631q0 -93 -20.5 -167.5t-51 -121.5t-77 -81.5t-86.5 -51.5t-93 -26.5t-83.5 -11t-69.5 -1.5z" />
    <glyph glyph-name="ucircumflex" unicode="&#xfb;" horiz-adv-x="1249" 
d="M293 1198l215 350h231l215 -350h-206l-123 170l-125 -170h-207zM625 -33q-39 0 -69.5 1.5t-83.5 11t-93.5 26.5t-87 51.5t-77 81.5t-51 121.5t-20.5 167.5v631h222v-637v-14.5t4 -36.5t12.5 -51.5t27.5 -54.5t45.5 -51.5t70.5 -36.5t100 -15t100 14.5t70.5 37.5
t45.5 50.5t27.5 55t12.5 50.5t4 38v14v637h221v-631q0 -93 -20.5 -167.5t-51 -121.5t-77 -81.5t-86.5 -51.5t-93 -26.5t-83.5 -11t-69.5 -1.5z" />
    <glyph glyph-name="udieresis" unicode="&#xfc;" horiz-adv-x="1249" 
d="M395 1223q-47 0 -80.5 33t-33.5 79q0 47 33.5 81t80.5 34q46 0 79.5 -34t33.5 -81q0 -46 -33.5 -79t-79.5 -33zM788 1223q-47 0 -80.5 33t-33.5 79q0 47 33.5 81t80.5 34q46 0 79.5 -34t33.5 -81q0 -46 -33.5 -79t-79.5 -33zM625 -33q-39 0 -69.5 1.5t-83.5 11
t-93.5 26.5t-87 51.5t-77 81.5t-51 121.5t-20.5 167.5v631h222v-637v-14.5t4 -36.5t12.5 -51.5t27.5 -54.5t45.5 -51.5t70.5 -36.5t100 -15t100 14.5t70.5 37.5t45.5 50.5t27.5 55t12.5 50.5t4 38v14v637h221v-631q0 -93 -20.5 -167.5t-51 -121.5t-77 -81.5t-86.5 -51.5
t-93 -26.5t-83.5 -11t-69.5 -1.5z" />
    <glyph glyph-name="yacute" unicode="&#xfd;" horiz-adv-x="1200" 
d="M502 1198l184 350h272l-249 -350h-207zM209 -426l276 549l-444 936h231l328 -703l328 703h231l-715 -1485h-235z" />
    <glyph glyph-name="thorn" unicode="&#xfe;" horiz-adv-x="1378" 
d="M166 -434v1825l221 36v-471q59 59 152.5 96.5t203.5 37.5q158 0 285.5 -76t197.5 -204t70 -282t-70 -281.5t-197 -202.5t-286 -75q-223 0 -356 144v-547h-221zM748 166q147 0 240 104.5t93 257.5q0 154 -93 259.5t-240 105.5q-156 0 -264.5 -99t-108.5 -266
q0 -111 52 -194.5t136 -125.5t185 -42z" />
    <glyph glyph-name="ydieresis" unicode="&#xff;" horiz-adv-x="1200" 
d="M371 1223q-47 0 -81 33t-34 79q0 47 34 81t81 34q46 0 79 -34t33 -81q0 -46 -33 -79t-79 -33zM764 1223q-47 0 -81 33t-34 79q0 47 34 81t81 34q46 0 79.5 -34t33.5 -81q0 -46 -33.5 -79t-79.5 -33zM209 -426l276 549l-444 936h231l328 -703l328 703h231l-715 -1485h-235
z" />
    <glyph glyph-name="Amacron" unicode="&#x100;" horiz-adv-x="1542" 
d="M481 1563v184h568v-184h-568zM43 0l619 1391h219l618 -1391h-260l-133 330h-670l-133 -330h-260zM520 539h502l-250 591z" />
    <glyph glyph-name="amacron" unicode="&#x101;" horiz-adv-x="1376" 
d="M393 1229v184h568v-184h-568zM635 -31q-159 0 -286 75t-197 202.5t-70 281.5t70 282t197.5 204t285.5 76q110 0 203.5 -37.5t152.5 -96.5v103h219v-1059h-223l2 109q-136 -140 -354 -140zM651 166q153 0 253 98t100 266q0 167 -100.5 265t-252.5 98q-148 0 -248 -105.5
t-100 -257.5t100 -258t248 -106z" />
    <glyph glyph-name="Abreve" unicode="&#x102;" horiz-adv-x="1542" 
d="M764 1532q-86 0 -152 32t-103.5 84.5t-56 111.5t-18.5 122h207q0 -34 10.5 -70.5t40.5 -68t72 -31.5q43 0 73 31.5t41 68t11 70.5h207q0 -62 -19 -121.5t-56.5 -112t-104 -84.5t-152.5 -32zM43 0l619 1391h219l618 -1391h-260l-133 330h-670l-133 -330h-260zM520 539h502
l-250 591z" />
    <glyph glyph-name="abreve" unicode="&#x103;" horiz-adv-x="1376" 
d="M676 1198q-86 0 -152 32t-103.5 84.5t-56 111.5t-18.5 122h207q0 -34 10.5 -70.5t40.5 -68t72 -31.5q43 0 73 31.5t41 68t11 70.5h207q0 -62 -19 -121.5t-56.5 -112t-104 -84.5t-152.5 -32zM635 -31q-159 0 -286 75t-197 202.5t-70 281.5t70 282t197.5 204t285.5 76
q110 0 203.5 -37.5t152.5 -96.5v103h219v-1059h-223l2 109q-136 -140 -354 -140zM651 166q153 0 253 98t100 266q0 167 -100.5 265t-252.5 98q-148 0 -248 -105.5t-100 -257.5t100 -258t248 -106z" />
    <glyph glyph-name="Aogonek" unicode="&#x104;" horiz-adv-x="1542" 
d="M1403 -193q0 -47 27.5 -67.5t95.5 -20.5v-180q-43 0 -91 12t-98 37.5t-82 74.5t-32 114q0 37 12.5 74t30 62.5t35 46t29.5 30.5l13 10h-104l-133 330h-670l-133 -330h-260l619 1391h219l618 -1391q-11 -13 -27 -34.5t-42.5 -73t-26.5 -85.5zM520 539h502l-250 591z" />
    <glyph glyph-name="aogonek" unicode="&#x105;" horiz-adv-x="1376" 
d="M1112 -193q0 -47 27.5 -67.5t95.5 -20.5v-180q-43 0 -91 12t-98 37.5t-82 74.5t-32 114q0 37 12.5 74t30 62.5t35.5 46t30 30.5l13 10h-66l2 109q-136 -140 -354 -140q-159 0 -286 75t-197 202.5t-70 281.5t70 282t197.5 204t285.5 76q110 0 203.5 -37.5t152.5 -96.5v103
h219v-1059h-2q-11 -13 -27 -34.5t-42.5 -73t-26.5 -85.5zM651 166q153 0 253 98t100 266q0 167 -100.5 265t-252.5 98q-148 0 -248 -105.5t-100 -257.5t100 -258t248 -106z" />
    <glyph glyph-name="Cacute" unicode="&#x106;" horiz-adv-x="1441" 
d="M760 1532l184 350h273l-250 -350h-207zM860 -31q-167 -2 -313 55.5t-245.5 156.5t-155.5 233t-54 282q-2 148 54 282t155.5 233t245.5 156.5t313 55.5q270 0 451 -123v-235q-6 9 -42.5 32t-94.5 50t-143.5 47t-170.5 20q-124 0 -226 -40t-169.5 -110t-104 -164.5
t-36.5 -203.5q0 -147 62.5 -263.5t185.5 -184.5t288 -68q140 0 271.5 40.5t218.5 113.5v-240q-1 0 -20.5 -12t-37 -21t-50 -23.5t-69.5 -25t-84 -21.5t-106 -16.5t-123 -5.5z" />
    <glyph glyph-name="cacute" unicode="&#x107;" horiz-adv-x="1132" 
d="M565 1198l185 350h272l-250 -350h-207zM682 -31q-144 0 -259.5 44t-189 121t-112.5 178t-39 218q0 154 72.5 281.5t206 203t301.5 75.5q105 0 208 -32t170 -95v-228q-5 7 -15 17.5t-45 38t-75 48.5t-106 38.5t-137 17.5q-155 0 -260 -106.5t-105 -258.5
q0 -165 104.5 -265.5t280.5 -100.5q69 0 134 11.5t107.5 27.5t75 32t47.5 27l15 12v-204q-66 -52 -173.5 -76.5t-205.5 -24.5z" />
    <glyph glyph-name="Cdotaccent" unicode="&#x10a;" horiz-adv-x="1441" 
d="M856 1542q-52 0 -88.5 36t-36.5 89q0 54 36 90.5t89 36.5q54 0 90.5 -36.5t36.5 -90.5q0 -53 -36.5 -89t-90.5 -36zM860 -31q-167 -2 -313 55.5t-245.5 156.5t-155.5 233t-54 282q-2 148 54 282t155.5 233t245.5 156.5t313 55.5q270 0 451 -123v-235q-6 9 -42.5 32
t-94.5 50t-143.5 47t-170.5 20q-124 0 -226 -40t-169.5 -110t-104 -164.5t-36.5 -203.5q0 -147 62.5 -263.5t185.5 -184.5t288 -68q140 0 271.5 40.5t218.5 113.5v-240q-1 0 -20.5 -12t-37 -21t-50 -23.5t-69.5 -25t-84 -21.5t-106 -16.5t-123 -5.5z" />
    <glyph glyph-name="cdotaccent" unicode="&#x10b;" horiz-adv-x="1132" 
d="M662 1208q-52 0 -88.5 36t-36.5 89q0 54 36 90.5t89 36.5q54 0 90 -36.5t36 -90.5q0 -53 -36 -89t-90 -36zM682 -31q-144 0 -259.5 44t-189 121t-112.5 178t-39 218q0 154 72.5 281.5t206 203t301.5 75.5q105 0 208 -32t170 -95v-228q-5 7 -15 17.5t-45 38t-75 48.5
t-106 38.5t-137 17.5q-155 0 -260 -106.5t-105 -258.5q0 -165 104.5 -265.5t280.5 -100.5q69 0 134 11.5t107.5 27.5t75 32t47.5 27l15 12v-204q-66 -52 -173.5 -76.5t-205.5 -24.5z" />
    <glyph glyph-name="Ccaron" unicode="&#x10c;" horiz-adv-x="1441" 
d="M741 1532l-215 350h207l125 -170l123 170h207l-215 -350h-232zM860 -31q-167 -2 -313 55.5t-245.5 156.5t-155.5 233t-54 282q-2 148 54 282t155.5 233t245.5 156.5t313 55.5q270 0 451 -123v-235q-6 9 -42.5 32t-94.5 50t-143.5 47t-170.5 20q-124 0 -226 -40
t-169.5 -110t-104 -164.5t-36.5 -203.5q0 -147 62.5 -263.5t185.5 -184.5t288 -68q140 0 271.5 40.5t218.5 113.5v-240q-1 0 -20.5 -12t-37 -21t-50 -23.5t-69.5 -25t-84 -21.5t-106 -16.5t-123 -5.5z" />
    <glyph glyph-name="ccaron" unicode="&#x10d;" horiz-adv-x="1132" 
d="M547 1198l-215 350h207l125 -170l122 170h207l-215 -350h-231zM682 -31q-144 0 -259.5 44t-189 121t-112.5 178t-39 218q0 154 72.5 281.5t206 203t301.5 75.5q105 0 208 -32t170 -95v-228q-5 7 -15 17.5t-45 38t-75 48.5t-106 38.5t-137 17.5q-155 0 -260 -106.5
t-105 -258.5q0 -165 104.5 -265.5t280.5 -100.5q69 0 134 11.5t107.5 27.5t75 32t47.5 27l15 12v-204q-66 -52 -173.5 -76.5t-205.5 -24.5z" />
    <glyph glyph-name="Dcaron" unicode="&#x10e;" horiz-adv-x="1556" 
d="M893 1532h-231l-216 350h207l125 -170l123 170h207zM688 1391q176 0 319 -51.5t238.5 -143.5t147 -220t51.5 -280q0 -150 -54 -278.5t-151 -221t-239 -144.5t-312 -52h-504v1391h504zM672 211q249 0 391 120.5t149 364.5q0 230 -137.5 358t-404.5 128h-262v-971h264z" />
    <glyph glyph-name="dcaron" unicode="&#x10f;" horiz-adv-x="1536" 
d="M635 -31q-159 0 -286 75t-197 202.5t-70 281.5t70 282t197.5 204t285.5 76q110 0 203.5 -37.5t152.5 -96.5v435l221 36v-1427h-225l2 109q-136 -140 -354 -140zM1325 1108l49 319h223l-135 -319h-137zM651 166q153 0 253 98t100 266q0 167 -100.5 265t-252.5 98
q-149 0 -251.5 -106t-102.5 -257t102.5 -257.5t251.5 -106.5z" />
    <glyph glyph-name="Dcroat" unicode="&#x110;" horiz-adv-x="1617" 
d="M750 1391q176 0 319 -51.5t238 -143.5t146.5 -220t51.5 -280q0 -150 -53.5 -278.5t-150.5 -221t-239 -144.5t-312 -52h-504v608h-246v185h246v598h504zM733 211q249 0 391.5 120.5t149.5 364.5q0 230 -138 358t-405 128h-262v-389h242v-185h-242v-397h264z" />
    <glyph glyph-name="dcroat" unicode="&#x111;" horiz-adv-x="1359" 
d="M1339 1284v-184h-127v-1100h-225l2 109q-136 -140 -354 -140q-159 0 -286 75t-197 202.5t-70 281.5t70 282t197.5 204t285.5 76q110 0 203.5 -37.5t152.5 -96.5v144h-178v184h178v107l221 36v-143h127zM651 166q153 0 253 98t100 266q0 167 -100.5 265t-252.5 98
q-149 0 -251.5 -106t-102.5 -257t102.5 -257.5t251.5 -106.5z" />
    <glyph glyph-name="Emacron" unicode="&#x112;" horiz-adv-x="1314" 
d="M981 1747v-184h-567v184h567zM408 209h804v-209h-1028v1391h1016v-209h-792v-336h630v-209h-630v-428z" />
    <glyph glyph-name="emacron" unicode="&#x113;" horiz-adv-x="1220" 
d="M369 1229v184h567v-184h-567zM668 -31q-136 0 -248 44.5t-185.5 121.5t-113 178.5t-39.5 216.5q0 157 74 285t205 201.5t292 73.5q111 0 204.5 -43.5t154 -115.5t94 -163t33.5 -188v-103h-846q21 -135 115.5 -223t263.5 -88q42 0 83 4t75 10t66 14.5t57.5 17.5t48 18
t38.5 17.5t28 14.5t18 10l6 4v-198q-5 -4 -14.5 -11.5t-46 -26.5t-80.5 -33t-120 -26t-163 -12zM303 649h615q-3 29 -11 59t-29.5 67.5t-52 66t-82.5 48t-118 19.5t-121 -19.5t-89 -48t-59.5 -65.5t-37 -68t-15.5 -59z" />
    <glyph glyph-name="Edotaccent" unicode="&#x116;" horiz-adv-x="1314" 
d="M696 1542q-52 0 -88.5 36t-36.5 89q0 54 36 90.5t89 36.5q54 0 90.5 -36.5t36.5 -90.5q0 -53 -36.5 -89t-90.5 -36zM408 209h804v-209h-1028v1391h1016v-209h-792v-336h630v-209h-630v-428z" />
    <glyph glyph-name="edotaccent" unicode="&#x117;" horiz-adv-x="1220" 
d="M651 1208q-53 0 -89 36t-36 89q0 54 36 90.5t89 36.5q54 0 90.5 -36.5t36.5 -90.5q0 -53 -36.5 -89t-90.5 -36zM668 -31q-136 0 -248 44.5t-185.5 121.5t-113 178.5t-39.5 216.5q0 157 74 285t205 201.5t292 73.5q111 0 204.5 -43.5t154 -115.5t94 -163t33.5 -188v-103
h-846q21 -135 115.5 -223t263.5 -88q42 0 83 4t75 10t66 14.5t57.5 17.5t48 18t38.5 17.5t28 14.5t18 10l6 4v-198q-5 -4 -14.5 -11.5t-46 -26.5t-80.5 -33t-120 -26t-163 -12zM303 649h615q-3 29 -11 59t-29.5 67.5t-52 66t-82.5 48t-118 19.5t-121 -19.5t-89 -48
t-59.5 -65.5t-37 -68t-15.5 -59z" />
    <glyph glyph-name="Eogonek" unicode="&#x118;" horiz-adv-x="1314" 
d="M1116 -193q0 -47 27.5 -67.5t95.5 -20.5v-180q-43 0 -91 12t-98 37.5t-82 74.5t-32 114q0 37 12.5 74t30 62.5t35.5 46t30 30.5l13 10h-873v1391h1016v-209h-792v-336h630v-209h-630v-428h804v-209q-11 -13 -27 -34.5t-42.5 -73t-26.5 -85.5z" />
    <glyph glyph-name="eogonek" unicode="&#x119;" horiz-adv-x="1220" 
d="M1139 580v-103h-846q21 -135 115.5 -223t263.5 -88q42 0 83 4t75 10t66 14.5t57.5 17.5t48 18t38.5 17.5t28 14.5t18 10l6 4v-198l-2 -2h2q-11 -13 -27 -34.5t-43 -73t-27 -85.5q0 -47 27.5 -67.5t95.5 -20.5v-180q-43 0 -91 12t-98 37.5t-82 74.5t-32 114q0 69 41 131
q-99 -15 -188 -15q-136 0 -248 44.5t-185.5 121.5t-113 178.5t-39.5 216.5q0 157 74 285t205 201.5t292 73.5q111 0 204.5 -43.5t154 -115.5t94 -163t33.5 -188zM303 649h615q-3 29 -11 59t-29.5 67.5t-52 66t-82.5 48t-118 19.5t-121 -19.5t-89 -48t-59.5 -65.5t-37 -68
t-15.5 -59z" />
    <glyph glyph-name="Ecaron" unicode="&#x11a;" horiz-adv-x="1314" 
d="M813 1532h-231l-215 350h206l125 -170l123 170h207zM408 209h804v-209h-1028v1391h1016v-209h-792v-336h630v-209h-630v-428z" />
    <glyph glyph-name="ecaron" unicode="&#x11b;" horiz-adv-x="1220" 
d="M537 1198l-215 350h206l125 -170l123 170h207l-215 -350h-231zM668 -31q-136 0 -248 44.5t-185.5 121.5t-113 178.5t-39.5 216.5q0 157 74 285t205 201.5t292 73.5q111 0 204.5 -43.5t154 -115.5t94 -163t33.5 -188v-103h-846q21 -135 115.5 -223t263.5 -88q42 0 83 4
t75 10t66 14.5t57.5 17.5t48 18t38.5 17.5t28 14.5t18 10l6 4v-198q-5 -4 -14.5 -11.5t-46 -26.5t-80.5 -33t-120 -26t-163 -12zM303 649h615q-3 29 -11 59t-29.5 67.5t-52 66t-82.5 48t-118 19.5t-121 -19.5t-89 -48t-59.5 -65.5t-37 -68t-15.5 -59z" />
    <glyph glyph-name="Gbreve" unicode="&#x11e;" horiz-adv-x="1589" 
d="M793 1532q-86 0 -152 32t-103.5 84.5t-56 111.5t-18.5 122h207q0 -34 10.5 -70.5t40.5 -68t72 -31.5q43 0 73 31.5t41 68t11 70.5h206q0 -49 -11 -97t-36.5 -94.5t-63 -81t-94.5 -56t-126 -21.5zM834 -31q-158 0 -296 58t-234 156.5t-150 232t-52 280.5q-2 148 54 282
t155.5 233t245.5 156.5t313 55.5q179 0 301 -45q135 -46 189 -80v-237q-55 46 -180 98q-125 55 -310 55q-124 0 -226 -40t-169.5 -110t-104 -164.5t-36.5 -203.5q0 -219 141.5 -368.5t358.5 -149.5q208 0 376 125v301h-415v209h639v-813h-224v72q-166 -103 -376 -103z" />
    <glyph glyph-name="gbreve" unicode="&#x11f;" horiz-adv-x="1320" 
d="M655 1198q-86 0 -152 32t-103 84.5t-55.5 111.5t-18.5 122h206q0 -34 10.5 -70.5t40.5 -68t72 -31.5q43 0 73 31.5t41 68t11 70.5h207q0 -62 -19 -121.5t-56.5 -112t-104 -84.5t-152.5 -32zM604 -461q-87 0 -162.5 11t-121 27.5t-79.5 32.5t-47 27l-14 11v198
q6 -4 18 -11.5t53 -26.5t86 -33.5t115.5 -26.5t143.5 -12q391 0 391 346v24q-133 -137 -352 -137q-159 0 -286 75t-197 202.5t-70 281.5t70 282t197.5 204t285.5 76q110 0 203.5 -37.5t152.5 -96.5v103h221l-4 -948q0 -95 -20.5 -178t-66.5 -156.5t-115 -125.5t-171.5 -82
t-230.5 -30zM651 166q153 0 253 98t100 266q0 167 -100.5 265t-252.5 98q-148 0 -248 -105.5t-100 -257.5t100 -258t248 -106z" />
    <glyph glyph-name="Gdotaccent" unicode="&#x120;" horiz-adv-x="1589" 
d="M793 1542q-53 0 -89 36t-36 89q0 54 36 90.5t89 36.5q54 0 90.5 -36.5t36.5 -90.5q0 -53 -36.5 -89t-90.5 -36zM834 -31q-158 0 -296 58t-234 156.5t-150 232t-52 280.5q-2 148 54 282t155.5 233t245.5 156.5t313 55.5q179 0 301 -45q135 -46 189 -80v-237
q-55 46 -180 98q-125 55 -310 55q-124 0 -226 -40t-169.5 -110t-104 -164.5t-36.5 -203.5q0 -219 141.5 -368.5t358.5 -149.5q208 0 376 125v301h-415v209h639v-813h-224v72q-166 -103 -376 -103z" />
    <glyph glyph-name="gdotaccent" unicode="&#x121;" horiz-adv-x="1320" 
d="M655 1208q-53 0 -89 36t-36 89q0 54 36 90.5t89 36.5q54 0 90.5 -36.5t36.5 -90.5q0 -53 -36.5 -89t-90.5 -36zM604 -461q-87 0 -162.5 11t-121 27.5t-79.5 32.5t-47 27l-14 11v198q6 -4 18 -11.5t53 -26.5t86 -33.5t115.5 -26.5t143.5 -12q391 0 391 346v24
q-133 -137 -352 -137q-159 0 -286 75t-197 202.5t-70 281.5t70 282t197.5 204t285.5 76q110 0 203.5 -37.5t152.5 -96.5v103h221l-4 -948q0 -95 -20.5 -178t-66.5 -156.5t-115 -125.5t-171.5 -82t-230.5 -30zM651 166q153 0 253 98t100 266q0 167 -100.5 265t-252.5 98
q-148 0 -248 -105.5t-100 -257.5t100 -258t248 -106z" />
    <glyph glyph-name="uni0122" unicode="&#x122;" horiz-adv-x="1589" 
d="M834 -31q-158 0 -296 58t-234 156.5t-150 232t-52 280.5q-2 148 54 282t155.5 233t245.5 156.5t313 55.5q179 0 301 -45q135 -46 189 -80v-237q-55 46 -180 98q-125 55 -310 55q-124 0 -226 -40t-169.5 -110t-104 -164.5t-36.5 -203.5q0 -219 141.5 -368.5t358.5 -149.5
q208 0 376 125v301h-415v209h639v-813h-224v72q-166 -103 -376 -103zM555 -449l184 351h232l-250 -351h-166z" />
    <glyph glyph-name="uni0123" unicode="&#x123;" horiz-adv-x="1320" 
d="M522 1198l250 350h207l-184 -350h-273zM604 -461q-87 0 -162.5 11t-121 27.5t-79.5 32.5t-47 27l-14 11v198q6 -4 18 -11.5t53 -26.5t86 -33.5t115.5 -26.5t143.5 -12q391 0 391 346v24q-133 -137 -352 -137q-159 0 -286 75t-197 202.5t-70 281.5t70 282t197.5 204
t285.5 76q110 0 203.5 -37.5t152.5 -96.5v103h221l-4 -948q0 -95 -20.5 -178t-66.5 -156.5t-115 -125.5t-171.5 -82t-230.5 -30zM651 166q153 0 253 98t100 266q0 167 -100.5 265t-252.5 98q-148 0 -248 -105.5t-100 -257.5t100 -258t248 -106z" />
    <glyph glyph-name="Hbar" unicode="&#x126;" horiz-adv-x="1538" 
d="M1466 1217v-185h-112v-1032h-224v637h-722v-637h-224v1032h-112v185h112v174h224v-174h722v174h224v-174h112zM1130 846v186h-722v-186h722z" />
    <glyph glyph-name="hbar" unicode="&#x127;" horiz-adv-x="1249" 
d="M680 1092q121 0 216 -48.5t152.5 -150t57.5 -242.5v-651h-221v629q0 126 -64 196t-174 70q-124 0 -210.5 -78.5t-86.5 -220.5v-596h-221v1100h-129v184h129v107l221 36v-143h176v-184h-176v-172q3 7 9.5 18t32.5 39t60 50t95 39.5t133 17.5z" />
    <glyph glyph-name="Imacron" unicode="&#x12a;" horiz-adv-x="591" 
d="M12 1563v184h568v-184h-568zM184 0v1391h224v-1391h-224z" />
    <glyph glyph-name="imacron" unicode="&#x12b;" horiz-adv-x="561" 
d="M4 1229v184h567v-184h-567zM176 0v1059h221v-1059h-221z" />
    <glyph glyph-name="Iogonek" unicode="&#x12e;" horiz-adv-x="591" 
d="M299 -174q0 -47 27.5 -67.5t95.5 -20.5v-180q-33 0 -70.5 6.5t-80 24t-75.5 43.5t-55 68t-22 95q0 111 100 205h-35v1391h224v-1391h-27q-82 -112 -82 -174z" />
    <glyph glyph-name="iogonek" unicode="&#x12f;" horiz-adv-x="579" 
d="M289 1210q-53 0 -89 36t-36 89q0 54 36 90.5t89 36.5q54 0 90.5 -36.5t36.5 -90.5q0 -53 -36.5 -89t-90.5 -36zM313 -193q0 -47 27.5 -67.5t95.5 -20.5v-180q-43 0 -91 12t-98 37.5t-82 74.5t-32 114q0 37 12.5 74t30.5 62.5t35.5 46t30.5 30.5l12 10h-66v1061h222v-1061
q-11 -13 -27 -34.5t-43 -73t-27 -85.5z" />
    <glyph glyph-name="Idotaccent" unicode="&#x130;" horiz-adv-x="591" 
d="M295 1542q-53 0 -89 36t-36 89q0 54 36 90.5t89 36.5q54 0 90.5 -36.5t36.5 -90.5q0 -53 -36.5 -89t-90.5 -36zM184 0v1391h224v-1391h-224z" />
    <glyph glyph-name="dotlessi" unicode="&#x131;" horiz-adv-x="561" 
d="M176 0v1059h221v-1059h-221z" />
    <glyph glyph-name="uni0136" unicode="&#x136;" horiz-adv-x="1404" 
d="M184 0v1391h222v-633l671 633h291l-614 -564l614 -827h-278l-498 674l-186 -176v-498h-222zM410 -430l184 350h231l-250 -350h-165z" />
    <glyph glyph-name="uni0137" unicode="&#x137;" horiz-adv-x="1179" 
d="M647 664l553 -664h-285l-432 528l-98 -84v-444h-221v1391l221 36v-741l446 373h287zM360 -430l185 350h231l-250 -350h-166z" />
    <glyph glyph-name="Lacute" unicode="&#x139;" horiz-adv-x="1327" 
d="M184 1532l185 350h272l-250 -350h-207zM184 0v1391h222v-1182h843v-209h-1065z" />
    <glyph glyph-name="lacute" unicode="&#x13a;" horiz-adv-x="548" 
d="M166 1532l184 350h273l-250 -350h-207zM164 0v1391l221 36v-1427h-221z" />
    <glyph glyph-name="uni013B" unicode="&#x13b;" horiz-adv-x="1327" 
d="M184 0v1391h222v-1182h843v-209h-1065zM381 -430l184 350h232l-250 -350h-166z" />
    <glyph glyph-name="uni013C" unicode="&#x13c;" horiz-adv-x="548" 
d="M164 0v1391l221 36v-1427h-221zM-25 -430l185 350h231l-250 -350h-166z" />
    <glyph glyph-name="Lcaron" unicode="&#x13d;" horiz-adv-x="1327" 
d="M184 0v1391h222v-1182h843v-209h-1065zM692 1071l49 320h224l-136 -320h-137z" />
    <glyph glyph-name="lcaron" unicode="&#x13e;" horiz-adv-x="710" 
d="M164 0v1391l221 36v-1427h-221zM500 1108l49 319h223l-135 -319h-137z" />
    <glyph glyph-name="Ldot" unicode="&#x13f;" horiz-adv-x="1327" 
d="M184 0v1391h222v-1182h843v-209h-1065zM823 545q-71 0 -117.5 46.5t-46.5 117.5q0 68 47 115.5t117 47.5q68 0 116 -48t48 -115q0 -70 -48 -117t-116 -47z" />
    <glyph glyph-name="ldot" unicode="&#x140;" horiz-adv-x="829" 
d="M164 0v1391l221 36v-1427h-221zM625 545q-71 0 -117.5 46.5t-46.5 117.5q0 68 47 115.5t117 47.5q67 0 115 -48t48 -115q0 -70 -47.5 -117t-115.5 -47z" />
    <glyph glyph-name="Lslash" unicode="&#x141;" horiz-adv-x="1327" 
d="M406 209h843v-209h-1065v651h-243v185h243v555h222v-555h245v-185h-245v-442z" />
    <glyph glyph-name="lslash" unicode="&#x142;" horiz-adv-x="548" 
d="M580 940l-195 -188v-752h-221v539l-92 -88l-119 139l211 203v598l221 36v-421l76 73z" />
    <glyph glyph-name="Nacute" unicode="&#x143;" horiz-adv-x="1579" 
d="M692 1532l185 350h272l-250 -350h-207zM184 0v1391h256l734 -1053v1053h221v-1391h-248l-741 1071v-1071h-222z" />
    <glyph glyph-name="nacute" unicode="&#x144;" horiz-adv-x="1296" 
d="M1073 1548l-250 -350h-207l185 350h272zM727 1092q121 0 216 -48.5t152.5 -150t57.5 -242.5v-651h-221v629q0 126 -64 196t-174 70q-124 0 -210.5 -78.5t-86.5 -220.5v-596h-221v1059h221v-131q3 7 9.5 18t32.5 39t60 50t95 39.5t133 17.5z" />
    <glyph glyph-name="uni0145" unicode="&#x145;" horiz-adv-x="1579" 
d="M184 0v1391h256l734 -1053v1053h221v-1391h-248l-741 1071v-1071h-222zM508 -430l184 350h232l-250 -350h-166z" />
    <glyph glyph-name="uni0146" unicode="&#x146;" horiz-adv-x="1296" 
d="M727 1092q121 0 216 -48.5t152.5 -150t57.5 -242.5v-651h-221v629q0 126 -64 196t-174 70q-124 0 -210.5 -78.5t-86.5 -220.5v-596h-221v1059h221v-131q3 7 9.5 18t32.5 39t60 50t95 39.5t133 17.5zM360 -430l185 350h231l-250 -350h-166z" />
    <glyph glyph-name="Ncaron" unicode="&#x147;" horiz-adv-x="1579" 
d="M674 1532l-215 350h207l125 -170l122 170h207l-215 -350h-231zM184 0v1391h256l734 -1053v1053h221v-1391h-248l-741 1071v-1071h-222z" />
    <glyph glyph-name="ncaron" unicode="&#x148;" horiz-adv-x="1296" 
d="M829 1198h-231l-215 350h207l125 -170l123 170h206zM727 1092q121 0 216 -48.5t152.5 -150t57.5 -242.5v-651h-221v629q0 126 -64 196t-174 70q-124 0 -210.5 -78.5t-86.5 -220.5v-596h-221v1059h221v-131q3 7 9.5 18t32.5 39t60 50t95 39.5t133 17.5z" />
    <glyph glyph-name="Eng" unicode="&#x14a;" horiz-adv-x="1579" 
d="M1174 1391h221v-1454q0 -53 -7.5 -102.5t-29.5 -104.5t-57 -95.5t-95 -67t-139 -26.5q-63 0 -117 13.5t-86 32.5t-55 37.5t-32 31.5l-9 14v230q4 -7 12 -17.5t35 -38.5t56 -49.5t74 -39t91 -17.5q74 0 106 52.5t32 127.5v82h-27l-741 1071v-1071h-222v1391h256l734 -1053
v1053z" />
    <glyph glyph-name="eng" unicode="&#x14b;" horiz-adv-x="1296" 
d="M727 1092q121 0 216 -48.5t152.5 -150t57.5 -242.5v-714q0 -53 -7.5 -102.5t-29.5 -104.5t-57 -95.5t-95 -67t-139 -26.5q-63 0 -117 13.5t-86 32.5t-55 37.5t-32 31.5l-9 14v230q4 -7 12 -17.5t35 -38.5t56.5 -49.5t74.5 -39t91 -17.5q74 0 105.5 52.5t31.5 127.5v711
q0 126 -64 196t-174 70q-124 0 -210.5 -78.5t-86.5 -220.5v-596h-221v1059h221v-131q3 7 9.5 18t32.5 39t60 50t95 39.5t133 17.5z" />
    <glyph glyph-name="Omacron" unicode="&#x14c;" horiz-adv-x="1644" 
d="M539 1563v184h567v-184h-567zM821 -31q-207 -3 -376.5 96t-262.5 266.5t-90 364.5q-3 197 90 364.5t262.5 266.5t376.5 96q207 3 377 -96t263.5 -266.5t90.5 -364.5q3 -197 -90.5 -364.5t-263.5 -266.5t-377 -96zM821 180q226 0 363 146t137 370q0 146 -60 263t-175 186
t-265 69q-223 0 -361 -148t-138 -370q0 -223 137.5 -369.5t361.5 -146.5z" />
    <glyph glyph-name="omacron" unicode="&#x14d;" horiz-adv-x="1323" 
d="M377 1229v184h567v-184h-567zM662 -31q-158 0 -292 75t-211 203.5t-77 280.5q0 114 45.5 218t123 179.5t185 120t226.5 44.5q158 0 291.5 -75.5t210.5 -205t77 -281.5t-77 -280.5t-210.5 -203.5t-291.5 -75zM662 168q156 0 261 105t105 255q0 152 -105 257.5t-261 105.5
t-261.5 -105.5t-105.5 -257.5q0 -150 105.5 -255t261.5 -105z" />
    <glyph glyph-name="Ohungarumlaut" unicode="&#x150;" horiz-adv-x="1644" 
d="M543 1532l184 350h272l-249 -350h-207zM911 1532l205 350h273l-271 -350h-207zM821 -31q-207 -3 -376.5 96t-262.5 266.5t-90 364.5q-3 197 90 364.5t262.5 266.5t376.5 96q207 3 377 -96t263.5 -266.5t90.5 -364.5q3 -197 -90.5 -364.5t-263.5 -266.5t-377 -96zM821 180
q226 0 363 146t137 370q0 146 -60 263t-175 186t-265 69q-223 0 -361 -148t-138 -370q0 -223 137.5 -369.5t361.5 -146.5z" />
    <glyph glyph-name="ohungarumlaut" unicode="&#x151;" horiz-adv-x="1323" 
d="M381 1198l184 350h273l-250 -350h-207zM750 1198l204 350h273l-271 -350h-206zM662 -31q-158 0 -292 75t-211 203.5t-77 280.5q0 114 45.5 218t123 179.5t185 120t226.5 44.5q158 0 291.5 -75.5t210.5 -205t77 -281.5t-77 -280.5t-210.5 -203.5t-291.5 -75zM662 168
q156 0 261 105t105 255q0 152 -105 257.5t-261 105.5t-261.5 -105.5t-105.5 -257.5q0 -150 105.5 -255t261.5 -105z" />
    <glyph glyph-name="OE" unicode="&#x152;" horiz-adv-x="2451" 
d="M1544 209h805v-209h-1028v156q-99 -90 -227.5 -139t-272.5 -48q-207 -3 -376.5 96t-262.5 266.5t-90 364.5q-3 197 90 364.5t262.5 266.5t376.5 96q145 1 273 -47.5t227 -138.5v154h1016v-209h-793v-336h631v-209h-631v-428zM821 180q226 0 363 146t137 370
q0 146 -60 263t-175 186t-265 69q-223 0 -361 -148t-138 -370q0 -223 137.5 -369.5t361.5 -146.5z" />
    <glyph glyph-name="oe" unicode="&#x153;" horiz-adv-x="2166" 
d="M2085 580v-103h-846q21 -135 115.5 -223t263.5 -88q42 0 83 4t75 10t66 14.5t57.5 17.5t48 18t38.5 17.5t28 14.5t18 10l6 4v-198q-5 -4 -14.5 -11.5t-46 -26.5t-80.5 -33t-120 -26t-163 -12q-161 0 -285.5 61t-200.5 167q-80 -105 -202 -166.5t-264 -61.5
q-158 0 -292 75t-211 203.5t-77 280.5q0 114 45.5 218t123 179.5t185 120t226.5 44.5q142 0 265 -62.5t203 -169.5q76 108 199 170t270 62q111 0 204.5 -43.5t154 -115.5t94 -163t33.5 -188zM1249 649h615q-3 29 -11 59t-29.5 67.5t-52 66t-82.5 48t-118 19.5t-121 -19.5
t-89 -48t-59.5 -65.5t-37 -68t-15.5 -59zM662 168q156 0 261 105t105 255q0 152 -105 257.5t-261 105.5t-261.5 -105.5t-105.5 -257.5q0 -150 105.5 -255t261.5 -105z" />
    <glyph glyph-name="Racute" unicode="&#x154;" horiz-adv-x="1411" 
d="M1016 1882l-250 -350h-207l184 350h273zM954 557l414 -557h-278l-398 539h-284v-539h-224v1391h613q216 0 353.5 -113t137.5 -313q0 -159 -90 -264.5t-244 -143.5zM408 743h372q122 0 200.5 55.5t78.5 162.5q0 109 -78.5 165t-200.5 56h-372v-439z" />
    <glyph glyph-name="racute" unicode="&#x155;" horiz-adv-x="839" 
d="M362 1198l185 350h272l-250 -350h-207zM164 0v1061h221v-205q39 101 155.5 168.5t278.5 67.5v-183q-198 0 -314.5 -104t-119.5 -275v-530h-221z" />
    <glyph glyph-name="uni0156" unicode="&#x156;" horiz-adv-x="1411" 
d="M954 557l414 -557h-278l-398 539h-284v-539h-224v1391h613q216 0 353.5 -113t137.5 -313q0 -159 -90 -264.5t-244 -143.5zM408 743h372q122 0 200.5 55.5t78.5 162.5q0 109 -78.5 165t-200.5 56h-372v-439zM459 -430l184 350h231l-249 -350h-166z" />
    <glyph glyph-name="uni0157" unicode="&#x157;" horiz-adv-x="839" 
d="M164 0v1061h221v-205q39 101 155.5 168.5t278.5 67.5v-183q-198 0 -314.5 -104t-119.5 -275v-530h-221zM-23 -430l185 350h231l-250 -350h-166z" />
    <glyph glyph-name="Rcaron" unicode="&#x158;" horiz-adv-x="1411" 
d="M772 1532h-231l-215 350h206l125 -170l123 170h207zM954 557l414 -557h-278l-398 539h-284v-539h-224v1391h613q216 0 353.5 -113t137.5 -313q0 -159 -90 -264.5t-244 -143.5zM408 743h372q122 0 200.5 55.5t78.5 162.5q0 109 -78.5 165t-200.5 56h-372v-439z" />
    <glyph glyph-name="rcaron" unicode="&#x159;" horiz-adv-x="839" 
d="M344 1198l-215 350h207l125 -170l123 170h207l-216 -350h-231zM164 0v1061h221v-205q39 101 155.5 168.5t278.5 67.5v-183q-198 0 -314.5 -104t-119.5 -275v-530h-221z" />
    <glyph glyph-name="Sacute" unicode="&#x15a;" horiz-adv-x="1191" 
d="M440 1532l185 350h272l-250 -350h-207zM557 -33q-158 0 -277 41.5t-188 102.5v229q95 -75 218.5 -118.5t246.5 -43.5q293 0 293 191q0 74 -65 121.5t-224 113.5q-112 47 -181 86t-124.5 92t-79.5 120t-24 157q0 164 140.5 268.5t360.5 104.5q184 3 346 -107v-240
q-65 60 -161.5 97t-204.5 37q-116 -2 -184 -43.5t-68 -116.5q0 -26 6.5 -48t15.5 -39t30.5 -35t38 -29.5t53.5 -29t61.5 -28t75.5 -31.5q114 -47 184.5 -85.5t127 -91t81 -119t24.5 -156.5q0 -174 -144.5 -287t-377.5 -113z" />
    <glyph glyph-name="sacute" unicode="&#x15b;" horiz-adv-x="894" 
d="M375 1198l184 350h272l-249 -350h-207zM395 -31q-50 0 -101 10.5t-87.5 25t-65.5 29.5t-44 26l-15 10v217q6 -5 16 -13t43.5 -29t68 -37t85 -29t98.5 -13q104 0 158.5 30t54.5 83q0 54 -44.5 94t-151.5 100q-35 20 -46.5 26.5t-42.5 25t-42.5 28t-36 28.5t-34.5 33
t-26 36t-22 42.5t-11.5 47t-5.5 55.5q0 132 101 213.5t250 81.5q159 0 274 -70v-217q-39 37 -106 63.5t-142 26.5q-86 0 -127 -25.5t-41 -68.5q0 -10 2 -19t5 -17t10.5 -16.5t14 -15.5t20.5 -16.5t24.5 -16.5t31.5 -19.5t36.5 -21.5t44.5 -25.5t51 -29.5q58 -34 95 -61.5
t67.5 -64t44.5 -81.5t14 -104q0 -63 -24 -119t-72.5 -102.5t-131.5 -73.5t-190 -27z" />
    <glyph glyph-name="Scedilla" unicode="&#x15e;" horiz-adv-x="1191" 
d="M1079 367q0 -166 -132 -278t-349 -122l-25 -82q5 -1 14.5 -3.5t32.5 -12t40.5 -23t32 -37.5t14.5 -53q0 -47 -26.5 -81.5t-70.5 -53t-92 -27t-100 -8.5v119q45 0 84 19t39 55q0 31 -29 50.5t-58 23.5l-30 4l31 114q-229 24 -363 140v229q95 -75 218.5 -118.5t246.5 -43.5
q293 0 293 191q0 74 -65 121.5t-224 113.5q-112 47 -181 86t-124.5 92t-79.5 120t-24 157q0 164 140.5 268.5t360.5 104.5q184 3 346 -107v-240q-65 60 -161.5 97t-204.5 37q-116 -2 -184 -43.5t-68 -116.5q0 -26 6.5 -48t15.5 -39t30.5 -35t38 -29.5t53.5 -29t61.5 -28
t75.5 -31.5q114 -47 184.5 -85.5t127 -91t81 -119t24.5 -156.5z" />
    <glyph glyph-name="scedilla" unicode="&#x15f;" horiz-adv-x="894" 
d="M813 291q0 -74 -31 -137t-103 -112t-177 -65l-29 -92q5 -1 14 -3.5t32 -12t40.5 -23t32 -37.5t14.5 -53q0 -47 -26.5 -81.5t-70.5 -53t-92 -27t-100 -8.5v119q45 0 84 19t39 55q0 31 -29 50.5t-58 23.5l-29 4l30 114q-71 5 -139 30t-101 47l-32 22v217q6 -5 16 -13
t43.5 -29t68 -37t85 -29t98.5 -13q104 0 158.5 30t54.5 83q0 54 -44.5 94t-151.5 100q-35 20 -46.5 26.5t-42.5 25t-42.5 28t-36 28.5t-34.5 33t-26 36t-22 42.5t-11.5 47t-5.5 55.5q0 132 101 213.5t250 81.5q159 0 274 -70v-217q-39 37 -106 63.5t-142 26.5
q-86 0 -127 -25.5t-41 -68.5q0 -10 2 -19t5 -17t10.5 -16.5t14 -15.5t20.5 -16.5t24.5 -16.5t31.5 -19.5t36.5 -21.5t44.5 -25.5t51 -29.5q58 -34 95 -61.5t67.5 -64t44.5 -81.5t14 -104z" />
    <glyph glyph-name="Scaron" unicode="&#x160;" horiz-adv-x="1191" 
d="M422 1532l-215 350h207l125 -170l123 170h206l-215 -350h-231zM557 -33q-158 0 -277 41.5t-188 102.5v229q95 -75 218.5 -118.5t246.5 -43.5q293 0 293 191q0 74 -65 121.5t-224 113.5q-112 47 -181 86t-124.5 92t-79.5 120t-24 157q0 164 140.5 268.5t360.5 104.5
q184 3 346 -107v-240q-65 60 -161.5 97t-204.5 37q-116 -2 -184 -43.5t-68 -116.5q0 -26 6.5 -48t15.5 -39t30.5 -35t38 -29.5t53.5 -29t61.5 -28t75.5 -31.5q114 -47 184.5 -85.5t127 -91t81 -119t24.5 -156.5q0 -174 -144.5 -287t-377.5 -113z" />
    <glyph glyph-name="scaron" unicode="&#x161;" horiz-adv-x="894" 
d="M356 1198l-215 350h207l125 -170l123 170h207l-215 -350h-232zM395 -31q-50 0 -101 10.5t-87.5 25t-65.5 29.5t-44 26l-15 10v217q6 -5 16 -13t43.5 -29t68 -37t85 -29t98.5 -13q104 0 158.5 30t54.5 83q0 54 -44.5 94t-151.5 100q-35 20 -46.5 26.5t-42.5 25t-42.5 28
t-36 28.5t-34.5 33t-26 36t-22 42.5t-11.5 47t-5.5 55.5q0 132 101 213.5t250 81.5q159 0 274 -70v-217q-39 37 -106 63.5t-142 26.5q-86 0 -127 -25.5t-41 -68.5q0 -10 2 -19t5 -17t10.5 -16.5t14 -15.5t20.5 -16.5t24.5 -16.5t31.5 -19.5t36.5 -21.5t44.5 -25.5t51 -29.5
q58 -34 95 -61.5t67.5 -64t44.5 -81.5t14 -104q0 -63 -24 -119t-72.5 -102.5t-131.5 -73.5t-190 -27z" />
    <glyph glyph-name="uni0162" unicode="&#x162;" horiz-adv-x="1359" 
d="M791 0h-41l-35 -115q5 -1 14 -3.5t32 -12t40.5 -23t32 -37.5t14.5 -53q0 -47 -26.5 -81.5t-70.5 -53t-92 -27t-100 -8.5v119q45 0 84 19t39 55q0 31 -29 50.5t-59 23.5l-29 4l39 143h-35v1182h-487v209h1196v-209h-487v-1182z" />
    <glyph glyph-name="uni0163" unicode="&#x163;" horiz-adv-x="1028" 
d="M639 0h-57l-35 -115q5 -1 14 -3.5t32 -12t40.5 -23t32 -37.5t14.5 -53q0 -47 -26.5 -81.5t-70.5 -53t-92 -27t-100 -8.5v119q45 0 84 19t39 55q0 31 -29 50.5t-59 23.5l-29 4l39 143h-18v907h-408l629 518v-338h362v-180h-362v-907z" />
    <glyph glyph-name="Tcaron" unicode="&#x164;" horiz-adv-x="1359" 
d="M563 1532l-215 350h207l125 -170l123 170h207l-215 -350h-232zM569 0v1182h-487v209h1196v-209h-487v-1182h-222z" />
    <glyph glyph-name="tcaron" unicode="&#x165;" horiz-adv-x="1028" 
d="M739 1108l49 319h224l-135 -319h-138zM418 0v907h-408l629 518v-338h362v-180h-362v-907h-221z" />
    <glyph glyph-name="Tbar" unicode="&#x166;" horiz-adv-x="1359" 
d="M1278 1182h-487v-226h243v-184h-243v-772h-222v772h-245v184h245v226h-487v209h1196v-209z" />
    <glyph glyph-name="tbar" unicode="&#x167;" horiz-adv-x="1028" 
d="M1001 907h-362v-190h256v-185h-256v-532h-221v532h-234v185h234v190h-408l629 518v-338h362v-180z" />
    <glyph glyph-name="Umacron" unicode="&#x16a;" horiz-adv-x="1445" 
d="M438 1563v184h568v-184h-568zM723 -31q-127 0 -229 32.5t-179 98.5t-119 175.5t-42 254.5v861h223v-856q0 -176 97 -263.5t249 -87.5q171 0 258.5 84.5t87.5 266.5v856h223v-861q0 -145 -42 -254.5t-119 -175.5t-179 -98.5t-229 -32.5z" />
    <glyph glyph-name="umacron" unicode="&#x16b;" horiz-adv-x="1249" 
d="M340 1229v184h567v-184h-567zM625 -33q-39 0 -69.5 1.5t-83.5 11t-93.5 26.5t-87 51.5t-77 81.5t-51 121.5t-20.5 167.5v631h222v-637v-14.5t4 -36.5t12.5 -51.5t27.5 -54.5t45.5 -51.5t70.5 -36.5t100 -15t100 14.5t70.5 37.5t45.5 50.5t27.5 55t12.5 50.5t4 38v14v637
h221v-631q0 -93 -20.5 -167.5t-51 -121.5t-77 -81.5t-86.5 -51.5t-93 -26.5t-83.5 -11t-69.5 -1.5z" />
    <glyph glyph-name="Uring" unicode="&#x16e;" horiz-adv-x="1445" 
d="M721 1522q-89 0 -149 60.5t-60 148.5q0 90 60 151.5t149 61.5q88 0 149.5 -62t61.5 -151q0 -88 -61.5 -148.5t-149.5 -60.5zM721 1669q26 0 44.5 18t18.5 44q0 28 -18.5 46.5t-44.5 18.5t-44 -18.5t-18 -46.5q0 -26 18 -44t44 -18zM723 -31q-127 0 -229 32.5t-179 98.5
t-119 175.5t-42 254.5v861h223v-856q0 -176 97 -263.5t249 -87.5q171 0 258.5 84.5t87.5 266.5v856h223v-861q0 -145 -42 -254.5t-119 -175.5t-179 -98.5t-229 -32.5z" />
    <glyph glyph-name="uring" unicode="&#x16f;" horiz-adv-x="1249" 
d="M623 1188q-89 0 -149 60.5t-60 148.5q0 90 60 151.5t149 61.5q88 0 149.5 -62t61.5 -151q0 -88 -61.5 -148.5t-149.5 -60.5zM623 1335q26 0 44.5 18t18.5 44q0 28 -18.5 46.5t-44.5 18.5t-44 -18.5t-18 -46.5q0 -26 18 -44t44 -18zM625 -33q-39 0 -69.5 1.5t-83.5 11
t-93.5 26.5t-87 51.5t-77 81.5t-51 121.5t-20.5 167.5v631h222v-637v-14.5t4 -36.5t12.5 -51.5t27.5 -54.5t45.5 -51.5t70.5 -36.5t100 -15t100 14.5t70.5 37.5t45.5 50.5t27.5 55t12.5 50.5t4 38v14v637h221v-631q0 -93 -20.5 -167.5t-51 -121.5t-77 -81.5t-86.5 -51.5
t-93 -26.5t-83.5 -11t-69.5 -1.5z" />
    <glyph glyph-name="Uhungarumlaut" unicode="&#x170;" horiz-adv-x="1445" 
d="M442 1532l185 350h272l-250 -350h-207zM811 1532l205 350h272l-270 -350h-207zM723 -31q-127 0 -229 32.5t-179 98.5t-119 175.5t-42 254.5v861h223v-856q0 -176 97 -263.5t249 -87.5q171 0 258.5 84.5t87.5 266.5v856h223v-861q0 -145 -42 -254.5t-119 -175.5
t-179 -98.5t-229 -32.5z" />
    <glyph glyph-name="uhungarumlaut" unicode="&#x171;" horiz-adv-x="1249" 
d="M344 1198l184 350h273l-250 -350h-207zM713 1198l205 350h272l-270 -350h-207zM625 -33q-39 0 -69.5 1.5t-83.5 11t-93.5 26.5t-87 51.5t-77 81.5t-51 121.5t-20.5 167.5v631h222v-637v-14.5t4 -36.5t12.5 -51.5t27.5 -54.5t45.5 -51.5t70.5 -36.5t100 -15t100 14.5
t70.5 37.5t45.5 50.5t27.5 55t12.5 50.5t4 38v14v637h221v-631q0 -93 -20.5 -167.5t-51 -121.5t-77 -81.5t-86.5 -51.5t-93 -26.5t-83.5 -11t-69.5 -1.5z" />
    <glyph glyph-name="Uogonek" unicode="&#x172;" horiz-adv-x="1445" 
d="M1069 1391h223v-861q0 -259 -128 -396.5t-351 -160.5q-63 -89 -63 -147q0 -47 27 -67.5t95 -20.5v-180q-33 0 -70.5 6.5t-80 24t-75.5 43.5t-55 68t-22 95q0 96 74 178q-228 20 -358.5 157t-130.5 400v861h223v-856q0 -176 97 -263.5t249 -87.5q171 0 258.5 84.5
t87.5 266.5v856z" />
    <glyph glyph-name="uogonek" unicode="&#x173;" horiz-adv-x="1249" 
d="M885 1059h221v-631q0 -396 -352 -453q-88 -119 -88 -182q0 -47 27 -67.5t95 -20.5v-180q-33 0 -70.5 6.5t-80 24t-75.5 43.5t-55 68t-22 95q0 110 101 205q-38 1 -72.5 5t-81 16.5t-85 32t-77.5 54.5t-66 81.5t-44 116.5t-17 155v631h222v-637v-14.5t4 -36.5t12.5 -51.5
t27.5 -54.5t45.5 -51.5t70.5 -36.5t100 -15t100 14.5t70.5 37.5t45.5 50.5t27.5 55t12.5 50.5t4 38v14v637z" />
    <glyph glyph-name="Wcircumflex" unicode="&#x174;" horiz-adv-x="2117" 
d="M727 1532l215 350h232l215 -350h-207l-123 170l-125 -170h-207zM496 0l-433 1391h254l310 -1110l307 1110h250l309 -1110l307 1110h254l-432 -1391h-258l-305 1073l-303 -1073h-260z" />
    <glyph glyph-name="wcircumflex" unicode="&#x175;" horiz-adv-x="1529" 
d="M434 1198l215 350h232l215 -350h-207l-123 170l-125 -170h-207zM471 -84l-410 1143h232l211 -610l258 653l280 -656l195 613h231l-409 -1143l-299 707z" />
    <glyph glyph-name="Ycircumflex" unicode="&#x176;" horiz-adv-x="1384" 
d="M692 1702l-125 -170h-207l215 350h232l215 -350h-207zM1075 1391h268l-538 -795v-596h-225v596l-539 795h266l385 -592z" />
    <glyph glyph-name="ycircumflex" unicode="&#x177;" horiz-adv-x="1200" 
d="M268 1198l215 350h232l215 -350h-207l-123 170l-125 -170h-207zM209 -426l276 549l-444 936h231l328 -703l328 703h231l-715 -1485h-235z" />
    <glyph glyph-name="Ydieresis" unicode="&#x178;" horiz-adv-x="1384" 
d="M463 1556q-47 0 -81 33.5t-34 79.5q0 47 34 81t81 34q46 0 79 -34t33 -81q0 -46 -33 -79.5t-79 -33.5zM856 1556q-47 0 -81 33.5t-34 79.5q0 47 34 81t81 34q46 0 79.5 -34t33.5 -81q0 -46 -33.5 -79.5t-79.5 -33.5zM1075 1391h268l-538 -795v-596h-225v596l-539 795h266
l385 -592z" />
    <glyph glyph-name="Zacute" unicode="&#x179;" horiz-adv-x="1400" 
d="M602 1532l184 350h273l-250 -350h-207zM154 0v209l825 973h-786v209h1069v-209l-820 -973h846v-209h-1134z" />
    <glyph glyph-name="zacute" unicode="&#x17a;" horiz-adv-x="1179" 
d="M492 1198l184 350h272l-250 -350h-206zM102 0v152l670 716h-629v193h914v-172l-651 -696h671v-193h-975z" />
    <glyph glyph-name="Zdotaccent" unicode="&#x17b;" horiz-adv-x="1400" 
d="M698 1542q-52 0 -88.5 36t-36.5 89q0 54 36 90.5t89 36.5q54 0 90.5 -36.5t36.5 -90.5q0 -53 -36.5 -89t-90.5 -36zM154 0v209l825 973h-786v209h1069v-209l-820 -973h846v-209h-1134z" />
    <glyph glyph-name="zdotaccent" unicode="&#x17c;" horiz-adv-x="1179" 
d="M588 1208q-52 0 -88.5 36t-36.5 89q0 54 36 90.5t89 36.5q54 0 90.5 -36.5t36.5 -90.5q0 -53 -36.5 -89t-90.5 -36zM102 0v152l670 716h-629v193h914v-172l-651 -696h671v-193h-975z" />
    <glyph glyph-name="Zcaron" unicode="&#x17d;" horiz-adv-x="1400" 
d="M584 1532l-215 350h206l125 -170l123 170h207l-215 -350h-231zM154 0v209l825 973h-786v209h1069v-209l-820 -973h846v-209h-1134z" />
    <glyph glyph-name="zcaron" unicode="&#x17e;" horiz-adv-x="1179" 
d="M473 1198l-215 350h207l125 -170l123 170h207l-215 -350h-232zM102 0v152l670 716h-629v193h914v-172l-651 -696h671v-193h-975z" />
    <glyph glyph-name="florin" unicode="&#x192;" horiz-adv-x="1067" 
d="M57 -434q-63 0 -117 11.5t-86 27.5t-55 32t-32 27l-9 12v197q4 -5 12 -12t35 -26.5t56.5 -34t74.5 -26.5t91 -12q129 0 194.5 77.5t65.5 256.5v398h-260v208h260v236q0 249 124 389.5t326 140.5q63 0 117 -11.5t86 -27.5t55 -32t32 -27l9 -12v-197q-4 5 -12 12t-35 26.5
t-56 34t-74 26.5t-91 12q-129 0 -194.5 -77.5t-65.5 -256.5v-236h354v-208h-354v-398q0 -249 -124.5 -389.5t-326.5 -140.5z" />
    <glyph glyph-name="uni0218" unicode="&#x218;" horiz-adv-x="1191" 
d="M557 -33q-158 0 -277 41.5t-188 102.5v229q95 -75 218.5 -118.5t246.5 -43.5q293 0 293 191q0 74 -65 121.5t-224 113.5q-112 47 -181 86t-124.5 92t-79.5 120t-24 157q0 164 140.5 268.5t360.5 104.5q184 3 346 -107v-240q-65 60 -161.5 97t-204.5 37
q-116 -2 -184 -43.5t-68 -116.5q0 -26 6.5 -48t15.5 -39t30.5 -35t38 -29.5t53.5 -29t61.5 -28t75.5 -31.5q114 -47 184.5 -85.5t127 -91t81 -119t24.5 -156.5q0 -174 -144.5 -287t-377.5 -113zM256 -430l184 350h232l-250 -350h-166z" />
    <glyph glyph-name="uni0219" unicode="&#x219;" horiz-adv-x="894" 
d="M395 -31q-50 0 -101 10.5t-87.5 25t-65.5 29.5t-44 26l-15 10v217q6 -5 16 -13t43.5 -29t68 -37t85 -29t98.5 -13q104 0 158.5 30t54.5 83q0 54 -44.5 94t-151.5 100q-35 20 -46.5 26.5t-42.5 25t-42.5 28t-36 28.5t-34.5 33t-26 36t-22 42.5t-11.5 47t-5.5 55.5
q0 132 101 213.5t250 81.5q159 0 274 -70v-217q-39 37 -106 63.5t-142 26.5q-86 0 -127 -25.5t-41 -68.5q0 -10 2 -19t5 -17t10.5 -16.5t14 -15.5t20.5 -16.5t24.5 -16.5t31.5 -19.5t36.5 -21.5t44.5 -25.5t51 -29.5q58 -34 95 -61.5t67.5 -64t44.5 -81.5t14 -104
q0 -63 -24 -119t-72.5 -102.5t-131.5 -73.5t-190 -27zM156 -430l184 350h231l-249 -350h-166z" />
    <glyph glyph-name="uni021A" unicode="&#x21a;" horiz-adv-x="1359" 
d="M569 0v1182h-487v209h1196v-209h-487v-1182h-222zM397 -430l185 350h231l-250 -350h-166z" />
    <glyph glyph-name="uni021B" unicode="&#x21b;" horiz-adv-x="1028" 
d="M418 0v907h-408l629 518v-338h362v-180h-362v-907h-221zM229 -430l185 350h231l-250 -350h-166z" />
    <glyph glyph-name="circumflex" unicode="&#x2c6;" horiz-adv-x="743" 
d="M41 1200l215 350h231l215 -350h-206l-123 170l-125 -170h-207z" />
    <glyph glyph-name="caron" unicode="&#x2c7;" horiz-adv-x="743" 
d="M256 1200l-215 350h207l125 -170l123 170h206l-215 -350h-231z" />
    <glyph glyph-name="breve" unicode="&#x2d8;" horiz-adv-x="743" 
d="M371 1200q-86 0 -152 32t-103.5 84.5t-56 111.5t-18.5 122h207q0 -34 10.5 -70.5t40.5 -68t72 -31.5q43 0 73 31.5t41 68t11 70.5h206q0 -49 -11 -97t-36.5 -94.5t-63 -81t-94.5 -56t-126 -21.5z" />
    <glyph glyph-name="dotaccent" unicode="&#x2d9;" horiz-adv-x="374" 
d="M186 1190q-62 0 -103.5 42t-41.5 103q0 62 42 105t103 43q62 0 105 -43.5t43 -104.5t-43 -103t-105 -42z" />
    <glyph glyph-name="ring" unicode="&#x2da;" horiz-adv-x="501" 
d="M250 1190q-89 0 -149 60.5t-60 148.5q0 90 60 151.5t149 61.5q88 0 149.5 -62t61.5 -151q0 -88 -61.5 -148.5t-149.5 -60.5zM250 1337q26 0 44.5 18t18.5 44q0 28 -18.5 46.5t-44.5 18.5t-44 -18.5t-18 -46.5q0 -26 18 -44t44 -18z" />
    <glyph glyph-name="ogonek" unicode="&#x2db;" horiz-adv-x="385" 
d="M344 -444q-33 0 -70.5 6.5t-80 24t-75.5 43.5t-55 68t-22 95q0 37 12.5 74t30.5 62.5t35.5 46t30.5 30.5l12 10h155q-11 -13 -27 -34.5t-42.5 -72.5t-26.5 -85q0 -47 27.5 -67.5t95.5 -20.5v-180z" />
    <glyph glyph-name="tilde" unicode="&#x2dc;" horiz-adv-x="761" 
d="M532 1190q-75 0 -149 53h-2v2h-2q-75 55 -109 55q-10 0 -17.5 -2.5t-13.5 -9.5t-9.5 -12.5t-7 -17t-4.5 -17t-3.5 -20t-3.5 -17.5l-170 62q16 98 63 158.5t125 60.5q76 0 150 -53h2v-2h2q77 -56 109 -56q10 0 17.5 2.5t13.5 9.5t9.5 12.5t7 17t4.5 17t3.5 20t3.5 17.5
l170 -61q-16 -97 -63.5 -158t-125.5 -61z" />
    <glyph glyph-name="hungarumlaut" unicode="&#x2dd;" horiz-adv-x="927" 
d="M41 1200l184 350h273l-250 -350h-207zM410 1200l204 350h273l-271 -350h-206z" />
    <glyph glyph-name="gravecomb" unicode="&#x300;" 
d="M-248 1200l-250 350h273l184 -350h-207z" />
    <glyph glyph-name="acutecomb" unicode="&#x301;" 
d="M-498 1200l185 350h272l-250 -350h-207z" />
    <glyph glyph-name="uni0302" unicode="&#x302;" 
d="M-702 1200l215 350h231l215 -350h-207l-123 170l-125 -170h-206z" />
    <glyph glyph-name="tildecomb" unicode="&#x303;" 
d="M-229 1190q-76 0 -150 53h-2v2h-2q-75 55 -109 55q-10 0 -17.5 -2.5t-13.5 -9.5t-9.5 -12.5t-7 -17t-4.5 -17t-3.5 -20t-3.5 -17.5l-170 62q16 97 63.5 158t125.5 61q75 0 149 -53h2v-2h2q77 -56 109 -56q10 0 17.5 2.5t13.5 9.5t9.5 12.5t7 17t4.5 17t3.5 20t3.5 17.5
l170 -61q-16 -98 -63 -158.5t-125 -60.5z" />
    <glyph glyph-name="uni0304" unicode="&#x304;" 
d="M-588 1231v184h568v-184h-568z" />
    <glyph glyph-name="uni0306" unicode="&#x306;" 
d="M-373 1200q-86 0 -152 32t-103 84.5t-55.5 111.5t-18.5 122h206q0 -34 10.5 -70.5t40.5 -68t72 -31.5q43 0 73 31.5t41 68t11 70.5h207q0 -62 -19 -121.5t-56.5 -112t-104 -84.5t-152.5 -32z" />
    <glyph glyph-name="uni0307" unicode="&#x307;" 
d="M-168 1210q-52 0 -88.5 36t-36.5 89q0 54 36 90.5t89 36.5q54 0 90.5 -36.5t36.5 -90.5q0 -53 -36.5 -89t-90.5 -36z" />
    <glyph glyph-name="uni0308" unicode="&#x308;" 
d="M-580 1225q-47 0 -80.5 33t-33.5 79q0 47 33.5 81t80.5 34q46 0 79.5 -34t33.5 -81q0 -46 -33.5 -79t-79.5 -33zM-186 1225q-47 0 -81 33t-34 79q0 47 34 81t81 34q46 0 79 -34t33 -81q0 -46 -33 -79t-79 -33z" />
    <glyph glyph-name="uni030A" unicode="&#x30a;" 
d="M-252 1190q-89 0 -149 60.5t-60 148.5q0 90 60 151.5t149 61.5q88 0 149.5 -62t61.5 -151q0 -88 -61.5 -148.5t-149.5 -60.5zM-252 1337q26 0 45 18t19 44q0 27 -19 46t-45 19t-43.5 -18.5t-17.5 -46.5q0 -26 17.5 -44t43.5 -18z" />
    <glyph glyph-name="uni030B" unicode="&#x30b;" 
d="M-846 1200l184 350h273l-250 -350h-207zM-477 1200l205 350h272l-270 -350h-207z" />
    <glyph glyph-name="uni030C" unicode="&#x30c;" 
d="M-487 1200l-215 350h206l125 -170l123 170h207l-215 -350h-231z" />
    <glyph glyph-name="uni0312" unicode="&#x312;" 
d="M-369 1200l250 350h207l-184 -350h-273z" />
    <glyph glyph-name="uni0326" unicode="&#x326;" 
d="M-444 -414l184 351h231l-250 -351h-165z" />
    <glyph glyph-name="uni0327" unicode="&#x327;" 
d="M-289 -442v118q45 0 84 19t39 55q0 31 -29 50.5t-59 23.5l-29 4l39 143h146l-35 -114q5 -1 14 -3.5t32 -12t40.5 -23t32 -37.5t14.5 -53q0 -47 -26.5 -81.5t-70.5 -53t-92 -27t-100 -8.5z" />
    <glyph glyph-name="uni0328" unicode="&#x328;" 
d="M0 -444q-33 0 -70.5 6.5t-80 24t-75.5 43.5t-55 68t-22 95q0 37 12.5 74t30.5 62.5t35.5 46t30.5 30.5l12 10h155q-11 -13 -27 -34.5t-42.5 -72.5t-26.5 -85q0 -47 27.5 -67.5t95.5 -20.5v-180z" />
    <glyph glyph-name="uni0335" unicode="&#x335;" 
d="M-752 532v185h711v-185h-711z" />
    <glyph glyph-name="uni0336" unicode="&#x336;" 
d="M-1292 975v184h1394v-184h-1394z" />
    <glyph glyph-name="uni0337" unicode="&#x337;" 
d="M-559 225l-119 140l508 489l119 -139z" />
    <glyph glyph-name="uni0338" unicode="&#x338;" 
d="M-1399 -31l-160 160l1399 1303l160 -160z" />
    <glyph glyph-name="uni037E" unicode="&#x37e;" horiz-adv-x="856" 
d="M457 653q-71 0 -117.5 46.5t-46.5 117.5q0 68 47 116t117 48q67 0 115.5 -48.5t48.5 -115.5q0 -70 -48 -117t-116 -47zM111 -309l184 524h272l-248 -524h-208z" />
    <glyph glyph-name="tonos" unicode="&#x384;" horiz-adv-x="854" 
d="M20 1231v205h814v-205h-814z" />
    <glyph glyph-name="dieresistonos" unicode="&#x385;" horiz-adv-x="702" 
d="M68 1591v205h567v-205h-567zM123 1225q-47 0 -81 33t-34 79q0 47 34 81t81 34q46 0 79.5 -34t33.5 -81q0 -46 -33.5 -79t-79.5 -33zM516 1225q-47 0 -81 33t-34 79q0 47 34 81t81 34q46 0 79.5 -34t33.5 -81q0 -46 -33.5 -79t-79.5 -33z" />
    <glyph glyph-name="Alphatonos" unicode="&#x386;" horiz-adv-x="1542" 
d="M657 1532l185 350h272l-250 -350h-207zM43 0l619 1391h219l618 -1391h-260l-133 330h-670l-133 -330h-260zM520 539h502l-250 591z" />
    <glyph glyph-name="Epsilontonos" unicode="&#x388;" horiz-adv-x="1314" 
d="M1047 1882l-250 -350h-207l184 350h273zM408 209h804v-209h-1028v1391h1016v-209h-792v-336h630v-209h-630v-428z" />
    <glyph glyph-name="Etatonos" unicode="&#x389;" horiz-adv-x="1538" 
d="M1118 1882l-250 -350h-206l184 350h272zM1130 1391h224v-1391h-224v637h-722v-637h-224v1391h224v-545h722v545z" />
    <glyph glyph-name="Iotatonos" unicode="&#x38a;" horiz-adv-x="591" 
d="M188 1532l185 350h272l-250 -350h-207zM184 0v1391h224v-1391h-224z" />
    <glyph glyph-name="Omicrontonos" unicode="&#x38c;" horiz-adv-x="1644" 
d="M715 1532l184 350h272l-249 -350h-207zM821 -31q-207 -3 -376.5 96t-262.5 266.5t-90 364.5q-3 197 90 364.5t262.5 266.5t376.5 96q207 3 377 -96t263.5 -266.5t90.5 -364.5q3 -197 -90.5 -364.5t-263.5 -266.5t-377 -96zM821 180q226 0 363 146t137 370q0 146 -60 263
t-175 186t-265 69q-223 0 -361 -148t-138 -370q0 -223 137.5 -369.5t361.5 -146.5z" />
    <glyph glyph-name="Upsilontonos" unicode="&#x38e;" horiz-adv-x="1341" 
d="M561 1532l184 350h273l-250 -350h-207zM559 0v596l-541 795h254l400 -600l397 600h254l-539 -795v-596h-225z" />
    <glyph glyph-name="Omegatonos" unicode="&#x38f;" horiz-adv-x="1626" 
d="M705 1532l184 350h272l-250 -350h-206zM82 0v209h270q-130 90 -200 235.5t-70 294.5q0 148 55.5 275.5t152.5 217t232.5 140.5t290.5 51t290.5 -51t232.5 -140.5t152.5 -217t55.5 -275.5q0 -149 -70 -294.5t-200 -235.5h270v-209h-606v209q163 56 269 193.5t106 336.5
q0 217 -138 346t-362 129t-362 -129t-138 -346q0 -199 106 -336.5t269 -193.5v-209h-606z" />
    <glyph glyph-name="iotadieresistonos" unicode="&#x390;" horiz-adv-x="548" 
d="M-10 1589v205h567v-205h-567zM45 1223q-47 0 -81 33t-34 79q0 47 34 81t81 34q46 0 79.5 -34t33.5 -81q0 -46 -33.5 -79t-79.5 -33zM438 1223q-47 0 -80.5 33t-33.5 79q0 47 33.5 81t80.5 34q46 0 79.5 -34t33.5 -81q0 -46 -33.5 -79t-79.5 -33zM164 0v1059h221v-1059
h-221z" />
    <glyph glyph-name="Alpha" unicode="&#x391;" horiz-adv-x="1490" 
d="M12 0l617 1391h233l617 -1391h-260l-136 330h-680l-139 -330h-252zM485 539h516l-256 614z" />
    <glyph glyph-name="Beta" unicode="&#x392;" horiz-adv-x="1384" 
d="M184 0v1391h570q225 0 338.5 -86t113.5 -273q0 -116 -63 -187t-164 -89q139 -15 221 -107t82 -227q0 -110 -37.5 -193t-105.5 -132t-155 -73t-193 -24h-607zM403 836h310q44 0 74 2t71 12t66.5 28t44 53.5t18.5 84.5q0 34 -9.5 61t-22 44.5t-36.5 29.5t-42.5 18t-50.5 9
t-50 3.5t-51 0.5h-322v-346zM403 209h371q50 0 92.5 8.5t86 30t69 67t25.5 111.5q0 211 -273 211h-371v-428z" />
    <glyph glyph-name="Gamma" unicode="&#x393;" horiz-adv-x="1339" 
d="M184 0v1391h1033v-209h-811v-1182h-222z" />
    <glyph glyph-name="uni0394" unicode="&#x394;" horiz-adv-x="1519" 
d="M43 0l600 1391h234l600 -1391h-1434zM383 209h747l-370 944z" />
    <glyph glyph-name="Epsilon" unicode="&#x395;" horiz-adv-x="1325" 
d="M184 0v1391h1016v-209h-794v-336h632v-209h-632v-428h806v-209h-1028z" />
    <glyph glyph-name="Zeta" unicode="&#x396;" horiz-adv-x="1257" 
d="M61 0v209l824 973h-785v209h1069v-209l-819 -973h846v-209h-1135z" />
    <glyph glyph-name="Eta" unicode="&#x397;" horiz-adv-x="1540" 
d="M184 0v1391h224v-545h725v545h223v-1391h-223v637h-725v-637h-224z" />
    <glyph glyph-name="Theta" unicode="&#x398;" horiz-adv-x="1624" 
d="M811 -31q-160 0 -297.5 57.5t-231.5 155.5t-147 231.5t-53 282.5t53 282.5t147 231.5t231.5 155.5t297.5 57.5t297.5 -57.5t232 -155.5t148 -231.5t53.5 -282.5t-53.5 -282.5t-148 -231.5t-232 -155.5t-297.5 -57.5zM328 842h964q-41 168 -167.5 270t-313.5 102
t-314.5 -102t-168.5 -270zM811 180q210 0 343.5 127t152.5 326h-994q21 -199 154.5 -326t343.5 -127z" />
    <glyph glyph-name="Iota" unicode="&#x399;" horiz-adv-x="591" 
d="M184 0v1391h224v-1391h-224z" />
    <glyph glyph-name="Kappa" unicode="&#x39a;" horiz-adv-x="1396" 
d="M184 0v1391h222v-633l671 633h291l-614 -564l614 -827h-278l-494 678l-190 -180v-498h-222z" />
    <glyph glyph-name="Lambda" unicode="&#x39b;" horiz-adv-x="1488" 
d="M43 0l588 1391h233l582 -1391h-260l-438 1153l-453 -1153h-252z" />
    <glyph glyph-name="Mu" unicode="&#x39c;" horiz-adv-x="1701" 
d="M184 0v1391h281l383 -621l391 621h279v-1391h-222v1085l-344 -546h-207l-339 546v-1085h-222z" />
    <glyph glyph-name="Nu" unicode="&#x39d;" horiz-adv-x="1579" 
d="M184 0v1391h246l744 -1045v1045h221v-1391h-246l-743 1063v-1063h-222z" />
    <glyph glyph-name="Xi" unicode="&#x39e;" horiz-adv-x="1441" 
d="M154 1182v209h1134v-209h-1134zM262 616v209h920v-209h-920zM123 0v209h1196v-209h-1196z" />
    <glyph glyph-name="Omicron" unicode="&#x39f;" horiz-adv-x="1624" 
d="M813 -31q-160 0 -297.5 57.5t-232 155.5t-148 231.5t-53.5 282.5t53.5 282.5t148 231.5t232 155.5t297.5 57.5t297.5 -57.5t231.5 -155.5t147 -231.5t53 -282.5t-53 -282.5t-147 -231.5t-231.5 -155.5t-297.5 -57.5zM813 180q151 0 266 69t174.5 185.5t59.5 261.5
t-59.5 262t-174.5 186.5t-266 69.5q-152 0 -267 -69.5t-174 -186.5t-59 -262t59 -261.5t174 -185.5t267 -69z" />
    <glyph glyph-name="Pi" unicode="&#x3a0;" horiz-adv-x="1490" 
d="M184 0v1391h1123v-1391h-222v1182h-679v-1182h-222z" />
    <glyph glyph-name="Rho" unicode="&#x3a1;" horiz-adv-x="1409" 
d="M184 0v1391h611q252 0 393 -135.5t141 -372.5q0 -234 -148 -371t-390 -137h-385v-375h-222zM403 580h377q320 0 320 299q0 303 -320 303h-377v-602z" />
    <glyph glyph-name="Sigma" unicode="&#x3a3;" horiz-adv-x="1220" 
d="M123 0v199l539 487l-539 506v199h1001v-209h-716l446 -408v-176l-426 -389h721v-209h-1026z" />
    <glyph glyph-name="Tau" unicode="&#x3a4;" horiz-adv-x="1318" 
d="M549 0v1182h-488v209h1196v-209h-487v-1182h-221z" />
    <glyph glyph-name="Upsilon" unicode="&#x3a5;" horiz-adv-x="1341" 
d="M559 0v596l-541 795h254l400 -600l397 600h254l-539 -795v-596h-225z" />
    <glyph glyph-name="Phi" unicode="&#x3a6;" horiz-adv-x="1624" 
d="M811 -31q-160 0 -297.5 57.5t-231.5 155.5t-147 231.5t-53 282.5t53 282.5t147 231.5t231.5 155.5t297.5 57.5t297.5 -57.5t232 -155.5t148 -231.5t53.5 -282.5t-53.5 -282.5t-148 -231.5t-232 -155.5t-297.5 -57.5zM707 188v1016q-183 -33 -289.5 -173t-106.5 -335
q0 -194 106.5 -334.5t289.5 -173.5zM915 188q183 33 289.5 173.5t106.5 334.5q0 195 -106.5 335t-289.5 173v-1016z" />
    <glyph glyph-name="Chi" unicode="&#x3a7;" horiz-adv-x="1456" 
d="M63 0l527 733l-496 658h271l358 -496l362 496h271l-502 -658l539 -733h-271l-399 551l-389 -551h-271z" />
    <glyph glyph-name="Psi" unicode="&#x3a8;" horiz-adv-x="1472" 
d="M625 0v311q-216 31 -349 173.5t-133 379.5v527h224v-525q0 -137 72.5 -221t185.5 -115v861h223v-861q114 30 186 114t72 222v525h223v-527q0 -237 -132.5 -379.5t-348.5 -173.5v-311h-223z" />
    <glyph glyph-name="uni03A9" unicode="&#x3a9;" horiz-adv-x="1626" 
d="M82 0v209h270q-130 90 -200 235.5t-70 294.5q0 148 55.5 275.5t152.5 217t232.5 140.5t290.5 51t290.5 -51t232.5 -140.5t152.5 -217t55.5 -275.5q0 -149 -70 -294.5t-200 -235.5h270v-209h-606v209q163 56 269 193.5t106 336.5q0 217 -138 346t-362 129t-362 -129
t-138 -346q0 -199 106 -336.5t269 -193.5v-209h-606z" />
    <glyph glyph-name="Iotadieresis" unicode="&#x3aa;" horiz-adv-x="591" 
d="M100 1556q-47 0 -80.5 33.5t-33.5 79.5q0 47 33.5 81t80.5 34q46 0 79.5 -34t33.5 -81q0 -46 -33.5 -79.5t-79.5 -33.5zM494 1556q-47 0 -81 33.5t-34 79.5q0 47 34 81t81 34q46 0 79 -34t33 -81q0 -46 -33 -79.5t-79 -33.5zM184 0v1391h224v-1391h-224z" />
    <glyph glyph-name="Upsilondieresis" unicode="&#x3ab;" horiz-adv-x="1341" 
d="M473 1556q-47 0 -81 33.5t-34 79.5q0 47 34 81t81 34q46 0 79.5 -34t33.5 -81q0 -46 -33.5 -79.5t-79.5 -33.5zM866 1556q-47 0 -80.5 33.5t-33.5 79.5q0 47 33.5 81t80.5 34q46 0 79.5 -34t33.5 -81q0 -46 -33.5 -79.5t-79.5 -33.5zM559 0v596l-541 795h254l400 -600
l397 600h254l-539 -795v-596h-225z" />
    <glyph glyph-name="alphatonos" unicode="&#x3ac;" horiz-adv-x="1384" 
d="M545 1198l184 350h272l-249 -350h-207zM653 -31q-159 0 -290.5 75.5t-206 204t-74.5 281.5q0 114 44 217.5t119.5 178.5t182 119.5t225.5 44.5q103 0 218 -47t165 -132l6 150h220l-68 -529q0 -247 68 -536h-220q-13 54 -20 127q-39 -55 -108.5 -91.5t-134 -49.5
t-126.5 -13zM651 166q154 0 254.5 97.5t100.5 266.5q0 167 -100.5 265t-254.5 98q-147 0 -249.5 -106t-102.5 -257t102.5 -257.5t249.5 -106.5z" />
    <glyph glyph-name="epsilontonos" unicode="&#x3ad;" horiz-adv-x="997" 
d="M430 1198l184 350h273l-250 -350h-207zM541 -31q-212 0 -335.5 76.5t-123.5 233.5q0 40 13 80t40.5 80.5t79 72.5t121.5 47q-89 9 -153 80.5t-64 161.5q0 133 119 211t303 78q222 0 344 -80v-201q-38 28 -135.5 56t-184.5 28q-237 0 -237 -117q0 -131 192 -131h164v-180
h-195q-80 0 -136 -41t-56 -109q0 -43 21.5 -74t60 -47t81 -23t93.5 -7q81 0 171.5 27.5t140.5 54.5l50 28v-204q-54 -42 -170 -71.5t-204 -29.5z" />
    <glyph glyph-name="etatonos" unicode="&#x3ae;" horiz-adv-x="1284" 
d="M610 1198l185 350h272l-250 -350h-207zM920 -440v1069q0 126 -63.5 196t-172.5 70q-59 0 -112 -19t-95 -55.5t-67 -94.5t-25 -130v-596h-221v1061h221v-133q3 7 9.5 18t33 39t60.5 50t95 39.5t134 17.5q185 0 304.5 -115.5t119.5 -325.5v-1091h-221z" />
    <glyph glyph-name="iotatonos" unicode="&#x3af;" horiz-adv-x="548" 
d="M166 1198l184 350h273l-250 -350h-207zM164 0v1059h221v-1059h-221z" />
    <glyph glyph-name="upsilondieresistonos" unicode="&#x3b0;" horiz-adv-x="1249" 
d="M340 1589v205h567v-205h-567zM395 1223q-47 0 -80.5 33t-33.5 79q0 47 33.5 81t80.5 34q46 0 79.5 -34t33.5 -81q0 -46 -33.5 -79t-79.5 -33zM788 1223q-47 0 -80.5 33t-33.5 79q0 47 33.5 81t80.5 34q46 0 79.5 -34t33.5 -81q0 -46 -33.5 -79t-79.5 -33zM625 -33
q-39 0 -69.5 1.5t-83.5 11t-93.5 26.5t-87 51.5t-77 81.5t-51 121.5t-20.5 167.5v631h222v-641q0 -19 2.5 -41.5t17.5 -63.5t40 -72t77.5 -55t122.5 -24t122.5 24t77.5 55t40 72t17.5 63.5t2.5 41.5v641h221v-631q0 -93 -20.5 -167.5t-51 -121.5t-77 -81.5t-86.5 -51.5
t-93 -26.5t-83.5 -11t-69.5 -1.5z" />
    <glyph glyph-name="alpha" unicode="&#x3b1;" horiz-adv-x="1384" 
d="M653 -31q-159 0 -290.5 75.5t-206 204t-74.5 281.5q0 114 44 217.5t119.5 178.5t182 119.5t225.5 44.5q103 0 218 -47t165 -132l6 150h220l-68 -529q0 -247 68 -536h-220q-13 54 -20 127q-39 -55 -108.5 -91.5t-134 -49.5t-126.5 -13zM651 166q154 0 254.5 97.5
t100.5 266.5q0 167 -100.5 265t-254.5 98q-147 0 -249.5 -106t-102.5 -257t102.5 -257.5t249.5 -106.5z" />
    <glyph glyph-name="beta" unicode="&#x3b2;" horiz-adv-x="1243" 
d="M164 -442v1388q0 219 124 351.5t339 132.5q205 0 313.5 -97t108.5 -278q0 -120 -72 -202t-189 -99q151 -32 252 -132t101 -233q0 -132 -64.5 -227.5t-170.5 -142t-238 -46.5q-136 0 -277 72l-8 4v-491h-219zM668 164q42 0 81.5 10.5t78.5 33.5t63 68t24 107
q0 79 -45.5 139.5t-113 89.5t-142.5 29h-34v186q46 0 89.5 11.5t83 36.5t63.5 71t24 107q0 99 -55.5 147.5t-157.5 48.5q-99 0 -171.5 -75t-72.5 -207v-699q41 -41 117.5 -72.5t167.5 -31.5z" />
    <glyph glyph-name="gamma" unicode="&#x3b3;" horiz-adv-x="1060" 
d="M418 -442v442l-398 1059h232l278 -830l279 830h231l-397 -1059v-442h-225z" />
    <glyph glyph-name="delta" unicode="&#x3b4;" horiz-adv-x="1101" 
d="M571 -31q-134 0 -246.5 63t-177.5 172t-65 238q0 178 120.5 311t301.5 158l-305 297v181h796v-181h-526l410 -397q86 -67 134 -163.5t48 -205.5q0 -129 -65.5 -238t-178 -172t-246.5 -63zM571 166q112 0 187.5 80t75.5 196q0 115 -75.5 196t-187.5 81q-111 0 -186.5 -81
t-75.5 -196q0 -116 75 -196t187 -80z" />
    <glyph glyph-name="epsilon" unicode="&#x3b5;" horiz-adv-x="997" 
d="M541 -31q-212 0 -335.5 76.5t-123.5 233.5q0 40 13 80t40.5 80.5t79 72.5t121.5 47q-89 9 -153 80.5t-64 161.5q0 133 119 211t303 78q222 0 344 -80v-201q-38 28 -135.5 56t-184.5 28q-237 0 -237 -117q0 -131 192 -131h164v-180h-195q-80 0 -136 -41t-56 -109
q0 -43 21.5 -74t60 -47t81 -23t93.5 -7q81 0 171.5 27.5t140.5 54.5l50 28v-204q-54 -42 -170 -71.5t-204 -29.5z" />
    <glyph glyph-name="zeta" unicode="&#x3b6;" horiz-adv-x="966" 
d="M664 -442v411q-162 0 -291.5 75t-200 202.5t-70.5 281.5q0 96 26.5 184t70 157.5t107 134t128.5 112.5t144 94h-414v181h719v-181q-132 -78 -229 -151t-160.5 -138t-101.5 -132t-53 -128.5t-15 -132.5q0 -107 54.5 -193.5t137 -131.5t170.5 -45q36 0 64.5 3t50 10
t33.5 12t29 14.5t22 11.5v-651h-221z" />
    <glyph glyph-name="eta" unicode="&#x3b7;" horiz-adv-x="1284" 
d="M920 -440v1069q0 126 -63.5 196t-172.5 70q-59 0 -112 -19t-95 -55.5t-67 -94.5t-25 -130v-596h-221v1061h221v-133q3 7 9.5 18t33 39t60.5 50t95 39.5t134 17.5q185 0 304.5 -115.5t119.5 -325.5v-1091h-221z" />
    <glyph glyph-name="theta" unicode="&#x3b8;" horiz-adv-x="1142" 
d="M571 -31q-123 0 -215 55.5t-146.5 156t-81 229t-26.5 286.5t27 287.5t82 229.5t146.5 155t213.5 55q123 0 215 -55t146.5 -155.5t81 -229.5t26.5 -287t-26.5 -286.5t-81 -229t-146.5 -156t-215 -55.5zM317 829h506q-3 64 -9.5 115.5t-24 108t-43.5 94.5t-71 63t-104 25
q-60 0 -105 -25t-71.5 -63t-44 -94.5t-24 -108t-9.5 -115.5zM571 158q49 0 88.5 17.5t65.5 44t45 69t29 82t16 94t7.5 93t2.5 91.5h-510q0 -51 1.5 -91t7.5 -93.5t16 -93.5t29.5 -82t46 -69t66 -44.5t89.5 -17.5z" />
    <glyph glyph-name="iota" unicode="&#x3b9;" horiz-adv-x="548" 
d="M164 0v1059h221v-1059h-221z" />
    <glyph glyph-name="kappa" unicode="&#x3ba;" horiz-adv-x="1118" 
d="M164 0v1059h221v-457l418 457h252l-371 -395l434 -664h-252l-323 522l-158 -166v-356h-221z" />
    <glyph glyph-name="lambda" unicode="&#x3bb;" horiz-adv-x="1175" 
d="M41 4l438 1036l-135 351h211l580 -1387h-232l-317 797l-314 -797h-231z" />
    <glyph glyph-name="uni03BC" unicode="&#x3bc;" horiz-adv-x="1288" 
d="M164 -442v1501h221v-565q0 -136 62.5 -217.5t195.5 -81.5q260 0 260 299v565h221v-1059h-221v160q-5 -12 -12 -25t-31 -40t-55.5 -46.5t-87 -35t-123.5 -15.5q-62 0 -122.5 26.5t-86.5 75.5v-542h-221z" />
    <glyph glyph-name="nu" unicode="&#x3bd;" horiz-adv-x="1101" 
d="M461 0l-420 1055h231l279 -756l278 756h232l-420 -1055h-180z" />
    <glyph glyph-name="xi" unicode="&#x3be;" horiz-adv-x="976" 
d="M696 -442v419q-72 -10 -129 -10q-232 0 -358.5 115.5t-126.5 300.5q0 70 28 133t74.5 108.5t103.5 76.5t118 44q-90 27 -161 117t-71 203q0 148 107 252t286 104q107 0 174.5 -25t126.5 -73v-199q-4 3 -33.5 24t-39 27t-38 21.5t-48.5 21t-51.5 11.5t-63.5 6
q-97 0 -150 -48t-53 -128q0 -99 66.5 -171.5t187.5 -72.5h127v-180h-141q-163 0 -242.5 -67t-79.5 -187q0 -96 64 -156.5t194 -60.5q98 0 201.5 15.5t146.5 35.5v-657h-219z" />
    <glyph glyph-name="omicron" unicode="&#x3bf;" horiz-adv-x="1323" 
d="M662 -31q-158 0 -292 75t-211 203.5t-77 280.5q0 114 45.5 218t123 179.5t185 120t226.5 44.5q158 0 291.5 -75.5t210.5 -205t77 -281.5t-77 -280.5t-210.5 -203.5t-291.5 -75zM662 168q155 0 257.5 104.5t102.5 255.5q0 152 -102.5 257.5t-257.5 105.5t-258 -105.5
t-103 -257.5q0 -151 103 -255.5t258 -104.5z" />
    <glyph glyph-name="pi" unicode="&#x3c0;" horiz-adv-x="1331" 
d="M309 0v879h-227v180h1167v-180h-221v-879h-221v879h-277v-879h-221z" />
    <glyph glyph-name="rho" unicode="&#x3c1;" horiz-adv-x="1355" 
d="M143 -442v936q0 267 154.5 431.5t425.5 164.5q114 0 216.5 -44.5t176 -119.5t116 -178.5t42.5 -217.5q0 -154 -70 -282t-197.5 -203.5t-285.5 -75.5q-104 0 -200 33.5t-156 114.5v-559h-222zM727 166q145 0 235.5 105t90.5 259t-90.5 258.5t-235.5 104.5
q-155 0 -262 -98.5t-107 -264.5q0 -167 106.5 -265.5t262.5 -98.5z" />
    <glyph glyph-name="uni03C2" unicode="&#x3c2;" horiz-adv-x="1101" 
d="M502 -459v197q59 0 101.5 2.5t83 10t65 21t39 36t14.5 53.5q0 108 -184 108q-104 0 -192 28.5t-151.5 79.5t-108 121t-66 153.5t-21.5 176.5q0 154 72.5 282t206 204t301.5 76q163 0 294 -70v-213q-129 88 -294 88q-155 0 -257 -107t-102 -260q0 -164 86.5 -264
t231.5 -100q79 0 148.5 -18.5t126.5 -54.5t90.5 -97.5t33.5 -140.5q0 -312 -518 -312z" />
    <glyph glyph-name="sigma" unicode="&#x3c3;" horiz-adv-x="1372" 
d="M649 -31q-249 0 -408 155.5t-159 389.5q0 76 19 150.5t63.5 146.5t109 126.5t163.5 88t220 33.5h613v-180h-269q51 -14 90.5 -47t62.5 -72.5t38 -86.5t20 -85.5t5 -73.5q0 -154 -71 -278t-201 -195.5t-296 -71.5zM649 168q165 0 257.5 96t92.5 250q0 152 -97 250t-253 98
q-166 0 -257 -96t-91 -252q0 -153 92.5 -249.5t255.5 -96.5z" />
    <glyph glyph-name="tau" unicode="&#x3c4;" horiz-adv-x="1148" 
d="M467 0v879h-385v180h985v-180h-379v-879h-221z" />
    <glyph glyph-name="upsilon" unicode="&#x3c5;" horiz-adv-x="1249" 
d="M625 -33q-39 0 -69.5 1.5t-83.5 11t-93.5 26.5t-87 51.5t-77 81.5t-51 121.5t-20.5 167.5v631h222v-641q0 -19 2.5 -41.5t17.5 -63.5t40 -72t77.5 -55t122.5 -24t122.5 24t77.5 55t40 72t17.5 63.5t2.5 41.5v641h221v-631q0 -93 -20.5 -167.5t-51 -121.5t-77 -81.5
t-86.5 -51.5t-93 -26.5t-83.5 -11t-69.5 -1.5z" />
    <glyph glyph-name="phi" unicode="&#x3c6;" horiz-adv-x="1523" 
d="M649 -442v411q-156 3 -286 74.5t-205.5 195t-75.5 273.5q0 103 35.5 192.5t97.5 156t143.5 112t176.5 67.5v-194q-234 -87 -234 -334q0 -146 98 -242.5t250 -101.5v887q102 6 213 6q128 0 237 -43t184 -117t117 -175.5t42 -215.5q0 -148 -83 -273t-214 -195.5t-275 -72.5
v-411h-221zM870 168q154 3 253.5 99.5t99.5 244.5q0 176 -96.5 271t-256.5 98v-713z" />
    <glyph glyph-name="chi" unicode="&#x3c7;" horiz-adv-x="1075" 
d="M0 -442l397 819l-329 682h239l238 -508l221 508h242l-330 -694l397 -807h-241l-297 626l-295 -626h-242z" />
    <glyph glyph-name="psi" unicode="&#x3c8;" horiz-adv-x="1468" 
d="M625 -442v409q-34 0 -69 3.5t-84.5 15t-92.5 31t-87.5 55t-76.5 82t-52 117.5t-20 157v631h222v-641q0 -19 2.5 -41.5t17.5 -63.5t40 -72t77.5 -55t122.5 -24v897h221v-897q116 3 187 73t71 187v637h221v-631q0 -86 -20 -156.5t-51.5 -117t-75.5 -82t-87 -55t-92 -31.5
t-84 -15.5t-69 -3.5v-409h-221z" />
    <glyph glyph-name="omega" unicode="&#x3c9;" horiz-adv-x="1396" 
d="M426 -33q-157 0 -250.5 168.5t-93.5 472.5q0 116 18 229t36 167l18 55h213q-62 -239 -62 -457q0 -79 5.5 -147.5t20 -139t44.5 -112t74 -41.5q73 0 106 65t33 213v377h221v-377q0 -148 33 -213t106 -65q44 0 74 41.5t44.5 112t20 139t5.5 147.5q0 218 -62 457h213
q8 -21 20 -59.5t32 -157t20 -234.5q0 -304 -93.5 -472.5t-250.5 -168.5q-99 0 -171 57t-102 142q-30 -85 -101.5 -142t-170.5 -57z" />
    <glyph glyph-name="iotadieresis" unicode="&#x3ca;" horiz-adv-x="548" 
d="M78 1223q-47 0 -81 33t-34 79q0 47 34 81t81 34q46 0 79 -34t33 -81q0 -46 -33 -79t-79 -33zM471 1223q-47 0 -81 33t-34 79q0 47 34 81t81 34q46 0 79.5 -34t33.5 -81q0 -46 -33.5 -79t-79.5 -33zM164 0v1059h221v-1059h-221z" />
    <glyph glyph-name="upsilondieresis" unicode="&#x3cb;" horiz-adv-x="1249" 
d="M428 1223q-47 0 -81 33t-34 79q0 47 34 81t81 34q46 0 79.5 -34t33.5 -81q0 -46 -33.5 -79t-79.5 -33zM821 1223q-47 0 -80.5 33t-33.5 79q0 47 33.5 81t80.5 34q46 0 79.5 -34t33.5 -81q0 -46 -33.5 -79t-79.5 -33zM625 -33q-39 0 -69.5 1.5t-83.5 11t-93.5 26.5
t-87 51.5t-77 81.5t-51 121.5t-20.5 167.5v631h222v-641q0 -19 2.5 -41.5t17.5 -63.5t40 -72t77.5 -55t122.5 -24t122.5 24t77.5 55t40 72t17.5 63.5t2.5 41.5v641h221v-631q0 -93 -20.5 -167.5t-51 -121.5t-77 -81.5t-86.5 -51.5t-93 -26.5t-83.5 -11t-69.5 -1.5z" />
    <glyph glyph-name="omicrontonos" unicode="&#x3cc;" horiz-adv-x="1323" 
d="M553 1198l184 350h273l-250 -350h-207zM662 -31q-158 0 -292 75t-211 203.5t-77 280.5q0 114 45.5 218t123 179.5t185 120t226.5 44.5q158 0 291.5 -75.5t210.5 -205t77 -281.5t-77 -280.5t-210.5 -203.5t-291.5 -75zM662 168q155 0 257.5 104.5t102.5 255.5
q0 152 -102.5 257.5t-257.5 105.5t-258 -105.5t-103 -257.5q0 -151 103 -255.5t258 -104.5z" />
    <glyph glyph-name="upsilontonos" unicode="&#x3cd;" horiz-adv-x="1249" 
d="M516 1198l184 350h273l-250 -350h-207zM625 -33q-39 0 -69.5 1.5t-83.5 11t-93.5 26.5t-87 51.5t-77 81.5t-51 121.5t-20.5 167.5v631h222v-641q0 -19 2.5 -41.5t17.5 -63.5t40 -72t77.5 -55t122.5 -24t122.5 24t77.5 55t40 72t17.5 63.5t2.5 41.5v641h221v-631
q0 -93 -20.5 -167.5t-51 -121.5t-77 -81.5t-86.5 -51.5t-93 -26.5t-83.5 -11t-69.5 -1.5z" />
    <glyph glyph-name="omegatonos" unicode="&#x3ce;" horiz-adv-x="1396" 
d="M590 1198l184 350h273l-250 -350h-207zM426 -33q-157 0 -250.5 168.5t-93.5 472.5q0 116 18 229t36 167l18 55h213q-62 -239 -62 -457q0 -79 5.5 -147.5t20 -139t44.5 -112t74 -41.5q73 0 106 65t33 213v377h221v-377q0 -148 33 -213t106 -65q44 0 74 41.5t44.5 112
t20 139t5.5 147.5q0 218 -62 457h213q8 -21 20 -59.5t32 -157t20 -234.5q0 -304 -93.5 -472.5t-250.5 -168.5q-99 0 -171 57t-102 142q-30 -85 -101.5 -142t-170.5 -57z" />
    <glyph glyph-name="uni0400" unicode="&#x400;" horiz-adv-x="1314" 
d="M799 1532h-207l-250 350h272zM408 209h804v-209h-1028v1391h1016v-209h-792v-336h630v-209h-630v-428z" />
    <glyph glyph-name="uni0401" unicode="&#x401;" horiz-adv-x="1314" 
d="M502 1556q-47 0 -81 33.5t-34 79.5q0 47 34 81t81 34q46 0 79 -34t33 -81q0 -46 -33 -79.5t-79 -33.5zM895 1556q-47 0 -81 33.5t-34 79.5q0 47 34 81t81 34q46 0 79.5 -34t33.5 -81q0 -46 -33.5 -79.5t-79.5 -33.5zM408 209h804v-209h-1028v1391h1016v-209h-792v-336
h630v-209h-630v-428z" />
    <glyph glyph-name="uni0402" unicode="&#x402;" horiz-adv-x="1658" 
d="M1032 -31v226q142 0 222.5 88.5t80.5 230.5q0 124 -87.5 211.5t-215.5 87.5q-132 0 -218.5 -76.5t-86.5 -201.5l-2 -3v-532h-223v330l-2 -2q0 42 2 65v813h-420v185h1067v-185h-424v-288q125 106 307 106q148 0 273.5 -71t198.5 -192.5t73 -264.5q0 -145 -68.5 -265
t-194 -191t-282.5 -71z" />
    <glyph glyph-name="uni0403" unicode="&#x403;" horiz-adv-x="1292" 
d="M580 1532l184 350h272l-250 -350h-206zM184 0v1391h1033v-209h-811v-1182h-222z" />
    <glyph glyph-name="uni0404" unicode="&#x404;" horiz-adv-x="1421" 
d="M850 -31q-172 0 -317.5 57.5t-243.5 155.5t-152.5 231t-54.5 283t54.5 283t152.5 231t243.5 155.5t317.5 57.5q93 0 178.5 -16t143.5 -41.5t84.5 -39.5t43.5 -26q3 0 3 -241q-12 12 -28 25t-57.5 38t-89 43.5t-122 32.5t-156.5 14q-201 0 -335.5 -98t-178.5 -260h641
v-217h-660q19 -202 160 -329.5t373 -127.5q101 0 194 20t153.5 49t94.5 50.5t47 34.5v-240q-203 -125 -489 -125z" />
    <glyph glyph-name="uni0405" unicode="&#x405;" horiz-adv-x="1191" 
d="M557 -33q-158 0 -277 41.5t-188 102.5v229q95 -75 218.5 -118.5t246.5 -43.5q293 0 293 191q0 74 -65 121.5t-224 113.5q-112 47 -181 86t-124.5 92t-79.5 120t-24 157q0 164 140.5 268.5t360.5 104.5q184 3 346 -107v-240q-65 60 -161.5 97t-204.5 37
q-116 -2 -184 -43.5t-68 -116.5q0 -26 6.5 -48t15.5 -39t30.5 -35t38 -29.5t53.5 -29t61.5 -28t75.5 -31.5q114 -47 184.5 -85.5t127 -91t81 -119t24.5 -156.5q0 -174 -144.5 -287t-377.5 -113z" />
    <glyph glyph-name="uni0406" unicode="&#x406;" horiz-adv-x="591" 
d="M188 1532l185 350h272l-250 -350h-207zM184 0v1391h224v-1391h-224z" />
    <glyph glyph-name="uni0407" unicode="&#x407;" horiz-adv-x="591" 
d="M68 1556q-47 0 -81 33.5t-34 79.5q0 47 34 81t81 34q46 0 79 -34t33 -81q0 -46 -33 -79.5t-79 -33.5zM461 1556q-47 0 -81 33.5t-34 79.5q0 47 34 81t81 34q46 0 79 -34t33 -81q0 -46 -33 -79.5t-79 -33.5zM184 0v1391h224v-1391h-224z" />
    <glyph glyph-name="uni0408" unicode="&#x408;" horiz-adv-x="1159" 
d="M467 -31q-63 0 -126 11t-107.5 27.5t-80 32.5t-53.5 27l-18 11v213q8 -5 21.5 -12t55.5 -26.5t82 -34t94.5 -26.5t100.5 -12q55 0 96.5 5.5t85 23.5t71.5 48.5t45.5 83t17.5 124.5v926h223v-922q0 -124 -39 -220.5t-108 -157t-160.5 -91.5t-200.5 -31z" />
    <glyph glyph-name="uni0409" unicode="&#x409;" horiz-adv-x="2125" 
d="M1552 836q229 0 360.5 -101.5t131.5 -312.5q0 -107 -38 -189t-105.5 -132.5t-155.5 -75.5t-193 -25h-606v1085l-643 -1085h-260l844 1391h282v-555h383zM1536 209q39 0 73 4.5t72 18.5t65 37t44.5 63.5t17.5 93.5q0 211 -272 211h-371v-428h371z" />
    <glyph glyph-name="uni040A" unicode="&#x40a;" horiz-adv-x="2316" 
d="M1743 836q229 0 360 -101.5t131 -312.5q0 -107 -38 -189t-105.5 -132.5t-155 -75.5t-192.5 -25h-613v637h-722v-637h-224v1391h224v-545h722v545h230v-555h383zM1726 209q50 0 92.5 8.5t86 30t69 67t25.5 111.5q0 211 -273 211h-370v-428h370z" />
    <glyph glyph-name="uni040B" unicode="&#x40b;" horiz-adv-x="1576" 
d="M420 0v330l-2 -2q0 39 2 59v819h-420v185h1067v-185h-424v-307q141 125 348 125q228 0 366 -125.5t138 -341.5v-557h-242v535q0 124 -77 201t-205 77q-134 0 -230 -77t-96 -201l-2 -3v-532h-223z" />
    <glyph glyph-name="uni040C" unicode="&#x40c;" horiz-adv-x="1425" 
d="M580 1532l184 350h272l-250 -350h-206zM184 0v1391h230v-578l645 578h299l-711 -641l762 -750h-301l-694 670v-670h-230z" />
    <glyph glyph-name="uni040D" unicode="&#x40d;" horiz-adv-x="1550" 
d="M670 1532l-250 350h272l185 -350h-207zM184 0v1391h222v-1055l718 1055h242v-1391h-221v1073l-721 -1073h-240z" />
    <glyph glyph-name="uni040E" unicode="&#x40e;" horiz-adv-x="1302" 
d="M786 1534q-53 -52 -124.5 -51.5t-124.5 53.5q-52 53 -51.5 124t53.5 124q52 52 121.5 52.5t123.5 -50.5l-86 -86q-17 13 -37.5 12t-35.5 -16t-15 -37t15 -37q16 -16 36.5 -16.5t38.5 16.5h2l86 -86zM436 -31q-56 0 -112.5 19.5t-85.5 39.5l-29 19v211q11 -9 29.5 -22
t72.5 -34.5t103 -21.5q39 0 69.5 10t48 21.5t34 35.5t22.5 37t18 42l-565 1065h252l407 -811q63 156 142 358.5t126 327.5l48 125h246l-431 -1065q-85 -209 -164.5 -283t-230.5 -74z" />
    <glyph glyph-name="uni040F" unicode="&#x40f;" horiz-adv-x="1521" 
d="M1337 1391v-1391h-465v-274h-223v274h-465v1391h222v-1182h710v1182h221z" />
    <glyph glyph-name="uni0410" unicode="&#x410;" horiz-adv-x="1542" 
d="M43 0l619 1391h219l618 -1391h-260l-133 330h-670l-133 -330h-260zM520 539h502l-250 591z" />
    <glyph glyph-name="uni0411" unicode="&#x411;" horiz-adv-x="1363" 
d="M184 0v1391h916v-209h-697v-346h388q229 0 360 -101.5t131 -312.5q0 -107 -38 -189t-105.5 -132.5t-155 -75.5t-192.5 -25h-607zM403 209h371q50 0 92.5 8.5t86 30t69 67t25.5 111.5q0 211 -273 211h-371v-428z" />
    <glyph glyph-name="uni0412" unicode="&#x412;" horiz-adv-x="1363" 
d="M975 756q140 -12 223.5 -104t83.5 -230q0 -209 -131 -315.5t-360 -106.5h-607v1391h570q228 0 340 -87.5t112 -271.5q0 -115 -63 -186.5t-168 -89.5zM725 1182h-317v-346h305q142 0 208 39t66 141q-2 46 -16.5 77.5t-35 48.5t-57 26.5t-68.5 11.5t-85 2zM774 209
q273 0 273 217q0 211 -273 211h-366v-428h366z" />
    <glyph glyph-name="uni0413" unicode="&#x413;" horiz-adv-x="1292" 
d="M184 0v1391h1033v-209h-811v-1182h-222z" />
    <glyph glyph-name="uni0414" unicode="&#x414;" horiz-adv-x="1591" 
d="M113 -256v465h135q32 173 51.5 299.5t38 369t18.5 513.5h955v-1182h168v-465h-224v256h-919v-256h-223zM481 209h606v973h-501q-7 -208 -24 -389t-31.5 -277.5t-49.5 -306.5z" />
    <glyph glyph-name="uni0415" unicode="&#x415;" horiz-adv-x="1314" 
d="M408 209h804v-209h-1028v1391h1016v-209h-792v-336h630v-209h-630v-428z" />
    <glyph glyph-name="uni0416" unicode="&#x416;" horiz-adv-x="1566" 
d="M18 0l453 748l-453 643h254l412 -613v613h221v-613l412 613h254l-449 -629l443 -762h-248l-412 713v-713h-225v713l-408 -713h-254z" />
    <glyph glyph-name="uni0417" unicode="&#x417;" horiz-adv-x="1249" 
d="M602 -31q-126 0 -268.5 33.5t-210.5 87.5v221q86 -62 220 -99.5t259 -37.5q171 0 253.5 62t82.5 159t-92.5 167.5t-253.5 70.5h-258v201h229q143 0 224 51.5t81 144.5q0 189 -293 189q-101 0 -231.5 -34t-193.5 -69v215q80 35 200.5 63.5t251.5 28.5q235 0 360 -90.5
t125 -247.5q0 -128 -77.5 -220.5t-178.5 -116.5q152 -22 244 -115.5t92 -237.5q0 -186 -146 -306t-419 -120z" />
    <glyph glyph-name="uni0418" unicode="&#x418;" horiz-adv-x="1550" 
d="M184 0v1391h222v-1055l718 1055h242v-1391h-221v1073l-721 -1073h-240z" />
    <glyph glyph-name="uni0419" unicode="&#x419;" horiz-adv-x="1550" 
d="M774 1532q-86 0 -152 32t-103.5 84.5t-56 111.5t-18.5 122h207q0 -34 10.5 -70.5t40.5 -68t72 -31.5q43 0 73 31.5t41 68t11 70.5h207q0 -62 -19 -121.5t-56.5 -112t-104 -84.5t-152.5 -32zM184 0v1391h222v-1055l718 1055h242v-1391h-221v1073l-721 -1073h-240z" />
    <glyph glyph-name="uni041A" unicode="&#x41a;" horiz-adv-x="1425" 
d="M184 0v1391h230v-578l645 578h299l-711 -641l762 -750h-301l-694 670v-670h-230z" />
    <glyph glyph-name="uni041B" unicode="&#x41b;" horiz-adv-x="1542" 
d="M43 0l610 1391h236l610 -1391h-260l-211 508l-256 606l-258 -606l-211 -508h-260z" />
    <glyph glyph-name="uni041C" unicode="&#x41c;" horiz-adv-x="1693" 
d="M184 0v1391h260l402 -619v-2l403 621h260v-1391h-221v1055l-340 -516h-203l-339 516v-1055h-222z" />
    <glyph glyph-name="uni041D" unicode="&#x41d;" horiz-adv-x="1538" 
d="M1130 1391h224v-1391h-224v637h-722v-637h-224v1391h224v-545h722v545z" />
    <glyph glyph-name="uni041E" unicode="&#x41e;" horiz-adv-x="1644" 
d="M821 -31q-207 -3 -376.5 96t-262.5 266.5t-90 364.5q-3 197 90 364.5t262.5 266.5t376.5 96q207 3 377 -96t263.5 -266.5t90.5 -364.5q3 -197 -90.5 -364.5t-263.5 -266.5t-377 -96zM821 180q226 0 363 146t137 370q0 146 -60 263t-175 186t-265 69q-223 0 -361 -148
t-138 -370q0 -223 137.5 -369.5t361.5 -146.5z" />
    <glyph glyph-name="uni041F" unicode="&#x41f;" horiz-adv-x="1490" 
d="M184 0v1391h1123v-1391h-222v1182h-679v-1182h-222z" />
    <glyph glyph-name="uni0420" unicode="&#x420;" horiz-adv-x="1429" 
d="M838 1391q212 0 351.5 -127t139.5 -330t-141.5 -330t-356.5 -127h-423v-477h-224v1391h654zM821 682q117 0 198 69t81 179q0 111 -81 181.5t-198 70.5h-413v-500h413z" />
    <glyph glyph-name="uni0421" unicode="&#x421;" horiz-adv-x="1441" 
d="M860 -31q-167 -2 -313 55.5t-245.5 156.5t-155.5 233t-54 282q-2 148 54 282t155.5 233t245.5 156.5t313 55.5q270 0 451 -123v-235q-6 9 -42.5 32t-94.5 50t-143.5 47t-170.5 20q-124 0 -226 -40t-169.5 -110t-104 -164.5t-36.5 -203.5q0 -147 62.5 -263.5t185.5 -184.5
t288 -68q140 0 271.5 40.5t218.5 113.5v-240q-1 0 -20.5 -12t-37 -21t-50 -23.5t-69.5 -25t-84 -21.5t-106 -16.5t-123 -5.5z" />
    <glyph glyph-name="uni0422" unicode="&#x422;" horiz-adv-x="1359" 
d="M569 0v1182h-487v209h1196v-209h-487v-1182h-222z" />
    <glyph glyph-name="uni0423" unicode="&#x423;" horiz-adv-x="1302" 
d="M436 -31q-56 0 -112.5 19.5t-85.5 39.5l-29 19v211q11 -9 29.5 -22t72.5 -34.5t103 -21.5q39 0 69.5 10t48 21.5t34 35.5t22.5 37t18 42l-565 1065h252l407 -811q63 156 142 358.5t126 327.5l48 125h246l-431 -1065q-85 -209 -164.5 -283t-230.5 -74z" />
    <glyph glyph-name="uni0424" unicode="&#x424;" horiz-adv-x="1624" 
d="M707 -256v231q-186 23 -329 124.5t-219.5 257t-76.5 339.5q0 149 53 282.5t147 231.5t231.5 155.5t297.5 57.5t297.5 -57.5t232 -155.5t148 -231.5t53.5 -282.5q0 -184 -77 -339.5t-220.5 -257t-329.5 -124.5v-231h-208zM707 188v1016q-183 -33 -289.5 -173t-106.5 -335
q0 -194 106.5 -334.5t289.5 -173.5zM915 188q183 33 289.5 173.5t106.5 334.5q0 195 -106.5 335t-289.5 173v-1016z" />
    <glyph glyph-name="uni0425" unicode="&#x425;" horiz-adv-x="1456" 
d="M63 0l527 733l-496 658h271l356 -496l364 496h271l-502 -660l539 -731h-271l-401 551l-387 -551h-271z" />
    <glyph glyph-name="uni0426" unicode="&#x426;" horiz-adv-x="1662" 
d="M1337 203h224v-477h-224v274h-1153v1391h222v-1182h710v1182h221v-1188z" />
    <glyph glyph-name="uni0427" unicode="&#x427;" horiz-adv-x="1433" 
d="M1026 0v395q-196 -28 -381 -28q-121 0 -219 28.5t-174 88t-118 160t-42 235.5v512h223v-512q0 -72 17.5 -126t46.5 -86.5t72.5 -52.5t89.5 -27t104 -7q165 0 381 22v789h223v-1391h-223z" />
    <glyph glyph-name="uni0428" unicode="&#x428;" horiz-adv-x="2048" 
d="M184 0v1391h222v-1182h514v1182h221v-1182h501v1182h222v-1391h-1680z" />
    <glyph glyph-name="uni0429" unicode="&#x429;" horiz-adv-x="2127" 
d="M1864 203h161v-477h-223v274h-1618v1391h222v-1182h514v1182h221v-1182h501v1182h222v-1188z" />
    <glyph glyph-name="uni042A" unicode="&#x42a;" horiz-adv-x="1609" 
d="M430 0v1182h-348v209h567v-555h387q229 0 360.5 -101.5t131.5 -312.5q0 -107 -38 -189t-105.5 -132.5t-155.5 -75.5t-193 -25h-606zM649 209h371q39 0 73 4.5t72 18.5t65 37t44.5 63.5t17.5 93.5q0 211 -272 211h-371v-428z" />
    <glyph glyph-name="uni042B" unicode="&#x42b;" horiz-adv-x="1792" 
d="M184 0v1391h224v-555h383q229 0 360 -101.5t131 -312.5q0 -107 -38 -189t-105.5 -132.5t-155 -75.5t-192.5 -25h-607zM1384 0v1391h224v-1391h-224zM403 209h371q50 0 92.5 8.5t86 30t69 67t25.5 111.5q0 211 -273 211h-371v-428z" />
    <glyph glyph-name="uni042C" unicode="&#x42c;" horiz-adv-x="1363" 
d="M184 0v1391h224v-555h383q229 0 360 -101.5t131 -312.5q0 -107 -38 -189t-105.5 -132.5t-155 -75.5t-192.5 -25h-607zM403 209h371q50 0 92.5 8.5t86 30t69 67t25.5 111.5q0 211 -273 211h-371v-428z" />
    <glyph glyph-name="uni042D" unicode="&#x42d;" horiz-adv-x="1421" 
d="M571 -31q-286 0 -489 125v240q13 -13 47 -34.5t94.5 -50.5t153.5 -49t194 -20q232 0 373 127.5t160 329.5h-660v217h641q-44 162 -178.5 260t-335.5 98q-82 0 -156.5 -14t-121.5 -32.5t-88.5 -43.5t-57.5 -38t-28 -25q0 241 2 241q17 12 43.5 26t84.5 39.5t143.5 41.5
t178.5 16q172 0 317.5 -57.5t243.5 -155.5t152.5 -231t54.5 -283t-54.5 -283t-152.5 -231t-243.5 -155.5t-317.5 -57.5z" />
    <glyph glyph-name="uni042E" unicode="&#x42e;" horiz-adv-x="2236" 
d="M1413 -31q-148 -2 -278.5 50t-223.5 142.5t-152 213.5t-71 262h-280v-637h-224v1391h224v-545h288q31 162 130 292t252.5 206t334.5 79q207 3 377 -96t263.5 -266.5t90.5 -364.5q3 -196 -90.5 -361.5t-263 -264t-377.5 -101.5zM1413 180q226 0 363 146t137 370
q0 146 -60 263t-175 186t-265 69q-223 0 -361.5 -148t-138.5 -370q0 -223 138 -369.5t362 -146.5z" />
    <glyph glyph-name="uni042F" unicode="&#x42f;" horiz-adv-x="1454" 
d="M82 0l344 500q-56 14 -105 43.5t-93 77t-69.5 121t-25.5 163.5q0 235 136.5 360.5t389.5 125.5h611v-1391h-221v424h-408l-281 -424h-278zM705 629h346v553h-371q-166 0 -242 -67t-76 -212q0 -143 86.5 -208.5t256.5 -65.5z" />
    <glyph glyph-name="uni0430" unicode="&#x430;" horiz-adv-x="1376" 
d="M635 -31q-159 0 -286 75t-197 202.5t-70 281.5t70 282t197.5 204t285.5 76q110 0 203.5 -37.5t152.5 -96.5v103h219v-1059h-223l2 109q-136 -140 -354 -140zM651 166q153 0 253 98t100 266q0 167 -100.5 265t-252.5 98q-148 0 -248 -105.5t-100 -257.5t100 -258t248 -106
z" />
    <glyph glyph-name="uni0431" unicode="&#x431;" horiz-adv-x="1206" 
d="M602 -31q-232 0 -376 152t-144 438q0 112 18.5 204.5t48.5 157.5t75 116.5t90.5 83.5t102 57.5t103 40t99.5 29.5q47 13 69.5 19.5t55.5 20t48 26t27 32.5t12 45l224 41q0 -94 -38 -157.5t-99.5 -96.5t-137 -56.5t-153.5 -47t-145.5 -56t-117 -96t-63.5 -156.5
q42 62 135.5 109t212.5 47q215 0 345 -132.5t130 -345.5q0 -209 -146.5 -342t-375.5 -133zM602 166q137 0 219 80.5t82 204.5q0 140 -76.5 222.5t-224.5 82.5q-130 0 -215.5 -92t-85.5 -213q0 -119 83.5 -202t217.5 -83z" />
    <glyph glyph-name="uni0432" unicode="&#x432;" horiz-adv-x="1167" 
d="M164 0v1059h538q175 0 257.5 -73t82.5 -198q0 -101 -53 -159.5t-155 -67.5q129 -7 195.5 -83t66.5 -181q0 -63 -22 -115.5t-67.5 -94t-122.5 -64.5t-179 -23h-541zM383 631q170 2 285 2q157 0 157 123t-155 123h-287v-248zM383 180h330q79 0 121.5 35.5t42.5 99.5
t-43.5 100t-122.5 36h-328v-271z" />
    <glyph glyph-name="uni0433" unicode="&#x433;" horiz-adv-x="1085" 
d="M164 0v1059h880v-180h-659v-879h-221z" />
    <glyph glyph-name="uni0434" unicode="&#x434;" horiz-adv-x="1400" 
d="M82 -256v436h139q117 452 117 879h795v-879h165v-436h-221v256h-774v-256h-221zM436 180h473v670h-372q-7 -123 -38 -323t-63 -347z" />
    <glyph glyph-name="uni0435" unicode="&#x435;" horiz-adv-x="1220" 
d="M668 -31q-136 0 -248 44.5t-185.5 121.5t-113 178.5t-39.5 216.5q0 157 74 285t205 201.5t292 73.5q111 0 204.5 -43.5t154 -115.5t94 -163t33.5 -188v-103h-846q21 -135 115.5 -223t263.5 -88q42 0 83 4t75 10t66 14.5t57.5 17.5t48 18t38.5 17.5t28 14.5t18 10l6 4
v-198q-5 -4 -14.5 -11.5t-46 -26.5t-80.5 -33t-120 -26t-163 -12zM303 649h615q-3 29 -11 59t-29.5 67.5t-52 66t-82.5 48t-118 19.5t-121 -19.5t-89 -48t-59.5 -65.5t-37 -68t-15.5 -59z" />
    <glyph glyph-name="uni0436" unicode="&#x436;" horiz-adv-x="1536" 
d="M82 0l395 582l-395 477h244l342 -443v443h200v-443l342 443h244l-395 -477l395 -582h-244l-342 518v-518h-200v518l-342 -518h-244z" />
    <glyph glyph-name="uni0437" unicode="&#x437;" horiz-adv-x="1038" 
d="M455 -31q-88 0 -204 29.5t-169 71.5v204q7 -4 20.5 -11.5t54 -26.5t81.5 -33.5t97.5 -26.5t106.5 -12q256 0 256 151q0 68 -56 109t-134 41h-195v180h164q191 0 191 131q0 117 -238 117q-87 0 -183 -28t-134 -56v201q122 80 342 80q184 0 304 -78t120 -211
q0 -90 -64 -161.5t-153 -80.5q69 -15 120.5 -47t79 -72.5t40.5 -80.5t13 -80q0 -105 -59.5 -176t-160.5 -102.5t-240 -31.5z" />
    <glyph glyph-name="uni0438" unicode="&#x438;" horiz-adv-x="1312" 
d="M164 0v1059h221v-770l528 770h236v-1059h-221v772l-531 -772h-233z" />
    <glyph glyph-name="uni0439" unicode="&#x439;" horiz-adv-x="1312" 
d="M655 1198q-86 0 -152 32t-103 84.5t-55.5 111.5t-18.5 122h206q0 -34 10.5 -70.5t40.5 -68t72 -31.5q43 0 73 31.5t41 68t11 70.5h207q0 -62 -19 -121.5t-56.5 -112t-104 -84.5t-152.5 -32zM164 0v1059h221v-770l528 770h236v-1059h-221v772l-531 -772h-233z" />
    <glyph glyph-name="uni043A" unicode="&#x43a;" horiz-adv-x="1128" 
d="M164 0v1059h221v-387l389 387h277l-506 -477l542 -582h-276l-426 463v-463h-221z" />
    <glyph glyph-name="uni043B" unicode="&#x43b;" horiz-adv-x="1308" 
d="M41 0l502 1059h223l502 -1059h-226l-387 831l-389 -831h-225z" />
    <glyph glyph-name="uni043C" unicode="&#x43c;" horiz-adv-x="1480" 
d="M164 0v1059h272l305 -459l310 459h266v-1059h-221v793l-265 -408h-180l-266 408v-793h-221z" />
    <glyph glyph-name="uni043D" unicode="&#x43d;" horiz-adv-x="1308" 
d="M164 0v1059h219v-428h543v428h219v-1059h-219v451h-543v-451h-219z" />
    <glyph glyph-name="uni043E" unicode="&#x43e;" horiz-adv-x="1323" 
d="M662 -31q-158 0 -292 75t-211 203.5t-77 280.5q0 114 45.5 218t123 179.5t185 120t226.5 44.5q158 0 291.5 -75.5t210.5 -205t77 -281.5t-77 -280.5t-210.5 -203.5t-291.5 -75zM662 168q156 0 261 105t105 255q0 152 -105 257.5t-261 105.5t-261.5 -105.5t-105.5 -257.5
q0 -150 105.5 -255t261.5 -105z" />
    <glyph glyph-name="uni043F" unicode="&#x43f;" horiz-adv-x="1333" 
d="M164 0v1059h1005v-1059h-221v879h-563v-879h-221z" />
    <glyph glyph-name="uni0440" unicode="&#x440;" horiz-adv-x="1376" 
d="M164 -434v1493h221v-103q59 59 152.5 96.5t203.5 37.5q158 0 285.5 -76t197.5 -204t70 -282t-70 -281.5t-197 -202.5t-286 -75q-223 0 -356 144v-547h-221zM745 166q147 0 240.5 104.5t93.5 257.5q0 154 -93.5 259.5t-240.5 105.5q-156 0 -264 -99t-108 -266
q0 -111 52 -194.5t135.5 -125.5t184.5 -42z" />
    <glyph glyph-name="uni0441" unicode="&#x441;" horiz-adv-x="1132" 
d="M682 -31q-144 0 -259.5 44t-189 121t-112.5 178t-39 218q0 154 72.5 281.5t206 203t301.5 75.5q105 0 208 -32t170 -95v-228q-5 7 -15 17.5t-45 38t-75 48.5t-106 38.5t-137 17.5q-155 0 -260 -106.5t-105 -258.5q0 -165 104.5 -265.5t280.5 -100.5q69 0 134 11.5
t107.5 27.5t75 32t47.5 27l15 12v-204q-66 -52 -173.5 -76.5t-205.5 -24.5z" />
    <glyph glyph-name="uni0442" unicode="&#x442;" horiz-adv-x="1126" 
d="M455 0v879h-414v180h1044v-180h-409v-879h-221z" />
    <glyph glyph-name="uni0443" unicode="&#x443;" horiz-adv-x="1200" 
d="M209 -426l276 549l-444 936h231l328 -703l328 703h231l-715 -1485h-235z" />
    <glyph glyph-name="uni0444" unicode="&#x444;" horiz-adv-x="1546" 
d="M664 -420v418q-265 21 -423.5 164t-158.5 383q0 160 77.5 281t207.5 187t297 79v301l221 37v-338q167 -13 296.5 -79t206 -187t76.5 -281q0 -241 -157.5 -383.5t-421.5 -163.5v-418h-221zM664 190v715q-152 0 -259.5 -99t-107.5 -261q0 -81 31 -149t82.5 -112.5
t117.5 -69t136 -24.5zM885 190q147 2 256.5 99t109.5 256q0 162 -107 260t-259 100v-715z" />
    <glyph glyph-name="uni0445" unicode="&#x445;" horiz-adv-x="1275" 
d="M51 0l455 569l-414 490h266l289 -352l295 352h242l-412 -506l453 -553h-267l-323 414l-328 -414h-256z" />
    <glyph glyph-name="uni0446" unicode="&#x446;" horiz-adv-x="1335" 
d="M1073 180h180v-600h-209v420h-921v1059h209v-879h532v879h209v-879z" />
    <glyph glyph-name="uni0447" unicode="&#x447;" horiz-adv-x="1284" 
d="M899 1059h221v-1059h-221v502q-3 -7 -9.5 -18t-32.5 -39t-60 -50t-95 -39.5t-133 -17.5q-187 0 -306.5 115t-119.5 325v281h222v-258q0 -126 63.5 -196t173.5 -70q124 0 210.5 78.5t86.5 220.5v225z" />
    <glyph glyph-name="uni0448" unicode="&#x448;" horiz-adv-x="1740" 
d="M176 0v1059h209v-879h383v879h209v-879h391v879h209v-1059h-1401z" />
    <glyph glyph-name="uni0449" unicode="&#x449;" horiz-adv-x="1839" 
d="M1577 180h180v-600h-209v420h-1372v1059h209v-879h383v879h209v-879h391v879h209v-879z" />
    <glyph glyph-name="uni044A" unicode="&#x44a;" horiz-adv-x="1261" 
d="M248 0v879h-248v180h467v-428h321q88 0 158 -21t113 -53.5t71 -75.5t39 -84t11 -82q0 -64 -22.5 -119t-67.5 -99.5t-122.5 -70.5t-179.5 -26h-540zM467 180h330q79 0 121.5 35.5t42.5 99.5t-43.5 100t-122.5 36h-328v-271z" />
    <glyph glyph-name="uni044B" unicode="&#x44b;" horiz-adv-x="1560" 
d="M123 0v1059h219v-428h322q88 0 158 -21t112 -53.5t70 -75.5t38.5 -84t10.5 -82q0 -64 -22 -119t-67 -99.5t-122 -70.5t-178 -26h-541zM1176 0v1059h221v-1059h-221zM342 180h330q79 0 121.5 35.5t42.5 99.5t-43.5 100t-122.5 36h-328v-271z" />
    <glyph glyph-name="uni044C" unicode="&#x44c;" horiz-adv-x="1134" 
d="M123 0v1059h219v-428h322q88 0 158 -21t112 -53.5t70 -75.5t38.5 -84t10.5 -82q0 -64 -22 -119t-67 -99.5t-122 -70.5t-178 -26h-541zM342 180h330q79 0 121.5 35.5t42.5 99.5t-43.5 100t-122.5 36h-328v-271z" />
    <glyph glyph-name="uni044D" unicode="&#x44d;" horiz-adv-x="1142" 
d="M461 -29q-98 0 -205.5 24.5t-173.5 76.5v202q5 -4 15.5 -11.5t46.5 -26.5t76.5 -33.5t106 -26.5t134.5 -12q152 0 252 77.5t123 209.5h-461v180h454q-31 117 -126 190.5t-222 73.5q-71 0 -136.5 -16.5t-107.5 -40t-74 -47t-47 -39.5l-14 -17v228q67 63 170.5 95t208.5 32
q168 0 301.5 -75.5t206 -203t72.5 -281.5q0 -117 -38.5 -218t-112 -177.5t-189 -120t-260.5 -43.5z" />
    <glyph glyph-name="uni044E" unicode="&#x44e;" horiz-adv-x="1779" 
d="M1118 1090q119 0 226.5 -44.5t185 -120t123 -179.5t45.5 -218q0 -152 -77 -280.5t-211 -203.5t-292 -75q-219 0 -381 138t-192 344h-162v-451h-219v1059h219v-428h166q37 197 197 328t372 131zM1118 168q156 0 261.5 105t105.5 255q0 152 -105.5 257.5t-261.5 105.5
t-261 -105.5t-105 -257.5q0 -150 105 -255t261 -105z" />
    <glyph glyph-name="uni044F" unicode="&#x44f;" horiz-adv-x="1282" 
d="M1118 1059v-1059h-221v354h-332l-194 -354h-248l239 410q-100 22 -160.5 105t-60.5 200q0 155 108.5 249.5t287.5 94.5h581zM565 547h332v332h-332q-200 0 -200 -166t200 -166z" />
    <glyph glyph-name="uni0450" unicode="&#x450;" horiz-adv-x="1220" 
d="M547 1198l-250 350h272l185 -350h-207zM668 -31q-136 0 -248 44.5t-185.5 121.5t-113 178.5t-39.5 216.5q0 157 74 285t205 201.5t292 73.5q111 0 204.5 -43.5t154 -115.5t94 -163t33.5 -188v-103h-846q21 -135 115.5 -223t263.5 -88q42 0 83 4t75 10t66 14.5t57.5 17.5
t48 18t38.5 17.5t28 14.5t18 10l6 4v-198q-5 -4 -14.5 -11.5t-46 -26.5t-80.5 -33t-120 -26t-163 -12zM303 649h615q-3 29 -11 59t-29.5 67.5t-52 66t-82.5 48t-118 19.5t-121 -19.5t-89 -48t-59.5 -65.5t-37 -68t-15.5 -59z" />
    <glyph glyph-name="uni0451" unicode="&#x451;" horiz-adv-x="1228" 
d="M401 1190q-61 0 -103 42t-42 103q0 62 42 105t103 43t104.5 -43.5t43.5 -104.5t-43 -103t-105 -42zM838 1190q-62 0 -104 42t-42 103q0 62 42.5 105t103.5 43t104 -43t43 -105q0 -61 -42.5 -103t-104.5 -42zM668 -31q-136 0 -248 44.5t-185.5 121.5t-113 178.5
t-39.5 216.5q0 157 74 285t205 201.5t292 73.5q111 0 204.5 -43.5t154 -115.5t94 -163t33.5 -188v-103h-846q21 -135 115.5 -223t263.5 -88q73 0 143 11.5t118 27.5t85.5 32t55.5 27l18 12v-198q-5 -4 -14.5 -11.5t-46 -26.5t-80.5 -33t-120 -26t-163 -12zM301 649h621
q-1 21 -7.5 49t-27.5 66.5t-51.5 69.5t-85.5 53t-125 22q-58 0 -107.5 -14.5t-81.5 -37.5t-58 -50.5t-39.5 -55t-22.5 -50.5t-12 -37z" />
    <glyph glyph-name="uni0452" unicode="&#x452;" horiz-adv-x="1341" 
d="M870 -459q-63 0 -117 13.5t-86 32.5t-55 37.5t-32 31.5l-9 14v230q4 -7 12 -17.5t35 -38.5t56.5 -49.5t74.5 -39t91 -17.5q74 0 105.5 52.5t31.5 127.5v483q0 126 -64 196.5t-174 70.5q-124 0 -210.5 -78.5t-86.5 -220.5v-369h-221v1210h-344v181h909v-181h-344v-510
q3 7 9.5 18t32.5 39t60 50t95 39.5t133 17.5q187 0 306.5 -115t119.5 -325v-487q0 -53 -7.5 -102.5t-29.5 -104.5t-57 -95.5t-95 -67t-139 -26.5z" />
    <glyph glyph-name="uni0453" unicode="&#x453;" horiz-adv-x="1085" 
d="M430 1200l184 350h273l-250 -350h-207zM164 0v1059h880v-180h-659v-879h-221z" />
    <glyph glyph-name="uni0454" unicode="&#x454;" horiz-adv-x="997" 
d="M543 -31q-213 0 -337 77t-124 233q0 40 13 80t41 80.5t79.5 72.5t120.5 47q-89 9 -153 80.5t-64 161.5q0 133 120 211t304 78q220 0 342 -80v-201q-38 28 -134.5 56t-183.5 28q-237 0 -237 -117q0 -131 190 -131h164v-180h-195q-78 0 -134 -41t-56 -109q0 -151 256 -151
q80 0 170 27.5t140 54.5l50 28v-204q-53 -42 -168.5 -71.5t-203.5 -29.5z" />
    <glyph glyph-name="uni0455" unicode="&#x455;" horiz-adv-x="894" 
d="M395 -31q-50 0 -101 10.5t-87.5 25t-65.5 29.5t-44 26l-15 10v217q6 -5 16 -13t43.5 -29t68 -37t85 -29t98.5 -13q104 0 158.5 30t54.5 83q0 54 -44.5 94t-151.5 100q-35 20 -46.5 26.5t-42.5 25t-42.5 28t-36 28.5t-34.5 33t-26 36t-22 42.5t-11.5 47t-5.5 55.5
q0 132 101 213.5t250 81.5q159 0 274 -70v-217q-39 37 -106 63.5t-142 26.5q-86 0 -127 -25.5t-41 -68.5q0 -10 2 -19t5 -17t10.5 -16.5t14 -15.5t20.5 -16.5t24.5 -16.5t31.5 -19.5t36.5 -21.5t44.5 -25.5t51 -29.5q58 -34 95 -61.5t67.5 -64t44.5 -81.5t14 -104
q0 -63 -24 -119t-72.5 -102.5t-131.5 -73.5t-190 -27z" />
    <glyph glyph-name="uni0456" unicode="&#x456;" horiz-adv-x="579" 
d="M289 1210q-53 0 -89 36t-36 89q0 54 36 90.5t89 36.5q54 0 90.5 -36.5t36.5 -90.5q0 -53 -36.5 -89t-90.5 -36zM188 0v1061h222v-1061h-222z" />
    <glyph glyph-name="uni0457" unicode="&#x457;" horiz-adv-x="561" 
d="M59 1223q-47 0 -80.5 33t-33.5 79q0 47 33.5 81t80.5 34q46 0 79.5 -34t33.5 -81q0 -46 -33.5 -79t-79.5 -33zM453 1223q-47 0 -81 33t-34 79q0 47 34 81t81 34q46 0 79 -34t33 -81q0 -46 -33 -79t-79 -33zM176 0v1059h221v-1059h-221z" />
    <glyph glyph-name="uni0458" unicode="&#x458;" horiz-adv-x="548" 
d="M276 1210q-52 0 -88 36t-36 89q0 54 35.5 90.5t88.5 36.5q54 0 90.5 -36.5t36.5 -90.5q0 -53 -36.5 -89t-90.5 -36zM76 -459q-63 0 -117 13.5t-86 32.5t-55 37.5t-32 31.5l-9 14v230q4 -7 12 -17.5t35 -38.5t56 -49.5t74 -39t91 -17.5q74 0 105.5 52.5t31.5 127.5v1143
h221v-1124q0 -53 -7.5 -102.5t-29 -104.5t-56.5 -95.5t-95 -67t-139 -26.5z" />
    <glyph glyph-name="uni0459" unicode="&#x459;" horiz-adv-x="1875" 
d="M1405 631q88 0 158 -21t112 -53.5t70 -75.5t38.5 -84t10.5 -82q0 -64 -22 -119t-67 -99.5t-122 -70.5t-178 -26h-363l-387 831l-389 -831h-225l502 1059h223l203 -428h436zM1413 180q79 0 121.5 35.5t42.5 99.5t-43.5 100t-122.5 36h-356l137 -291v20h221z" />
    <glyph glyph-name="uni045A" unicode="&#x45a;" horiz-adv-x="1937" 
d="M1466 631q88 0 158 -21t112 -53.5t70 -75.5t38.5 -84t10.5 -82q0 -64 -22 -119t-67 -99.5t-122 -70.5t-178 -26h-540v451h-543v-451h-219v1059h219v-428h543v428h219v-428h321zM1475 180q79 0 121 35.5t42 99.5t-43 100t-122 36h-328v-271h330z" />
    <glyph glyph-name="uni045B" unicode="&#x45b;" horiz-adv-x="1464" 
d="M344 0v1210h-344v181h909v-181h-344v-510q3 7 9.5 18t32.5 39t60 50t95 39.5t133 17.5q187 0 306.5 -115t119.5 -325v-424h-221v401q0 126 -64 196.5t-174 70.5q-124 0 -210.5 -78.5t-86.5 -220.5v-369h-221z" />
    <glyph glyph-name="uni045C" unicode="&#x45c;" horiz-adv-x="1128" 
d="M430 1200l184 350h273l-250 -350h-207zM164 0v1059h221v-387l389 387h277l-506 -477l542 -582h-276l-426 463v-463h-221z" />
    <glyph glyph-name="uni045D" unicode="&#x45d;" horiz-adv-x="1312" 
d="M551 1198l-250 350h272l185 -350h-207zM164 0v1059h221v-770l528 770h236v-1059h-221v772l-531 -772h-233z" />
    <glyph glyph-name="uni045E" unicode="&#x45e;" horiz-adv-x="1200" 
d="M811 1202q-53 -52 -125 -51.5t-125 53.5q-52 53 -51.5 124t53.5 124q52 52 122 52.5t124 -50.5l-86 -86q-17 13 -38 12t-36 -16t-15 -37t15 -37q16 -16 37 -16.5t39 16.5h2l86 -86zM209 -426l276 549l-444 936h231l328 -703l328 703h231l-715 -1485h-235z" />
    <glyph glyph-name="uni045F" unicode="&#x45f;" horiz-adv-x="1333" 
d="M1169 1059v-1059h-397v-420h-209v420h-399v1059h221v-879h563v879h221z" />
    <glyph glyph-name="uni0462" unicode="&#x462;" horiz-adv-x="1581" 
d="M1008 836q229 0 360 -101.5t131 -312.5q0 -107 -38 -189t-105.5 -132.5t-155 -75.5t-192.5 -25h-607v1038h-401v185h401v168h224v-168h422v-185h-422v-202h383zM991 209q50 0 92.5 8.5t86 30t69 67t25.5 111.5q0 211 -273 211h-370v-428h370z" />
    <glyph glyph-name="uni0463" unicode="&#x463;" horiz-adv-x="1175" 
d="M705 631q88 0 158 -21t112 -53.5t70 -75.5t38.5 -84t10.5 -82q0 -64 -22 -119t-67 -99.5t-122 -70.5t-178 -26h-529v1059h221v-428h308zM713 180q79 0 121.5 35.5t42.5 99.5t-43.5 100t-122.5 36h-314v-271h316z" />
    <glyph glyph-name="uni0472" unicode="&#x472;" horiz-adv-x="1624" 
d="M811 -31q-160 0 -297.5 57.5t-231.5 155.5t-147 231.5t-53 282.5t53 282.5t147 231.5t231.5 155.5t297.5 57.5t297.5 -57.5t232 -155.5t148 -231.5t53.5 -282.5t-53.5 -282.5t-148 -231.5t-232 -155.5t-297.5 -57.5zM1028 780q26 0 71 10.5t107 28t86 23.5
q-41 168 -167.5 270t-313.5 102t-314.5 -102t-168.5 -270q11 3 56.5 20.5t89.5 29t85 11.5q70 0 131.5 -19t101.5 -42.5t102.5 -42.5t133.5 -19zM811 180q210 0 343.5 127t152.5 326q-25 -6 -89.5 -23.5t-112 -28t-77.5 -10.5q-63 0 -117 12.5t-92.5 30.5t-75.5 36.5t-84 31
t-100 12.5q-42 0 -88.5 -11.5t-94.5 -28.5t-63 -21q21 -199 154.5 -326t343.5 -127z" />
    <glyph glyph-name="uni0473" unicode="&#x473;" horiz-adv-x="1323" 
d="M662 1090q158 0 291.5 -75.5t210.5 -205t77 -281.5t-77 -280.5t-210.5 -203.5t-291.5 -75t-292 75t-211 203.5t-77 280.5q0 114 45.5 218t123 179.5t185 120t226.5 44.5zM662 891q-127 0 -223.5 -72.5t-129.5 -187.5h705q-33 116 -129 188t-223 72zM662 168q133 0 232 80
t126 203h-717q27 -123 126.5 -203t232.5 -80z" />
    <glyph glyph-name="uni0474" unicode="&#x474;" horiz-adv-x="1435" 
d="M594 0l-531 1391h254l402 -1110l272 776q22 57 45 101.5t60 90t81.5 76t109.5 50t143 20.5v-209q-56 0 -96 -12t-65 -37.5t-38.5 -48t-28.5 -60.5l-360 -1028h-248z" />
    <glyph glyph-name="uni0475" unicode="&#x475;" horiz-adv-x="1183" 
d="M502 0l-420 1055h231l279 -742l278 742h232l-420 -1055h-180z" />
    <glyph glyph-name="uni0490" unicode="&#x490;" horiz-adv-x="1277" 
d="M993 1659h224v-477h-811v-1182h-222v1391h809v268z" />
    <glyph glyph-name="uni0491" unicode="&#x491;" horiz-adv-x="1097" 
d="M1055 1059h2v-180h-660v-879h-221v1059h658v299h221v-299z" />
    <glyph glyph-name="uni0492" unicode="&#x492;" horiz-adv-x="1382" 
d="M360 0v637h-278v209h278v545h1016v-209h-794v-336h632v-209h-632v-637h-222z" />
    <glyph glyph-name="uni0493" unicode="&#x493;" horiz-adv-x="1144" 
d="M209 0v451h-168v180h168v428h895v-180h-674v-248h426v-180h-426v-451h-221z" />
    <glyph glyph-name="uni0494" unicode="&#x494;" horiz-adv-x="1341" 
d="M715 -256v225q61 0 110.5 19.5t81.5 54t54.5 75.5t34.5 91t17 93.5t5 88.5q0 53 -8 107t-30 112t-54.5 102t-87 72.5t-123.5 28.5q-132 0 -219.5 -76.5t-87.5 -201.5v-535h-224v1391h647v-185h-423v-288q125 106 307 106q122 0 219 -40.5t156.5 -104.5t99 -151.5
t55 -174.5t15.5 -180q0 -90 -19.5 -177.5t-62.5 -169.5t-105 -144.5t-154.5 -100t-203.5 -37.5z" />
    <glyph glyph-name="uni0495" unicode="&#x495;" horiz-adv-x="1173" 
d="M825 -434q-63 0 -117 13.5t-86 32t-55 37.5t-32 33l-9 13v229q4 -7 12 -17.5t35 -38.5t56.5 -49.5t74.5 -39t91 -17.5q74 0 105.5 53t31.5 128v229q0 126 -64 196t-174 70q-124 0 -210.5 -78.5t-86.5 -220.5v-139h-221v1059h854v-180h-633v-408q3 7 9.5 18t32.5 39t60 50
t95 39.5t133 17.5q187 0 306.5 -115t119.5 -325v-234q0 -53 -7.5 -102.5t-29.5 -104.5t-57 -95t-95 -66.5t-139 -26.5z" />
    <glyph glyph-name="uni0496" unicode="&#x496;" horiz-adv-x="1806" 
d="M1542 106h209v-477h-223v371h-195q-11 32 -35.5 105.5t-44 128.5t-39.5 106q-55 135 -83 177q-53 77 -143 88q-21 3 -44 3h-12v-608h-223v608h-15q-112 0 -170 -70q-37 -43 -88 -169q-1 -2 -12 -29q-20 -51 -39.5 -106t-44 -128.5t-35.5 -105.5h-250q72 189 168 434
q45 115 89.5 187t109.5 116q-29 62 -47 168q-26 153 -93 215t-173 62v209q197 -3 305 -96t133 -242q10 -58 17.5 -91t19.5 -65.5t28 -48t39.5 -25t57.5 -10.5v578h223v-578q33 1 56.5 11t39 26t27.5 48t19.5 65t17.5 90q25 149 133 242t305 96v-209q-106 0 -173 -62
t-93 -215q-18 -106 -47 -168q65 -44 108.5 -115.5t89.5 -187.5q125 -322 127 -328z" />
    <glyph glyph-name="uni0497" unicode="&#x497;" horiz-adv-x="1640" 
d="M1350 180h209v-600h-209v420h-140l-342 518v-518h-200v518l-342 -518h-244l395 582l-395 477h244l342 -443v443h200v-443l342 443h244l-395 -477l291 -428v26z" />
    <glyph glyph-name="uni0498" unicode="&#x498;" horiz-adv-x="1208" 
d="M1126 395q0 -84 -31.5 -157t-91.5 -130.5t-156.5 -93.5t-219.5 -43h12l-35 -114q5 -1 14 -3.5t32 -12t40.5 -23t32 -37.5t14.5 -53q0 -47 -26 -81.5t-70 -53t-92 -27t-100 -8.5v118q45 0 83.5 19t38.5 55q0 31 -29 50.5t-58 23.5l-29 4l39 143h6q-121 8 -239.5 40
t-178.5 79v221q86 -62 220 -99.5t259 -37.5q171 0 253.5 62t82.5 159t-92.5 167.5t-253.5 70.5h-258v201h229q146 0 236 52t90 144q0 189 -293 189q-101 0 -232.5 -34t-193.5 -69v215q80 35 201 63.5t252 28.5q235 0 360 -90.5t125 -247.5q0 -126 -86 -219.5t-190 -117.5
q152 -22 243.5 -115.5t91.5 -237.5z" />
    <glyph glyph-name="uni0499" unicode="&#x499;" horiz-adv-x="1038" 
d="M915 279q0 -140 -97.5 -216t-270.5 -90l-33 -106q5 -1 14 -3.5t32 -12t40.5 -23t32 -37.5t14.5 -53q0 -47 -26.5 -81.5t-70.5 -53t-92 -27t-100 -8.5v119q46 0 84.5 18.5t38.5 54.5q0 31 -29 50.5t-58 23.5l-29 4l36 133q-89 8 -181.5 35.5t-137.5 63.5v204
q7 -4 20.5 -11.5t54 -26.5t81.5 -33.5t97.5 -26.5t106.5 -12q256 0 256 151q0 68 -56 109t-134 41h-195v180h164q191 0 191 131q0 117 -238 117q-87 0 -183 -28t-134 -56v201q122 80 342 80q184 0 304 -78t120 -211q0 -90 -64 -161.5t-153 -80.5q69 -15 120.5 -47t79 -72.5
t40.5 -80.5t13 -80z" />
    <glyph glyph-name="uni049A" unicode="&#x49a;" horiz-adv-x="1409" 
d="M1169 106h220v-477h-224v371h-204q-11 32 -35.5 105.5t-44 128.5t-39.5 106v1l-1 1v1l-1 1v1l-1 1q-54 134 -86 178q-54 75 -152 83l-30 1h-163v-608h-224v1391h224v-578h143q44 0 72 12t46 45t28 71.5t22 111.5q25 149 133 242t305 96v-209q-106 0 -173 -62t-93 -215
q-18 -106 -47 -168q65 -44 108.5 -115.5t89.5 -187.5q125 -322 127 -328z" />
    <glyph glyph-name="uni049B" unicode="&#x49b;" horiz-adv-x="1277" 
d="M987 180h209v-600h-209v420h-156q-7 20 -39.5 115t-52.5 145q-19 48 -30.5 72.5t-29 52.5t-36 40.5t-46.5 21t-65 8.5h-147v-455h-221v1059h221v-424h125q66 0 88.5 33.5t40.5 138.5q46 255 377 258v-180q-55 0 -94.5 -11t-70.5 -45.5t-40 -93.5q-10 -66 -29 -103.5
t-53 -60.5q74 -22 114.5 -74.5t84.5 -164.5q54 -136 59 -152z" />
    <glyph glyph-name="uni049C" unicode="&#x49c;" horiz-adv-x="1374" 
d="M1206 434q96 -245 168 -434h-250l-35.5 106.5t-43 127t-39.5 106.5v1l-1 1v1l-1 1v1l-1 1q-54 134 -86 178q-54 75 -152 83l-30 1h-10v-262h-184v262h-133v-608h-224v1391h224v-578h133v244h184v-244q33 1 56.5 11.5t38.5 25.5t27 48t19 65t17 90q25 149 133 242t305 96
v-209q-106 0 -173 -62t-93 -215q-18 -106 -47 -168q65 -44 108.5 -115.5t89.5 -187.5z" />
    <glyph glyph-name="uni049D" unicode="&#x49d;" horiz-adv-x="1290" 
d="M164 0v1059h221v-424h121v209h188v-209q59 3 80 37.5t37 134.5q46 255 377 258v-180q-55 0 -94.5 -11t-70.5 -45.5t-40 -93.5q-10 -66 -29 -103.5t-53 -60.5q74 -22 114.5 -74.5t84.5 -164.5q9 -22 129 -332h-225q-4 11 -38 110t-55 150q-19 48 -30 72.5t-29 52.5
t-36.5 40.5t-46 21t-64.5 8.5h-11v-211h-188v211h-121v-455h-221z" />
    <glyph glyph-name="uni049E" unicode="&#x49e;" horiz-adv-x="1454" 
d="M1286 434q96 -245 168 -434h-250q-11 32 -35.5 105.5t-44 128.5t-39.5 106q-55 135 -83 177q-53 77 -143 88q-21 3 -44 3h-164v-608h-223v1053h-244v184h244v154h223v-154h244v-184h-244v-240h144q44 0 72 12t46 45t28 71.5t22 111.5q25 149 133 242t305 96v-209
q-106 0 -173 -62t-93 -215q-18 -103 -48 -168q65 -44 109.5 -116t89.5 -187z" />
    <glyph glyph-name="uni049F" unicode="&#x49f;" horiz-adv-x="1144" 
d="M170 0v1100h-129v184h129v107l221 36v-143h176v-184h-176v-465h125q66 0 88.5 33.5t40.5 138.5q46 255 377 258v-180q-55 0 -94.5 -11t-70.5 -45.5t-40 -93.5q-10 -66 -29 -103.5t-53 -60.5q74 -22 114.5 -74.5t84.5 -164.5q9 -22 129 -332h-225q-4 11 -38 110t-55 150
q-19 48 -30 72.5t-29 52.5t-36.5 40.5t-46 21t-64.5 8.5h-148v-455h-221z" />
    <glyph glyph-name="uni04A0" unicode="&#x4a0;" horiz-adv-x="1654" 
d="M610 0v1206h-426v185h650v-578h143q44 0 72 12t46 45t28 71.5t22 111.5q25 149 133 242t305 96v-209q-106 0 -173 -62t-93 -215q-18 -106 -47 -168q65 -44 108.5 -115.5t89.5 -187.5q96 -245 168 -434h-250l-35.5 106.5t-43 127t-39.5 106.5q-55 136 -85 179
q-53 76 -147 87q-18 2 -39 2h-163v-608h-224z" />
    <glyph glyph-name="uni04A1" unicode="&#x4a1;" horiz-adv-x="1200" 
d="M246 0v879h-246v180h467v-424h125q66 0 88.5 33.5t40.5 138.5q46 255 377 258v-180q-55 0 -94.5 -11t-70.5 -45.5t-40 -93.5q-10 -66 -29 -103.5t-53 -60.5q74 -22 114.5 -74.5t84.5 -164.5q9 -22 129 -332h-226q-7 20 -39.5 115t-52.5 145q-19 48 -30.5 72.5t-29 52.5
t-36 40.5t-46.5 21t-65 8.5h-147v-455h-221z" />
    <glyph glyph-name="uni04A2" unicode="&#x4a2;" horiz-adv-x="1579" 
d="M1130 846v545h224v-1391h-224v637h-722v-637h-224v1391h224v-545h722zM1356 106h223v-477h-223v477z" />
    <glyph glyph-name="uni04A3" unicode="&#x4a3;" horiz-adv-x="1435" 
d="M1145 180h209v-600h-209v420h-219v451h-543v-451h-219v1059h219v-428h543v428h219v-879z" />
    <glyph glyph-name="uni04A4" unicode="&#x4a4;" horiz-adv-x="1781" 
d="M1372 1391h223v-1391h-223v637h-723v-637h-223v1206h-426v185h649v-545h723v545z" />
    <glyph glyph-name="uni04A5" unicode="&#x4a5;" horiz-adv-x="1392" 
d="M164 0v1059h219v-428h543v428h467v-180h-248v-879h-219v451h-543v-451h-219z" />
    <glyph glyph-name="uni04A6" unicode="&#x4a6;" horiz-adv-x="2160" 
d="M1534 -276v245q61 0 110.5 19.5t81.5 54t54.5 75.5t34.5 91t17 93.5t5 88.5q0 54 -8 107.5t-29.5 111.5t-54 102t-87.5 72.5t-124 28.5q-132 0 -218.5 -76.5t-86.5 -201.5l-2 -3v-532h-223v330l-3 -2q0 30 3 65v789h-598v-1182h-222v1391h1043v-473q125 106 307 106
q122 0 219 -40.5t156.5 -104.5t99 -151.5t55 -174.5t15.5 -180q0 -90 -19.5 -179.5t-62.5 -174.5t-105 -150.5t-154.5 -105t-203.5 -39.5z" />
    <glyph glyph-name="uni04A7" unicode="&#x4a7;" horiz-adv-x="1904" 
d="M1495 -434q-63 0 -117 13.5t-86 32t-55 37.5t-32 33l-9 13v229q4 -7 12 -17.5t35 -38.5t56 -49.5t74 -39t91 -17.5q74 0 106 53t32 128v229q0 126 -64 196t-174 70q-124 0 -210.5 -78.5t-86.5 -220.5v-139h-221v879h-461v-879h-221v1059h903v-588q3 7 9.5 18t32.5 39
t60 50t95 39.5t133 17.5q187 0 306.5 -115t119.5 -325v-234q0 -53 -7.5 -102.5t-29.5 -104.5t-57 -95t-95 -66.5t-139 -26.5z" />
    <glyph glyph-name="uni04A8" unicode="&#x4a8;" horiz-adv-x="1597" 
d="M756 -416v389q-147 16 -272.5 80t-212 160t-134 221.5t-45.5 261.5q-2 148 54 282t155.5 233t245.5 156.5t313 55.5q270 0 451 -123v-235q-6 9 -42.5 32t-94.5 50t-143.5 47t-170.5 20q-124 0 -226 -40t-169.5 -110t-104 -164.5t-36.5 -203.5q0 -200 115 -339t317 -169
v846q195 2 342.5 -37t235 -111.5t130.5 -166t41 -207.5q2 -132 -61.5 -246.5t-185 -192.5t-279.5 -98v-391h-223zM979 195q132 31 213.5 122t81.5 195q0 103 -70.5 180.5t-224.5 110.5v-608z" />
    <glyph glyph-name="uni04A9" unicode="&#x4a9;" horiz-adv-x="1198" 
d="M559 -416v389q-155 17 -264.5 96t-161 197t-51.5 264q0 154 72.5 281.5t206 203t301.5 75.5q105 0 208 -32t170 -95v-228q-5 7 -15 17.5t-45 38t-75 48.5t-106 38.5t-137 17.5q-155 0 -260 -106.5t-105 -258.5q0 -143 69 -238t193 -120v592q265 0 411 -100t146 -297
q0 -157 -87.5 -256t-260.5 -129v-398h-209zM768 180q136 38 133 187q0 79 -33.5 121.5t-99.5 62.5v-371z" />
    <glyph glyph-name="uni04AA" unicode="&#x4aa;" horiz-adv-x="1441" 
d="M1350 94q-2 -1 -23.5 -13.5t-41 -22.5t-58 -25.5t-79 -27t-99 -21.5t-121.5 -13l-31 -104q5 -1 14 -3.5t32 -12t40.5 -23t32 -37.5t14.5 -53q0 -47 -26.5 -81.5t-70.5 -53t-92 -27t-100 -8.5v119q46 0 84.5 18.5t38.5 54.5q0 31 -29 50.5t-58 23.5l-29 4l36 133
q-204 15 -364 117t-245.5 261.5t-82.5 346.5q-2 148 54 282t155.5 233t245.5 156.5t313 55.5q270 0 451 -123v-235q-6 9 -42.5 32t-94.5 50t-143.5 47t-170.5 20q-124 0 -226 -40t-169.5 -110t-104 -164.5t-36.5 -203.5q0 -147 62.5 -263.5t185.5 -184.5t288 -68
q140 0 271.5 40.5t218.5 113.5v-240z" />
    <glyph glyph-name="uni04AB" unicode="&#x4ab;" horiz-adv-x="1132" 
d="M1061 70q-100 -79 -309 -99l-33 -104q5 -1 14 -3.5t32 -12t40.5 -23t32 -37.5t14.5 -53q0 -47 -26.5 -81.5t-70.5 -53t-92 -27t-100 -8.5v119q46 0 84.5 18.5t38.5 54.5q0 31 -29 50.5t-59 23.5l-29 4l37 135q-168 14 -288.5 93t-178 198t-57.5 266q0 154 72.5 281.5
t206 203t301.5 75.5q105 0 208 -32t170 -95v-228q-5 7 -15 17.5t-45 38t-75 48.5t-106 38.5t-137 17.5q-155 0 -260 -106.5t-105 -258.5q0 -165 104.5 -265.5t280.5 -100.5q69 0 134 11.5t107.5 27.5t75 32t47.5 27l15 12v-204z" />
    <glyph glyph-name="uni04AC" unicode="&#x4ac;" horiz-adv-x="1359" 
d="M1278 1182h-487v-1076h223v-477h-223v371h-222v1182h-487v209h1196v-209z" />
    <glyph glyph-name="uni04AD" unicode="&#x4ad;" horiz-adv-x="1148" 
d="M1067 879h-379v-699h207v-600h-209v420h-219v879h-385v180h985v-180z" />
    <glyph glyph-name="uni04AE" unicode="&#x4ae;" horiz-adv-x="1384" 
d="M1075 1391h268l-538 -795v-596h-225v596l-539 795h266l385 -592z" />
    <glyph glyph-name="uni04AF" unicode="&#x4af;" horiz-adv-x="1044" 
d="M412 0v414l-402 647h236l276 -461l277 461h235l-401 -647v-414h-221z" />
    <glyph glyph-name="uni04B0" unicode="&#x4b0;" horiz-adv-x="1384" 
d="M805 596v-154h246v-184h-246v-258h-225v258h-240v184h240v154l-539 795h266l385 -592l383 592h268z" />
    <glyph glyph-name="uni04B1" unicode="&#x4b1;" horiz-adv-x="1044" 
d="M1034 1061l-393 -635h289v-180h-297v-246h-221v246h-297v180h288l-393 635h236l276 -461l277 461h235z" />
    <glyph glyph-name="uni04B2" unicode="&#x4b2;" horiz-adv-x="1480" 
d="M1315 106h145v-477h-223v371h-115l-401 551l-387 -551h-271l527 733l-496 658h271l356 -496l364 496h271l-502 -660z" />
    <glyph glyph-name="uni04B3" unicode="&#x4b3;" horiz-adv-x="1304" 
d="M1077 180h207v-600h-209v420h-117l-323 414l-328 -414h-256l455 569l-414 490h266l289 -352l295 352h242l-412 -506z" />
    <glyph glyph-name="uni04B4" unicode="&#x4b4;" horiz-adv-x="1753" 
d="M1511 106h222v-477h-224v371h-1120v1206h-389v185h1067v-185h-457v-997h680v1182h221v-1285z" />
    <glyph glyph-name="uni04B5" unicode="&#x4b5;" horiz-adv-x="1476" 
d="M1210 180h185v-600h-209v420h-940v879h-246v180h713v-180h-246v-699h522v879h221v-879z" />
    <glyph glyph-name="uni04B6" unicode="&#x4b6;" horiz-adv-x="1470" 
d="M1249 106h221v-477h-223v371h-221v395q-196 -28 -381 -28q-121 0 -219 28.5t-174 88t-118 160t-42 235.5v512h223v-512q0 -72 17.5 -126t46.5 -86.5t72.5 -52.5t89.5 -27t104 -7q165 0 381 22v789h223v-1285z" />
    <glyph glyph-name="uni04B7" unicode="&#x4b7;" horiz-adv-x="1406" 
d="M1120 180h205v-600h-209v420h-217v502q-3 -7 -9.5 -18t-32.5 -39t-60 -50t-95 -39.5t-133 -17.5q-187 0 -306.5 115t-119.5 325v281h222v-258q0 -126 63.5 -196t173.5 -70q124 0 210.5 78.5t86.5 220.5v225h221v-879z" />
    <glyph glyph-name="uni04B8" unicode="&#x4b8;" horiz-adv-x="1433" 
d="M1026 1391h223v-1391h-223v395q-116 -16 -240 -24v-271h-184v267q-113 5 -203.5 36.5t-160.5 91.5t-108 157.5t-38 226.5v512h223v-512q0 -82 21.5 -140.5t62.5 -90.5t90 -47.5t113 -18.5v229h184v-227q82 4 240 18v789z" />
    <glyph glyph-name="uni04B9" unicode="&#x4b9;" horiz-adv-x="1284" 
d="M899 1059h221v-1059h-221v502q-2 -4 -5.5 -10.5t-17.5 -24.5t-31 -34.5t-47.5 -35.5t-66.5 -32v-121h-188v94q-177 9 -288.5 123t-111.5 317v281h222v-258q0 -108 47 -175.5t131 -84.5v303h188v-283q76 33 122 102.5t46 170.5v225z" />
    <glyph glyph-name="uni04BA" unicode="&#x4ba;" horiz-adv-x="1351" 
d="M215 0v1391h223v-396q203 29 299 29q121 0 216 -28.5t167.5 -88t111 -159.5t38.5 -236v-512h-223v512q0 90 -23.5 151t-70 92t-102.5 43.5t-134 12.5q-95 0 -279 -23v-788h-223z" />
    <glyph glyph-name="uni04BB" unicode="&#x4bb;" horiz-adv-x="1284" 
d="M715 1092q121 0 216 -48.5t152.5 -150t57.5 -242.5v-651h-221v629q0 126 -64 196t-174 70q-124 0 -210.5 -78.5t-86.5 -220.5v-596h-221v1391l221 36v-499q3 7 9.5 18t32.5 39t60 50t95 39.5t133 17.5z" />
    <glyph glyph-name="uni04BC" unicode="&#x4bc;" horiz-adv-x="1853" 
d="M1171 -31q-142 -2 -259 33.5t-198.5 99.5t-137.5 154t-83 194t-28 222q-217 41 -311 167t-48 353h232q-40 -137 -4 -207.5t149 -99.5q51 239 229 386t421 152q140 2 259.5 -50t198 -140t123.5 -200.5t47 -233.5v-150h-1063q3 -84 18.5 -151.5t50 -128.5t87 -102t133 -65
t184.5 -24q265 0 512 150v-236q-79 -43 -213 -81.5t-299 -41.5zM713 858h815q-18 153 -120.5 253.5t-274.5 100.5q-163 0 -273 -93.5t-147 -260.5z" />
    <glyph glyph-name="uni04BD" unicode="&#x4bd;" horiz-adv-x="1499" 
d="M1417 580v-103h-846q21 -135 115.5 -223t263.5 -88q42 0 83 4t75 10t66 14.5t57.5 17.5t48 18t38.5 17.5t28 14.5t18 10l6 4v-198q-5 -4 -14.5 -11.5t-46 -26.5t-80.5 -33t-120 -26t-163 -12q-129 0 -237 40.5t-181 111t-115.5 163.5t-50.5 201q-68 10 -122.5 30.5
t-98.5 55t-67.5 83.5t-31 115t10.5 149h187q-36 -120 0.5 -180.5t134.5 -80.5q42 191 194.5 312t362.5 121q111 0 204.5 -43.5t153.5 -115.5t93.5 -163t33.5 -188zM582 649h614q-3 29 -11 59t-29.5 67.5t-52 66t-82.5 48t-118 19.5t-120.5 -19.5t-89 -48t-59.5 -65.5
t-36.5 -68t-15.5 -59z" />
    <glyph glyph-name="uni04BE" unicode="&#x4be;" horiz-adv-x="1853" 
d="M1761 799v-150h-1063q3 -84 18.5 -151.5t50 -128.5t87 -102t133 -65t184.5 -24q265 0 512 150v-236q-79 -42 -205.5 -80t-283.5 -43q-61 -93 -61 -145q0 -47 27 -67.5t95 -20.5v-180q-33 0 -70.5 6.5t-80 24t-75.5 43.5t-55 68t-22 95q0 95 80 184q-142 19 -251.5 81
t-177 156.5t-102 209.5t-36.5 248q-217 41 -311 167t-48 353h232q-40 -137 -4 -207.5t149 -99.5q51 239 229 386t421 152q140 2 259.5 -50t198 -140t123.5 -200.5t47 -233.5zM713 858h815q-18 153 -120.5 253.5t-274.5 100.5q-163 0 -273 -93.5t-147 -260.5z" />
    <glyph glyph-name="uni04BF" unicode="&#x4bf;" horiz-adv-x="1499" 
d="M1417 580v-103h-846q21 -135 115.5 -223t263.5 -88q42 0 83 4t75 10t66 14.5t57.5 17.5t48 18t38.5 17.5t28 14.5t18 10l6 4v-198q-4 -4 -11.5 -9.5t-35.5 -21.5t-62.5 -29.5t-93 -26.5t-125.5 -18q-63 -96 -63 -149q0 -47 27.5 -67.5t95.5 -20.5v-180q-33 0 -70.5 6.5
t-80 24t-75.5 43.5t-55 68t-22 95q0 96 75 180q-226 21 -362 164t-150 348q-68 10 -122.5 30.5t-98.5 55t-67.5 83.5t-31 115t10.5 149h187q-36 -120 0.5 -180.5t134.5 -80.5q42 191 194.5 312t362.5 121q111 0 204.5 -43.5t153.5 -115.5t93.5 -163t33.5 -188zM582 649h614
q-3 29 -11 59t-29.5 67.5t-52 66t-82.5 48t-118 19.5t-120.5 -19.5t-89 -48t-59.5 -65.5t-36.5 -68t-15.5 -59z" />
    <glyph glyph-name="uni04C0" unicode="&#x4c0;" horiz-adv-x="591" 
d="M184 0v1391h224v-1391h-224z" />
    <glyph glyph-name="uni04C1" unicode="&#x4c1;" horiz-adv-x="1691" 
d="M842 1534q-86 0 -152 32t-103.5 84.5t-56 111.5t-18.5 122h207q0 -34 10.5 -70.5t40.5 -68t72 -31.5q43 0 73 31.5t41 68t11 70.5h207q0 -62 -19 -121.5t-56.5 -112t-104 -84.5t-152.5 -32zM82 0q72 189 168 434q45 115 89.5 187t109.5 116q-30 65 -48 168
q-26 153 -93 215t-173 62v209q197 -3 305 -96t133 -242q10 -58 17.5 -91t19.5 -65.5t28 -48t39.5 -25t57.5 -10.5v578h223v-578q33 1 56.5 11t39 26t27.5 48t19.5 65t17.5 90q25 149 133 242t305 96v-209q-106 0 -173 -62t-93 -215q-18 -106 -47 -168q65 -44 109.5 -116
t89.5 -187q96 -245 168 -434h-250q-11 32 -35.5 105.5t-44 128.5t-39.5 106q-55 135 -83 177q-53 77 -143 88q-21 3 -44 3h-13v-608h-223v608h-14q-112 0 -170 -70q-37 -43 -88 -169q-1 -2 -12 -29q-20 -51 -39.5 -106t-44 -128.5t-35.5 -105.5h-250z" />
    <glyph glyph-name="uni04C2" unicode="&#x4c2;" horiz-adv-x="1536" 
d="M926 1200q-53 -52 -125 -51.5t-125 53.5q-52 53 -51.5 124t53.5 124q52 52 122 52.5t124 -50.5l-86 -86q-17 13 -38 12t-36 -16t-15 -37t15 -37q16 -16 37 -16.5t39 16.5h2l86 -86zM82 0l395 582l-395 477h244l342 -443v443h200v-443l342 443h244l-395 -477l395 -582
h-244l-342 518v-518h-200v518l-342 -518h-244z" />
    <glyph glyph-name="uni04C3" unicode="&#x4c3;" horiz-adv-x="1300" 
d="M647 -236v205q165 0 244.5 84t79.5 217q0 70 -22 129t-67.5 106.5t-124 74.5t-182.5 28h-167v-608h-224v1391h224v-578h159q87 0 129 54t64 186q25 149 133 242t305 96v-209q-106 0 -173 -62t-93 -215q-20 -121 -82 -174q169 -55 265.5 -175.5t96.5 -285.5
q0 -233 -148.5 -369.5t-416.5 -136.5z" />
    <glyph glyph-name="uni04C4" unicode="&#x4c4;" horiz-adv-x="1122" 
d="M621 -254v180q109 0 164 75.5t55 207.5q0 122 -79.5 184t-219.5 62h-156v-455h-221v1059h221v-424h125q66 0 88.5 33.5t40.5 138.5q46 255 377 258v-180q-55 0 -94.5 -11t-70.5 -45.5t-40 -93.5q-16 -115 -76 -160q152 -33 228.5 -128.5t76.5 -237.5q0 -230 -112 -346.5
t-307 -116.5z" />
    <glyph glyph-name="uni04C5" unicode="&#x4c5;" horiz-adv-x="1675" 
d="M1452 106h223v-477h-223v371h-213l-211 508l-256 606l-258 -606l-211 -508h-260l610 1391h236z" />
    <glyph glyph-name="uni04C6" unicode="&#x4c6;" horiz-adv-x="1624" 
d="M1128 -420l172 420h-145v879h-446q-23 -288 -41 -553q-12 -164 -105.5 -253t-247.5 -89q-63 0 -121 15.5t-85 31.5l-27 16v193q3 -2 9.5 -6.5t28 -14.5t44.5 -18t58 -14.5t71 -6.5q78 0 119.5 52t44.5 118l45 709h874v-879h228l-246 -600h-230z" />
    <glyph glyph-name="uni04C7" unicode="&#x4c7;" horiz-adv-x="1540" 
d="M811 -256v225q73 0 130.5 20.5t93 53.5t58 78.5t30.5 92.5t7 99l3 324h-725v-637h-224v1391h224v-545h725v545h223v-1100q0 -112 -32 -208.5t-96 -173.5t-171 -121t-246 -44z" />
    <glyph glyph-name="uni04C8" unicode="&#x4c8;" horiz-adv-x="1226" 
d="M754 -459q-63 0 -121.5 16t-85.5 32l-27 16v176q3 -2 9.5 -6.5t28 -14.5t44.5 -18t58 -14.5t71 -6.5q77 0 113.5 50.5t40.5 119.5v560h-543v-451h-219v1059h219v-428h543v428h219v-1198q0 -150 -97 -235t-253 -85z" />
    <glyph glyph-name="uni04C9" unicode="&#x4c9;" horiz-adv-x="1540" 
d="M1354 106h186l-168 -473h-186l110 367h-166v637h-722v-637h-224v1391h224v-545h722v545h224v-1285z" />
    <glyph glyph-name="uni04CA" unicode="&#x4ca;" horiz-adv-x="1349" 
d="M854 -420l172 420h-141v451h-543v-451h-219v1059h219v-428h543v428h219v-879h225l-246 -600h-229z" />
    <glyph glyph-name="uni04CB" unicode="&#x4cb;" horiz-adv-x="1433" 
d="M1249 1391v-1391h-131v-371h-223v477h131v289q-196 -28 -381 -28q-121 0 -219 28.5t-174 88t-118 160t-42 235.5v512h223v-512q0 -72 17.5 -126t46.5 -86.5t72.5 -52.5t89.5 -27t104 -7q165 0 381 22v789h223z" />
    <glyph glyph-name="uni04CC" unicode="&#x4cc;" horiz-adv-x="1284" 
d="M1120 1059v-1059h-219v-420h-209v600h207v322q-3 -7 -9.5 -18t-32.5 -39t-60 -50t-95 -39.5t-133 -17.5q-187 0 -306.5 115t-119.5 325v281h222v-258q0 -126 63.5 -196t173.5 -70q124 0 210.5 78.5t86.5 220.5v225h221z" />
    <glyph glyph-name="uni04CD" unicode="&#x4cd;" horiz-adv-x="1701" 
d="M1509 106h197l-168 -473h-186l110 367h-174v1055l-340 -516h-203l-339 516v-1055h-222v1391h260l402 -619v-2l403 621h260v-1285z" />
    <glyph glyph-name="uni04CE" unicode="&#x4ce;" horiz-adv-x="1523" 
d="M1317 180h125v-600h-209v420h-137v793l-265 -408h-180l-266 408v-793h-221v1059h272l305 -459l310 459h266v-879z" />
    <glyph glyph-name="uni04CF" unicode="&#x4cf;" horiz-adv-x="561" 
d="M176 0v1059h221v-1059h-221z" />
    <glyph glyph-name="uni04D0" unicode="&#x4d0;" horiz-adv-x="1542" 
d="M936 1534q-53 -52 -125 -51.5t-125 53.5q-52 53 -51.5 124t53.5 124q52 52 122 52.5t124 -50.5l-86 -86q-17 13 -38 12t-36 -16t-15 -37t15 -37q16 -16 37 -16.5t39 16.5h2l86 -86zM43 0l619 1391h219l618 -1391h-260l-133 330h-670l-133 -330h-260zM520 539h502
l-250 591z" />
    <glyph glyph-name="uni04D1" unicode="&#x4d1;" horiz-adv-x="1376" 
d="M848 1200q-53 -52 -125 -51.5t-125 53.5q-52 53 -51.5 124t53.5 124q52 52 122 52.5t124 -50.5l-86 -86q-17 13 -38 12t-36 -16t-15 -37t15 -37q16 -16 37 -16.5t39 16.5h2l86 -86zM635 -31q-159 0 -286 75t-197 202.5t-70 281.5t70 282t197.5 204t285.5 76
q110 0 203.5 -37.5t152.5 -96.5v103h219v-1059h-223l2 109q-136 -140 -354 -140zM651 166q153 0 253 98t100 266q0 167 -100.5 265t-252.5 98q-148 0 -248 -105.5t-100 -257.5t100 -258t248 -106z" />
    <glyph glyph-name="uni04D2" unicode="&#x4d2;" horiz-adv-x="1542" 
d="M537 1556q-47 0 -81 33.5t-34 79.5q0 47 34 81t81 34q46 0 79 -34t33 -81q0 -46 -33 -79.5t-79 -33.5zM930 1556q-47 0 -81 33.5t-34 79.5q0 47 34 81t81 34q46 0 79 -34t33 -81q0 -46 -33 -79.5t-79 -33.5zM43 0l619 1391h219l618 -1391h-260l-133 330h-670l-133 -330
h-260zM520 539h502l-250 591z" />
    <glyph glyph-name="uni04D3" unicode="&#x4d3;" horiz-adv-x="1376" 
d="M449 1223q-47 0 -81 33t-34 79q0 47 34 81t81 34q46 0 79 -34t33 -81q0 -46 -33 -79t-79 -33zM842 1223q-47 0 -81 33t-34 79q0 47 34 81t81 34q46 0 79 -34t33 -81q0 -46 -33 -79t-79 -33zM635 -31q-159 0 -286 75t-197 202.5t-70 281.5t70 282t197.5 204t285.5 76
q110 0 203.5 -37.5t152.5 -96.5v103h219v-1059h-223l2 109q-136 -140 -354 -140zM651 166q153 0 253 98t100 266q0 167 -100.5 265t-252.5 98q-148 0 -248 -105.5t-100 -257.5t100 -258t248 -106z" />
    <glyph glyph-name="uni04D4" unicode="&#x4d4;" horiz-adv-x="2152" 
d="M1245 209h805v-209h-1028v330h-535l-231 -330h-256l997 1391h1041v-209h-793v-336h631v-209h-631v-428zM1022 539v551l-387 -551h387z" />
    <glyph glyph-name="uni04D5" unicode="&#x4d5;" horiz-adv-x="1992" 
d="M1911 477h-836v-49q32 -116 124.5 -189t244.5 -73q42 0 83 4t75 10t66 14.5t57.5 17.5t48 18t38.5 17.5t28 14.5t18 10l6 4v-198q-5 -4 -14.5 -11.5t-46 -26.5t-80.5 -33t-120 -26t-163 -12q-152 0 -270.5 54t-194.5 149q-66 -101 -185 -152t-270 -51q-192 0 -315 99
t-123 258q0 161 123 260.5t315 99.5q197 0 334 -70v27q0 130 -83 191t-228 61q-179 0 -340 -78v203q137 72 364 72q307 0 434 -179q78 83 187.5 130t236.5 47q111 0 204.5 -43.5t154 -115.5t94 -163t33.5 -188v-103zM1397 909q-66 0 -121 -19.5t-89 -48t-59.5 -65.5t-37 -68
t-15.5 -59h615q-3 29 -11 59t-29.5 67.5t-52 66t-82.5 48t-118 19.5zM561 150q145 0 219 47t74 129q0 90 -78 135t-215 45q-118 0 -192 -47.5t-74 -132.5q0 -88 78.5 -132t187.5 -44z" />
    <glyph glyph-name="uni04D6" unicode="&#x4d6;" horiz-adv-x="1314" 
d="M868 1534q-53 -52 -125 -51.5t-125 53.5q-52 53 -51 124t54 124q52 52 121.5 52.5t123.5 -50.5l-86 -86q-17 13 -37.5 12t-35.5 -16t-15 -37t15 -37q16 -16 36.5 -16.5t38.5 16.5h2l86 -86zM408 209h804v-209h-1028v1391h1016v-209h-792v-336h630v-209h-630v-428z" />
    <glyph glyph-name="uni04D7" unicode="&#x4d7;" horiz-adv-x="1220" 
d="M823 1200q-53 -52 -125 -51.5t-125 53.5q-52 53 -51.5 124t53.5 124q52 52 122 52.5t124 -50.5l-86 -86q-17 13 -37.5 12t-35.5 -16t-15 -37t15 -37q16 -16 36.5 -16.5t38.5 16.5h2l86 -86zM668 -31q-136 0 -248 44.5t-185.5 121.5t-113 178.5t-39.5 216.5q0 157 74 285
t205 201.5t292 73.5q111 0 204.5 -43.5t154 -115.5t94 -163t33.5 -188v-103h-846q21 -135 115.5 -223t263.5 -88q42 0 83 4t75 10t66 14.5t57.5 17.5t48 18t38.5 17.5t28 14.5t18 10l6 4v-198q-5 -4 -14.5 -11.5t-46 -26.5t-80.5 -33t-120 -26t-163 -12zM303 649h615
q-3 29 -11 59t-29.5 67.5t-52 66t-82.5 48t-118 19.5t-121 -19.5t-89 -48t-59.5 -65.5t-37 -68t-15.5 -59z" />
    <glyph glyph-name="uni04D8" unicode="&#x4d8;" horiz-adv-x="1480" 
d="M721 -31q-112 -2 -212.5 36t-174.5 104t-129 152t-83 182t-30 192v149h1061q-8 97 -35 171.5t-80.5 134.5t-143 92t-212.5 32q-266 0 -512 -149v235q79 43 213 81.5t299 41.5q146 2 265 -35t201 -104.5t137.5 -160.5t80.5 -201.5t23 -229.5q2 -154 -48.5 -288
t-139.5 -228.5t-213.5 -149.5t-266.5 -57zM721 180q173 0 286.5 105t141.5 290h-823q8 -76 37 -145t77 -126t121 -90.5t160 -33.5z" />
    <glyph glyph-name="uni04D9" unicode="&#x4d9;" horiz-adv-x="1224" 
d="M567 -31q-111 0 -204.5 43.5t-154 115t-93.5 162.5t-33 189v103h846q-11 63 -37.5 117t-71.5 98.5t-114 70t-156 25.5q-73 0 -143 -11.5t-118 -27.5t-85.5 -32.5t-55.5 -27.5l-18 -12v197q5 5 14.5 12t46 26.5t80.5 34t120 26.5t163 12q181 0 317 -77.5t204.5 -204
t68.5 -280.5q0 -166 -75.5 -294t-206.5 -196.5t-294 -68.5zM596 150q58 0 107.5 14.5t81.5 37.5t58 50.5t39.5 55t22.5 50.5t12 38l3 14h-623q2 -22 9 -49.5t27.5 -66.5t51.5 -69.5t86 -52.5t125 -22z" />
    <glyph glyph-name="uni04DA" unicode="&#x4da;" horiz-adv-x="1480" 
d="M489 1556q-47 0 -80.5 33.5t-33.5 79.5q0 47 33.5 81t80.5 34q46 0 79.5 -34t33.5 -81q0 -46 -33.5 -79.5t-79.5 -33.5zM883 1556q-47 0 -81 33.5t-34 79.5q0 47 34 81t81 34q46 0 79 -34t33 -81q0 -46 -33 -79.5t-79 -33.5zM739 -31q-155 -2 -278.5 48.5t-202.5 143.5
t-121.5 218.5t-44.5 275.5v150h1059q-10 92 -36 162t-76 128t-135 88.5t-202 30.5q-99 0 -195 -19t-169.5 -49.5t-107 -47t-60.5 -33.5v235q75 41 220.5 80.5t311.5 42.5q145 2 262.5 -37t196.5 -108t131.5 -165.5t75.5 -205.5t21 -231q2 -151 -37.5 -277.5t-118 -222
t-205 -150.5t-289.5 -57zM739 180q109 0 187.5 29t126 85.5t72 130t30.5 171.5h-831q11 -202 110.5 -309t304.5 -107z" />
    <glyph glyph-name="uni04DB" unicode="&#x4db;" horiz-adv-x="1224" 
d="M383 1223q-47 0 -81 33t-34 79q0 47 34 81t81 34q46 0 79.5 -34t33.5 -81q0 -46 -33.5 -79t-79.5 -33zM776 1223q-47 0 -80.5 33t-33.5 79q0 47 33.5 81t80.5 34q46 0 79.5 -34t33.5 -81q0 -46 -33.5 -79t-79.5 -33zM567 -31q-111 0 -204.5 43.5t-154 115t-93.5 162.5
t-33 189v103h846q-11 63 -37.5 117t-71.5 98.5t-114 70t-156 25.5q-73 0 -143 -11.5t-118 -27.5t-85.5 -32.5t-55.5 -27.5l-18 -12v197q5 5 14.5 12t46 26.5t80.5 34t120 26.5t163 12q181 0 317 -77.5t204.5 -204t68.5 -280.5q0 -166 -75.5 -294t-206.5 -196.5t-294 -68.5z
M596 150q58 0 107.5 14.5t81.5 37.5t58 50.5t39.5 55t22.5 50.5t12 38l3 14h-623q2 -22 9 -49.5t27.5 -66.5t51.5 -69.5t86 -52.5t125 -22z" />
    <glyph glyph-name="uni04DC" unicode="&#x4dc;" horiz-adv-x="1638" 
d="M555 1556q-47 0 -81 33.5t-34 79.5q0 47 34 81t81 34q46 0 79.5 -34t33.5 -81q0 -46 -33.5 -79.5t-79.5 -33.5zM948 1556q-47 0 -80.5 33.5t-33.5 79.5q0 47 33.5 81t80.5 34q46 0 79.5 -34t33.5 -81q0 -46 -33.5 -79.5t-79.5 -33.5zM55 0q72 189 168 434
q45 115 89.5 187t109.5 116q-29 62 -47 168q-26 153 -93 215t-173 62v209q197 -3 305 -96t133 -242q10 -58 17.5 -91t19.5 -65.5t28 -48t39.5 -25t57.5 -10.5v578h223v-578q33 1 56.5 11t39 26t27.5 48t19.5 65t17.5 90q25 149 133 242t305 96v-209q-106 0 -173 -62
t-93 -215q-18 -106 -47 -168q65 -44 108.5 -115.5t89.5 -187.5q96 -245 168 -434h-250q-11 32 -35.5 105.5t-44 128.5t-39.5 106q-55 135 -83 177q-53 77 -143 88q-21 3 -44 3h-12v-608h-223v608h-15q-112 0 -170 -70q-37 -43 -88 -169q-1 -2 -12 -29q-20 -51 -39.5 -106
t-44 -128.5t-35.5 -105.5h-250z" />
    <glyph glyph-name="uni04DD" unicode="&#x4dd;" horiz-adv-x="1490" 
d="M479 1225q-47 0 -80.5 33t-33.5 79q0 47 33.5 81t80.5 34q46 0 79.5 -34t33.5 -81q0 -46 -33.5 -79t-79.5 -33zM872 1225q-47 0 -80.5 33t-33.5 79q0 47 33.5 81t80.5 34q46 0 79.5 -34t33.5 -81q0 -46 -33.5 -79t-79.5 -33zM123 0q120 311 129 332q44 112 84.5 164.5
t114.5 74.5q-34 23 -53 60.5t-29 103.5q-9 59 -40 93.5t-70.5 45.5t-94.5 11v180q331 -3 377 -258q16 -96 34 -130t66 -40v422h201v-424q53 4 72.5 39t35.5 133q46 255 377 258v-180q-55 0 -94.5 -11t-70.5 -45.5t-40 -93.5q-10 -66 -29 -103.5t-53 -60.5
q74 -22 114.5 -74.5t84.5 -164.5q9 -22 129 -332h-225q-7 20 -39.5 115t-52.5 145q-19 48 -30.5 72.5t-29 52.5t-36 40.5t-46.5 21t-65 8.5h-2v-455h-201v455q-44 -1 -73.5 -11.5t-52.5 -39t-37 -57t-38 -87.5q-20 -50 -52.5 -145t-39.5 -115h-225z" />
    <glyph glyph-name="uni04DE" unicode="&#x4de;" horiz-adv-x="1208" 
d="M293 1556q-47 0 -81 33.5t-34 79.5q0 47 34 81t81 34q46 0 79.5 -34t33.5 -81q0 -46 -33.5 -79.5t-79.5 -33.5zM686 1556q-47 0 -81 33.5t-34 79.5q0 47 34 81t81 34q46 0 79.5 -34t33.5 -81q0 -46 -33.5 -79.5t-79.5 -33.5zM561 -31q-126 0 -268.5 33.5t-210.5 87.5v221
q86 -62 220 -99.5t259 -37.5q171 0 253.5 62t82.5 159t-92.5 167.5t-253.5 70.5h-258v201h229q146 0 236 52t90 144q0 189 -293 189q-101 0 -232.5 -34t-193.5 -69v215q80 35 201 63.5t252 28.5q235 0 360 -90.5t125 -247.5q0 -126 -86 -219.5t-190 -117.5
q152 -22 243.5 -115.5t91.5 -237.5q0 -186 -146 -306t-419 -120z" />
    <glyph glyph-name="uni04DF" unicode="&#x4df;" horiz-adv-x="1038" 
d="M260 1223q-47 0 -81 33t-34 79q0 47 34 81t81 34q46 0 79.5 -34t33.5 -81q0 -46 -33.5 -79t-79.5 -33zM653 1223q-47 0 -80.5 33t-33.5 79q0 47 33.5 81t80.5 34q46 0 79.5 -34t33.5 -81q0 -46 -33.5 -79t-79.5 -33zM455 -31q-88 0 -204 29.5t-169 71.5v204
q7 -4 20.5 -11.5t54 -26.5t81.5 -33.5t97.5 -26.5t106.5 -12q256 0 256 151q0 68 -56 109t-134 41h-195v180h164q191 0 191 131q0 117 -238 117q-87 0 -183 -28t-134 -56v201q122 80 342 80q184 0 304 -78t120 -211q0 -90 -64 -161.5t-153 -80.5q69 -15 120.5 -47t79 -72.5
t40.5 -80.5t13 -80q0 -105 -59.5 -176t-160.5 -102.5t-240 -31.5z" />
    <glyph glyph-name="uni04E0" unicode="&#x4e0;" horiz-adv-x="1228" 
d="M561 -31q-126 0 -268.5 33.5t-210.5 87.5v221q86 -62 220 -99.5t259 -37.5q171 0 253.5 62t82.5 159q0 238 -346 238h-258v149l479 400h-649v209h934v-209l-469 -371q278 -12 408 -120.5t130 -295.5q0 -186 -146 -306t-419 -120z" />
    <glyph glyph-name="uni04E1" unicode="&#x4e1;" horiz-adv-x="1138" 
d="M500 -362q-84 0 -218 34t-200 86v197q83 -59 209 -98t209 -39q168 0 252 72.5t84 172.5q0 132 -91.5 194.5t-255.5 64.5l-196 2v127l418 428h-588v180h872v-166l-440 -406q131 -9 229.5 -45.5t157 -94t87 -128.5t28.5 -156q0 -187 -142.5 -306t-414.5 -119z" />
    <glyph glyph-name="uni04E2" unicode="&#x4e2;" horiz-adv-x="1550" 
d="M492 1563v184h567v-184h-567zM184 0v1391h222v-1055l718 1055h242v-1391h-221v1073l-721 -1073h-240z" />
    <glyph glyph-name="uni04E3" unicode="&#x4e3;" horiz-adv-x="1312" 
d="M373 1229v184h567v-184h-567zM164 0v1059h221v-770l528 770h236v-1059h-221v772l-531 -772h-233z" />
    <glyph glyph-name="uni04E4" unicode="&#x4e4;" horiz-adv-x="1550" 
d="M471 1556q-47 0 -81 33.5t-34 79.5q0 47 34 81t81 34q46 0 79.5 -34t33.5 -81q0 -46 -33.5 -79.5t-79.5 -33.5zM864 1556q-47 0 -80.5 33.5t-33.5 79.5q0 47 33.5 81t80.5 34q46 0 79.5 -34t33.5 -81q0 -46 -33.5 -79.5t-79.5 -33.5zM184 0v1391h222v-1055l718 1055h242
v-1391h-221v1073l-721 -1073h-240z" />
    <glyph glyph-name="uni04E5" unicode="&#x4e5;" horiz-adv-x="1312" 
d="M428 1223q-47 0 -81 33t-34 79q0 47 34 81t81 34q46 0 79.5 -34t33.5 -81q0 -46 -33.5 -79t-79.5 -33zM821 1223q-47 0 -80.5 33t-33.5 79q0 47 33.5 81t80.5 34q46 0 79.5 -34t33.5 -81q0 -46 -33.5 -79t-79.5 -33zM164 0v1059h221v-770l528 770h236v-1059h-221v772
l-531 -772h-233z" />
    <glyph glyph-name="uni04E6" unicode="&#x4e6;" horiz-adv-x="1644" 
d="M594 1556q-47 0 -81 33.5t-34 79.5q0 47 34 81t81 34q46 0 79.5 -34t33.5 -81q0 -46 -33.5 -79.5t-79.5 -33.5zM987 1556q-47 0 -81 33.5t-34 79.5q0 47 34 81t81 34q46 0 79.5 -34t33.5 -81q0 -46 -33.5 -79.5t-79.5 -33.5zM821 -31q-207 -3 -376.5 96t-262.5 266.5
t-90 364.5q-3 197 90 364.5t262.5 266.5t376.5 96q207 3 377 -96t263.5 -266.5t90.5 -364.5q3 -197 -90.5 -364.5t-263.5 -266.5t-377 -96zM821 180q226 0 363 146t137 370q0 146 -60 263t-175 186t-265 69q-223 0 -361 -148t-138 -370q0 -223 137.5 -369.5t361.5 -146.5z
" />
    <glyph glyph-name="uni04E7" unicode="&#x4e7;" horiz-adv-x="1323" 
d="M432 1223q-47 0 -81 33t-34 79q0 47 34 81t81 34q46 0 79.5 -34t33.5 -81q0 -46 -33.5 -79t-79.5 -33zM825 1223q-47 0 -80.5 33t-33.5 79q0 47 33.5 81t80.5 34q46 0 79.5 -34t33.5 -81q0 -46 -33.5 -79t-79.5 -33zM662 -31q-158 0 -292 75t-211 203.5t-77 280.5
q0 114 45.5 218t123 179.5t185 120t226.5 44.5q158 0 291.5 -75.5t210.5 -205t77 -281.5t-77 -280.5t-210.5 -203.5t-291.5 -75zM662 168q156 0 261 105t105 255q0 152 -105 257.5t-261 105.5t-261.5 -105.5t-105.5 -257.5q0 -150 105.5 -255t261.5 -105z" />
    <glyph glyph-name="uni04E8" unicode="&#x4e8;" horiz-adv-x="1624" 
d="M811 -31q-160 0 -297.5 57.5t-231.5 155.5t-147 231.5t-53 282.5t53 282.5t147 231.5t231.5 155.5t297.5 57.5t297.5 -57.5t232 -155.5t148 -231.5t53.5 -282.5t-53.5 -282.5t-148 -231.5t-232 -155.5t-297.5 -57.5zM328 842h964q-41 168 -167.5 270t-313.5 102
t-314.5 -102t-168.5 -270zM811 180q210 0 343.5 127t152.5 326h-994q21 -199 154.5 -326t343.5 -127z" />
    <glyph glyph-name="uni04E9" unicode="&#x4e9;" horiz-adv-x="1323" 
d="M662 1090q158 0 291.5 -75.5t210.5 -205t77 -281.5t-77 -280.5t-210.5 -203.5t-291.5 -75t-292 75t-211 203.5t-77 280.5q0 114 45.5 218t123 179.5t185 120t226.5 44.5zM662 891q-127 0 -223.5 -72.5t-129.5 -187.5h705q-33 116 -129 188t-223 72zM662 168q133 0 232 80
t126 203h-717q27 -123 126.5 -203t232.5 -80z" />
    <glyph glyph-name="uni04EA" unicode="&#x4ea;" horiz-adv-x="1624" 
d="M575 1556q-47 0 -80.5 33.5t-33.5 79.5q0 47 33.5 81t80.5 34q46 0 79.5 -34t33.5 -81q0 -46 -33.5 -79.5t-79.5 -33.5zM969 1556q-47 0 -81 33.5t-34 79.5q0 47 34 81t81 34q46 0 79 -34t33 -81q0 -46 -33 -79.5t-79 -33.5zM811 -31q-160 0 -297.5 57.5t-231.5 155.5
t-147 231.5t-53 282.5t53 282.5t147 231.5t231.5 155.5t297.5 57.5t297.5 -57.5t232 -155.5t148 -231.5t53.5 -282.5t-53.5 -282.5t-148 -231.5t-232 -155.5t-297.5 -57.5zM1028 780q26 0 71 10.5t107 28t86 23.5q-41 168 -167.5 270t-313.5 102t-314.5 -102t-168.5 -270
q11 3 56.5 20.5t89.5 29t85 11.5q70 0 131.5 -19t101.5 -42.5t102.5 -42.5t133.5 -19zM811 180q210 0 343.5 127t152.5 326q-25 -6 -89.5 -23.5t-112 -28t-77.5 -10.5q-63 0 -117 12.5t-92.5 30.5t-75.5 36.5t-84 31t-100 12.5q-42 0 -88.5 -11.5t-94.5 -28.5t-63 -21
q21 -199 154.5 -326t343.5 -127z" />
    <glyph glyph-name="uni04EB" unicode="&#x4eb;" horiz-adv-x="1323" 
d="M432 1223q-47 0 -81 33t-34 79q0 47 34 81t81 34q46 0 79.5 -34t33.5 -81q0 -46 -33.5 -79t-79.5 -33zM825 1223q-47 0 -80.5 33t-33.5 79q0 47 33.5 81t80.5 34q46 0 79.5 -34t33.5 -81q0 -46 -33.5 -79t-79.5 -33zM662 1090q158 0 291.5 -75.5t210.5 -205t77 -281.5
t-77 -280.5t-210.5 -203.5t-291.5 -75t-292 75t-211 203.5t-77 280.5q0 114 45.5 218t123 179.5t185 120t226.5 44.5zM662 891q-127 0 -223.5 -72.5t-129.5 -187.5h705q-33 116 -129 188t-223 72zM662 168q133 0 232 80t126 203h-717q27 -123 126.5 -203t232.5 -80z" />
    <glyph glyph-name="uni04EC" unicode="&#x4ec;" horiz-adv-x="1421" 
d="M465 1556q-47 0 -81 33.5t-34 79.5q0 47 34 81t81 34q46 0 79.5 -34t33.5 -81q0 -46 -33.5 -79.5t-79.5 -33.5zM858 1556q-47 0 -81 33.5t-34 79.5q0 47 34 81t81 34q46 0 79.5 -34t33.5 -81q0 -46 -33.5 -79.5t-79.5 -33.5zM571 -31q-286 0 -489 125v240
q13 -13 47 -34.5t94.5 -50.5t153.5 -49t194 -20q232 0 373 127.5t160 329.5h-660v217h641q-44 162 -178.5 260t-335.5 98q-82 0 -156.5 -14t-121.5 -32.5t-88.5 -43.5t-57.5 -38t-28 -25q0 241 2 241q17 12 43.5 26t84.5 39.5t143.5 41.5t178.5 16q172 0 317.5 -57.5
t243.5 -155.5t152.5 -231t54.5 -283t-54.5 -283t-152.5 -231t-243.5 -155.5t-317.5 -57.5z" />
    <glyph glyph-name="uni04ED" unicode="&#x4ed;" horiz-adv-x="1142" 
d="M240 1225q-47 0 -81 33t-34 79q0 47 34 81t81 34q46 0 79 -34t33 -81q0 -46 -33 -79t-79 -33zM633 1225q-47 0 -81 33t-34 79q0 47 34 81t81 34q46 0 79 -34t33 -81q0 -46 -33 -79t-79 -33zM461 -29q-98 0 -205.5 24.5t-173.5 76.5v202q5 -4 15.5 -11.5t46.5 -26.5
t76.5 -33.5t106 -26.5t134.5 -12q152 0 252 77.5t123 209.5h-461v180h454q-31 117 -126 190.5t-222 73.5q-71 0 -136.5 -16.5t-107.5 -40t-74 -47t-47 -39.5l-14 -17v228q67 63 170.5 95t208.5 32q168 0 301.5 -75.5t206 -203t72.5 -281.5q0 -117 -38.5 -218t-112 -177.5
t-189 -120t-260.5 -43.5z" />
    <glyph glyph-name="uni04EE" unicode="&#x4ee;" horiz-adv-x="1302" 
d="M332 1563v184h567v-184h-567zM436 -31q-56 0 -112.5 19.5t-85.5 39.5l-29 19v211q11 -9 29.5 -22t72.5 -34.5t103 -21.5q39 0 69.5 10t48 21.5t34 35.5t22.5 37t18 42l-565 1065h252l407 -811q63 156 142 358.5t126 327.5l48 125h246l-431 -1065q-85 -209 -164.5 -283
t-230.5 -74z" />
    <glyph glyph-name="uni04EF" unicode="&#x4ef;" horiz-adv-x="1200" 
d="M315 1229v184h568v-184h-568zM209 -426l276 549l-444 936h231l328 -703l328 703h231l-715 -1485h-235z" />
    <glyph glyph-name="uni04F0" unicode="&#x4f0;" horiz-adv-x="1302" 
d="M387 1556q-47 0 -81 33.5t-34 79.5q0 47 34 81t81 34q46 0 79.5 -34t33.5 -81q0 -46 -33.5 -79.5t-79.5 -33.5zM780 1556q-47 0 -80.5 33.5t-33.5 79.5q0 47 33.5 81t80.5 34q46 0 79.5 -34t33.5 -81q0 -46 -33.5 -79.5t-79.5 -33.5zM436 -31q-56 0 -112.5 19.5
t-85.5 39.5l-29 19v211q11 -9 29.5 -22t72.5 -34.5t103 -21.5q39 0 69.5 10t48 21.5t34 35.5t22.5 37t18 42l-565 1065h252l407 -811q63 156 142 358.5t126 327.5l48 125h246l-431 -1065q-85 -209 -164.5 -283t-230.5 -74z" />
    <glyph glyph-name="uni04F1" unicode="&#x4f1;" horiz-adv-x="1200" 
d="M371 1223q-47 0 -81 33t-34 79q0 47 34 81t81 34q46 0 79 -34t33 -81q0 -46 -33 -79t-79 -33zM764 1223q-47 0 -81 33t-34 79q0 47 34 81t81 34q46 0 79.5 -34t33.5 -81q0 -46 -33.5 -79t-79.5 -33zM209 -426l276 549l-444 936h231l328 -703l328 703h231l-715 -1485h-235
z" />
    <glyph glyph-name="uni04F2" unicode="&#x4f2;" horiz-adv-x="1302" 
d="M336 1532l184 350h273l-250 -350h-207zM705 1532l204 350h273l-271 -350h-206zM436 -31q-56 0 -112.5 19.5t-85.5 39.5l-29 19v211q11 -9 29.5 -22t72.5 -34.5t103 -21.5q39 0 69.5 10t48 21.5t34 35.5t22.5 37t18 42l-565 1065h252l407 -811q63 156 142 358.5t126 327.5
l48 125h246l-431 -1065q-85 -209 -164.5 -283t-230.5 -74z" />
    <glyph glyph-name="uni04F3" unicode="&#x4f3;" horiz-adv-x="1200" 
d="M319 1198l185 350h272l-250 -350h-207zM688 1198l205 350h272l-270 -350h-207zM209 -426l276 549l-444 936h231l328 -703l328 703h231l-715 -1485h-235z" />
    <glyph glyph-name="uni04F4" unicode="&#x4f4;" horiz-adv-x="1433" 
d="M440 1556q-47 0 -80.5 33.5t-33.5 79.5q0 47 33.5 81t80.5 34q46 0 79.5 -34t33.5 -81q0 -46 -33.5 -79.5t-79.5 -33.5zM834 1556q-47 0 -81 33.5t-34 79.5q0 47 34 81t81 34q46 0 79 -34t33 -81q0 -46 -33 -79.5t-79 -33.5zM1026 0v395q-196 -28 -381 -28
q-121 0 -219 28.5t-174 88t-118 160t-42 235.5v512h223v-512q0 -72 17.5 -126t46.5 -86.5t72.5 -52.5t89.5 -27t104 -7q165 0 381 22v789h223v-1391h-223z" />
    <glyph glyph-name="uni04F5" unicode="&#x4f5;" horiz-adv-x="1284" 
d="M403 1223q-47 0 -80.5 33t-33.5 79q0 47 33.5 81t80.5 34q46 0 79.5 -34t33.5 -81q0 -46 -33.5 -79t-79.5 -33zM797 1223q-47 0 -81 33t-34 79q0 47 34 81t81 34q46 0 79 -34t33 -81q0 -46 -33 -79t-79 -33zM899 1059h221v-1059h-221v502q-3 -7 -9.5 -18t-32.5 -39
t-60 -50t-95 -39.5t-133 -17.5q-187 0 -306.5 115t-119.5 325v281h222v-258q0 -126 63.5 -196t173.5 -70q124 0 210.5 78.5t86.5 220.5v225z" />
    <glyph glyph-name="uni04F6" unicode="&#x4f6;" horiz-adv-x="1277" 
d="M1217 1182h-811v-1076h159v-477h-223v371h-158v1391h1033v-209z" />
    <glyph glyph-name="uni04F7" unicode="&#x4f7;" horiz-adv-x="1044" 
d="M1044 879h-659v-699h127v-600h-209v420h-139v1059h880v-180z" />
    <glyph glyph-name="uni04F8" unicode="&#x4f8;" horiz-adv-x="1792" 
d="M596 1556q-47 0 -81 33.5t-34 79.5q0 47 34 81t81 34q46 0 79.5 -34t33.5 -81q0 -46 -33.5 -79.5t-79.5 -33.5zM989 1556q-47 0 -81 33.5t-34 79.5q0 47 34 81t81 34q46 0 79.5 -34t33.5 -81q0 -46 -33.5 -79.5t-79.5 -33.5zM184 0v1391h224v-555h383q229 0 360 -101.5
t131 -312.5q0 -107 -38 -189t-105.5 -132.5t-155 -75.5t-192.5 -25h-607zM1384 0v1391h224v-1391h-224zM403 209h371q50 0 92.5 8.5t86 30t69 67t25.5 111.5q0 211 -273 211h-371v-428z" />
    <glyph glyph-name="uni04F9" unicode="&#x4f9;" horiz-adv-x="1560" 
d="M1053 1223q-47 0 -81 33t-34 79q0 47 34 81t81 34q46 0 79 -34t33 -81q0 -46 -33 -79t-79 -33zM1446 1223q-47 0 -81 33t-34 79q0 47 34 81t81 34q46 0 79.5 -34t33.5 -81q0 -46 -33.5 -79t-79.5 -33zM123 0v1059h219v-428h322q88 0 158 -21t112 -53.5t70 -75.5t38.5 -84
t10.5 -82q0 -64 -22 -119t-67 -99.5t-122 -70.5t-178 -26h-541zM1176 0v1059h221v-1059h-221zM342 180h330q79 0 121.5 35.5t42.5 99.5t-43.5 100t-122.5 36h-328v-271z" />
    <glyph glyph-name="uni04FC" unicode="&#x4fc;" horiz-adv-x="1419" 
d="M858 -229v204q74 0 118 33t44 94q0 39 -109 187q-2 4 -3.5 5.5t-3.5 4.5t-3.5 5.5t-3.5 4.5l-176 242l-387 -551h-271l527 733l-496 658h271l356 -496l364 496h271l-502 -658l219 -305q80 -106 131 -200t51 -179q0 -62 -23.5 -111t-62 -80t-91 -51t-106.5 -28t-114 -8z
" />
    <glyph glyph-name="uni04FD" unicode="&#x4fd;" horiz-adv-x="1236" 
d="M836 -459q-63 0 -121.5 16t-85.5 32l-27 16v174q3 -2 9.5 -6.5t28 -14.5t44.5 -18t58 -14.5t71 -6.5q77 0 113.5 50.5t40.5 119.5q0 36 -6 67.5t-23.5 67t-32.5 61.5t-50 70.5t-58 71.5t-75.5 87.5t-84.5 97.5l-330 -412h-256l463 559l-422 500h242l303 -354l305 354h242
l-422 -500q39 -47 117 -140t108 -130.5t79.5 -105t68.5 -107.5t35 -93t16 -104q0 -145 -97 -241.5t-253 -96.5z" />
    <glyph glyph-name="uni0510" unicode="&#x510;" horiz-adv-x="1239" 
d="M657 -31q-273 0 -419 120t-146 306q0 144 92 237.5t244 115.5q-104 24 -190 117.5t-86 219.5q0 157 125 247.5t360 90.5q131 0 252 -28.5t201 -63.5v-215q-62 35 -193.5 69t-232.5 34q-293 0 -293 -189q0 -92 89.5 -144t235.5 -52h230v-201h-258q-161 0 -253.5 -70.5
t-92.5 -167.5t82 -159t253 -62q125 0 259.5 37.5t220.5 99.5v-221q-68 -54 -211 -87.5t-269 -33.5z" />
    <glyph glyph-name="uni0511" unicode="&#x511;" horiz-adv-x="997" 
d="M543 -31q-213 0 -337 77t-124 233q0 40 13 80t41 80.5t79.5 72.5t120.5 47q-89 9 -153 80.5t-64 161.5q0 133 120 211t304 78q220 0 342 -80v-201q-38 28 -134.5 56t-183.5 28q-237 0 -237 -117q0 -131 190 -131h164v-180h-195q-78 0 -134 -41t-56 -109q0 -151 256 -151
q80 0 170 27.5t140 54.5l50 28v-204q-53 -42 -168.5 -71.5t-203.5 -29.5z" />
    <glyph glyph-name="uni0512" unicode="&#x512;" horiz-adv-x="1638" 
d="M909 -256v225q91 0 157 30t100.5 81.5t49.5 109t13 123.5v869h-545q-31 -616 -45 -856q-13 -193 -105.5 -275t-246.5 -82q-63 0 -121.5 16.5t-85.5 32.5l-27 17v205q3 -2 9.5 -6.5t28 -14.5t44.5 -18t58 -14.5t71 -6.5q53 0 89.5 28t51 63.5t17.5 78.5q7 78 20 338.5
t22 481.5l9 221h979l2 -1100q0 -112 -32 -208.5t-96 -173.5t-171 -121t-246 -44z" />
    <glyph glyph-name="uni0513" unicode="&#x513;" horiz-adv-x="1540" 
d="M1026 -459q-63 0 -121 16t-85 32l-27 16v176q3 -2 9.5 -6.5t28 -14.5t44.5 -18t58 -14.5t71 -6.5q77 0 113 51t38 119v988h-446q-23 -288 -41 -553q-12 -164 -105.5 -253t-247.5 -89q-63 0 -121 15.5t-85 31.5l-27 16v193q3 -2 9.5 -6.5t28 -14.5t44.5 -18t58 -14.5
t71 -6.5q78 0 119.5 52t44.5 118l45 709h874v-1198q0 -150 -97 -235t-253 -85z" />
    <glyph glyph-name="uni051C" unicode="&#x51c;" horiz-adv-x="1867" 
d="M203 0l-162 1391h233l121 -1022l434 1022h250l90 -1065l465 1065h234l-621 -1391h-258l-92 1020l-434 -1020h-260z" />
    <glyph glyph-name="uni051D" unicode="&#x51d;" horiz-adv-x="1447" 
d="M739 -2l-84 664l-290 -660h-209l-136 1057h213l95 -707l286 707h189l84 -703l313 703h227l-499 -1061h-189z" />
    <glyph glyph-name="uni0524" unicode="&#x524;" horiz-adv-x="1486" 
d="M1307 106h159v-477h-223v371h-158v1182h-679v-1182h-222v1391h1123v-1285z" />
    <glyph glyph-name="uni0525" unicode="&#x525;" horiz-adv-x="1460" 
d="M1169 180h209v-600h-209v420h-221v715h-563v-715h-221v895h1005v-715z" />
    <glyph glyph-name="uni0526" unicode="&#x526;" horiz-adv-x="1572" 
d="M1270 106h221v-477h-223v371h-221v655q0 84 -17 120t-67 36q-71 0 -139.5 -52t-122.5 -135t-102.5 -192.5t-82 -216.5t-57.5 -215h-244v1391h223v-959q79 258 236.5 425t329.5 167q76 0 130 -23.5t82.5 -66t41 -90.5t12.5 -107v-631z" />
    <glyph glyph-name="uni0527" unicode="&#x527;" horiz-adv-x="1431" 
d="M1141 180h209v-600h-209v420h-221v438q0 58 -2.5 93.5t-11 73t-25 56.5t-45.5 31.5t-72 12.5q-50 0 -94 -23.5t-76 -57.5t-61 -91t-46.5 -104.5t-36.5 -119t-27.5 -114t-21 -109.5t-16.5 -86h-221v1393l221 37v-304q0 -240 -39 -671q15 68 35 124.5t56.5 118.5t83 104.5
t118 70.5t158.5 28q177 0 260.5 -109.5t83.5 -330.5v-281z" />
    <glyph glyph-name="Wgrave" unicode="&#x1e80;" horiz-adv-x="2117" 
d="M952 1532l-250 350h273l184 -350h-207zM496 0l-433 1391h254l310 -1110l307 1110h250l309 -1110l307 1110h254l-432 -1391h-258l-305 1073l-303 -1073h-260z" />
    <glyph glyph-name="wgrave" unicode="&#x1e81;" horiz-adv-x="1529" 
d="M659 1198l-249 350h272l184 -350h-207zM471 -84l-410 1143h232l211 -610l258 653l280 -656l195 613h231l-409 -1143l-299 707z" />
    <glyph glyph-name="Wacute" unicode="&#x1e82;" horiz-adv-x="2117" 
d="M961 1532l184 350h272l-250 -350h-206zM496 0l-433 1391h254l310 -1110l307 1110h250l309 -1110l307 1110h254l-432 -1391h-258l-305 1073l-303 -1073h-260z" />
    <glyph glyph-name="wacute" unicode="&#x1e83;" horiz-adv-x="1529" 
d="M668 1198l184 350h272l-250 -350h-206zM471 -84l-410 1143h232l211 -610l258 653l280 -656l195 613h231l-409 -1143l-299 707z" />
    <glyph glyph-name="Wdieresis" unicode="&#x1e84;" horiz-adv-x="2117" 
d="M829 1556q-47 0 -80.5 33.5t-33.5 79.5q0 47 33.5 81t80.5 34q46 0 79.5 -34t33.5 -81q0 -46 -33.5 -79.5t-79.5 -33.5zM1223 1556q-47 0 -81 33.5t-34 79.5q0 47 34 81t81 34q46 0 79 -34t33 -81q0 -46 -33 -79.5t-79 -33.5zM496 0l-433 1391h254l310 -1110l307 1110
h250l309 -1110l307 1110h254l-432 -1391h-258l-305 1073l-303 -1073h-260z" />
    <glyph glyph-name="wdieresis" unicode="&#x1e85;" horiz-adv-x="1529" 
d="M537 1223q-47 0 -81 33t-34 79q0 47 34 81t81 34q46 0 79 -34t33 -81q0 -46 -33 -79t-79 -33zM930 1223q-47 0 -81 33t-34 79q0 47 34 81t81 34q46 0 79 -34t33 -81q0 -46 -33 -79t-79 -33zM471 -84l-410 1143h232l211 -610l258 653l280 -656l195 613h231l-409 -1143
l-299 707z" />
    <glyph glyph-name="Ygrave" unicode="&#x1ef2;" horiz-adv-x="1384" 
d="M793 1532h-207l-250 350h272zM1075 1391h268l-538 -795v-596h-225v596l-539 795h266l385 -592z" />
    <glyph glyph-name="ygrave" unicode="&#x1ef3;" horiz-adv-x="1200" 
d="M494 1198l-250 350h272l184 -350h-206zM209 -426l276 549l-444 936h231l328 -703l328 703h231l-715 -1485h-235z" />
    <glyph glyph-name="endash" unicode="&#x2013;" horiz-adv-x="1198" 
d="M145 500v209h908v-209h-908z" />
    <glyph glyph-name="emdash" unicode="&#x2014;" horiz-adv-x="1689" 
d="M145 500v209h1399v-209h-1399z" />
    <glyph glyph-name="quoteleft" unicode="&#x2018;" horiz-adv-x="608" 
d="M160 823l69 607h265l-156 -607h-178z" />
    <glyph glyph-name="quoteright" unicode="&#x2019;" horiz-adv-x="608" 
d="M129 823l156 607h178l-70 -607h-264z" />
    <glyph glyph-name="quotesinglbase" unicode="&#x201a;" horiz-adv-x="538" 
d="M41 -309l184 524h273l-248 -524h-209z" />
    <glyph glyph-name="quotedblleft" unicode="&#x201c;" horiz-adv-x="1052" 
d="M154 823l196 607h178l-110 -607h-264zM541 823l155 607h178l-69 -607h-264z" />
    <glyph glyph-name="quotedblright" unicode="&#x201d;" horiz-adv-x="1052" 
d="M154 823l69 607h264l-155 -607h-178zM500 823l110 607h264l-196 -607h-178z" />
    <glyph glyph-name="quotedblbase" unicode="&#x201e;" horiz-adv-x="538" 
d="M225 215h273l-248 -524h-209z" />
    <glyph glyph-name="dagger" unicode="&#x2020;" horiz-adv-x="1214" 
d="M487 389v580h-303v211h303v252h240v-252h303v-211h-303v-580h-240z" />
    <glyph glyph-name="daggerdbl" unicode="&#x2021;" horiz-adv-x="1228" 
d="M487 389v211h-303v211h303v199h-303v211h303v211h240v-211h303v-211h-303v-199h303v-211h-303v-211h-240z" />
    <glyph glyph-name="bullet" unicode="&#x2022;" horiz-adv-x="759" 
d="M379 348q-101 0 -172.5 71.5t-71.5 172.5t71.5 173.5t172.5 72.5t173.5 -72.5t72.5 -173.5t-72.5 -172.5t-173.5 -71.5z" />
    <glyph glyph-name="ellipsis" unicode="&#x2026;" horiz-adv-x="1753" 
d="M352 -14q-70 0 -117 47t-47 117q0 68 47 115.5t117 47.5q68 0 116 -48t48 -115q0 -70 -48 -117t-116 -47zM870 -14q-70 0 -116.5 46.5t-46.5 117.5q0 68 46.5 115.5t116.5 47.5q68 0 116 -48t48 -115q0 -70 -48 -117t-116 -47zM1393 -14q-71 0 -117.5 47t-46.5 117
q0 68 47 115.5t117 47.5q67 0 115 -47.5t48 -115.5q0 -70 -47.5 -117t-115.5 -47z" />
    <glyph glyph-name="perthousand" unicode="&#x2030;" horiz-adv-x="2172" 
d="M420 834q-123 0 -210 86.5t-87 209.5q0 125 87 213.5t210 88.5q124 0 212.5 -88.5t88.5 -213.5q0 -123 -88 -209.5t-213 -86.5zM246 -33l782 1460h176l-782 -1460h-176zM420 977q65 0 111.5 45t46.5 108q0 64 -47 111t-111 47q-63 0 -108.5 -46.5t-45.5 -111.5
q0 -63 45.5 -108t108.5 -45zM1053 -33q-123 0 -210 87t-87 210q0 125 87 213t210 88q125 0 213 -88.5t88 -212.5q0 -123 -88 -210t-213 -87zM1749 -33q-123 0 -210 87t-87 210q0 125 87 213t210 88q125 0 213 -88.5t88 -212.5q0 -123 -88 -210t-213 -87zM1053 111
q65 0 111 45t46 108q0 65 -46.5 111.5t-110.5 46.5q-63 0 -108.5 -46.5t-45.5 -111.5q0 -63 45.5 -108t108.5 -45zM1749 111q65 0 111.5 45t46.5 108q0 64 -46.5 111t-111.5 47q-63 0 -108.5 -46.5t-45.5 -111.5q0 -63 45.5 -108t108.5 -45z" />
    <glyph glyph-name="guilsinglleft" unicode="&#x2039;" horiz-adv-x="622" 
d="M340 123l-266 418l266 397h242l-267 -397l267 -418h-242z" />
    <glyph glyph-name="guilsinglright" unicode="&#x203a;" horiz-adv-x="622" 
d="M41 123l266 418l-266 397h242l266 -397l-266 -418h-242z" />
    <glyph glyph-name="fraction" unicode="&#x2044;" horiz-adv-x="1228" 
d="M82 -117l895 1551h178l-895 -1551h-178z" />
    <glyph glyph-name="Euro" unicode="&#x20ac;" horiz-adv-x="1230" 
d="M1126 -33q-107 0 -207.5 17.5t-197 56t-174.5 95.5t-138.5 141t-91.5 188h-213v211h183v16q0 59 4 88h-187v211h238q47 112 130.5 197.5t189 136.5t222.5 76.5t242 25.5v-223q-148 0 -283.5 -53t-217.5 -160h315v-211h-403q-7 -51 -7 -88v-16h410v-211h-358
q36 -71 96.5 -125.5t134.5 -86.5t152.5 -47.5t160.5 -15.5v-223z" />
    <glyph glyph-name="uni20BD" unicode="&#x20bd;" horiz-adv-x="1636" 
d="M893 -352l-160 133l295 358l-295 400h-284v-539h-224v1391h613q216 0 353.5 -113t137.5 -313q0 -159 -90 -264.5t-244 -143.5l181 -240l258 314l159 -133zM449 743h372q122 0 200.5 55.5t78.5 162.5q0 109 -78.5 165t-200.5 56h-372v-439z" />
    <glyph glyph-name="trademark" unicode="&#x2122;" horiz-adv-x="1519" 
d="M299 748v514h-217v127h594v-127h-213v-514h-164zM739 748v641h207l144 -279l145 279h203v-641h-154v458l-119 -225h-151l-119 225v-458h-156z" />
    <glyph glyph-name="arrowleft" unicode="&#x2190;" horiz-adv-x="1427" 
d="M1325 791v-224l-924 29l381 -211v-248l-680 467v156l684 467v-248l-389 -213z" />
    <glyph glyph-name="arrowup" unicode="&#x2191;" horiz-adv-x="1294" 
d="M1192 707h-248l-211 385l27 -1092h-223l26 1094l-213 -392h-248l467 684h156z" />
    <glyph glyph-name="arrowright" unicode="&#x2192;" horiz-adv-x="1427" 
d="M641 1227l684 -467v-156l-680 -467v248l381 211l-924 -29v224l928 -25l-389 213v248z" />
    <glyph glyph-name="arrowdown" unicode="&#x2193;" horiz-adv-x="1294" 
d="M944 680h248l-467 -680h-156l-467 684h248l213 -391l-26 1093h223l-27 -1091z" />
    <glyph glyph-name="arrowboth" unicode="&#x2194;" horiz-adv-x="1837" 
d="M782 137l-680 467v156l684 467v-248l-389 -213l523 14l520 -14l-389 213v248l684 -467v-156l-680 -467v248l381 211l-516 -16l-519 16l381 -211v-248z" />
    <glyph glyph-name="arrowupdn" unicode="&#x2195;" horiz-adv-x="1294" 
d="M739 260l205 318h248l-467 -578h-156l-467 582h248l207 -322l-20 410l22 458l-209 -323h-248l467 581h156l467 -577h-248l-207 317l23 -456z" />
    <glyph glyph-name="uni2196" unicode="&#x2196;" horiz-adv-x="1206" 
d="M1104 326l-158 -158l-639 674l125 -426l-176 -176l-154 815l111 108l811 -149l-176 -176l-418 120z" />
    <glyph glyph-name="uni2197" unicode="&#x2197;" horiz-adv-x="1200" 
d="M989 1169l109 -110l-150 -811l-176 176l121 418l-633 -674l-158 158l674 639l-426 -125l-176 176z" />
    </font>
</defs>
</svg>
