<svg width="120" height="120" viewBox="0 0 120 120" fill="none" xmlns="http://www.w3.org/2000/svg">
<g clip-path="url(#clip0)">
<path d="M60.0973 24.537C59.8305 24.5254 59.5642 24.566 59.3131 24.6557L1.42898 45.3829C-0.467683 45.9992 -0.479263 48.6783 1.41202 49.3111L8.3113 51.7748V66.3413C5.9138 67.202 4.17554 69.501 4.17554 72.1781C4.17554 74.8552 5.9138 77.1543 8.3113 78.0149V84.5854C8.2716 87.382 12.4868 87.382 12.4471 84.5854V78.0149C14.8446 77.1543 16.5828 74.8552 16.5828 72.1781C16.5828 69.501 14.8446 67.202 12.4471 66.3413V53.2525L24.8544 57.6839V88.3775C24.6819 89.4243 25.3291 90.4313 26.3527 90.7097C48.4634 97.0427 73.5923 97.063 93.7181 90.6935C94.7272 90.3924 95.3488 89.3817 95.1623 88.3452V57.6839L118.605 49.3115C120.518 48.6535 120.445 45.9226 118.5 45.3672V45.3631L60.7031 24.6541C60.5079 24.5842 60.3036 24.5445 60.0964 24.5354L60.0973 24.537ZM60.0083 28.7989L111.877 47.3234L60.0083 65.8471L8.14008 47.3234L60.0083 28.7989ZM60.0083 45.2957C57.7242 45.2957 55.8726 46.2217 55.8726 47.3636C55.8726 48.5054 57.7242 49.4314 60.0083 49.4314C62.2925 49.4314 64.1441 48.5054 64.1441 47.3636C64.1441 46.2217 62.2925 45.2957 60.0083 45.2957ZM28.9901 59.1604L59.3127 69.9899C59.7623 70.1504 60.254 70.1504 60.7036 69.9899L91.0261 59.1604V87.1889C72.5323 92.677 49.408 92.6841 28.9897 87.1467L28.9901 59.1604ZM10.3792 70.1102C11.5459 70.1102 12.4471 71.0114 12.4471 72.1781C12.4471 73.3448 11.5459 74.246 10.3792 74.246C9.21248 74.246 8.3113 73.3448 8.3113 72.1781C8.3113 71.0118 9.21248 70.1102 10.3792 70.1102Z" fill="white"/>
<ellipse cx="59.5" cy="47.5" rx="5.5" ry="4.5" fill="#FF7152"/>
</g>
<defs>
<clipPath id="clip0">
<rect width="120" height="120" fill="white"/>
</clipPath>
</defs>
</svg>
