<svg width="120" height="120" viewBox="0 0 120 120" fill="none" xmlns="http://www.w3.org/2000/svg">
<g clip-path="url(#clip0)">
<path d="M91.5708 30.6282L91.7228 32.1936L93.2798 32.4151C103.504 33.8695 111.392 42.6876 111.392 53.3053C111.392 64.9383 101.925 74.406 90.2915 74.406H65.5153V55.5029L66.7534 56.741C66.7535 56.7411 66.7536 56.7412 66.7537 56.7412C67.8301 57.8179 69.2452 58.3569 70.6537 58.3569C72.0625 58.3569 73.4772 57.8176 74.5537 56.7415L74.5539 56.7412C76.7078 54.5873 76.708 51.0949 74.5539 48.941C74.5538 48.941 74.5538 48.9409 74.5538 48.9409L63.9002 38.2875C61.7464 36.1337 58.2537 36.1337 56.0999 38.2875L45.4464 48.941C43.2925 51.095 43.2923 54.5875 45.4465 56.7414C47.6005 58.8949 51.0928 58.8951 53.2466 56.7412L54.4841 55.5038V74.4058H29.7081C18.0751 74.4058 8.60742 64.9383 8.60742 53.3051C8.60742 42.6877 16.4952 33.8696 26.72 32.4151L28.2769 32.1936L28.429 30.6284C29.988 14.5843 43.5555 2 59.9999 2C76.4452 2 90.0134 14.5841 91.5708 30.6282Z" stroke="white" stroke-width="4"/>
<path d="M69.203 83.4373H50.7949C50.8376 88.4775 54.9492 92.565 59.9988 92.565C65.0489 92.565 69.1606 88.4775 69.203 83.4373Z" fill="#FF7152"/>
<path d="M20.8998 85.4373H41.9302C43.1216 94.3489 50.7661 101.245 60.0006 101.245C69.2354 101.245 76.88 94.3492 78.0712 85.4373H99.1002C99.0101 85.9962 98.9092 86.5518 98.7968 87.1033C98.6528 87.8097 98.0319 88.3166 97.3117 88.3166H90.9554H89.5862L89.0909 89.5931C88.9181 90.0383 88.735 90.4793 88.5419 90.9157L87.9871 92.1696L88.9566 93.1392L93.4524 97.635C93.962 98.1446 94.0423 98.9421 93.6449 99.5427L93.6449 99.5428C92.0266 101.989 90.1472 104.289 88.0588 106.377C85.9689 108.467 83.6684 110.347 81.223 111.964C80.6224 112.361 79.8247 112.281 79.3152 111.772C79.3151 111.772 79.3151 111.772 79.315 111.772L74.8196 107.276L73.8507 106.307L72.5972 106.861C72.1597 107.054 71.7183 107.238 71.2734 107.41L69.9972 107.906L69.9973 109.275L69.9975 115.632C69.9975 115.632 69.9975 115.632 69.9975 115.632C69.9975 116.352 69.4906 116.973 68.784 117.117C65.9097 117.703 62.954 118 60.0006 118C57.047 118 54.0912 117.703 51.217 117.117C50.511 116.973 50.0041 116.352 50.0041 115.632V109.275V107.906L48.7276 107.41C48.2827 107.238 47.8417 107.054 47.4046 106.861L46.1509 106.307L45.1815 107.276L40.6851 111.772C40.6851 111.772 40.6851 111.772 40.685 111.773C40.1748 112.283 39.3772 112.362 38.7782 111.965L38.7772 111.965C36.3308 110.347 34.0309 108.467 31.9421 106.379C31.9421 106.379 31.9421 106.379 31.942 106.379M20.8998 85.4373L31.942 106.379M20.8998 85.4373C20.9899 85.9963 21.0908 86.552 21.2032 87.1036L20.8998 85.4373ZM31.942 106.379C29.8558 104.292 27.9761 101.992 26.3556 99.5436L26.3554 99.5434C25.9577 98.9427 26.0381 98.145 26.5476 97.6356L26.5477 97.6355L31.0444 93.1387L32.0138 92.1694L31.4593 90.9156C31.2662 90.4788 31.0831 90.0379 30.9102 89.5927L30.4147 88.3169H29.0459H22.6883C21.968 88.3169 21.3471 87.8099 21.2032 87.1036L31.942 106.379Z" stroke="#FF7152" stroke-width="4"/>
</g>
<defs>
<clipPath id="clip0">
<rect width="120" height="120" fill="white"/>
</clipPath>
</defs>
</svg>
