<svg width="248" height="40" viewBox="0 0 248 40" fill="none" xmlns="http://www.w3.org/2000/svg">
<path d="M99.3678 27.393C98.6039 27.7112 97.8347 27.9977 97.0602 28.2523C96.2857 28.507 95.4847 28.7245 94.6571 28.9048C93.8296 29.0958 92.9543 29.239 92.0313 29.3345C91.1188 29.43 90.1375 29.4777 89.0871 29.4777C86.8591 29.4777 84.8061 29.239 82.9282 28.7616C81.061 28.2842 79.4483 27.568 78.0903 26.6131C76.7429 25.6477 75.6925 24.4488 74.9392 23.0165C74.186 21.5736 73.8093 19.892 73.8093 17.9717C73.8093 16.0513 74.186 14.375 74.9392 12.9427C75.6925 11.4998 76.7429 10.3009 78.0903 9.34607C79.4483 8.3806 81.061 7.65915 82.9282 7.18172C84.8061 6.70429 86.8591 6.46558 89.0871 6.46558C90.1375 6.46558 91.1188 6.51332 92.0313 6.60881C92.9543 6.70429 93.8296 6.84752 94.6571 7.03849C95.4847 7.21886 96.2857 7.43635 97.0602 7.69098C97.8347 7.94561 98.6039 8.23207 99.3678 8.55036V13.8658C98.763 13.5369 98.1265 13.2133 97.4581 12.895C96.7896 12.5661 96.0523 12.2743 95.246 12.0197C94.4396 11.7544 93.5537 11.5423 92.5883 11.3831C91.6228 11.2134 90.5353 11.1285 89.3258 11.1285C87.4691 11.1285 85.9255 11.3195 84.6947 11.7014C83.4746 12.0833 82.4986 12.5926 81.7665 13.2292C81.0344 13.8658 80.5199 14.5978 80.2228 15.4254C79.9257 16.2423 79.7772 17.0911 79.7772 17.9717C79.7772 18.5552 79.8409 19.1334 79.9682 19.7063C80.0955 20.2686 80.3077 20.8044 80.6048 21.3137C80.9018 21.8123 81.2891 22.2738 81.7665 22.6982C82.2439 23.1226 82.8381 23.4886 83.5489 23.7963C84.2598 24.104 85.0873 24.348 86.0315 24.5284C86.9864 24.6981 88.0845 24.783 89.3258 24.783C90.5353 24.783 91.6228 24.7087 92.5883 24.5602C93.5537 24.4011 94.4396 24.1942 95.246 23.9395C96.0523 23.6849 96.7896 23.3984 97.4581 23.0802C98.1265 22.7513 98.763 22.4171 99.3678 22.0776V27.393Z" fill="white"/>
<path d="M122.603 24.7512H110.412L108.359 28.8889H101.771L113.213 7.02258H119.802L131.244 28.8889H124.656L122.603 24.7512ZM112.529 20.4861H120.518L116.539 12.4335L112.529 20.4861Z" fill="white"/>
<path d="M145.806 11.781V28.8889H139.902V11.781H130.624V7.02258H155.1V11.781H145.806Z" fill="white"/>
<path d="M159.015 28.8889V7.02258H181.152V11.6855H165.078V15.298H180.324V19.9609H165.078V24.226H181.374V28.8889H159.015Z" fill="white"/>
<path d="M207.745 28.8889L192.992 13.8658V28.8889H187.088V7.02258H193.501L208.27 22.1094V7.02258H214.142V28.8889H207.745Z" fill="white"/>
<path d="M238.555 24.7512H226.364L224.311 28.8889H217.723L229.165 7.02258H235.754L247.196 28.8889H240.608L238.555 24.7512ZM228.481 20.4861H236.47L232.491 12.4335L228.481 20.4861Z" fill="white"/>
<path fill-rule="evenodd" clip-rule="evenodd" d="M40 40C51.0457 40 60 31.0457 60 20C60 8.9543 51.0457 0 40 0C31.3835 0 24.0396 5.44889 21.2262 13.0889C22.3995 13.4323 23.4487 14.0664 24.2904 14.9079C27.0382 16.458 31.2881 17.5858 35.4355 15.1976C36.7538 13.7259 38.6688 12.7999 40.8001 12.7999C44.7766 12.7999 48.0001 16.0234 48.0001 19.9999C48.0001 23.9763 44.7766 27.1999 40.8001 27.1999C39.1712 27.1999 37.6686 26.6589 36.4622 25.7469C33.6577 24.3431 28.5926 23.079 23.6538 25.6574C22.9411 26.2192 22.1196 26.6493 21.2261 26.9108C24.0395 34.551 31.3834 40 40 40Z" fill="#E96B6B"/>
<path fill-rule="evenodd" clip-rule="evenodd" d="M38.7738 13.0889C35.9604 5.44892 28.6165 0 20 0C8.9543 0 0 8.9543 0 20C0 31.0457 8.9543 40 20 40C28.6166 40 35.9605 34.551 38.7739 26.9108C37.9285 26.6634 37.1476 26.2651 36.4623 25.747C33.6578 24.3432 28.5927 23.079 23.6539 25.6573C22.4284 26.6234 20.8815 27.1998 19.2 27.1998C15.2235 27.1998 12 23.9763 12 19.9998C12 16.0234 15.2235 12.7998 19.2 12.7998C21.1879 12.7998 22.9876 13.6055 24.2905 14.908C27.0382 16.458 31.2882 17.5857 35.4355 15.1976C36.3186 14.2117 37.4695 13.4707 38.7738 13.0889Z" fill="#00FFF0"/>
</svg>
