<svg width="140" height="68" viewBox="0 0 140 68" fill="none" xmlns="http://www.w3.org/2000/svg">
<g opacity="0.5">
<g clip-path="url(#clip0)">
<path fill-rule="evenodd" clip-rule="evenodd" d="M15.5184 19.1093C17.9399 15.9058 21.1123 13.3466 24.7562 11.6569C28.4 9.96734 32.4036 9.19921 36.4144 9.42021C40.4251 9.64121 44.32 10.8445 47.756 12.9243C51.192 15.004 54.0638 17.8963 56.1184 21.3464L57.893 20.3609L60.8508 18.6264C58.1973 14.1641 54.4287 10.4681 49.9148 7.90108C45.4009 5.3341 40.2969 3.98438 35.1036 3.98438C29.9103 3.98438 24.8063 5.3341 20.2924 7.90108C15.7785 10.4681 12.0099 14.1641 9.3564 18.6264L7.88739 20.9325L10.2339 22.3221L19.3141 27.7128C17.8289 31.4466 17.7255 35.5876 19.0226 39.3907C20.3196 43.1939 22.932 46.4095 26.3895 48.4589C29.847 50.5083 33.9228 51.2571 37.8834 50.5703C41.844 49.8836 45.4294 47.8065 47.9944 44.7128L54.6099 48.6548C52.1878 51.8612 49.0134 54.4224 45.3668 56.1123C41.7202 57.8023 37.7136 58.5691 33.7004 58.3451C29.6872 58.1211 25.7908 56.9132 22.3551 54.8279C18.9194 52.7426 16.05 49.8442 14.0001 46.3882L9.31697 49.1575C11.9705 53.6198 15.7391 57.3158 20.253 59.8828C24.7668 62.4498 29.8709 63.7995 35.0641 63.7995C40.2574 63.7995 45.3615 62.4498 49.8753 59.8828C54.3892 57.3158 58.1578 53.6198 60.8113 49.1575L62.2113 46.8119L59.8648 45.4224L52.4113 40.9975L45.9832 37.2919C45.2006 39.782 43.5893 41.9293 41.4168 43.3773C39.2444 44.8252 36.6417 45.4864 34.0413 45.2512C31.4408 45.0159 28.9992 43.8982 27.1222 42.0839C25.2452 40.2696 24.0457 37.8679 23.7232 35.2779C23.4007 32.6879 23.9745 30.0656 25.3493 27.8467C26.724 25.6278 28.817 23.9459 31.2804 23.0806C33.7438 22.2152 36.4292 22.2185 38.8905 23.0899C41.3517 23.9613 43.4406 25.6482 44.8099 27.8705L49.5325 25.1505C48.1451 22.8504 46.2284 20.9147 43.9419 19.5042C41.6553 18.0937 39.0649 17.2492 36.3861 17.041C33.7073 16.8328 31.0174 17.2669 28.5402 18.3071C26.063 19.3474 23.8701 20.9637 22.1437 23.0218L15.5184 19.1093Z" fill="white"/>
</g>
<path d="M78.8892 41.7261C75.9906 41.7261 73.7822 40.9837 72.2639 39.4989C71.4841 38.6769 70.8821 37.7031 70.4954 36.6383C70.1086 35.5735 69.9454 34.4405 70.016 33.3099C69.9465 32.1541 70.1077 30.9959 70.4903 29.903C70.8728 28.81 71.469 27.804 72.2441 26.9435C73.723 25.4127 75.938 24.644 78.8892 24.6374C79.7985 24.6282 80.7065 24.7074 81.6005 24.874C82.3838 25.0194 83.155 25.2236 83.9075 25.485V29.1215C82.4141 28.502 80.8118 28.187 79.1949 28.1951C78.5179 28.1355 77.8359 28.214 77.1902 28.4257C76.5445 28.6375 75.9486 28.9781 75.4385 29.427C74.547 30.5153 74.1155 31.9084 74.2357 33.3099C74.1781 33.9812 74.2605 34.6572 74.4777 35.295C74.6949 35.9329 75.0422 36.5187 75.4977 37.0154C76.552 37.876 77.8966 38.2993 79.254 38.198C80.0576 38.2001 80.8596 38.1275 81.6498 37.9812C82.4369 37.8344 83.2068 37.6065 83.947 37.3012V40.9574C83.1959 41.2 82.4281 41.3878 81.6498 41.5192C80.7371 41.6663 79.8136 41.7355 78.8892 41.7261Z" fill="white"/>
<path d="M93.5507 41.727C90.8493 41.727 88.7986 41.0404 87.3986 39.6673C85.9986 38.2942 85.292 36.1589 85.2788 33.2615C85.2788 30.1867 85.9887 27.989 87.3986 26.6487C88.8084 25.3085 90.8493 24.6777 93.5507 24.6777C96.2521 24.6777 98.2929 25.3479 99.7028 26.6487C101.113 27.9496 101.813 30.1867 101.813 33.2615C101.813 36.1589 101.103 38.2974 99.7028 39.6673C98.3028 41.0372 96.2422 41.727 93.5507 41.727ZM93.5507 38.1989C94.1225 38.2557 94.6998 38.1774 95.2358 37.9702C95.7718 37.7631 96.2516 37.433 96.6366 37.0064C97.3764 35.9041 97.7237 34.585 97.6225 33.2615C97.7494 31.8738 97.4019 30.4842 96.6366 29.3195C96.2475 28.9122 95.7715 28.5979 95.244 28.4C94.7165 28.2021 94.1512 28.1256 93.5901 28.1763C93.0244 28.1239 92.4542 28.1995 91.9217 28.3974C91.3892 28.5953 90.9081 28.9104 90.5141 29.3195C89.7437 30.4819 89.3956 31.8734 89.5281 33.2615C89.4269 34.585 89.7742 35.9041 90.5141 37.0064C90.8957 37.4235 91.3677 37.7478 91.8941 37.9545C92.4204 38.1612 92.9871 38.2448 93.5507 38.1989Z" fill="white"/>
<path d="M103.922 41.4711V24.8949H112.213C113.002 24.8296 113.795 24.9339 114.54 25.2008C115.285 25.4677 115.964 25.891 116.532 26.4421C117.506 27.594 118.004 29.0748 117.922 30.5813C117.952 31.6308 117.656 32.6639 117.074 33.5378C116.505 34.3803 115.698 35.0353 114.757 35.4201C114.986 35.5953 115.182 35.8087 115.339 36.0508C115.526 36.364 115.685 36.6939 115.812 37.0363L117.784 41.5105H113.446L111.592 37.2926C111.472 36.98 111.267 36.707 111.001 36.5041C110.701 36.3333 110.36 36.248 110.015 36.2578H108.063V41.5105L103.922 41.4711ZM108.063 33.0253H111.129C111.813 33.0685 112.488 32.8541 113.022 32.4241C113.262 32.1848 113.448 31.8959 113.565 31.5777C113.683 31.2594 113.729 30.9194 113.702 30.5813C113.702 28.9256 112.903 28.0879 111.306 28.0879H108.063V33.0253Z" fill="white"/>
<path d="M120.032 41.4708V24.8945H132.268V28.0876H124.183V31.5664H131.311V34.8285H124.183V38.2777H132.268V41.4708H120.032Z" fill="white"/>
</g>
<defs>
<clipPath id="clip0">
<rect width="62.1127" height="60.1159" fill="white" transform="translate(3.9437 3.94238)"/>
</clipPath>
</defs>
</svg>
