<svg width="120" height="120" viewBox="0 0 120 120" fill="none" xmlns="http://www.w3.org/2000/svg">
<g clip-path="url(#clip0)">
<path d="M33.2816 99.8914C21.853 99.8914 11.6954 106.739 7.40378 117.337C7.00249 118.328 7.48042 119.457 8.47139 119.858C9.46261 120.259 10.5906 119.781 10.9919 118.79C14.6887 109.661 23.438 103.762 33.2819 103.762C43.1257 103.762 51.8751 109.661 55.5718 118.79C55.8766 119.543 56.6012 120 57.3664 120C57.6085 120 57.8544 119.954 58.0923 119.858C59.083 119.457 59.561 118.328 59.1599 117.337C54.8678 106.739 44.7102 99.8914 33.2816 99.8914Z" fill="white"/>
<path d="M101.217 8.9917C93.9161 3.19328 84.2349 0 73.957 0C63.6783 0 53.9971 3.19328 46.6962 8.9917C39.2645 14.8941 35.1719 22.7816 35.1719 31.2012C35.1719 46.0202 47.9589 58.6557 65.7965 61.711C66.1612 66.4268 64.469 71.1192 61.1346 74.4851C60.5849 75.0399 60.4226 75.8712 60.7233 76.5922C61.0239 77.3132 61.7287 77.7829 62.5096 77.7829C72.0115 77.7829 80.166 70.9749 82.0439 61.7226C90.3051 60.3128 97.8346 56.7306 103.376 51.5492C109.416 45.9028 112.742 38.6762 112.742 31.2012C112.742 22.7816 108.649 14.8941 101.217 8.9917ZM80.0463 58.1143C79.0385 58.2534 78.3103 59.1492 78.3799 60.1644C78.381 60.1791 78.3823 60.1941 78.3836 60.2088C77.3998 66.5455 72.8027 71.5894 66.9026 73.2916C69.2019 69.3917 70.1586 64.7646 69.5242 60.1912C69.525 60.1819 69.5258 60.1729 69.5263 60.1636C69.5962 59.1486 68.8682 58.2529 67.8603 58.1136C51.162 55.8057 39.0426 44.4873 39.0426 31.2009C39.0428 16.1313 54.7052 3.87095 73.957 3.87095C93.2088 3.87095 108.871 16.1313 108.871 31.2012C108.871 44.4899 96.7486 55.8085 80.0463 58.1143Z" fill="#FF7152"/>
<path d="M60.9669 29.1366C59.8285 29.1366 58.9023 30.0628 58.9023 31.2011C58.9023 32.3394 59.8285 33.2656 60.9669 33.2656C62.1052 33.2656 63.0314 32.3394 63.0314 31.2011C63.0314 30.0628 62.1052 29.1366 60.9669 29.1366Z" fill="white"/>
<path d="M86.9454 29.1366C85.807 29.1366 84.8809 30.0628 84.8809 31.2011C84.8809 32.3394 85.807 33.2656 86.9454 33.2656C88.0837 33.2656 89.0099 32.3394 89.0099 31.2011C89.0099 30.0628 88.0837 29.1366 86.9454 29.1366Z" fill="white"/>
<path d="M73.9551 29.1366C72.8168 29.1366 71.8906 30.0628 71.8906 31.2011C71.8906 32.3394 72.8168 33.2656 73.9551 33.2656C75.0934 33.2656 76.0196 32.3394 76.0196 31.2011C76.0196 30.0628 75.0934 29.1366 73.9551 29.1366Z" fill="white"/>
<path d="M33.2819 94.0199C43.3025 94.0199 51.4545 85.8677 51.4545 75.8471C51.4545 65.8265 43.3023 57.6746 33.2819 57.6746C23.2616 57.6746 15.1094 65.8268 15.1094 75.8471C15.1094 85.8675 23.2613 94.0199 33.2819 94.0199ZM33.2819 61.5455C41.1681 61.5455 47.5836 67.9612 47.5836 75.8471C47.5836 83.733 41.1678 90.149 33.2819 90.149C25.396 90.149 18.9803 83.7333 18.9803 75.8471C18.9803 67.961 25.3958 61.5455 33.2819 61.5455Z" fill="white"/>
</g>
<defs>
<clipPath id="clip0">
<rect width="120" height="120" fill="white"/>
</clipPath>
</defs>
</svg>
