<svg width="84" height="84" viewBox="0 0 84 84" fill="none" xmlns="http://www.w3.org/2000/svg">
<g clip-path="url(#clip0)">
<path d="M42 75C60.2254 75 75 60.2254 75 42C75 23.7746 60.2254 9 42 9C23.7746 9 9 23.7746 9 42C9 60.2254 23.7746 75 42 75Z" stroke="white" stroke-width="4" stroke-linecap="round" stroke-linejoin="round"/>
<path d="M40.0785 2.66989C40.0991 2.66989 40.5682 2.65003 40.7826 2.64364C41.1293 2.63147 41.4572 2.48246 41.6944 2.22922C41.9316 1.97597 42.0589 1.63909 42.0484 1.29226C42.0379 0.945423 41.8904 0.616865 41.6383 0.378438C41.3862 0.140012 41.05 0.0111216 40.7031 0.0199573C40.4746 0.0270055 40.2464 0.0357554 40.0186 0.0462073C39.6763 0.0622685 39.3539 0.211535 39.1202 0.46212C38.8865 0.712704 38.7601 1.04474 38.7679 1.3873C38.7757 1.72985 38.9172 2.05577 39.1621 2.29543C39.407 2.53508 39.7359 2.66947 40.0785 2.66989Z" fill="white"/>
<path d="M47.1927 2.96439C47.4048 2.99227 47.9573 3.06789 48.022 3.06789C48.3532 3.06737 48.672 2.94166 48.9144 2.71597C49.1568 2.49027 49.305 2.18127 49.3292 1.85093C49.3533 1.52058 49.2517 1.19331 49.0447 0.934737C48.8377 0.676161 48.5406 0.505393 48.213 0.456673C47.9874 0.423349 47.7609 0.391733 47.5336 0.361825C47.3628 0.33944 47.1891 0.350933 47.0227 0.395647C46.8562 0.440361 46.7002 0.517422 46.5636 0.622429C46.4269 0.727435 46.3123 0.858332 46.2262 1.00764C46.1401 1.15696 46.0843 1.32176 46.0619 1.49265C46.0395 1.66354 46.051 1.83716 46.0957 2.0036C46.1404 2.17005 46.2175 2.32606 46.3225 2.46272C46.4275 2.59939 46.5584 2.71403 46.7077 2.80011C46.857 2.88618 47.0218 2.94201 47.1927 2.96439Z" fill="white"/>
<path d="M60.5731 7.27203C60.7621 7.37329 60.9503 7.47614 61.1377 7.5806C61.4417 7.75004 61.8005 7.79183 62.1353 7.69678C62.4701 7.60172 62.7534 7.3776 62.923 7.0737C63.0926 6.76979 63.1345 6.41098 63.0396 6.07615C62.9447 5.74133 62.7207 5.4579 62.4169 5.28819C62.2169 5.17668 62.0159 5.06676 61.8138 4.95846C61.507 4.79393 61.1475 4.75801 60.8142 4.85862C60.4809 4.95922 60.2012 5.18809 60.0367 5.49489C59.8722 5.80169 59.8363 6.16128 59.9369 6.49456C60.0375 6.82783 60.2663 7.1075 60.5731 7.27203Z" fill="white"/>
<path d="M54.0741 4.51043C54.2792 4.57676 54.4836 4.64447 54.6874 4.71359C55.0168 4.82471 55.3768 4.80065 55.6884 4.64669C56 4.49273 56.2378 4.22144 56.3497 3.89234C56.4615 3.56324 56.4383 3.20322 56.285 2.89125C56.1317 2.57929 55.8609 2.34087 55.5321 2.2283C55.3155 2.15459 55.0982 2.0826 54.8803 2.01232C54.5495 1.90709 54.1905 1.9372 53.8818 2.09606C53.5731 2.25492 53.34 2.52959 53.2334 2.85996C53.1267 3.19033 53.1553 3.54948 53.3129 3.8588C53.4705 4.16813 53.7442 4.40243 54.0741 4.51043Z" fill="white"/>
<path d="M19.5224 9.38814C19.9881 9.32658 20.4258 9.13097 20.7824 8.82515C21.0757 8.63784 21.2827 8.34166 21.3577 8.00177C21.4327 7.66188 21.3696 7.30612 21.1822 7.01275C20.9949 6.71938 20.6988 6.51244 20.3589 6.43744C20.019 6.36245 19.6632 6.42555 19.3698 6.61286C19.177 6.73591 18.9855 6.86066 18.7953 6.98712C18.5599 7.14235 18.3809 7.36948 18.285 7.63469C18.1891 7.89989 18.1815 8.18897 18.2632 8.45887C18.3449 8.72877 18.5117 8.96505 18.7386 9.1325C18.9655 9.29995 19.2404 9.38962 19.5224 9.38814Z" fill="white"/>
<path d="M13.8307 13.9472C14.3764 13.8708 14.8704 13.5833 15.2063 13.1465C15.4614 12.9095 15.6118 12.581 15.6246 12.2331C15.6374 11.8852 15.5115 11.5465 15.2746 11.2915C15.0376 11.0365 14.7091 10.886 14.3612 10.8732C14.0133 10.8604 13.6746 10.9863 13.4196 11.2233C13.2523 11.3787 13.0863 11.5355 12.9216 11.6936C12.7318 11.8742 12.6007 12.1076 12.5453 12.3636C12.4898 12.6196 12.5125 12.8864 12.6105 13.1293C12.7085 13.3722 12.8772 13.5801 13.0948 13.7259C13.3124 13.8718 13.5688 13.9489 13.8307 13.9472Z" fill="white"/>
<path d="M25.9283 5.91874C26.3167 5.87567 26.6927 5.75644 27.0348 5.56787C27.1947 5.50277 27.3401 5.40678 27.4628 5.2854C27.5855 5.16402 27.683 5.01964 27.7499 4.86051C27.8167 4.70139 27.8515 4.53064 27.8522 4.35806C27.853 4.18547 27.8197 4.01444 27.7542 3.85474C27.6888 3.69504 27.5925 3.54981 27.4709 3.42737C27.3492 3.30494 27.2046 3.20769 27.0454 3.14121C26.8861 3.07472 26.7153 3.0403 26.5427 3.03992C26.3701 3.03954 26.1991 3.0732 26.0396 3.13897C25.8281 3.22549 25.6177 3.31404 25.4083 3.40461C25.25 3.47277 25.1067 3.57145 24.9865 3.69503C24.8664 3.8186 24.7718 3.96464 24.7081 4.1248C24.6444 4.28496 24.6129 4.4561 24.6154 4.62844C24.6179 4.80078 24.6543 4.97094 24.7225 5.12919C24.8266 5.36262 24.9956 5.56118 25.2094 5.70118C25.4232 5.84118 25.6728 5.9167 25.9283 5.91874Z" fill="white"/>
<path d="M32.8543 3.65493C33.1671 3.63143 33.4764 3.57427 33.7768 3.48446C33.9454 3.44861 34.1053 3.3799 34.2473 3.28227C34.3893 3.18464 34.5107 3.05999 34.6046 2.91544C34.6984 2.77089 34.7629 2.60927 34.7943 2.43981C34.8256 2.27035 34.8233 2.09637 34.7875 1.9278C34.7516 1.75922 34.6829 1.59936 34.5853 1.45734C34.4877 1.31532 34.363 1.19392 34.2185 1.10007C34.0739 1.00622 33.9123 0.941765 33.7428 0.910377C33.5734 0.878989 33.3994 0.881286 33.2308 0.917137C33.0072 0.964566 32.7844 1.01381 32.5624 1.06486C32.2231 1.14257 31.9286 1.35189 31.7436 1.64677C31.5587 1.94165 31.4984 2.29793 31.5761 2.63723C31.6462 2.92455 31.8098 3.18043 32.0412 3.36464C32.2726 3.54886 32.5586 3.65097 32.8543 3.65493Z" fill="white"/>
<path d="M83.9943 42.6828C83.9936 42.4559 83.9987 41.8705 83.9987 41.8705C83.9987 41.5224 83.8605 41.1885 83.6143 40.9424C83.3682 40.6963 83.0343 40.558 82.6862 40.558C82.3381 40.558 82.0043 40.6963 81.7582 40.9424C81.512 41.1885 81.3737 41.5224 81.3737 41.8705C81.3737 41.8705 81.3725 42.4303 81.3693 42.6443C81.3643 42.9924 81.4977 43.3282 81.7402 43.578C81.9827 43.8277 82.3145 43.9709 82.6625 43.9761C82.8358 43.982 83.0084 43.9529 83.1701 43.8904C83.3319 43.828 83.4793 43.7336 83.6037 43.6129C83.728 43.4921 83.8267 43.3475 83.8938 43.1877C83.9609 43.0278 83.9951 42.8561 83.9943 42.6828Z" fill="white"/>
<path d="M81.9185 51.1987C82.2191 51.2033 82.512 51.1031 82.7467 50.9152C82.9815 50.7273 83.1434 50.4635 83.2047 50.1691C83.2489 49.9448 83.2919 49.7196 83.3322 49.4936C83.363 49.3238 83.36 49.1496 83.3234 48.9809C83.2868 48.8123 83.2172 48.6525 83.1188 48.5108C83.0203 48.369 82.8949 48.2481 82.7497 48.1548C82.6044 48.0616 82.4422 47.998 82.2724 47.9675C82.1025 47.937 81.9283 47.9404 81.7597 47.9773C81.5911 48.0143 81.4315 48.0841 81.2899 48.1828C81.1483 48.2815 81.0276 48.4072 80.9347 48.5526C80.8418 48.698 80.7784 48.8604 80.7483 49.0303C80.7105 49.2402 80.6681 49.4494 80.6297 49.659C80.5787 49.8492 80.5743 50.0489 80.6168 50.2412C80.6593 50.4335 80.7475 50.6128 80.8739 50.7638C81.0003 50.9148 81.1613 51.0332 81.3431 51.1089C81.5249 51.1846 81.7223 51.2154 81.9185 51.1987Z" fill="white"/>
<path d="M80.7265 34.8463C80.7656 35.0568 80.8028 35.2681 80.838 35.4801C80.8953 35.8234 81.0866 36.1299 81.3699 36.3322C81.6532 36.5345 82.0052 36.6159 82.3485 36.5587C82.6919 36.5014 82.9984 36.3101 83.2006 36.0268C83.4029 35.7435 83.4844 35.3915 83.4271 35.0481C83.3893 34.8226 83.35 34.5979 83.3092 34.374C83.2465 34.0315 83.0504 33.7279 82.764 33.53C82.4775 33.3321 82.1242 33.2562 81.7817 33.3188C81.4392 33.3814 81.1356 33.5775 80.9377 33.864C80.7399 34.1505 80.6639 34.5038 80.7265 34.8463Z" fill="white"/>
<path d="M66.4714 11.1518C66.6393 11.2848 66.8057 11.4191 66.9706 11.5549C67.1038 11.6644 67.2572 11.7466 67.4221 11.7968C67.587 11.847 67.7602 11.8642 67.9317 11.8475C68.1033 11.8308 68.2699 11.7804 68.422 11.6993C68.5741 11.6182 68.7087 11.5079 68.8182 11.3748C68.9277 11.2417 69.0099 11.0883 69.0601 10.9234C69.1103 10.7584 69.1276 10.5853 69.1109 10.4137C69.0941 10.2421 69.0438 10.0755 68.9627 9.92344C68.8816 9.77133 68.7713 9.63668 68.6382 9.52719C68.4606 9.3817 68.2823 9.23772 68.103 9.09525C67.8302 8.87968 67.483 8.78115 67.1377 8.82128C66.7923 8.8614 66.477 9.03691 66.2609 9.30929C66.0448 9.58166 65.9456 9.92864 65.985 10.2741C66.0245 10.6195 66.1994 10.9352 66.4714 11.1518Z" fill="white"/>
<path d="M81.2881 27.1225C81.1646 26.7973 80.9171 26.5344 80.5999 26.3916C80.2828 26.2487 79.9219 26.2376 79.5965 26.3606C79.2711 26.4836 79.0079 26.7308 78.8646 27.0477C78.7213 27.3647 78.7097 27.7256 78.8323 28.0511C78.9079 28.2511 78.9829 28.452 79.0553 28.6539C79.1766 28.9787 79.4201 29.2433 79.7338 29.3911C80.0475 29.5389 80.4066 29.5583 80.7343 29.4451C81.0619 29.3272 81.3292 29.0841 81.4775 28.7691C81.6258 28.4542 81.643 28.0932 81.5252 27.7657C81.4476 27.5503 81.3686 27.3359 81.2881 27.1225Z" fill="white"/>
<path d="M79.3802 58.137C79.7039 58.2624 80.0639 58.2556 80.3827 58.1182C80.7016 57.9808 80.9537 57.7237 81.0848 57.4023C81.1701 57.1882 81.2521 56.9732 81.3335 56.7576C81.3945 56.5962 81.4231 56.4243 81.4177 56.2518C81.4122 56.0793 81.3728 55.9096 81.3016 55.7524C81.2305 55.5952 81.129 55.4535 81.0031 55.3355C80.8771 55.2176 80.7292 55.1256 80.5676 55.0649C80.4061 55.0041 80.2342 54.9759 80.0617 54.9817C79.8892 54.9875 79.7196 55.0273 79.5625 55.0987C79.4054 55.1702 79.264 55.2719 79.1462 55.3981C79.0285 55.5243 78.9368 55.6724 78.8764 55.8341C78.8014 56.0343 78.7245 56.2338 78.6457 56.4327C78.582 56.5928 78.5504 56.7639 78.5529 56.9363C78.5553 57.1086 78.5916 57.2787 78.6599 57.437C78.7281 57.5953 78.8268 57.7386 78.9504 57.8587C79.074 57.9788 79.22 58.0734 79.3802 58.137Z" fill="white"/>
<path d="M10.2233 16.5543C9.94488 16.3453 9.59488 16.2555 9.25027 16.3046C8.90565 16.3537 8.59465 16.5377 8.38566 16.8161C8.24817 16.999 8.11242 17.1832 7.97839 17.3685C7.77408 17.6503 7.69009 18.0017 7.74489 18.3454C7.79968 18.6892 7.98878 18.9971 8.27059 19.2014C8.55239 19.4057 8.90381 19.4897 9.24754 19.4349C9.59127 19.3801 9.89915 19.191 10.1035 18.9092C10.2294 18.7355 10.3566 18.5631 10.4851 18.392C10.6941 18.1136 10.7839 17.7635 10.7348 17.4189C10.6857 17.0743 10.5017 16.7633 10.2233 16.5543Z" fill="white"/>
<path d="M77.6111 61.742C77.4633 61.6532 77.2994 61.5945 77.1289 61.5691C76.9583 61.5437 76.7845 61.5522 76.6172 61.5941C76.4499 61.636 76.2926 61.7104 76.1541 61.8131C76.0156 61.9159 75.8988 62.0449 75.8102 62.1928C75.7 62.3778 75.5881 62.5614 75.4744 62.7437C75.2909 63.0396 75.2325 63.3963 75.312 63.7353C75.3915 64.0743 75.6024 64.3678 75.8984 64.5513C76.1943 64.7347 76.551 64.7931 76.8899 64.7136C77.2289 64.6341 77.5225 64.4232 77.7059 64.1273C77.8258 63.9335 77.9445 63.7385 78.0623 63.5425C78.2411 63.2439 78.2941 62.8865 78.2094 62.5489C78.1248 62.2112 77.9096 61.921 77.6111 61.742Z" fill="white"/>
<path d="M72.0039 16.5008C72.2311 16.7628 72.552 16.9254 72.8976 16.9539C73.2433 16.9823 73.5864 16.8743 73.8534 16.653C73.985 16.5416 74.0933 16.4054 74.1721 16.2521C74.251 16.0988 74.2989 15.9315 74.313 15.7597C74.3272 15.5879 74.3074 15.415 74.2547 15.2509C74.202 15.0867 74.1175 14.9346 74.006 14.8031C73.8579 14.6285 73.7079 14.4551 73.5561 14.2831C73.326 14.0223 73.0018 13.8635 72.6547 13.8416C72.3076 13.8197 71.966 13.9365 71.705 14.1663C71.4439 14.3961 71.2848 14.7201 71.2625 15.0672C71.2402 15.4142 71.3565 15.7559 71.586 16.0173C71.7264 16.1772 71.8657 16.3384 72.0039 16.5008Z" fill="white"/>
<path d="M78.3493 20.9442C78.2346 20.7469 78.1186 20.5504 78.0013 20.3549C77.8215 20.0568 77.5306 19.8423 77.1926 19.7587C76.8546 19.675 76.4973 19.7291 76.1992 19.9089C75.901 20.0887 75.6866 20.3796 75.6029 20.7176C75.5193 21.0555 75.5733 21.4129 75.7531 21.711C75.864 21.8936 75.9728 22.0773 76.0793 22.2619C76.2566 22.5601 76.5438 22.7769 76.8791 22.8659C77.2144 22.9549 77.5713 22.909 77.8731 22.738C78.0222 22.6515 78.1527 22.5364 78.2573 22.3995C78.362 22.2625 78.4386 22.1063 78.4828 21.9397C78.527 21.7731 78.538 21.5995 78.5151 21.4287C78.4922 21.2579 78.4358 21.0932 78.3493 20.9442Z" fill="white"/>
<path d="M0.171275 45.8238C0.183423 45.9966 0.230365 46.1653 0.309286 46.3196C0.388207 46.4739 0.49748 46.6107 0.630553 46.7218C0.763626 46.8328 0.917756 46.9158 1.0837 46.9659C1.24964 47.0159 1.42398 47.0319 1.59626 47.0129C1.76792 46.9974 1.93485 46.9483 2.08752 46.8683C2.2402 46.7884 2.37561 46.6791 2.48604 46.5468C2.59647 46.4144 2.67974 46.2616 2.7311 46.0971C2.78247 45.9326 2.80091 45.7596 2.78538 45.5879C2.76615 45.3748 2.74863 45.1613 2.73282 44.9473C2.70715 44.6002 2.54463 44.2774 2.28101 44.0501C2.01738 43.8228 1.67425 43.7095 1.32709 43.7351C0.979938 43.7608 0.657195 43.9233 0.429865 44.187C0.202534 44.4506 0.0892393 44.7937 0.114903 45.1409C0.131834 45.369 0.157821 45.5962 0.171275 45.8238Z" fill="white"/>
<path d="M47.3121 81.02C47.1 81.0485 46.8874 81.0753 46.6744 81.1004C46.3421 81.1396 46.0373 81.3043 45.8223 81.5607C45.6074 81.8171 45.4984 82.146 45.5178 82.48C45.5372 82.8141 45.6835 83.1281 45.9267 83.3579C46.1699 83.5877 46.4917 83.716 46.8263 83.7165C46.8782 83.7165 47.4358 83.6517 47.662 83.6213C47.8328 83.5983 47.9974 83.5419 48.1464 83.4554C48.2954 83.3688 48.4259 83.2537 48.5304 83.1166C48.635 82.9796 48.7115 82.8234 48.7556 82.6568C48.7997 82.4902 48.8106 82.3165 48.7877 82.1457C48.7647 81.9749 48.7083 81.8103 48.6217 81.6613C48.5351 81.5123 48.42 81.3818 48.283 81.2773C48.146 81.1727 47.9897 81.0962 47.8231 81.0521C47.6565 81.0079 47.4829 80.997 47.3121 81.02Z" fill="white"/>
<path d="M40.2611 81.3376C40.0467 81.3282 39.8328 81.3171 39.6193 81.3042C39.4472 81.2939 39.2748 81.3177 39.1119 81.374C38.949 81.4304 38.7988 81.5183 38.6699 81.6327C38.4095 81.8638 38.2516 82.1888 38.2308 82.5363C38.2101 82.8838 38.3283 83.2253 38.5593 83.4857C38.7904 83.7461 39.1154 83.904 39.4629 83.9248C39.6905 83.9382 40.1858 83.9612 40.205 83.9612C40.5481 83.961 40.8774 83.8264 41.1224 83.5863C41.3674 83.3463 41.5088 83.0198 41.5161 82.6768C41.5234 82.3339 41.3962 82.0017 41.1616 81.7513C40.9271 81.501 40.6038 81.3525 40.2611 81.3376Z" fill="white"/>
<path d="M33.2681 80.4037C33.0586 80.356 32.8496 80.3069 32.6411 80.2563C32.3032 80.175 31.9467 80.231 31.6501 80.4121C31.3534 80.5932 31.1407 80.8846 31.0586 81.2224C30.9765 81.5602 31.0318 81.9167 31.2123 82.2138C31.3928 82.5108 31.6837 82.7242 32.0213 82.807C32.2428 82.8608 32.4646 82.913 32.6869 82.9633C32.855 83.0017 33.0291 83.0065 33.1991 82.9776C33.3691 82.9486 33.5317 82.8865 33.6777 82.7946C33.8237 82.7028 33.9501 82.5831 34.0498 82.4423C34.1495 82.3016 34.2204 82.1426 34.2586 81.9744C34.2968 81.8062 34.3015 81.6322 34.2723 81.4622C34.2432 81.2922 34.1809 81.1297 34.0889 80.9838C33.9969 80.8379 33.8771 80.7116 33.7363 80.6121C33.5954 80.5125 33.4364 80.4417 33.2681 80.4037Z" fill="white"/>
<path d="M26.5532 78.2296C26.3559 78.1453 26.159 78.0593 25.9626 77.9717C25.8052 77.9014 25.6355 77.8629 25.4632 77.8583C25.2909 77.8536 25.1193 77.883 24.9584 77.9446C24.7974 78.0063 24.6501 78.099 24.525 78.2176C24.3999 78.3362 24.2993 78.4782 24.2291 78.6356C24.1589 78.793 24.1204 78.9628 24.1157 79.1351C24.1111 79.3074 24.1404 79.4789 24.2021 79.6399C24.2637 79.8009 24.3565 79.9481 24.475 80.0732C24.5936 80.1984 24.7356 80.2989 24.8931 80.3691C25.102 80.4624 25.3117 80.5539 25.5223 80.6437C25.8425 80.7804 26.2038 80.7843 26.5268 80.6546C26.8499 80.5249 27.1081 80.2722 27.2448 79.9521C27.3815 79.6319 27.3855 79.2706 27.2557 78.9476C27.126 78.6245 26.8733 78.3663 26.5532 78.2296Z" fill="white"/>
<path d="M66.5566 72.7812C66.39 72.9149 66.2221 73.047 66.053 73.1776C65.7775 73.3904 65.5979 73.7039 65.5536 74.0491C65.5094 74.3944 65.604 74.7431 65.8168 75.0185C66.0296 75.2939 66.3431 75.4735 66.6884 75.5178C67.0336 75.5621 67.3823 75.4674 67.6577 75.2546C67.8384 75.1149 68.0179 74.9741 68.196 74.832C68.4672 74.6144 68.6409 74.298 68.6791 73.9524C68.7173 73.6068 68.6168 73.2602 68.3997 72.9886C68.1826 72.717 67.8666 72.5426 67.5211 72.5037C67.1755 72.4648 66.8287 72.5647 66.5566 72.7812Z" fill="white"/>
<path d="M20.3354 74.8845C20.1563 74.7663 19.978 74.6465 19.8006 74.5253C19.6583 74.4281 19.4983 74.3599 19.3296 74.3245C19.1609 74.2892 18.9869 74.2874 18.8175 74.3193C18.6482 74.3512 18.4867 74.4161 18.3425 74.5104C18.1982 74.6047 18.0739 74.7265 17.9767 74.8688C17.8795 75.0111 17.8113 75.1712 17.7759 75.3398C17.7406 75.5085 17.7388 75.6825 17.7707 75.8519C17.8026 76.0212 17.8676 76.1827 17.9618 76.3269C18.0561 76.4712 18.1779 76.5955 18.3202 76.6927C18.5086 76.8215 18.6982 76.949 18.889 77.075C19.1805 77.2634 19.5342 77.3299 19.8742 77.2604C20.2142 77.1908 20.5133 76.9907 20.7074 76.703C20.8025 76.5592 20.8682 76.3981 20.9009 76.2288C20.9336 76.0596 20.9327 75.8856 20.8982 75.7167C20.8636 75.5478 20.7961 75.3874 20.6996 75.2446C20.603 75.1018 20.4793 74.9795 20.3354 74.8845Z" fill="white"/>
<path d="M73.5075 67.7774C73.245 67.5489 72.9027 67.4338 72.5555 67.4574C72.2083 67.4809 71.8846 67.6412 71.6554 67.903C71.515 68.0638 71.3732 68.2235 71.2298 68.3821C71.1142 68.5099 71.0249 68.6592 70.9669 68.8216C70.909 68.984 70.8836 69.1562 70.8923 69.3283C70.9009 69.5005 70.9434 69.6693 71.0172 69.825C71.0911 69.9808 71.1949 70.1205 71.3228 70.2361C71.5825 70.4663 71.9221 70.5855 72.2687 70.5681C72.6154 70.5507 72.9414 70.3982 73.1768 70.1432C73.3306 69.973 73.4827 69.8018 73.6331 69.6295C73.862 69.3673 73.9774 69.0248 73.9539 68.6774C73.9303 68.3301 73.7697 68.0063 73.5075 67.7774Z" fill="white"/>
<path d="M54.1911 79.4518C53.9873 79.5178 53.7831 79.5823 53.5785 79.6454C53.4136 79.6958 53.2603 79.7782 53.1274 79.888C52.9944 79.9977 52.8844 80.1325 52.8035 80.2848C52.7227 80.4371 52.6727 80.6038 52.6563 80.7754C52.64 80.947 52.6576 81.1202 52.7082 81.285C52.8139 81.6152 53.0446 81.891 53.3508 82.0535C53.6571 82.216 54.0147 82.2524 54.3475 82.155C54.5667 82.0876 54.7846 82.0189 55.0012 81.9486C55.166 81.8961 55.3189 81.8116 55.4509 81.6999C55.583 81.5882 55.6917 81.4514 55.7707 81.2976C55.8497 81.1437 55.8976 80.9757 55.9115 80.8033C55.9254 80.6308 55.905 80.4574 55.8516 80.2928C55.7983 80.1283 55.7129 79.9759 55.6004 79.8445C55.4879 79.7131 55.3506 79.6052 55.1962 79.527C55.0419 79.4488 54.8737 79.402 54.7012 79.389C54.5287 79.3761 54.3553 79.3974 54.1911 79.4518Z" fill="white"/>
<path d="M60.6738 76.6742C60.4854 76.7762 60.2962 76.8766 60.1061 76.9755C59.9532 77.0551 59.8176 77.1641 59.7069 77.2962C59.5962 77.4283 59.5126 77.5809 59.4609 77.7453C59.4092 77.9097 59.3903 78.0827 59.4055 78.2544C59.4206 78.4261 59.4694 78.5931 59.5491 78.7459C59.7127 79.0519 59.9898 79.2816 60.3208 79.3858C60.6518 79.4899 61.0105 79.4603 61.3198 79.3031C61.5204 79.1983 61.7208 79.0921 61.921 78.9846C62.2273 78.8192 62.4554 78.5389 62.5551 78.2053C62.6548 77.8717 62.6179 77.5122 62.4525 77.2059C62.2871 76.8995 62.0068 76.6714 61.6733 76.5717C61.3397 76.472 60.9802 76.5089 60.6738 76.6742Z" fill="white"/>
<path d="M1.51802 53.2293C1.61478 53.5623 1.83776 53.8443 2.13943 54.0153C2.4411 54.1862 2.79761 54.2326 3.13298 54.1445C3.4685 54.0517 3.75341 53.8294 3.92503 53.5265C4.09665 53.2237 4.14093 52.865 4.04812 52.5295C3.9911 52.3235 3.93578 52.1169 3.88217 51.9098C3.79514 51.5728 3.57779 51.2841 3.27793 51.1073C2.97807 50.9305 2.62026 50.8801 2.28321 50.9671C1.94617 51.0541 1.6575 51.2715 1.48071 51.5713C1.30392 51.8712 1.25348 52.229 1.34051 52.566C1.39786 52.7881 1.45703 53.0092 1.51802 53.2293Z" fill="white"/>
<path d="M0.225102 37.619C0.201412 37.8459 0.187302 38.0741 0.15974 38.3013C0.130921 38.5723 0.186762 38.8456 0.319587 39.0836C0.452412 39.3216 0.6557 39.5126 0.901502 39.6304C1.1473 39.7482 1.42355 39.7869 1.69227 39.7413C1.96098 39.6957 2.20897 39.568 2.40215 39.3757C2.62275 39.1464 2.75491 38.8463 2.77516 38.5287C2.78251 38.3144 2.81427 38.1022 2.83606 37.8895C2.87192 37.5432 2.76877 37.1969 2.54931 36.9267C2.32984 36.6566 2.01204 36.4846 1.6658 36.4488C1.31957 36.4129 0.973266 36.516 0.703083 36.7355C0.4329 36.955 0.260965 37.2728 0.225102 37.619Z" fill="white"/>
<path d="M14.3548 70.0374C14.1069 69.793 13.7721 69.6572 13.424 69.6597C13.0759 69.6622 12.7431 69.8029 12.4988 70.0508C12.2545 70.2987 12.1186 70.6335 12.1211 70.9816C12.1237 71.3297 12.2643 71.6625 12.5122 71.9068C12.6741 72.0667 12.8376 72.2254 13.0029 72.383C13.255 72.621 13.591 72.7495 13.9376 72.7406C14.2841 72.7317 14.6131 72.5861 14.8527 72.3354C15.0922 72.0848 15.2228 71.7496 15.2161 71.403C15.2093 71.0563 15.0657 70.7265 14.8165 70.4854C14.6614 70.3373 14.5075 70.188 14.3548 70.0374Z" fill="white"/>
<path d="M2.40464 32.5042C2.74039 32.5926 3.09742 32.5456 3.39887 32.3733C3.70032 32.2011 3.9221 31.9174 4.01646 31.5833C4.07251 31.3772 4.1305 31.1718 4.19043 30.9671C4.23901 30.8015 4.25448 30.628 4.23596 30.4565C4.21743 30.285 4.16527 30.1188 4.08247 29.9675C3.99966 29.8161 3.88783 29.6826 3.75338 29.5745C3.61892 29.4664 3.46447 29.3859 3.29887 29.3375C3.13326 29.2892 2.95975 29.2739 2.78826 29.2927C2.61676 29.3115 2.45065 29.3638 2.29941 29.4469C2.14818 29.5299 2.0148 29.6419 1.9069 29.7765C1.79899 29.9111 1.71868 30.0657 1.67056 30.2313C1.60644 30.4505 1.54417 30.6709 1.48373 30.8924C1.39217 31.2282 1.43775 31.5867 1.61044 31.889C1.78314 32.1912 2.06881 32.4125 2.40464 32.5042Z" fill="white"/>
<path d="M4.1725 60.2725C4.32729 60.583 4.59744 60.8205 4.92515 60.9343C5.25285 61.048 5.61207 61.029 5.92594 60.8813C6.08105 60.8062 6.21984 60.7012 6.33439 60.5724C6.44893 60.4436 6.53699 60.2935 6.59352 60.1307C6.65005 59.9679 6.67396 59.7955 6.66388 59.6234C6.65379 59.4514 6.60991 59.283 6.53474 59.1279C6.44181 58.9363 6.35071 58.744 6.26142 58.5511C6.11516 58.2352 5.8494 57.9904 5.52261 57.8704C5.19582 57.7505 4.83476 57.7653 4.51887 57.9115C4.20298 58.0578 3.95813 58.3235 3.83819 58.6503C3.71824 58.9771 3.73303 59.3382 3.87929 59.6541C3.9751 59.861 4.07284 60.0672 4.1725 60.2725Z" fill="white"/>
<path d="M6.18517 22.6332C6.0311 22.556 5.8633 22.5098 5.69138 22.4974C5.51945 22.485 5.34677 22.5066 5.18321 22.561C5.01965 22.6154 4.86841 22.7015 4.73815 22.8144C4.60789 22.9273 4.50116 23.0648 4.42406 23.2189C4.32156 23.4238 4.22063 23.6293 4.12127 23.8355C3.97081 24.1492 3.95106 24.5098 4.06634 24.8381C4.18163 25.1664 4.42252 25.4354 4.73609 25.5862C5.04966 25.737 5.41026 25.7571 5.73864 25.6421C6.06702 25.5271 6.33633 25.2865 6.48738 24.973C6.5803 24.7795 6.67482 24.5866 6.77094 24.3944C6.84815 24.2403 6.89423 24.0725 6.90658 23.9006C6.91892 23.7287 6.89727 23.556 6.84288 23.3925C6.78848 23.2289 6.7024 23.0777 6.58955 22.9474C6.4767 22.8172 6.33929 22.7104 6.18517 22.6332Z" fill="white"/>
<path d="M9.87758 67.0099C10.1537 66.801 10.3379 66.4931 10.3916 66.151C10.4452 65.8089 10.364 65.4594 10.165 65.176C10.0388 65.003 9.91389 64.8289 9.79043 64.6537C9.58948 64.3698 9.28406 64.1772 8.94125 64.1183C8.59843 64.0594 8.24625 64.139 7.96206 64.3396C7.67786 64.5401 7.48489 64.8453 7.42552 65.188C7.36615 65.5307 7.44523 65.883 7.64541 66.1675C7.77679 66.3537 7.90883 66.5395 8.04369 66.7225C8.26341 66.9834 8.56996 67.1561 8.90692 67.2089C9.24388 67.2617 9.58857 67.1911 9.87758 67.0099Z" fill="white"/>
<path d="M75.1411 10.4583L78.7037 9.53737C78.9761 9.46696 79.2187 9.31087 79.3956 9.09211C79.5726 8.87336 79.6745 8.60353 79.6864 8.32243C79.6984 8.04132 79.6196 7.76383 79.4618 7.53088C79.304 7.29794 79.0756 7.12187 78.8101 7.02865L83.614 2.24235C83.8607 1.99658 83.9996 1.6629 84.0002 1.31472C84.0008 0.966542 83.863 0.632384 83.6173 0.385757C83.3715 0.139131 83.0378 0.000238818 82.6896 -0.000364239C82.3414 -0.000967296 82.0073 0.136768 81.7607 0.382542L76.9926 5.13331C76.886 4.88372 76.7044 4.67348 76.473 4.53175C76.2415 4.39002 75.9717 4.32383 75.701 4.34236C75.4302 4.36088 75.1719 4.4632 74.962 4.63513C74.752 4.80706 74.6007 5.04007 74.5291 5.30185L73.5479 8.83622C73.4862 9.05825 73.4841 9.29261 73.5417 9.51573C73.5993 9.73885 73.7147 9.94287 73.8762 10.1073C74.0376 10.2717 74.2396 10.3907 74.4616 10.4523C74.6837 10.5139 74.918 10.516 75.1411 10.4583V10.4583Z" fill="#FF7152"/>
<path d="M5.18984 7.02915C4.92435 7.12236 4.69586 7.29845 4.53807 7.53142C4.38028 7.7644 4.30156 8.04192 4.31352 8.32305C4.32547 8.60417 4.42748 8.87401 4.60448 9.09274C4.78148 9.31147 5.0241 9.46752 5.29655 9.53786L8.85913 10.4588C9.08222 10.5164 9.31655 10.5143 9.53857 10.4526C9.76058 10.391 9.96246 10.272 10.1239 10.1076C10.2854 9.94323 10.4007 9.73924 10.4584 9.51616C10.516 9.29307 10.5139 9.05874 10.4523 8.83672L9.47115 5.30235C9.39954 5.04052 9.24823 4.80748 9.0382 4.63553C8.82816 4.46359 8.56982 4.36127 8.29901 4.34278C8.0282 4.32429 7.75835 4.39054 7.5269 4.53234C7.29544 4.67414 7.11385 4.88446 7.00732 5.13412L2.23895 0.383042C2.11683 0.261391 1.97195 0.164983 1.81257 0.0993239C1.65319 0.0336646 1.48245 3.95355e-05 1.31008 0.000368603C0.961959 0.00103318 0.628363 0.13996 0.382676 0.386586C0.13699 0.633213 -0.000662187 0.967336 2.3953e-06 1.31545C0.000666977 1.66357 0.139594 1.99717 0.38622 2.24285L5.18984 7.02915Z" fill="#FF7152"/>
<path d="M78.8101 76.9713C79.0756 76.8781 79.304 76.702 79.4618 76.4691C79.6196 76.2361 79.6983 75.9586 79.6864 75.6775C79.6745 75.3964 79.5726 75.1266 79.3956 74.9078C79.2187 74.6891 78.9761 74.533 78.7037 74.4626L75.1411 73.5417C74.918 73.484 74.6837 73.4861 74.4616 73.5477C74.2396 73.6093 74.0376 73.7283 73.8762 73.8927C73.7147 74.0571 73.5993 74.2611 73.5417 74.4842C73.4841 74.7073 73.4862 74.9417 73.5479 75.1637L74.5291 78.6981C74.6007 78.9599 74.752 79.1929 74.962 79.3648C75.1719 79.5367 75.4302 79.6391 75.701 79.6576C75.9717 79.6761 76.2416 79.6099 76.473 79.4682C76.7044 79.3264 76.886 79.1162 76.9926 78.8666L81.7607 83.6174C82.0074 83.8627 82.3414 84.0001 82.6893 83.9993C83.0372 83.9985 83.3706 83.8596 83.6162 83.6132C83.8618 83.3667 83.9995 83.0328 83.9991 82.6849C83.9987 82.337 83.8602 82.0034 83.614 81.7576L78.8101 76.9713Z" fill="#FF7152"/>
<path d="M8.8592 73.5413L5.29661 74.4623C5.02417 74.5326 4.78155 74.6886 4.60455 74.9074C4.42755 75.1261 4.32554 75.3959 4.31359 75.6771C4.30163 75.9582 4.38035 76.2357 4.53814 76.4687C4.69592 76.7017 4.92442 76.8777 5.18991 76.971L0.38629 81.7573C0.140488 82.0031 0.00226479 82.3365 0.00195365 82.6841C0.00164251 83.0318 0.139269 83.3654 0.38463 83.6117C0.629992 83.858 0.963045 83.9969 1.3107 83.9979C1.65836 83.9989 1.99222 83.8619 2.23901 83.6171L7.00739 78.866C7.11393 79.1157 7.29552 79.326 7.52698 79.4678C7.75844 79.6096 8.02829 79.6758 8.29909 79.6573C8.5699 79.6388 8.82823 79.5365 9.03827 79.3646C9.2483 79.1926 9.39961 78.9596 9.47122 78.6978L10.4524 75.1634C10.514 74.9414 10.5161 74.707 10.4584 74.484C10.4008 74.2609 10.2854 74.0569 10.124 73.8925C9.96253 73.7281 9.76065 73.6091 9.53864 73.5475C9.31662 73.4858 9.08229 73.4837 8.8592 73.5413Z" fill="#FF7152"/>
</g>
<defs>
<clipPath id="clip0">
<rect width="84" height="84" fill="white"/>
</clipPath>
</defs>
</svg>
