<svg width="88" height="88" viewBox="0 0 88 88" fill="none" xmlns="http://www.w3.org/2000/svg">
<path d="M44 86C67.196 86 86 67.196 86 44C86 20.804 67.196 2 44 2C20.804 2 2 20.804 2 44C2 67.196 20.804 86 44 86Z" stroke="white" stroke-width="4" stroke-linecap="round" stroke-linejoin="round"/>
<path d="M44.0007 48.6666C46.578 48.6666 48.6673 46.5772 48.6673 43.9999C48.6673 41.4226 46.578 39.3333 44.0007 39.3333C41.4233 39.3333 39.334 41.4226 39.334 43.9999C39.334 46.5772 41.4233 48.6666 44.0007 48.6666Z" stroke="white" stroke-width="4" stroke-linecap="round" stroke-linejoin="round"/>
<path d="M50.5801 37.4199L62.6667 25.3333" stroke="white" stroke-width="4" stroke-linecap="round" stroke-linejoin="round"/>
<path d="M20.666 44.0001C20.666 37.8117 23.1243 31.8768 27.5002 27.5009C31.876 23.1251 37.811 20.6667 43.9994 20.6667" stroke="#FF7152" stroke-width="4" stroke-linecap="round" stroke-linejoin="round"/>
</svg>
