<svg width="84" height="84" viewBox="0 0 84 84" fill="none" xmlns="http://www.w3.org/2000/svg">
<g clip-path="url(#clip0)">
<path d="M82.3594 60.2445H78.1269V13.9706C78.1269 11.2042 75.8763 8.95361 73.1099 8.95361H10.8901C8.12372 8.95361 5.87311 11.2042 5.87311 13.9706V60.2445H1.64062C0.734508 60.2445 0 60.979 0 61.8851V69.8344C0 72.7085 2.33822 75.0467 5.21227 75.0467H78.7877C81.6618 75.0467 84 72.7085 84 69.8344V61.8851C84 60.979 83.2653 60.2445 82.3594 60.2445ZM9.15436 13.9706C9.15436 13.0135 9.933 12.2349 10.8901 12.2349H73.1099C74.067 12.2349 74.8456 13.0135 74.8456 13.9706V60.2445H55.7266C52.8869 60.2445 50.4883 62.1697 49.768 64.7836H34.2321C33.5116 62.1697 31.1131 60.2445 28.2734 60.2445H9.15436V13.9706ZM80.7188 69.8343C80.7188 70.899 79.8525 71.7653 78.7877 71.7653H5.21227C4.1475 71.7653 3.28125 70.899 3.28125 69.8343V63.5256H28.2734C29.8717 63.5256 31.1719 64.8258 31.1719 66.424C31.1719 67.3302 31.9064 68.0647 32.8125 68.0647H51.1875C52.0935 68.0647 52.8281 67.3302 52.8281 66.424C52.8281 64.8258 54.1285 63.5256 55.7266 63.5256H80.7188V69.8343Z" fill="white"/>
<path d="M37.9749 46.4333V35.6999H33.1636C32.8983 35.6999 32.639 35.6212 32.4184 35.4737C32.1978 35.3263 32.0259 35.1168 31.9244 34.8717C31.8229 34.6265 31.7963 34.3568 31.848 34.0966C31.8998 33.8364 32.0275 33.5973 32.2151 33.4097L41.0513 24.5735C41.3029 24.322 41.6441 24.1807 41.9999 24.1807C42.3556 24.1807 42.6968 24.322 42.9484 24.5735L51.7846 33.4097C51.9722 33.5973 52.0999 33.8364 52.1517 34.0966C52.2034 34.3568 52.1769 34.6265 52.0753 34.8717C51.9738 35.1168 51.8019 35.3263 51.5813 35.4737C51.3607 35.6212 51.1014 35.6999 50.8361 35.6999H46.0249V46.4333C46.0249 46.7891 45.8835 47.1304 45.6319 47.382C45.3803 47.6336 45.039 47.7749 44.6832 47.7749H39.3165C38.9607 47.7749 38.6194 47.6336 38.3678 47.382C38.1162 47.1304 37.9749 46.7891 37.9749 46.4333V46.4333Z" stroke="#FF7152" stroke-width="2.5" stroke-linecap="round" stroke-linejoin="round"/>
</g>
<defs>
<clipPath id="clip0">
<rect width="84" height="84" fill="white"/>
</clipPath>
</defs>
</svg>
