<svg width="82" height="82" viewBox="0 0 82 82" fill="none" xmlns="http://www.w3.org/2000/svg">
<path d="M47.5625 59.375C47.5625 58.0771 47.1776 56.8083 46.4565 55.7291C45.7354 54.6499 44.7105 53.8087 43.5114 53.312C42.3122 52.8153 40.9927 52.6854 39.7197 52.9386C38.4467 53.1918 37.2774 53.8168 36.3596 54.7346C35.4418 55.6524 34.8168 56.8217 34.5636 58.0947C34.3104 59.3677 34.4403 60.6872 34.937 61.8864C35.4337 63.0855 36.2749 64.1104 37.3541 64.8315C38.4333 65.5526 39.7021 65.9375 41 65.9375C42.7399 65.9356 44.4079 65.2435 45.6382 64.0132C46.8685 62.783 47.5605 61.1149 47.5625 59.375ZM41 63.3125C40.2212 63.3125 39.46 63.0816 38.8124 62.6489C38.1649 62.2163 37.6602 61.6013 37.3622 60.8818C37.0642 60.1623 36.9862 59.3706 37.1382 58.6068C37.2901 57.843 37.6651 57.1414 38.2158 56.5908C38.7664 56.0401 39.468 55.6651 40.2318 55.5132C40.9956 55.3612 41.7873 55.4392 42.5068 55.7372C43.2263 56.0353 43.8413 56.5399 44.2739 57.1874C44.7066 57.835 44.9375 58.5962 44.9375 59.375C44.9363 60.4189 44.5211 61.4197 43.7829 62.1579C43.0447 62.8961 42.0439 63.3113 41 63.3125Z" fill="white"/>
<path d="M46.5781 65.9375H35.4219C33.769 65.9394 32.1843 66.5968 31.0156 67.7656C29.8468 68.9343 29.1894 70.519 29.1875 72.1719V80.375C29.1875 80.7231 29.3258 81.0569 29.5719 81.3031C29.8181 81.5492 30.1519 81.6875 30.5 81.6875H51.5C51.8481 81.6875 52.1819 81.5492 52.4281 81.3031C52.6742 81.0569 52.8125 80.7231 52.8125 80.375V72.1719C52.8106 70.519 52.1532 68.9343 50.9844 67.7656C49.8157 66.5968 48.231 65.9394 46.5781 65.9375ZM50.1875 79.0625H47.5625V73.8125C47.5625 73.4644 47.4242 73.1306 47.1781 72.8844C46.9319 72.6383 46.5981 72.5 46.25 72.5C45.9019 72.5 45.5681 72.6383 45.3219 72.8844C45.0758 73.1306 44.9375 73.4644 44.9375 73.8125V79.0625H37.0625V73.8125C37.0625 73.4644 36.9242 73.1306 36.6781 72.8844C36.4319 72.6383 36.0981 72.5 35.75 72.5C35.4019 72.5 35.0681 72.6383 34.8219 72.8844C34.5758 73.1306 34.4375 73.4644 34.4375 73.8125V79.0625H31.8125V72.1719C31.8136 71.2149 32.1942 70.2975 32.8709 69.6209C33.5475 68.9442 34.4649 68.5636 35.4219 68.5625H46.5781C47.5351 68.5636 48.4525 68.9442 49.1291 69.6209C49.8058 70.2975 50.1864 71.2149 50.1875 72.1719V79.0625Z" fill="white"/>
<path d="M47.5625 6.875C47.5625 5.57706 47.1776 4.30827 46.4565 3.22907C45.7354 2.14988 44.7105 1.30874 43.5114 0.812044C42.3122 0.315343 40.9927 0.185384 39.7197 0.4386C38.4467 0.691815 37.2774 1.31683 36.3596 2.23461C35.4418 3.1524 34.8168 4.32172 34.5636 5.59472C34.3104 6.86772 34.4403 8.18722 34.937 9.38636C35.4337 10.5855 36.2749 11.6104 37.3541 12.3315C38.4333 13.0526 39.7021 13.4375 41 13.4375C42.7399 13.4355 44.4079 12.7435 45.6382 11.5132C46.8685 10.2829 47.5605 8.61489 47.5625 6.875ZM41 10.8125C40.2212 10.8125 39.46 10.5816 38.8124 10.1489C38.1649 9.71626 37.6602 9.1013 37.3622 8.38182C37.0642 7.66233 36.9862 6.87064 37.1382 6.10683C37.2901 5.34303 37.6651 4.64144 38.2158 4.09077C38.7664 3.5401 39.468 3.16509 40.2318 3.01316C40.9956 2.86123 41.7873 2.93921 42.5068 3.23723C43.2263 3.53525 43.8413 4.03993 44.2739 4.68744C44.7066 5.33496 44.9375 6.09624 44.9375 6.875C44.9363 7.91892 44.5211 8.91973 43.7829 9.65789C43.0447 10.3961 42.0439 10.8113 41 10.8125Z" fill="white"/>
<path d="M46.5781 13.4375H35.4219C33.769 13.4394 32.1843 14.0968 31.0156 15.2656C29.8468 16.4343 29.1894 18.019 29.1875 19.6719V27.875C29.1875 28.2231 29.3258 28.5569 29.5719 28.8031C29.8181 29.0492 30.1519 29.1875 30.5 29.1875H51.5C51.8481 29.1875 52.1819 29.0492 52.4281 28.8031C52.6742 28.5569 52.8125 28.2231 52.8125 27.875V19.6719C52.8106 18.019 52.1532 16.4343 50.9844 15.2656C49.8157 14.0968 48.231 13.4394 46.5781 13.4375ZM50.1875 26.5625H47.5625V21.3125C47.5625 20.9644 47.4242 20.6306 47.1781 20.3844C46.9319 20.1383 46.5981 20 46.25 20C45.9019 20 45.5681 20.1383 45.3219 20.3844C45.0758 20.6306 44.9375 20.9644 44.9375 21.3125V26.5625H37.0625V21.3125C37.0625 20.9644 36.9242 20.6306 36.6781 20.3844C36.4319 20.1383 36.0981 20 35.75 20C35.4019 20 35.0681 20.1383 34.8219 20.3844C34.5758 20.6306 34.4375 20.9644 34.4375 21.3125V26.5625H31.8125V19.6719C31.8136 18.7149 32.1942 17.7975 32.8709 17.1209C33.5475 16.4442 34.4649 16.0636 35.4219 16.0625H46.5781C47.5351 16.0636 48.4525 16.4442 49.1291 17.1209C49.8058 17.7975 50.1864 18.7149 50.1875 19.6719V26.5625Z" fill="white"/>
<path d="M18.6875 33.125C18.6875 31.8271 18.3026 30.5583 17.5815 29.4791C16.8604 28.3999 15.8355 27.5587 14.6364 27.062C13.4372 26.5653 12.1177 26.4354 10.8447 26.6886C9.57172 26.9418 8.4024 27.5668 7.48461 28.4846C6.56683 29.4024 5.94182 30.5717 5.6886 31.8447C5.43538 33.1177 5.56534 34.4372 6.06204 35.6364C6.55874 36.8355 7.39988 37.8604 8.47907 38.5815C9.55827 39.3026 10.8271 39.6875 12.125 39.6875C13.8649 39.6855 15.5329 38.9935 16.7632 37.7632C17.9935 36.5329 18.6855 34.8649 18.6875 33.125ZM12.125 37.0625C11.3462 37.0625 10.585 36.8316 9.93744 36.3989C9.28993 35.9663 8.78525 35.3513 8.48723 34.6318C8.18921 33.9123 8.11123 33.1206 8.26316 32.3568C8.41509 31.593 8.7901 30.8914 9.34077 30.3408C9.89144 29.7901 10.593 29.4151 11.3568 29.2632C12.1206 29.1112 12.9123 29.1892 13.6318 29.4872C14.3513 29.7852 14.9663 30.2899 15.3989 30.9374C15.8316 31.585 16.0625 32.3462 16.0625 33.125C16.0613 34.1689 15.6461 35.1697 14.9079 35.9079C14.1697 36.646 13.1689 37.0613 12.125 37.0625Z" fill="white"/>
<path d="M22.625 55.4375C22.9731 55.4375 23.3069 55.2992 23.5531 55.0531C23.7992 54.8069 23.9375 54.4731 23.9375 54.125V45.9219C23.9356 44.269 23.2782 42.6843 22.1094 41.5156C20.9407 40.3468 19.356 39.6894 17.7031 39.6875H6.54688C4.89399 39.6894 3.30934 40.3468 2.14057 41.5156C0.971801 42.6843 0.314367 44.269 0.3125 45.9219V54.125C0.3125 54.4731 0.450781 54.8069 0.696922 55.0531C0.943064 55.2992 1.2769 55.4375 1.625 55.4375H22.625ZM2.9375 45.9219C2.93859 44.9649 3.31921 44.0475 3.99586 43.3709C4.67251 42.6942 5.58994 42.3136 6.54688 42.3125H17.7031C18.6601 42.3136 19.5775 42.6942 20.2541 43.3709C20.9308 44.0475 21.3114 44.9649 21.3125 45.9219V52.8125H18.6875V47.5625C18.6875 47.2144 18.5492 46.8806 18.3031 46.6344C18.0569 46.3883 17.7231 46.25 17.375 46.25C17.0269 46.25 16.6931 46.3883 16.4469 46.6344C16.2008 46.8806 16.0625 47.2144 16.0625 47.5625V52.8125H8.1875V47.5625C8.1875 47.2144 8.04922 46.8806 7.80308 46.6344C7.55694 46.3883 7.2231 46.25 6.875 46.25C6.5269 46.25 6.19306 46.3883 5.94692 46.6344C5.70078 46.8806 5.5625 47.2144 5.5625 47.5625V52.8125H2.9375V45.9219Z" fill="white"/>
<path d="M76.4375 33.125C76.4375 31.8271 76.0526 30.5583 75.3315 29.4791C74.6104 28.3999 73.5855 27.5587 72.3864 27.062C71.1872 26.5653 69.8677 26.4354 68.5947 26.6886C67.3217 26.9418 66.1524 27.5668 65.2346 28.4846C64.3168 29.4024 63.6918 30.5717 63.4386 31.8447C63.1854 33.1177 63.3153 34.4372 63.812 35.6364C64.3087 36.8355 65.1499 37.8604 66.2291 38.5815C67.3083 39.3026 68.5771 39.6875 69.875 39.6875C71.6149 39.6855 73.283 38.9935 74.5132 37.7632C75.7435 36.5329 76.4356 34.8649 76.4375 33.125ZM69.875 37.0625C69.0962 37.0625 68.335 36.8316 67.6874 36.3989C67.0399 35.9663 66.5353 35.3513 66.2372 34.6318C65.9392 33.9123 65.8612 33.1206 66.0132 32.3568C66.1651 31.593 66.5401 30.8914 67.0908 30.3408C67.6414 29.7901 68.343 29.4151 69.1068 29.2632C69.8706 29.1112 70.6623 29.1892 71.3818 29.4872C72.1013 29.7852 72.7163 30.2899 73.1489 30.9374C73.5816 31.585 73.8125 32.3462 73.8125 33.125C73.8113 34.1689 73.3961 35.1697 72.6579 35.9079C71.9197 36.646 70.9189 37.0613 69.875 37.0625Z" fill="white"/>
<path d="M75.4531 39.6875H64.2969C62.644 39.6894 61.0593 40.3468 59.8906 41.5156C58.7218 42.6843 58.0644 44.269 58.0625 45.9219V54.125C58.0625 54.4731 58.2008 54.8069 58.4469 55.0531C58.6931 55.2992 59.0269 55.4375 59.375 55.4375H80.375C80.7231 55.4375 81.0569 55.2992 81.3031 55.0531C81.5492 54.8069 81.6875 54.4731 81.6875 54.125V45.9219C81.6856 44.269 81.0282 42.6843 79.8594 41.5156C78.6907 40.3468 77.106 39.6894 75.4531 39.6875ZM79.0625 52.8125H76.4375V47.5625C76.4375 47.2144 76.2992 46.8806 76.0531 46.6344C75.8069 46.3883 75.4731 46.25 75.125 46.25C74.7769 46.25 74.4431 46.3883 74.1969 46.6344C73.9508 46.8806 73.8125 47.2144 73.8125 47.5625V52.8125H65.9375V47.5625C65.9375 47.2144 65.7992 46.8806 65.5531 46.6344C65.3069 46.3883 64.9731 46.25 64.625 46.25C64.2769 46.25 63.9431 46.3883 63.6969 46.6344C63.4508 46.8806 63.3125 47.2144 63.3125 47.5625V52.8125H60.6875V45.9219C60.6886 44.9649 61.0692 44.0475 61.7459 43.3709C62.4225 42.6942 63.3399 42.3136 64.2969 42.3125H75.4531C76.4101 42.3136 77.3275 42.6942 78.0041 43.3709C78.6808 44.0475 79.0614 44.9649 79.0625 45.9219V52.8125Z" fill="white"/>
<path d="M24.6216 67.9123C21.1984 65.8276 18.2044 63.109 15.8 59.9023C15.6964 59.7645 15.5667 59.6484 15.4183 59.5606C15.2699 59.4729 15.1057 59.4153 14.935 59.391C14.7643 59.3667 14.5906 59.3763 14.4236 59.4192C14.2566 59.4621 14.0997 59.5375 13.9619 59.641C13.824 59.7446 13.7079 59.8742 13.6202 60.0226C13.5325 60.1711 13.4748 60.3353 13.4506 60.506C13.4263 60.6766 13.4359 60.8504 13.4788 61.0174C13.5217 61.1844 13.5971 61.3413 13.7006 61.4791C16.3045 64.9518 19.5469 67.8958 23.254 70.1534C23.5512 70.3347 23.9082 70.3905 24.2465 70.3085C24.5848 70.2266 24.8767 70.0136 25.058 69.7164C25.2393 69.4192 25.2951 69.0622 25.2131 68.7238C25.1311 68.3855 24.9181 68.0936 24.6209 67.9123H24.6216Z" fill="#FF7152"/>
<path d="M68.0405 59.6376C67.7622 59.4285 67.4123 59.3386 67.0677 59.3876C66.7231 59.4365 66.4121 59.6203 66.203 59.8986C63.7982 63.1066 60.8034 65.8263 57.3791 67.9117C57.0819 68.093 56.8689 68.3849 56.7869 68.7232C56.7049 69.0615 56.7607 69.4186 56.942 69.7157C57.1233 70.0129 57.4152 70.2259 57.7535 70.3079C58.0918 70.3899 58.4488 70.3341 58.746 70.1528C62.4543 67.8944 65.6975 64.9492 68.3019 61.4752C68.4054 61.3374 68.4807 61.1805 68.5236 61.0136C68.5665 60.8467 68.576 60.6729 68.5518 60.5023C68.5275 60.3316 68.4699 60.1674 68.3821 60.0191C68.2944 59.8707 68.1783 59.7411 68.0405 59.6376Z" fill="#FF7152"/>
<path d="M52.34 11.6023C57.8539 13.733 62.6578 17.3709 66.2033 22.1008C66.4124 22.3792 66.7235 22.563 67.0681 22.612C67.4128 22.661 67.7628 22.571 68.0411 22.3619C68.3194 22.1529 68.5033 21.8418 68.5522 21.4972C68.6012 21.1525 68.5113 20.8025 68.3022 20.5242C64.4614 15.4013 59.258 11.4613 53.2855 9.15369C53.1242 9.08898 52.9517 9.05695 52.7779 9.05946C52.6041 9.06198 52.4326 9.09898 52.2732 9.16833C52.1138 9.23768 51.9698 9.33799 51.8495 9.46344C51.7292 9.58889 51.635 9.73698 51.5725 9.89912C51.5099 10.0613 51.4801 10.2342 51.4849 10.408C51.4897 10.5817 51.5289 10.7528 51.6003 10.9112C51.6717 11.0697 51.7739 11.2123 51.9009 11.331C52.028 11.4496 52.1773 11.5418 52.3402 11.6023H52.34Z" fill="#FF7152"/>
<path d="M13.9597 22.3625C14.238 22.5715 14.5879 22.6614 14.9325 22.6125C15.2771 22.5635 15.5881 22.3797 15.7972 22.1015C19.3428 17.3715 24.1466 13.7336 29.6605 11.6029C29.8234 11.5425 29.9728 11.4502 30.0998 11.3316C30.2268 11.2129 30.329 11.0703 30.4004 10.9118C30.4718 10.7534 30.5111 10.5823 30.5158 10.4086C30.5206 10.2348 30.4909 10.0619 30.4283 9.89973C30.3657 9.73759 30.2715 9.5895 30.1512 9.46405C30.0309 9.3386 29.8869 9.23829 29.7275 9.16894C29.5682 9.09959 29.3966 9.06259 29.2228 9.06007C29.049 9.05756 28.8765 9.08959 28.7152 9.1543C22.7427 11.462 17.5392 15.4021 13.6985 20.525C13.4895 20.8033 13.3996 21.1532 13.4486 21.4978C13.4976 21.8424 13.6814 22.1534 13.9597 22.3625Z" fill="#FF7152"/>
</svg>
