<svg width="88" height="88" viewBox="0 0 88 88" fill="none" xmlns="http://www.w3.org/2000/svg">
<path d="M44 20.6667V39.3334" stroke="white" stroke-width="4" stroke-linecap="round" stroke-linejoin="round"/>
<path d="M19.2676 71.0667L32.3343 61.7334" stroke="white" stroke-width="4" stroke-linecap="round" stroke-linejoin="round"/>
<path d="M68.7327 71.0667L55.666 61.7334" stroke="white" stroke-width="4" stroke-linecap="round" stroke-linejoin="round"/>
<path d="M43.9994 20.6667C49.154 20.6667 53.3327 16.488 53.3327 11.3333C53.3327 6.17868 49.154 2 43.9994 2C38.8447 2 34.666 6.17868 34.666 11.3333C34.666 16.488 38.8447 20.6667 43.9994 20.6667Z" stroke="white" stroke-width="4" stroke-linecap="round" stroke-linejoin="round"/>
<path d="M11.3333 85.9999C16.488 85.9999 20.6667 81.8213 20.6667 76.6666C20.6667 71.5119 16.488 67.3333 11.3333 67.3333C6.17868 67.3333 2 71.5119 2 76.6666C2 81.8213 6.17868 85.9999 11.3333 85.9999Z" stroke="white" stroke-width="4" stroke-linecap="round" stroke-linejoin="round"/>
<path d="M76.6673 85.9999C81.822 85.9999 86.0007 81.8213 86.0007 76.6666C86.0007 71.5119 81.822 67.3333 76.6673 67.3333C71.5127 67.3333 67.334 71.5119 67.334 76.6666C67.334 81.8213 71.5127 85.9999 76.6673 85.9999Z" stroke="white" stroke-width="4" stroke-linecap="round" stroke-linejoin="round"/>
<path d="M44 67.3333C51.732 67.3333 58 61.0653 58 53.3333C58 45.6013 51.732 39.3333 44 39.3333C36.268 39.3333 30 45.6013 30 53.3333C30 61.0653 36.268 67.3333 44 67.3333Z" stroke="#FF7152" stroke-width="4" stroke-linecap="round" stroke-linejoin="round"/>
</svg>
