<svg width="120" height="120" viewBox="0 0 120 120" fill="none" xmlns="http://www.w3.org/2000/svg">
<g clip-path="url(#clip0)">
<path d="M43.4141 76.5862C42.6341 75.804 41.3662 75.804 40.5862 76.5862L0.586402 116.586C-0.195467 117.368 -0.195467 118.632 0.586402 119.414C0.976399 119.804 1.4885 120 2.00037 120C2.51248 120 3.02435 119.804 3.41435 119.414L43.4141 79.4141C44.1962 78.6322 44.1962 77.3683 43.4141 76.5862Z" fill="white"/>
<path d="M41.9997 76.0001H17.9999C16.896 76.0001 16 76.8961 16 78C16 79.1039 16.896 79.9999 17.9999 79.9999H39.9998V104C39.9998 105.104 40.8958 106 41.9997 106C43.1036 106 43.9996 105.104 43.9996 104V78C43.9996 76.8961 43.1038 76.0001 41.9997 76.0001Z" fill="white"/>
<path d="M119.414 0.586883C118.634 -0.195221 117.366 -0.195221 116.586 0.586883L76.5866 40.5864C75.8045 41.3685 75.8045 42.6325 76.5866 43.4144C76.9766 43.8043 77.4887 44.0003 78.0005 44.0003C78.5127 44.0003 79.0245 43.8043 79.4145 43.4144L119.414 3.41483C120.196 2.63273 120.196 1.36875 119.414 0.586883Z" fill="white"/>
<path d="M102 40.0005H79.9998V16.0006C79.9998 14.8967 79.1038 14.0007 77.9999 14.0007C76.896 14.0007 76 14.8967 76 16.0006V42.0004C76 43.1043 76.896 44.0003 77.9999 44.0003H102C103.104 44.0003 104 43.1043 104 42.0004C104 40.8965 103.104 40.0005 102 40.0005Z" fill="white"/>
<path d="M59.9999 44.0005C51.1779 44.0005 44 51.1784 44 60.0004C44 68.8225 51.1779 76.0004 59.9999 76.0004C68.822 76.0004 75.9999 68.8225 75.9999 60.0004C75.9999 51.1784 68.822 44.0005 59.9999 44.0005ZM59.9999 72.0001C53.3841 72.0001 48 66.6182 48 60.0002C48 53.3822 53.3841 48.0003 59.9999 48.0003C66.6158 48.0003 71.9998 53.3822 71.9998 60.0002C71.9998 66.6182 66.6158 72.0001 59.9999 72.0001Z" fill="#FF7152"/>
<path d="M43.4139 40.5864L3.41435 0.586646C2.63435 -0.195223 1.3664 -0.195223 0.586402 0.586646C-0.195467 1.36875 -0.195467 2.63272 0.586402 3.41459L40.5862 43.4143C40.9762 43.8043 41.4883 44.0003 42.0001 44.0003C42.5122 44.0003 43.0241 43.8043 43.4141 43.4143C44.196 42.6325 44.196 41.3685 43.4139 40.5864Z" fill="white"/>
<path d="M41.9996 16.0006C40.8957 16.0006 39.9997 16.8966 39.9997 18.0005V40.0004H15.9999C14.896 40.0004 14 40.8964 14 42.0003C14 43.1042 14.896 44.0002 15.9999 44.0002H41.9996C43.1035 44.0002 43.9995 43.1042 43.9995 42.0003V18.0005C43.9995 16.8966 43.1037 16.0006 41.9996 16.0006Z" fill="white"/>
<path d="M119.414 116.586L79.4145 76.5862C78.6345 75.804 77.3666 75.804 76.5866 76.5862C75.8045 77.3683 75.8045 78.6322 76.5866 79.4141L116.586 119.414C116.976 119.804 117.488 120 118 120C118.512 120 119.024 119.804 119.414 119.414C120.196 118.632 120.196 117.368 119.414 116.586Z" fill="white"/>
<path d="M104 76.0001H77.9999C76.896 76.0001 76 76.8961 76 78V102C76 103.104 76.896 104 77.9999 104C79.1038 104 79.9998 103.104 79.9998 102V79.9999H104C105.104 79.9999 106 79.1039 106 78C106 76.8961 105.104 76.0001 104 76.0001Z" fill="white"/>
</g>
<defs>
<clipPath id="clip0">
<rect width="120" height="120" fill="white"/>
</clipPath>
</defs>
</svg>
