<svg width="120" height="120" viewBox="0 0 120 120" fill="none" xmlns="http://www.w3.org/2000/svg">
<path d="M65.3132 73.4082C63.792 71.8103 61.0431 71.8087 59.5195 73.4045L46.9897 86.0019C45.8499 87.1499 44.3115 87.6659 42.8064 87.5094C47.7986 83.2082 48.2668 79.4285 43.1177 74.9791C39.1271 71.3732 35.3186 73.7301 32.3701 77.2101C32.1238 75.5986 32.6278 73.9073 33.8297 72.6934L46.384 60.0736C47.9591 58.4903 47.9614 55.9096 46.3882 54.3202C43.7311 51.9699 40.0407 45.8758 36.0301 49.7132C25.4419 61.02 8.23036 71.6341 20.64 88.9398L11.784 97.7958C10.1525 99.384 12.6781 101.906 14.264 100.276L37.081 77.4586C38.017 76.4828 39.7017 76.4826 40.6374 77.4588C42.084 78.7951 44.4753 80.8906 42.489 82.8671L9.70872 115.648C7.73083 117.634 5.63648 115.242 4.30048 113.796C1.59766 111.192 6.97766 107.974 8.31272 106.227C9.94919 104.642 7.4153 102.116 5.83319 103.748C2.25083 107.198 -2.7287 111.198 1.82072 116.276C3.43201 117.965 5.3746 120.057 7.9306 119.891C11.6341 121.079 28.2873 101.128 30.9727 99.3435C48.121 111.761 58.7581 94.2539 69.8706 83.7607C73.6537 79.8343 67.6151 76.0402 65.3132 73.4082ZM24.4087 66.3786L38.517 52.1861C38.8395 51.9454 39.0122 51.9456 39.3346 52.1861L43.8972 56.7885C44.1198 57.0134 44.12 57.3776 43.8981 57.6009L31.341 70.2235C28.7607 72.8292 28.1097 76.7492 29.5732 80.0075L23.14 86.4407C18.5739 80.4795 19.0045 71.8252 24.4087 66.3786ZM67.3838 81.2887C57.8506 89.6802 48.1758 107.287 33.4708 96.8452L39.9617 90.3541C43.1579 91.6974 46.9699 90.9991 49.477 88.4741L62.0054 75.8779C62.3221 75.6334 62.5207 75.6421 62.8233 75.8779L67.3849 80.4795C67.6061 80.7026 67.6059 81.0654 67.3838 81.2887Z" fill="white"/>
<path d="M119.902 7.91974C120.06 5.37245 117.986 3.40986 116.286 1.80986C114.045 -0.526139 110.012 -0.526139 107.77 1.80986L88.9506 20.6296C71.6303 8.2181 61.0292 25.4397 49.723 36.0207C45.8887 40.02 51.9805 43.7292 54.332 46.379C55.9195 47.9506 58.5 47.9489 60.0842 46.3736L72.7012 33.8219C73.9169 32.6179 75.6087 32.1134 77.2207 32.3597C73.7395 35.3113 71.3838 39.1148 74.9894 43.1073C79.44 48.2586 83.2235 47.7845 87.5198 42.7962C87.676 44.3012 87.16 45.8395 86.0115 46.9802L73.4148 59.5092C69.58 63.5077 75.6687 67.2143 78.0202 69.864C79.6066 71.4381 82.1866 71.4362 83.7713 69.8605L97.9861 55.7299C102.663 51.0948 104.536 44.268 102.876 37.9134C102.631 36.9765 101.673 36.415 100.736 36.66C99.7995 36.9049 99.2384 37.863 99.4831 38.7997C103.478 50.1007 87.3946 60.2995 81.2988 67.3739C81.0758 67.5955 80.7129 67.5955 80.4896 67.3741L75.8892 62.8136C75.6527 62.5106 75.6438 62.3127 75.8882 61.9953L88.4838 49.4677C91.0094 46.9595 91.7078 43.1475 90.3647 39.9515C91.7939 37.5534 121.928 10.9047 119.902 7.91974ZM70.2311 31.3327L57.6113 43.887C57.388 44.1089 57.0235 44.1087 56.8 43.8873L52.1972 39.324C51.9562 39.0019 51.956 38.8289 52.196 38.5066L66.388 24.3988C71.8355 18.9932 80.4901 18.5628 86.4511 23.1289L80.0179 29.5621C76.7595 28.0983 72.8391 28.7499 70.2311 31.3327ZM115.658 9.6981L82.8774 42.479C82.4026 42.9541 81.7708 43.2157 81.0991 43.2157C79.6863 43.3753 78.3894 41.4129 77.4689 40.6273C76.4939 39.6908 76.4927 38.007 77.4692 37.0708L110.25 4.28986C111.186 3.3141 112.871 3.3141 113.806 4.28986C115.253 5.62586 117.644 7.72139 115.658 9.6981Z" fill="#FF7152"/>
<path d="M22.4113 42.6772L27.5341 44.6151C28.416 44.9558 29.4527 44.5104 29.7944 43.5955C30.137 42.6899 29.6805 41.6779 28.7748 41.3353L23.652 39.3974C21.5384 38.5612 20.2701 41.9033 22.4113 42.6772Z" fill="white"/>
<path d="M34.0727 34.4769C35.6379 36.1266 38.1958 33.6318 36.5816 32.0266C36.5819 32.0266 32.5979 27.9468 32.5979 27.9468C31.9214 27.2541 30.8113 27.2407 30.1181 27.9174C29.4254 28.5941 29.4122 29.7042 30.0887 30.3972L34.0727 34.4769Z" fill="white"/>
<path d="M43.7089 27.6964C44.2689 29.9138 47.7096 28.987 47.0997 26.8027L45.6816 21.4223C45.4348 20.4858 44.4757 19.9267 43.5395 20.1736C42.603 20.4204 42.0439 21.3795 42.2908 22.3157L43.7089 27.6964Z" fill="white"/>
</svg>
