<svg width="120" height="120" viewBox="0 0 120 120" fill="none" xmlns="http://www.w3.org/2000/svg">
<g clip-path="url(#clip0)">
<path d="M117.656 86.0634H111.61V19.958C111.61 16.0059 108.395 12.7908 104.443 12.7908H15.5573C11.6053 12.7908 8.39016 16.0059 8.39016 19.958V86.0634H2.34375C1.0493 86.0634 0 87.1127 0 88.4072V99.7634C0 103.869 3.34031 107.209 7.44609 107.209H112.554C116.66 107.209 120 103.869 120 99.7634V88.4072C120 87.1127 118.95 86.0634 117.656 86.0634ZM13.0777 19.958C13.0777 18.5906 14.19 17.4783 15.5573 17.4783H104.443C105.81 17.4783 106.922 18.5906 106.922 19.958V86.0634H79.6095C75.5527 86.0634 72.1261 88.8138 71.0972 92.5479H48.903C47.8737 88.8138 44.4473 86.0634 40.3905 86.0634H13.0777V19.958ZM115.312 99.7631C115.312 101.284 114.075 102.522 112.554 102.522H7.44609C5.925 102.522 4.6875 101.284 4.6875 99.7631V90.7507H40.3905C42.6738 90.7507 44.5312 92.6081 44.5312 94.8914C44.5312 96.1858 45.5805 97.2351 46.875 97.2351H73.125C74.4192 97.2351 75.4688 96.1858 75.4688 94.8914C75.4688 92.6081 77.3264 90.7507 79.6095 90.7507H115.312V99.7631Z" fill="white"/>
<path d="M43.8526 75.1855V51.5586C43.8526 50.2641 42.8034 49.2148 41.5089 49.2148H27.8652C26.5708 49.2148 25.5215 50.2641 25.5215 51.5586V75.1855C25.5215 76.4799 26.5708 77.5292 27.8652 77.5292H41.5089C42.8034 77.5292 43.8526 76.4799 43.8526 75.1855ZM39.1652 72.8417H30.209V53.9023H39.1652V72.8417Z" fill="white"/>
<path d="M53.1777 77.5292H66.8214C68.1156 77.5292 69.1651 76.4799 69.1651 75.1855V39.8398C69.1651 38.5454 68.1156 37.4961 66.8214 37.4961H53.1777C51.8833 37.4961 50.834 38.5454 50.834 39.8398V75.1855C50.834 76.4799 51.8833 77.5292 53.1777 77.5292ZM55.5215 42.1836H64.4776V72.8417H55.5215V42.1836Z" fill="white"/>
<path d="M78.4902 77.5291H92.1339C93.4281 77.5291 94.4777 76.4798 94.4777 75.1853V28.121C94.4777 26.8265 93.4281 25.7772 92.1339 25.7772H78.4902C77.196 25.7772 76.1465 26.8265 76.1465 28.121V75.1853C76.1465 76.4798 77.1958 77.5291 78.4902 77.5291ZM80.834 30.4647H89.7902V72.8416H80.834V30.4647Z" fill="#FF7152"/>
</g>
<defs>
<clipPath id="clip0">
<rect width="120" height="120" fill="white"/>
</clipPath>
</defs>
</svg>
