<svg width="120" height="120" viewBox="0 0 120 120" fill="none" xmlns="http://www.w3.org/2000/svg">
<path d="M97.4892 85.0872V71.1161C97.4892 69.8217 96.4397 68.7724 95.1455 68.7724H81.1826C80.8261 63.9541 76.793 60.1432 71.8868 60.1432C66.9806 60.1432 62.9477 63.9541 62.5913 68.7724H51.2365V55.5951C51.2365 54.3007 50.187 53.2514 48.8927 53.2514H47.2453C44.6904 53.2514 42.6115 51.1711 42.6115 48.614C42.6115 46.057 44.6902 43.9767 47.2453 43.9767H48.8927C50.187 43.9767 51.2365 42.9274 51.2365 41.6329V25.3439C51.2365 24.0494 50.1851 23.0001 48.8906 23.0001H2.37305C1.07883 23.0001 0.0292969 24.0494 0.0292969 25.3439V117.656C0.0292969 118.951 1.07883 120 2.37305 120H95.1455C96.4397 120 97.4892 118.951 97.4892 117.656V103.685C102.305 103.328 106.114 99.2936 106.114 94.3861C106.114 89.4785 102.305 85.4444 97.4892 85.0872ZM46.549 27.6879V39.3152C41.7328 39.6724 37.924 43.7067 37.924 48.6143C37.924 53.5218 41.7328 57.5561 46.549 57.9133V68.7726H32.6095C31.3153 68.7726 30.2658 69.8219 30.2658 71.1164V72.7647C30.2658 75.3218 28.1871 77.4021 25.632 77.4021C23.0768 77.4021 20.9981 75.3218 20.9981 72.7647V71.1164C20.9981 69.8219 19.9486 68.7726 18.6544 68.7726H4.7168V27.6879H46.549ZM4.7168 73.4599H16.3359C16.6924 78.2782 20.7255 82.0891 25.6317 82.0891C30.5379 82.0891 34.571 78.2782 34.9275 73.4599H46.5466V87.4052C46.5466 88.6997 47.5962 89.749 48.8904 89.749H50.5378C53.0927 89.749 55.1716 91.8293 55.1716 94.3863C55.1716 96.9433 53.093 99.0237 50.5378 99.0237H48.8904C47.5962 99.0237 46.5466 100.073 46.5466 101.367V115.312H4.7168V73.4599ZM96.7931 99.0234H95.1457C93.8515 99.0234 92.802 100.073 92.802 101.367V115.312H51.2344V103.685C56.0505 103.328 59.8594 99.2936 59.8594 94.3861C59.8594 89.4785 56.0505 85.4442 51.2344 85.087V73.4597H64.9095C66.2037 73.4597 67.2532 72.4104 67.2532 71.1159V69.4675C67.2532 66.9105 69.3319 64.8302 71.887 64.8302C74.4422 64.8302 76.5209 66.9105 76.5209 69.4675V71.1159C76.5209 72.4104 77.5704 73.4597 78.8646 73.4597H92.802V87.405C92.802 88.6994 93.8515 89.7487 95.1457 89.7487H96.7931C99.3483 89.7487 101.427 91.829 101.427 94.3861C101.427 96.9431 99.3483 99.0234 96.7931 99.0234Z" fill="white"/>
<path d="M117.629 0H71.1113C69.8171 0 68.7676 1.0493 68.7676 2.34375V16.3148C63.9514 16.672 60.1426 20.7063 60.1426 25.6139C60.1426 30.5215 63.9514 34.5558 68.7676 34.913V48.8862C68.7676 50.1806 69.8171 51.2299 71.1113 51.2299H87.3924C88.6866 51.2299 89.7362 50.1806 89.7362 48.8862V47.2378C89.7362 44.6808 91.8148 42.6005 94.37 42.6005C96.9252 42.6005 99.0038 44.6808 99.0038 47.2378V48.8862C99.0038 50.1806 100.053 51.2299 101.348 51.2299H117.629C118.923 51.2299 119.972 50.1785 119.972 48.8841V2.34375C119.973 1.0493 118.923 0 117.629 0ZM115.285 46.5424H103.666C103.31 41.7241 99.2764 37.9132 94.3702 37.9132C89.4641 37.9132 85.4309 41.7241 85.0744 46.5424H73.4553V32.595C73.4553 31.3005 72.4058 30.2513 71.1116 30.2513H69.4641C66.9092 30.2513 64.8303 28.1709 64.8303 25.6139C64.8303 23.0569 66.909 20.9766 69.4639 20.9766H71.1113C72.4055 20.9766 73.4551 19.9273 73.4551 18.6328V4.6875H115.285V46.5424Z" fill="#FF7152"/>
</svg>
