<svg width="120" height="120" viewBox="0 0 120 120" fill="none" xmlns="http://www.w3.org/2000/svg">
<path d="M69.375 86.25C69.375 84.3958 68.8252 82.5832 67.795 81.0415C66.7649 79.4998 65.3007 78.2982 63.5877 77.5886C61.8746 76.8791 59.9896 76.6934 58.171 77.0551C56.3525 77.4169 54.682 78.3098 53.3709 79.6209C52.0598 80.932 51.1669 82.6025 50.8051 84.421C50.4434 86.2396 50.6291 88.1246 51.3386 89.8377C52.0482 91.5507 53.2498 93.0149 54.7915 94.045C56.3332 95.0752 58.1458 95.625 60 95.625C62.4855 95.6222 64.8685 94.6336 66.626 92.8761C68.3836 91.1185 69.3722 88.7356 69.375 86.25ZM60 91.875C58.8875 91.875 57.7999 91.5451 56.8749 90.927C55.9499 90.3089 55.2289 89.4304 54.8032 88.4026C54.3774 87.3748 54.266 86.2438 54.4831 85.1526C54.7001 84.0615 55.2359 83.0592 56.0225 82.2725C56.8092 81.4859 57.8115 80.9501 58.9026 80.7331C59.9938 80.516 61.1248 80.6274 62.1526 81.0532C63.1804 81.4789 64.0589 82.1999 64.677 83.1249C65.2951 84.05 65.625 85.1375 65.625 86.25C65.6233 87.7413 65.0301 89.1711 63.9756 90.2256C62.921 91.2801 61.4913 91.8733 60 91.875Z" fill="white"/>
<path d="M67.9688 95.625H52.0312C49.67 95.6277 47.4062 96.5669 45.7365 98.2365C44.0669 99.9062 43.1277 102.17 43.125 104.531V116.25C43.125 116.747 43.3225 117.224 43.6742 117.576C44.0258 117.927 44.5027 118.125 45 118.125H75C75.4973 118.125 75.9742 117.927 76.3258 117.576C76.6775 117.224 76.875 116.747 76.875 116.25V104.531C76.8723 102.17 75.9331 99.9062 74.2635 98.2365C72.5938 96.5669 70.33 95.6277 67.9688 95.625ZM73.125 114.375H69.375V106.875C69.375 106.378 69.1775 105.901 68.8258 105.549C68.4742 105.198 67.9973 105 67.5 105C67.0027 105 66.5258 105.198 66.1742 105.549C65.8225 105.901 65.625 106.378 65.625 106.875V114.375H54.375V106.875C54.375 106.378 54.1775 105.901 53.8258 105.549C53.4742 105.198 52.9973 105 52.5 105C52.0027 105 51.5258 105.198 51.1742 105.549C50.8225 105.901 50.625 106.378 50.625 106.875V114.375H46.875V104.531C46.8766 103.164 47.4203 101.854 48.3869 100.887C49.3536 99.9203 50.6642 99.3766 52.0312 99.375H67.9688C69.3358 99.3766 70.6464 99.9203 71.6131 100.887C72.5797 101.854 73.1234 103.164 73.125 104.531V114.375Z" fill="white"/>
<path d="M69.375 11.25C69.375 9.3958 68.8252 7.58324 67.795 6.04153C66.7649 4.49982 65.3007 3.29821 63.5877 2.58863C61.8746 1.87906 59.9896 1.69341 58.171 2.05514C56.3525 2.41688 54.682 3.30976 53.3709 4.62088C52.0598 5.932 51.1669 7.60246 50.8051 9.42103C50.4434 11.2396 50.6291 13.1246 51.3386 14.8377C52.0482 16.5507 53.2498 18.0149 54.7915 19.045C56.3332 20.0752 58.1458 20.625 60 20.625C62.4855 20.6222 64.8685 19.6336 66.626 17.876C68.3836 16.1185 69.3722 13.7356 69.375 11.25ZM60 16.875C58.8875 16.875 57.7999 16.5451 56.8749 15.927C55.9499 15.3089 55.2289 14.4304 54.8032 13.4026C54.3774 12.3748 54.266 11.2438 54.4831 10.1526C54.7001 9.06148 55.2359 8.0592 56.0225 7.27253C56.8092 6.48586 57.8115 5.95013 58.9026 5.73309C59.9938 5.51604 61.1248 5.62744 62.1526 6.05318C63.1804 6.47892 64.0589 7.19989 64.677 8.12492C65.2951 9.04995 65.625 10.1375 65.625 11.25C65.6233 12.7413 65.0301 14.171 63.9756 15.2256C62.921 16.2801 61.4913 16.8733 60 16.875Z" fill="white"/>
<path d="M67.9688 20.625H52.0312C49.67 20.6277 47.4062 21.5669 45.7365 23.2365C44.0669 24.9062 43.1277 27.17 43.125 29.5312V41.25C43.125 41.7473 43.3225 42.2242 43.6742 42.5758C44.0258 42.9275 44.5027 43.125 45 43.125H75C75.4973 43.125 75.9742 42.9275 76.3258 42.5758C76.6775 42.2242 76.875 41.7473 76.875 41.25V29.5312C76.8723 27.17 75.9331 24.9062 74.2635 23.2365C72.5938 21.5669 70.33 20.6277 67.9688 20.625ZM73.125 39.375H69.375V31.875C69.375 31.3777 69.1775 30.9008 68.8258 30.5492C68.4742 30.1975 67.9973 30 67.5 30C67.0027 30 66.5258 30.1975 66.1742 30.5492C65.8225 30.9008 65.625 31.3777 65.625 31.875V39.375H54.375V31.875C54.375 31.3777 54.1775 30.9008 53.8258 30.5492C53.4742 30.1975 52.9973 30 52.5 30C52.0027 30 51.5258 30.1975 51.1742 30.5492C50.8225 30.9008 50.625 31.3777 50.625 31.875V39.375H46.875V29.5312C46.8766 28.1642 47.4203 26.8536 48.3869 25.8869C49.3536 24.9203 50.6642 24.3766 52.0312 24.375H67.9688C69.3358 24.3766 70.6464 24.9203 71.6131 25.8869C72.5797 26.8536 73.1234 28.1642 73.125 29.5312V39.375Z" fill="white"/>
<path d="M28.125 48.75C28.125 46.8958 27.5752 45.0832 26.545 43.5415C25.5149 41.9998 24.0507 40.7982 22.3377 40.0886C20.6246 39.3791 18.7396 39.1934 16.921 39.5551C15.1025 39.9169 13.432 40.8098 12.1209 42.1209C10.8098 43.432 9.91688 45.1025 9.55514 46.921C9.19341 48.7396 9.37906 50.6246 10.0886 52.3377C10.7982 54.0507 11.9998 55.5149 13.5415 56.545C15.0832 57.5752 16.8958 58.125 18.75 58.125C21.2356 58.1222 23.6185 57.1336 25.376 55.376C27.1336 53.6185 28.1222 51.2355 28.125 48.75ZM18.75 54.375C17.6375 54.375 16.5499 54.0451 15.6249 53.427C14.6999 52.8089 13.9789 51.9304 13.5532 50.9026C13.1274 49.8748 13.016 48.7438 13.2331 47.6526C13.4501 46.5615 13.9859 45.5592 14.7725 44.7725C15.5592 43.9859 16.5615 43.4501 17.6526 43.2331C18.7438 43.016 19.8748 43.1274 20.9026 43.5532C21.9304 43.9789 22.8089 44.6999 23.427 45.6249C24.0451 46.5499 24.375 47.6375 24.375 48.75C24.3733 50.2413 23.7801 51.671 22.7256 52.7256C21.671 53.7801 20.2413 54.3733 18.75 54.375Z" fill="white"/>
<path d="M33.75 80.625C34.2473 80.625 34.7242 80.4275 35.0758 80.0758C35.4275 79.7242 35.625 79.2473 35.625 78.75V67.0313C35.6223 64.67 34.6831 62.4062 33.0135 60.7365C31.3438 59.0669 29.08 58.1277 26.7188 58.125H10.7812C8.41998 58.1277 6.15619 59.0669 4.48653 60.7365C2.81686 62.4062 1.87767 64.67 1.875 67.0313V78.75C1.875 79.2473 2.07254 79.7242 2.42417 80.0758C2.77581 80.4275 3.25272 80.625 3.75 80.625H33.75ZM5.625 67.0313C5.62655 65.6642 6.17029 64.3536 7.13694 63.3869C8.10359 62.4203 9.4142 61.8766 10.7812 61.875H26.7188C28.0858 61.8766 29.3964 62.4203 30.3631 63.3869C31.3297 64.3536 31.8734 65.6642 31.875 67.0313V76.875H28.125V69.375C28.125 68.8777 27.9275 68.4008 27.5758 68.0492C27.2242 67.6975 26.7473 67.5 26.25 67.5C25.7527 67.5 25.2758 67.6975 24.9242 68.0492C24.5725 68.4008 24.375 68.8777 24.375 69.375V76.875H13.125V69.375C13.125 68.8777 12.9275 68.4008 12.5758 68.0492C12.2242 67.6975 11.7473 67.5 11.25 67.5C10.7527 67.5 10.2758 67.6975 9.92418 68.0492C9.57254 68.4008 9.375 68.8777 9.375 69.375V76.875H5.625V67.0313Z" fill="white"/>
<path d="M110.625 48.75C110.625 46.8958 110.075 45.0832 109.045 43.5415C108.015 41.9998 106.551 40.7982 104.838 40.0886C103.125 39.3791 101.24 39.1934 99.421 39.5551C97.6025 39.9169 95.932 40.8098 94.6209 42.1209C93.3098 43.432 92.4169 45.1025 92.0551 46.921C91.6934 48.7396 91.8791 50.6246 92.5886 52.3377C93.2982 54.0507 94.4998 55.5149 96.0415 56.545C97.5832 57.5752 99.3958 58.125 101.25 58.125C103.736 58.1222 106.119 57.1336 107.876 55.376C109.634 53.6185 110.622 51.2355 110.625 48.75ZM101.25 54.375C100.137 54.375 99.05 54.0451 98.1249 53.427C97.1999 52.8089 96.4789 51.9304 96.0532 50.9026C95.6274 49.8748 95.516 48.7438 95.7331 47.6526C95.9501 46.5615 96.4859 45.5592 97.2725 44.7725C98.0592 43.9859 99.0615 43.4501 100.153 43.2331C101.244 43.016 102.375 43.1274 103.403 43.5532C104.43 43.9789 105.309 44.6999 105.927 45.6249C106.545 46.5499 106.875 47.6375 106.875 48.75C106.873 50.2413 106.28 51.671 105.226 52.7256C104.171 53.7801 102.741 54.3733 101.25 54.375Z" fill="white"/>
<path d="M109.219 58.125H93.2812C90.92 58.1277 88.6562 59.0669 86.9865 60.7365C85.3169 62.4062 84.3777 64.67 84.375 67.0313V78.75C84.375 79.2473 84.5725 79.7242 84.9242 80.0758C85.2758 80.4275 85.7527 80.625 86.25 80.625H116.25C116.747 80.625 117.224 80.4275 117.576 80.0758C117.927 79.7242 118.125 79.2473 118.125 78.75V67.0313C118.122 64.67 117.183 62.4062 115.513 60.7365C113.844 59.0669 111.58 58.1277 109.219 58.125ZM114.375 76.875H110.625V69.375C110.625 68.8777 110.427 68.4008 110.076 68.0492C109.724 67.6975 109.247 67.5 108.75 67.5C108.253 67.5 107.776 67.6975 107.424 68.0492C107.073 68.4008 106.875 68.8777 106.875 69.375V76.875H95.625V69.375C95.625 68.8777 95.4275 68.4008 95.0758 68.0492C94.7242 67.6975 94.2473 67.5 93.75 67.5C93.2527 67.5 92.7758 67.6975 92.4242 68.0492C92.0725 68.4008 91.875 68.8777 91.875 69.375V76.875H88.125V67.0313C88.1266 65.6642 88.6703 64.3536 89.6369 63.3869C90.6036 62.4203 91.9142 61.8766 93.2812 61.875H109.219C110.586 61.8766 111.896 62.4203 112.863 63.3869C113.83 64.3536 114.373 65.6642 114.375 67.0313V76.875Z" fill="white"/>
<path d="M36.6023 98.4461C31.712 95.468 27.4348 91.5843 23.9999 87.0033C23.852 86.8063 23.6668 86.6405 23.4548 86.5151C23.2428 86.3898 23.0082 86.3075 22.7643 86.2728C22.5205 86.2382 22.2722 86.2519 22.0337 86.3131C21.7952 86.3744 21.571 86.4821 21.3741 86.63C21.1772 86.7779 21.0113 86.9632 20.886 87.1752C20.7607 87.3872 20.6783 87.6218 20.6437 87.8656C20.609 88.1095 20.6227 88.3577 20.684 88.5963C20.7453 88.8348 20.853 89.0589 21.0009 89.2558C24.7207 94.2168 29.3527 98.4225 34.6485 101.648C35.0731 101.907 35.5831 101.986 36.0664 101.869C36.5498 101.752 36.9668 101.448 37.2257 101.023C37.4847 100.599 37.5644 100.089 37.4473 99.6054C37.3302 99.1221 37.0259 98.7051 36.6013 98.4461H36.6023Z" fill="white"/>
<path d="M98.6293 86.625C98.2317 86.3264 97.7318 86.198 97.2396 86.2679C96.7473 86.3378 96.303 86.6004 96.0043 86.9979C92.5689 91.5809 88.2905 95.4662 83.3987 98.4453C82.9741 98.7042 82.6698 99.1212 82.5527 99.6046C82.4356 100.088 82.5153 100.598 82.7743 101.022C83.0332 101.447 83.4503 101.751 83.9336 101.868C84.4169 101.985 84.9269 101.906 85.3515 101.647C90.649 98.4206 95.2822 94.2132 99.0027 89.2503C99.1505 89.0534 99.2581 88.8293 99.3194 88.5908C99.3807 88.3523 99.3943 88.1041 99.3597 87.8603C99.325 87.6166 99.2427 87.382 99.1173 87.17C98.992 86.9581 98.8262 86.7729 98.6293 86.625Z" fill="white"/>
<path d="M76.199 18.0033C84.0759 21.0471 90.9386 26.2441 96.0036 33.0012C96.3023 33.3988 96.7467 33.6614 97.2391 33.7314C97.7314 33.8013 98.2314 33.6728 98.629 33.3742C99.0266 33.0755 99.2893 32.6311 99.3592 32.1387C99.4292 31.6464 99.3007 31.1464 99.002 30.7488C93.5152 23.4304 86.0817 17.8018 77.5497 14.5052C77.3192 14.4128 77.0727 14.367 76.8244 14.3706C76.5762 14.3742 76.3311 14.4271 76.1034 14.5261C75.8758 14.6252 75.67 14.7685 75.4982 14.9477C75.3264 15.1269 75.1918 15.3385 75.1024 15.5701C75.013 15.8018 74.9704 16.0488 74.9773 16.297C74.9841 16.5452 75.0402 16.7896 75.1422 17.016C75.2442 17.2423 75.3902 17.4461 75.5717 17.6156C75.7531 17.7851 75.9664 17.9169 76.1992 18.0033H76.199Z" fill="white"/>
<path d="M21.3699 33.375C21.7675 33.6736 22.2674 33.802 22.7596 33.7321C23.2519 33.6622 23.6962 33.3996 23.9949 33.0021C29.06 26.2451 35.9226 21.0481 43.7996 18.0042C44.0324 17.9178 44.2457 17.786 44.4271 17.6166C44.6086 17.4471 44.7545 17.2432 44.8566 17.0169C44.9586 16.7905 45.0147 16.5461 45.0215 16.298C45.0283 16.0498 44.9858 15.8027 44.8964 15.571C44.807 15.3394 44.6724 15.1279 44.5006 14.9486C44.3288 14.7694 44.123 14.6261 43.8954 14.5271C43.6677 14.428 43.4226 14.3751 43.1743 14.3715C42.9261 14.3679 42.6796 14.4137 42.4491 14.5061C33.9171 17.8028 26.4835 23.4315 20.9968 30.75C20.6982 31.1476 20.5698 31.6475 20.6398 32.1397C20.7097 32.632 20.9724 33.0763 21.3699 33.375Z" fill="white"/>
<path d="M60 67.5C61.4834 67.5 62.9334 67.0602 64.1668 66.236C65.4002 65.4119 66.3615 64.2406 66.9291 62.8701C67.4968 61.4997 67.6453 59.9917 67.3559 58.5368C67.0665 57.082 66.3522 55.7456 65.3033 54.6967C64.2544 53.6478 62.918 52.9335 61.4632 52.6441C60.0083 52.3547 58.5003 52.5032 57.1299 53.0709C55.7594 53.6386 54.5881 54.5999 53.764 55.8332C52.9399 57.0666 52.5 58.5167 52.5 60C52.5022 61.9885 53.2931 63.8948 54.6992 65.3008C56.1052 66.7069 58.0116 67.4978 60 67.5ZM60 56.25C60.7417 56.25 61.4667 56.4699 62.0834 56.882C62.7001 57.2941 63.1807 57.8797 63.4646 58.5649C63.7484 59.2502 63.8226 60.0042 63.678 60.7316C63.5333 61.459 63.1761 62.1272 62.6517 62.6517C62.1272 63.1761 61.459 63.5333 60.7316 63.678C60.0042 63.8227 59.2502 63.7484 58.5649 63.4646C57.8797 63.1807 57.294 62.7001 56.882 62.0834C56.4699 61.4667 56.25 60.7417 56.25 60C56.2512 59.0058 56.6466 58.0527 57.3497 57.3497C58.0527 56.6467 59.0058 56.2512 60 56.25Z" fill="#FF7152"/>
</svg>
