<svg width="88" height="88" viewBox="0 0 88 88" fill="none" xmlns="http://www.w3.org/2000/svg">
<g clip-path="url(#clip0)">
<path d="M68.612 22.319C67.3977 9.8096 56.8231 0 44.0002 0C31.1778 0 20.6039 9.80977 19.3884 22.319C11.1783 23.4869 4.8457 30.563 4.8457 39.0904C4.8457 48.4315 12.4453 56.0309 21.7862 56.0309H41.4219V37.162L38.0107 40.5732C37.004 41.5798 35.3716 41.5798 34.3647 40.5732C33.3579 39.5665 33.3579 37.934 34.3647 36.9272L42.1773 29.1146C43.184 28.1079 44.8166 28.1079 45.8233 29.1146L53.636 36.9272C54.6429 37.9338 54.6429 39.5663 53.636 40.5732C53.1324 41.0766 52.4728 41.3284 51.813 41.3284C51.1531 41.3284 50.4933 41.0766 49.9901 40.5732L46.5782 37.1613V56.0311H66.214C75.5551 56.0311 83.1545 48.4315 83.1545 39.0906C83.1545 30.563 76.822 23.4869 68.612 22.319Z" fill="white"/>
<path d="M50.7492 61.1873H37.25C37.2813 64.8834 40.2965 67.8809 43.9995 67.8809C47.7029 67.8809 50.7181 64.8834 50.7492 61.1873Z" fill="#FF7152"/>
<path d="M44.0005 72.7794C37.5408 72.7794 32.2695 67.6073 32.1015 61.1873H13.6484C13.7595 62.1891 13.9116 63.1853 14.112 64.1688C14.3567 65.3697 15.4127 66.2323 16.6382 66.2323H21.3005C21.4354 66.5797 21.5782 66.9238 21.729 67.2646L18.4314 70.5622C17.5646 71.4288 17.4278 72.7859 18.1045 73.808C19.3473 75.686 20.7881 77.4489 22.3873 79.048C23.9881 80.6487 25.751 82.0897 27.6277 83.3308C28.6493 84.0073 30.0063 83.87 30.8729 83.0035L34.1703 79.7061C34.5111 79.8569 34.8554 79.9999 35.2031 80.1348V84.7969C35.2031 86.0224 36.0658 87.0784 37.2665 87.3231C39.4711 87.7722 41.7368 88.0001 44.0005 88.0001C46.2641 88.0001 48.5298 87.7724 50.7346 87.3231C51.9357 87.0784 52.7983 86.0224 52.7983 84.7969L52.7981 80.1348C53.1457 79.9999 53.4899 79.8569 53.8308 79.7063L57.1275 83.003C57.9939 83.8693 59.3505 84.0063 60.3725 83.3306C62.2485 82.09 64.0119 80.6489 65.6136 79.0472C67.2143 77.4465 68.655 75.6836 69.8963 73.8072C70.5724 72.7852 70.4356 71.4284 69.569 70.5618L66.2721 67.2649C66.4228 66.9243 66.5658 66.5798 66.7008 66.2321H71.362C72.5875 66.2321 73.6435 65.3695 73.8882 64.1686C74.0886 63.1851 74.2409 62.1891 74.3519 61.1873H55.8998C55.7319 67.6075 50.4606 72.7794 44.0005 72.7794Z" fill="#FF7152"/>
</g>
<defs>
<clipPath id="clip0">
<rect width="88" height="88" fill="white"/>
</clipPath>
</defs>
</svg>
