<svg width="88" height="88" viewBox="0 0 88 88" fill="none" xmlns="http://www.w3.org/2000/svg">
<g clip-path="url(#clip0)">
<path d="M60 88C75.464 88 88 75.464 88 60C88 44.536 75.464 32 60 32C44.536 32 32 44.536 32 60C32 75.464 44.536 88 60 88Z" fill="#F7931A"/>
<path d="M72.5794 56.535C73.1289 52.867 70.3342 50.8947 66.5157 49.5787L67.7547 44.6087L64.7307 43.8563L63.5232 48.695C62.7287 48.4955 61.9132 48.31 61.0994 48.1245L62.3157 43.2543L59.2917 42.5L58.0527 47.4682C57.3947 47.3177 56.7472 47.1708 56.1207 47.0133L56.1242 46.9975L51.9522 45.9562L51.1472 49.1867C51.1472 49.1867 53.3924 49.7013 53.3452 49.7327C54.5702 50.039 54.7907 50.8492 54.7539 51.4932L53.3434 57.1545C53.4274 57.1755 53.5359 57.207 53.6584 57.2542L53.3382 57.1755L51.3607 65.1065C51.2102 65.4775 50.8304 66.0357 49.9729 65.824C50.0044 65.8677 47.7749 65.2762 47.7749 65.2762L46.2734 68.7377L50.2109 69.7195C50.9424 69.9032 51.6599 70.0957 52.3652 70.276L51.1139 75.302L54.1362 76.0545L55.3752 71.0845C56.2012 71.3067 57.0027 71.5132 57.7867 71.7092L56.5512 76.6582L59.5752 77.4107L60.8264 72.3952C65.9854 73.3717 69.8634 72.978 71.4962 68.3125C72.8122 64.557 71.4314 62.3888 68.7172 60.9765C70.6947 60.5215 72.1822 59.2213 72.5794 56.535ZM65.6669 66.2265C64.7342 69.9837 58.4079 67.952 56.3569 67.4427L58.0194 60.784C60.0704 61.2967 66.6452 62.31 65.6669 66.2265ZM66.6032 56.4808C65.7509 59.8985 60.4869 58.1607 58.7807 57.7355L60.2857 51.698C61.9919 52.1232 67.4922 52.916 66.6032 56.4808Z" fill="white"/>
<circle cx="32" cy="32" r="32" fill="#FF7152"/>
<path fill-rule="evenodd" clip-rule="evenodd" d="M19.7918 23.0416C21.2845 21.066 23.2401 19.4878 25.4862 18.4459C27.7324 17.4039 30.2003 16.9302 32.6726 17.0665C35.145 17.2028 37.5459 17.9449 39.6639 19.2274C41.782 20.5099 43.5522 22.2935 44.8187 24.4212L45.9126 23.8134L47.7359 22.7438C46.1002 19.992 43.7771 17.7127 40.9946 16.1297C38.2122 14.5467 35.0659 13.7143 31.8646 13.7143C28.6634 13.7143 25.5171 14.5467 22.7346 16.1297C19.9522 17.7127 17.6291 19.992 15.9934 22.7438L15.0879 24.1659L16.5343 25.0228L22.1316 28.3472C21.2161 30.6497 21.1524 33.2034 21.9519 35.5487C22.7514 37.8941 24.3617 39.8771 26.4931 41.1409C28.6244 42.4048 31.1368 42.8665 33.5782 42.443C36.0196 42.0195 38.2297 40.7386 39.8109 38.8308L43.8888 41.2617C42.3958 43.239 40.439 44.8185 38.1912 45.8606C35.9433 46.9028 33.4735 47.3757 30.9997 47.2375C28.5258 47.0994 26.124 46.3545 24.0062 45.0686C21.8883 43.7826 20.1195 41.9952 18.8559 39.8639L15.9691 41.5717C17.6048 44.3235 19.9279 46.6028 22.7103 48.1858C25.4928 49.7688 28.6391 50.6012 31.8403 50.6012C35.0416 50.6012 38.1878 49.7688 40.9703 48.1858C43.7528 46.6028 46.0759 44.3235 47.7115 41.5717L48.5745 40.1253L47.1281 39.2684L42.5336 36.5396L38.5711 34.2545C38.0887 35.79 37.0954 37.1143 35.7563 38.0072C34.4171 38.9001 32.8128 39.3079 31.2098 39.1628C29.6068 39.0177 28.1018 38.3284 26.9447 37.2096C25.7877 36.0907 25.0483 34.6097 24.8495 33.0125C24.6507 31.4153 25.0044 29.7981 25.8518 28.4298C26.6993 27.0614 27.9894 26.0242 29.5079 25.4906C31.0264 24.9569 32.6818 24.959 34.199 25.4963C35.7161 26.0337 37.0038 27.074 37.8479 28.4444L40.759 26.7671C39.9038 25.3487 38.7223 24.1549 37.3128 23.2851C35.9033 22.4153 34.3065 21.8945 32.6552 21.7661C31.0039 21.6377 29.3458 21.9054 27.8188 22.5469C26.2918 23.1884 24.94 24.1852 23.8759 25.4543L19.7918 23.0416Z" fill="white"/>
</g>
<defs>
<clipPath id="clip0">
<rect width="88" height="88" fill="white"/>
</clipPath>
</defs>
</svg>
