<svg width="88" height="88" viewBox="0 0 88 88" fill="none" xmlns="http://www.w3.org/2000/svg">
<line x1="36.0996" y1="-2.18557e-07" x2="36.0996" y2="88" stroke="#FF7152" stroke-width="10"/>
<line x1="55.0996" y1="-2.18557e-07" x2="55.0996" y2="88" stroke="#FF7152" stroke-width="10"/>
<path d="M42.6884 84C60.1158 84 71.5455 74.7138 71.5455 62.1829C71.5455 48.8689 63.8503 43.7223 48.4598 37.4569C38.0487 33.2053 32.9562 31.0796 32.9562 24.3666C32.9562 18.7725 38.5013 15.7517 46.8755 15.6398C55.1366 15.6398 62.6054 18.7725 67.132 22.9122V9.8219C61.5869 6.12978 55.1366 3.89213 48.0072 4.00401C31.8246 4.00401 20.2818 12.3952 20.2818 24.3666C20.2818 37.6806 27.7507 42.9391 42.9148 49.2045C53.3259 53.4561 58.871 56.2531 58.871 62.071C58.871 68.2246 54.4576 72.4761 42.6884 72.4761C33.5221 72.4761 23.9031 69.0077 17 63.6374V76.1682C21.4134 79.9722 30.014 84 42.6884 84Z" fill="white"/>
</svg>
