<svg width="88" height="88" viewBox="0 0 88 88" fill="none" xmlns="http://www.w3.org/2000/svg">
<g clip-path="url(#clip0)">
<path d="M7.33398 53.1666H41.2507V87.9999H13.7507C10.2307 87.9999 7.33398 85.1033 7.33398 81.5833V53.1666Z" fill="white"/>
<path d="M80.6667 53.1666V81.5833C80.6667 85.1033 77.77 87.9999 74.25 87.9999H46.75V53.1666H80.6667Z" fill="white"/>
<path d="M43.999 29.4947C43.1997 29.4947 42.437 29.1464 41.92 28.5414C41.3957 27.9364 41.1647 27.1334 41.2783 26.3414C42.635 17.1747 49.796 -0.164978 67.2053 -0.164978C77.142 -0.161311 80.6657 5.20669 80.6657 9.80469C80.6657 17.9777 69.288 29.4947 43.999 29.4947ZM67.2053 5.33869C54.0713 5.33869 49.0847 17.8237 47.431 23.914C57.793 23.43 64.327 20.8084 68.089 18.5754C73.3067 15.477 75.1657 12.012 75.1657 9.80102C75.1657 6.50836 71.0553 5.33869 67.2053 5.33869Z" fill="#FF7152"/>
<path d="M44.0045 29.4946C18.7156 29.4946 7.33789 17.9776 7.33789 9.80462C7.33789 5.20662 10.8652 -0.161377 20.8019 -0.161377C38.2075 -0.161377 45.3685 17.1783 46.7252 26.345C46.8389 27.137 46.6079 27.94 46.0835 28.545C45.5665 29.1463 44.8039 29.4946 44.0045 29.4946ZM20.8019 5.33862C16.9519 5.33862 12.8379 6.51196 12.8379 9.80462C12.8379 14.487 21.0256 23.0193 40.5689 23.9176C38.9189 17.8236 33.9322 5.33862 20.8019 5.33862Z" fill="#FF7152"/>
<path d="M0 32.0833V41.25C0 44.77 2.89667 47.6666 6.41667 47.6666H7.33333H41.25V42.1666V25.6666H6.41667C2.89667 25.6666 0 28.5633 0 32.0833Z" fill="#FF7152"/>
<path d="M81.5833 25.6666H46.75V42.1666V47.6666H80.6667H81.5833C85.1033 47.6666 88 44.77 88 41.25V32.0833C88 28.5633 85.1033 25.6666 81.5833 25.6666Z" fill="#FF7152"/>
</g>
<defs>
<clipPath id="clip0">
<rect width="88" height="88" fill="white"/>
</clipPath>
</defs>
</svg>
