<svg width="88" height="88" viewBox="0 0 88 88" fill="none" xmlns="http://www.w3.org/2000/svg">
<path d="M28.5312 56.8906V88H59.4688V56.8906H51.7344V67.2031H36.2656V56.8906H28.5312Z" fill="#FF7152"/>
<path d="M41.4219 56.8906H46.5781V62.0469H41.4219V56.8906Z" fill="#FF7152"/>
<path d="M77.5156 33.6875C77.5156 15.2075 62.48 0 44 0C25.52 0 10.4844 15.2075 10.4844 33.6875V37.2199L22.9243 51.7344H29.7162L15.7137 35.397C16.1265 32.9649 18.249 31.1094 20.7969 31.1094C23.6393 31.1094 25.9531 33.4232 25.9531 36.2656H31.1094C31.1094 33.4232 33.4232 31.1094 36.2656 31.1094C39.1081 31.1094 41.4219 33.4232 41.4219 36.2656H46.5781C46.5781 33.4232 48.8919 31.1094 51.7344 31.1094C54.5768 31.1094 56.8906 33.4232 56.8906 36.2656H62.0469C62.0469 33.4232 64.3607 31.1094 67.2031 31.1094C69.751 31.1094 71.8735 32.9649 72.2863 35.397L58.2838 51.7344H65.0757L77.5156 37.2199V33.6875Z" fill="white"/>
</svg>
