<svg width="88" height="88" viewBox="0 0 88 88" fill="none" xmlns="http://www.w3.org/2000/svg">
<g clip-path="url(#clip0)">
<path d="M59.4688 10.3123C49.5177 10.3123 41.4219 18.408 41.4219 28.3588C41.4219 38.3097 49.5177 46.4054 59.4688 46.4054C69.4198 46.4054 77.5156 38.3097 77.5156 28.3588C77.5156 18.408 69.4198 10.3123 59.4688 10.3123ZM62.8203 33.5063C62.8203 34.9301 61.666 36.0845 60.2422 36.0845C58.8184 36.0845 57.6641 34.9301 57.6641 33.5063V26.6492C57.6469 26.6435 55.8188 26.687 55.2183 24.8858C54.768 23.535 55.4981 22.0749 56.8489 21.6246L59.427 20.7652C61.0962 20.2094 62.8205 21.4536 62.8205 23.211V33.5063H62.8203Z" fill="#FF7152"/>
<path d="M59.4766 7.91467C60.9004 7.91467 62.0547 6.76036 62.0547 5.33655V2.57812C62.0547 1.15431 60.9004 0 59.4766 0C58.0527 0 56.8984 1.15431 56.8984 2.57812V5.33655C56.8984 6.76036 58.0527 7.91467 59.4766 7.91467Z" fill="#FF7152"/>
<path d="M41.1257 13.9911C42.1323 14.9978 43.7648 14.998 44.7716 13.9911C45.7785 12.9843 45.7785 11.352 44.7716 10.3453L42.821 8.39472C41.8144 7.38788 40.1819 7.38788 39.1751 8.39472C38.1682 9.40156 38.1682 11.0339 39.1751 12.0405L41.1257 13.9911Z" fill="#FF7152"/>
<path d="M77.7937 43.4138C76.787 42.4069 75.1546 42.4069 74.1477 43.4138C73.1409 44.4206 73.1409 46.0529 74.1477 47.0596L76.0983 49.0102C77.105 50.0168 78.7375 50.017 79.7443 49.0102C80.7512 48.0033 80.7512 46.371 79.7443 45.3644L77.7937 43.4138Z" fill="#FF7152"/>
<path d="M85.4227 26.1417H82.6641C81.2402 26.1417 80.0859 27.296 80.0859 28.7198C80.0859 30.1436 81.2402 31.2979 82.6641 31.2979H85.4227C86.8465 31.2979 88.0008 30.1436 88.0008 28.7198C88.0008 27.296 86.8465 26.1417 85.4227 26.1417Z" fill="#FF7152"/>
<path d="M77.8171 14.0154L79.7678 12.0648C80.7746 11.0579 80.7746 9.42562 79.7678 8.41895C78.7611 7.41211 77.1286 7.41211 76.1218 8.41895L74.1712 10.3696C73.1643 11.3764 73.1643 13.0087 74.1712 14.0154C75.1778 15.022 76.8105 15.0222 77.8171 14.0154Z" fill="#FF7152"/>
<path d="M45.1158 46.5771H12.1945C10.7707 46.5771 9.61641 45.4228 9.61641 43.999C9.61641 42.5752 10.7707 41.4209 12.1945 41.4209H40.3019C37.2405 36.943 35.8509 31.5681 36.3736 26.1243H12.8906C5.78273 26.1243 0 31.9069 0 39.0146V59.9828C0 66.2654 4.51808 71.5127 10.4758 72.6463V85.4197C10.4758 87.707 13.2333 88.8499 14.8564 87.263L29.5737 72.8731H49.1477C56.2556 72.8731 62.0383 67.0906 62.0383 59.9828V51.4181C55.9353 52.0938 49.901 50.3547 45.1158 46.5771ZM46.5695 56.8893H12.1945C10.7707 56.8893 9.61641 55.735 9.61641 54.3111C9.61641 52.8873 10.7707 51.733 12.1945 51.733H46.5695C47.9933 51.733 49.1477 52.8873 49.1477 54.3111C49.1477 55.7351 47.9933 56.8893 46.5695 56.8893Z" fill="white"/>
</g>
<defs>
<clipPath id="clip0">
<rect width="88" height="88" fill="white"/>
</clipPath>
</defs>
</svg>
